<svg xmlns="http://www.w3.org/2000/svg" xmlns:xlink="http://www.w3.org/1999/xlink" viewBox="0 0 1920 1080"><defs><clipPath id="clip-path"><rect width="1920" height="1080" style="fill:none"/></clipPath><clipPath id="clip-path-2"><rect x="2020" width="1920" height="1080" style="fill:none"/></clipPath></defs><title>title-slide</title><g id="title-slide"><g id="background"><g style="clip-path:url(#clip-path)"><path d="M586.68,1120.0708a1.4725,1.4725,0,1,1-1.2356,1.6677A1.4791,1.4791,0,0,1,586.68,1120.0708Zm50.2538-5.9347a3.077,3.077,0,1,0,2.59-3.4936A3.08,3.08,0,0,0,636.9341,1114.1361Zm207.4105-30.6233a8.0318,8.0318,0,1,0,6.7723-9.1309A8.0315,8.0315,0,0,0,844.3446,1083.5128Zm211.1218-31.1786a9.2408,9.2408,0,1,0,7.7991-10.4857A9.2275,9.2275,0,0,0,1055.4664,1052.3342Zm53.4784-7.8956a8.8388,8.8388,0,1,0,7.447-10.0289A8.839,8.839,0,0,0,1108.9448,1044.4386Zm216.1576-31.918a4.9573,4.9573,0,1,0,4.1726-5.6176A4.96,4.96,0,0,0,1325.1024,1012.5206Zm54.5356-8.0441a3.4829,3.4829,0,1,0,2.9319-3.9651A3.49,3.49,0,0,0,1379.638,1004.4765Zm-828.5707,68.0943a1.4694,1.4694,0,1,0,1.2407-1.6774A1.4771,1.4771,0,0,0,551.0673,1072.5708Zm51.4843-7.6075a3.0817,3.0817,0,1,0,2.5951-3.4936A3.0906,3.0906,0,0,0,602.5516,1064.9633ZM809.9672,1034.34a8.034,8.034,0,1,0,6.7723-9.1208A8.0317,8.0317,0,0,0,809.9672,1034.34Zm211.1218-31.169a9.2437,9.2437,0,1,0,7.794-10.4954A9.24,9.24,0,0,0,1021.089,1003.1711Zm53.4784-7.8951a8.84,8.84,0,1,0,7.447-10.0391A8.838,8.838,0,0,0,1074.5674,995.276Zm216.1678-31.9231a4.9522,4.9522,0,1,0,4.1624-5.6273A4.9337,4.9337,0,0,0,1290.7352,963.3529Zm54.5351-8.0542a3.4828,3.4828,0,1,0,2.9172-3.95A3.4879,3.4879,0,0,0,1345.27,955.2987Zm-777.3587,60.5365a3.35,3.35,0,1,0,2.8227-3.8009A3.3427,3.3427,0,0,0,567.9116,1015.8352Zm51.3552-7.5872a5.0926,5.0926,0,1,0,4.2915-5.7761A5.1031,5.1031,0,0,0,619.2668,1008.248Zm51.4889-7.6024a6.7,6.7,0,1,0,5.6413-7.6025A6.7054,6.7054,0,0,0,670.7557,1000.6456Zm51.6235-7.6172a8.1726,8.1726,0,1,0,6.886-9.27A8.1685,8.1685,0,0,0,722.3792,993.0284Zm51.7617-7.6472a9.5065,9.5065,0,1,0,8.0129-10.7982A9.5169,9.5169,0,0,0,774.1409,985.3812Zm52.1493-7.702a10.4439,10.4439,0,1,0,8.8014-11.86A10.4339,10.4339,0,0,0,826.29,977.6792Zm52.2779-7.7163a11.2437,11.2437,0,1,0,9.4811-12.7683A11.2552,11.2552,0,0,0,878.5681,969.9629ZM984.0769,954.386a11.9118,11.9118,0,1,0,10.037-13.5274A11.9123,11.9123,0,0,0,984.0769,954.386Zm53.201-7.8555a11.7878,11.7878,0,1,0,9.9374-13.3791A11.792,11.792,0,0,0,1037.2779,946.5305Zm53.4784-7.9a11.3844,11.3844,0,1,0,9.6005-12.9274A11.3761,11.3761,0,0,0,1090.7563,938.63Zm107.7468-15.9046a9.7772,9.7772,0,1,0,8.2405-11.1011A9.7658,9.7658,0,0,0,1198.5031,922.7257Zm54.2775-8.0191a8.5657,8.5657,0,1,0,7.2183-9.7215A8.5647,8.5647,0,0,0,1252.7806,914.7066Zm54.54-8.0492a7.0887,7.0887,0,1,0,5.9787-8.0592A7.0866,7.0866,0,0,0,1307.3208,906.6574Zm54.5306-8.0542a5.6244,5.6244,0,1,0,4.7329-6.3813A5.622,5.622,0,0,0,1361.8514,898.6032ZM531.6833,966.9455a5.2185,5.2185,0,1,0,4.4109-5.9449A5.2089,5.2089,0,0,0,531.6833,966.9455Zm51.2313-7.5725a7.0938,7.0938,0,1,0,5.9782-8.0587A7.0827,7.0827,0,0,0,582.9146,959.373Zm51.3451-7.5775a8.84,8.84,0,1,0,7.4571-10.039A8.8448,8.8448,0,0,0,634.26,951.7955Zm51.4894-7.6025a10.4442,10.4442,0,1,0,8.8116-11.86A10.4365,10.4365,0,0,0,685.7491,944.193Zm51.7673-7.6471a11.78,11.78,0,1,0,9.9277-13.3786A11.7855,11.7855,0,0,0,737.5164,936.5459Zm51.8811-7.6568a12.9917,12.9917,0,1,0,10.9494-14.7486A12.9859,12.9859,0,0,0,789.3975,928.8891Zm52.2779-7.7214a13.799,13.799,0,1,0,11.63-15.6617A13.7894,13.7894,0,0,0,841.6754,921.1677Zm52.5557-7.7615a14.33,14.33,0,1,0,12.0712-16.2715A14.3158,14.3158,0,0,0,894.2311,913.4062ZM947.045,905.61a14.5995,14.5995,0,1,0,12.3094-16.5794A14.5889,14.5889,0,0,0,947.045,905.61Zm53.2061-7.8555a14.4639,14.4639,0,1,0,12.1951-16.42A14.4795,14.4795,0,0,0,1000.2511,897.7546Zm53.6226-7.92a13.922,13.922,0,1,0,11.7288-15.8249A13.9172,13.9172,0,0,0,1053.8737,889.8346ZM1107.61,881.9a13.2549,13.2549,0,1,0,11.1684-15.056A13.2486,13.2486,0,0,0,1107.61,881.9Zm54.2725-8.0191a12.0437,12.0437,0,1,0,10.1563-13.6764A12.0431,12.0431,0,0,0,1161.8827,873.8807Zm54.2628-7.9993a10.8508,10.8508,0,1,0,9.1488-12.3268A10.8536,10.8536,0,0,0,1216.1455,865.8814Zm54.6646-8.0741a9.2407,9.2407,0,1,0,7.7945-10.5A9.2466,9.2466,0,0,0,1270.81,857.8073Zm54.8181-8.0984a7.4979,7.4979,0,1,0,6.3059-8.5156A7.4838,7.4838,0,0,0,1325.6282,849.7089ZM548.6663,910.1855a6.9607,6.9607,0,1,0,5.8694-7.91A6.9542,6.9542,0,0,0,548.6663,910.1855Zm51.0921-7.543a8.9726,8.9726,0,1,0,7.5663-10.1874A8.9662,8.9662,0,0,0,599.7584,902.6425ZM650.98,895.08a10.8482,10.8482,0,1,0,9.1443-12.317A10.8529,10.8529,0,0,0,650.98,895.08Zm51.4843-7.6024a12.4577,12.4577,0,1,0,10.4983-14.153A12.4687,12.4687,0,0,0,702.4638,887.4778Zm51.4945-7.6025a14.06,14.06,0,1,0,11.8578-15.9742A14.0662,14.0662,0,0,0,753.9583,879.8753Zm51.8862-7.6669a15.2659,15.2659,0,1,0,12.87-17.3336A15.2662,15.2662,0,0,0,805.8445,872.2084Zm52.0248-7.6772a16.3374,16.3374,0,1,0,13.768-18.5541A16.341,16.341,0,0,0,857.8693,864.5312Zm52.4171-7.7412a17.0044,17.0044,0,1,0,14.3385-19.3138A16.9973,16.9973,0,0,0,910.2864,856.79Zm52.8088-7.796a17.2749,17.2749,0,1,0,14.5666-19.6162A17.2806,17.2806,0,0,0,963.0952,848.994Zm53.35-7.8754A17.0063,17.0063,0,1,0,1030.7836,821.8,17.0074,17.0074,0,0,0,1016.445,841.1186Zm53.6029-7.9149a16.47,16.47,0,1,0,13.892-18.7183A16.4827,16.4827,0,0,0,1070.0479,833.2037Zm53.88-7.96a15.6674,15.6674,0,1,0,13.2077-17.79A15.6663,15.6663,0,0,0,1123.9281,825.244Zm54.273-8.01a14.4564,14.4564,0,1,0,12.185-16.4351A14.4563,14.4563,0,0,0,1178.2011,817.2345Zm54.5351-8.0537a12.9868,12.9868,0,1,0,10.95-14.7536A12.9827,12.9827,0,0,0,1232.7362,809.1808Zm54.7886-8.0938a11.2563,11.2563,0,1,0,9.4964-12.7785A11.2567,11.2567,0,0,0,1287.5248,801.087Zm54.9472-8.1086a9.3756,9.3756,0,1,0,7.894-10.6442A9.3636,9.3636,0,0,0,1342.472,792.9784Zm220.6674-32.5831a.9226.9226,0,0,0,1.0517.7841.9353.9353,0,1,0-.2677-1.8512A.9207.9207,0,0,0,1563.1394,760.3953ZM461.8769,868.7443a6.2937,6.2937,0,1,0,5.2984-7.1406A6.3016,6.3016,0,0,0,461.8769,868.7443Zm50.9534-7.5227a8.4355,8.4355,0,1,0,7.1147-9.5776A8.4432,8.4432,0,0,0,512.83,861.2216Zm50.958-7.5232a10.5871,10.5871,0,1,0,8.9207-12.004A10.5814,10.5814,0,0,0,563.7883,853.6984Zm51.0976-7.543a12.5855,12.5855,0,1,0,10.6121-14.2917A12.5838,12.5838,0,0,0,614.8859,846.1554Zm51.2212-7.5673a14.4585,14.4585,0,1,0,12.1951-16.4209A14.4532,14.4532,0,0,0,666.1071,838.5881Zm51.3552-7.5827a16.2065,16.2065,0,1,0,13.6685-18.391A16.2147,16.2147,0,0,0,717.4623,831.0054Zm51.618-7.6172a17.6739,17.6739,0,1,0,14.9091-20.0729A17.6856,17.6856,0,0,0,769.08,823.3882Zm52.035-7.6822a18.7425,18.7425,0,1,0,15.7971-21.2885A18.752,18.752,0,0,0,821.1153,815.706Zm52.2784-7.7213A19.5467,19.5467,0,1,0,889.87,785.7876,19.5463,19.5463,0,0,0,873.3937,807.9847Zm52.8138-7.8007a19.8176,19.8176,0,1,0,16.7-22.4948A19.8117,19.8117,0,0,0,926.2075,800.184Zm53.2056-7.8509a19.6845,19.6845,0,1,0,16.6009-22.3454A19.6822,19.6822,0,0,0,979.4131,792.3331Zm53.742-7.94a19.0172,19.0172,0,1,0,16.035-21.5913A19.0152,19.0152,0,0,0,1033.1551,784.3932Zm54.1531-7.9942a17.9373,17.9373,0,1,0,15.1123-20.3758A17.9361,17.9361,0,0,0,1087.3082,776.399Zm54.3969-8.0344a16.6077,16.6077,0,1,0,14.0007-18.8519A16.5949,16.5949,0,0,0,1141.7051,768.3646Zm54.6693-8.0735a14.9956,14.9956,0,1,0,12.6468-17.021A14.99,14.99,0,0,0,1196.3744,760.2911Zm54.9374-8.1086a13.1171,13.1171,0,1,0,11.0587-14.902A13.1184,13.1184,0,0,0,1251.3118,752.1825Zm55.0615-8.1283a11.1135,11.1135,0,1,0,9.3572-12.6245A11.1036,11.1036,0,0,0,1306.3733,744.0542Zm55.2-8.1533a8.9672,8.9672,0,1,0,7.5613-10.1829A8.9686,8.9686,0,0,0,1361.5734,735.9009Zm55.19-8.1482a6.8308,6.8308,0,1,0,5.76-7.7514A6.8269,6.8269,0,0,0,1416.7639,727.7527Zm55.3343-8.1731a4.5537,4.5537,0,1,0,3.8352-5.1613A4.5365,4.5365,0,0,0,1472.0982,719.58Zm55.3343-8.1686a2.2743,2.2743,0,1,0,1.92-2.5854A2.2753,2.2753,0,0,0,1527.4325,711.411ZM428.69,819.4033a5.0854,5.0854,0,1,0,4.2869-5.7812A5.0889,5.0889,0,0,0,428.69,819.4033Zm50.6959-7.4835a7.4978,7.4978,0,1,0,6.31-8.52A7.4821,7.4821,0,0,0,479.3857,811.92Zm50.8243-7.5029a9.7747,9.7747,0,1,0,8.24-11.096A9.768,9.768,0,0,0,530.21,804.4169Zm50.8244-7.5033A12.0515,12.0515,0,1,0,591.2,783.2224,12.05,12.05,0,0,0,581.0344,796.9136Zm50.8294-7.508a14.3309,14.3309,0,1,0,12.0707-16.2771A14.3285,14.3285,0,0,0,631.8638,789.4056Zm51.0972-7.543a16.3316,16.3316,0,1,0,13.7675-18.5642A16.339,16.339,0,0,0,682.961,781.8626Zm51.2262-7.5724a18.2069,18.2069,0,1,0,15.3506-20.6737A18.1992,18.1992,0,0,0,734.1872,774.29Zm51.4843-7.5979a19.817,19.817,0,1,0,16.71-22.4994A19.8182,19.8182,0,0,0,785.6715,766.6923Zm51.7571-7.6421a21.1562,21.1562,0,1,0,17.836-24.0228A21.1486,21.1486,0,0,0,837.4286,759.05Zm52.1489-7.7015a22.0941,22.0941,0,1,0,18.63-25.09A22.0978,22.0978,0,0,0,889.5775,751.3487Zm52.6751-7.7763a22.5007,22.5007,0,1,0,18.977-25.5462A22.4985,22.4985,0,0,0,942.2526,743.5724Zm53.35-7.88a22.2295,22.2295,0,1,0,18.7439-25.2388A22.2356,22.2356,0,0,0,995.6024,735.6925Zm53.8752-7.95a21.4227,21.4227,0,1,0,18.0646-24.3257A21.4268,21.4268,0,0,0,1049.4776,727.7425Zm54.2775-8.0146a20.2191,20.2191,0,1,0,17.0475-22.9608A20.2128,20.2128,0,0,0,1103.7551,719.7279Zm54.6647-8.0735a18.6138,18.6138,0,1,0,15.6879-21.13A18.6106,18.6106,0,0,0,1158.42,711.6544Zm54.7937-8.0887a16.8782,16.8782,0,1,0,14.2289-19.16A16.8692,16.8692,0,0,0,1213.2135,703.5657Zm55.0712-8.1284a14.8625,14.8625,0,1,0,12.5375-16.8823A14.8569,14.8569,0,0,0,1268.2847,695.4373Zm55.2052-8.1533a12.721,12.721,0,1,0,10.7167-14.4508A12.7118,12.7118,0,0,0,1323.49,687.284Zm55.3342-8.1731a10.4413,10.4413,0,1,0,8.7968-11.8653A10.4215,10.4215,0,0,0,1378.8241,679.1109Zm55.3292-8.168a8.17,8.17,0,1,0,6.8769-9.28A8.17,8.17,0,0,0,1434.1533,670.9429Zm55.4633-8.1883a5.7553,5.7553,0,1,0,4.8427-6.54A5.7327,5.7327,0,0,0,1489.6166,662.7546Zm55.4537-8.1828a3.35,3.35,0,1,0,2.8278-3.8162A3.3468,3.3468,0,0,0,1545.07,654.5718ZM443.951,762.901a8.5707,8.5707,0,1,0,7.2239-9.726A8.5656,8.5656,0,0,0,443.951,762.901Zm50.6958-7.4831A10.9782,10.9782,0,1,0,503.9,742.9474,10.9735,10.9735,0,0,0,494.6468,755.4179Zm50.6953-7.4835A13.39,13.39,0,1,0,556.6294,732.73,13.3856,13.3856,0,0,0,545.3421,747.9344Zm50.8193-7.5028a15.6681,15.6681,0,1,0,13.2173-17.8006A15.6774,15.6774,0,0,0,596.1614,740.4316Zm50.8391-7.5085a17.9423,17.9423,0,1,0,15.1174-20.38A17.9422,17.9422,0,0,0,647.0005,732.9231ZM697.9493,725.4a20.0858,20.0858,0,1,0,16.9383-22.8124A20.0833,20.0833,0,0,0,697.9493,725.4Zm51.2313-7.5577a21.96,21.96,0,1,0,18.5056-24.9461A21.9679,21.9679,0,0,0,749.1806,717.8427Zm51.623-7.6273A23.4359,23.4359,0,1,0,820.56,683.607,23.4286,23.4286,0,0,0,800.8036,710.2154Zm51.8862-7.667A24.6444,24.6444,0,1,0,873.4582,674.57,24.6215,24.6215,0,0,0,852.69,702.5484Zm52.6746-7.7712A25.0437,25.0437,0,1,0,926.48,666.3426,25.0388,25.0388,0,0,0,905.3644,694.7772Zm53.36-7.8855A24.767,24.767,0,1,0,979.597,658.76,24.7683,24.7683,0,0,0,958.7244,686.8917Zm53.9946-7.9693a23.8374,23.8374,0,1,0,20.0937-27.07A23.8418,23.8418,0,0,0,1012.719,678.9224Zm54.5356-8.0542a22.3625,22.3625,0,1,0,18.8531-25.3928A22.3682,22.3682,0,0,0,1067.2546,670.8682Zm54.9421-8.1136a20.4817,20.4817,0,1,0,17.2659-23.2586A20.4824,20.4824,0,0,0,1122.1967,662.7546Zm55.0518-8.1234a18.4789,18.4789,0,1,0,15.5883-20.9912A18.4927,18.4927,0,0,0,1177.2485,654.6312Zm55.2052-8.1583a16.3345,16.3345,0,1,0,13.7726-18.55A16.3272,16.3272,0,0,0,1232.4537,646.4729Zm55.4679-8.1879a13.9191,13.9191,0,1,0,11.7338-15.81A13.9185,13.9185,0,0,0,1287.9216,638.285Zm55.32-8.1781a11.6521,11.6521,0,1,0,9.8338-13.2247A11.6788,11.6788,0,0,0,1343.2411,630.1069Zm55.4684-8.1777a9.2411,9.2411,0,1,0,7.7945-10.501A9.2361,9.2361,0,0,0,1398.71,621.9292Zm55.597-8.2133a6.6953,6.6953,0,1,0,5.6311-7.6121A6.6936,6.6936,0,0,0,1454.3065,613.7159ZM411.29,713.4706a6.8333,6.8333,0,1,0,5.7556-7.7463A6.8239,6.8239,0,0,0,411.29,713.4706Zm50.5668-7.4632a9.3739,9.3739,0,1,0,7.9031-10.63A9.36,9.36,0,0,0,461.8571,706.0074Zm50.5612-7.4688A11.9161,11.9161,0,1,0,522.47,685.006,11.93,11.93,0,0,0,512.4183,698.5386Zm50.7-7.4785a14.3264,14.3264,0,1,0,12.0762-16.2715A14.3323,14.3323,0,0,0,563.1187,691.06Zm50.5515-7.4683A16.8734,16.8734,0,1,0,627.9,664.437,16.8756,16.8756,0,0,0,613.67,683.5918Zm50.7-7.4881a19.2808,19.2808,0,1,0,16.2584-21.8846A19.2772,19.2772,0,0,0,664.3706,676.1037Zm50.8345-7.5085a21.5576,21.5576,0,1,0,18.1733-24.4791A21.5651,21.5651,0,0,0,715.2051,668.5952Zm50.9483-7.5226a23.7039,23.7039,0,1,0,19.9941-26.9061A23.7074,23.7074,0,0,0,766.1534,661.0726Zm51.2313-7.5628a25.577,25.577,0,1,0,21.5619-29.0449A25.566,25.566,0,0,0,817.3847,653.51Zm51.6179-7.6274a27.0537,27.0537,0,1,0,22.8123-30.7071A27.0616,27.0616,0,0,0,869.0026,645.8824Zm52.4171-7.7315a27.7214,27.7214,0,1,0,23.3731-31.4764A27.72,27.72,0,0,0,921.42,638.1509Zm53.4789-7.8952a27.3177,27.3177,0,1,0,23.0353-31.01A27.3177,27.3177,0,0,0,974.8986,630.2557Zm54.2674-8.014a26.1146,26.1146,0,1,0,22.0237-29.6506A26.1219,26.1219,0,0,0,1029.166,622.2417Zm54.9425-8.1238a24.235,24.235,0,1,0,20.4306-27.5017A24.2316,24.2316,0,0,0,1084.1085,614.1179Zm55.1854-8.1431A22.0968,22.0968,0,1,0,1157.9285,580.9,22.1034,22.1034,0,0,0,1139.2939,605.9748Zm55.3343-8.1681a19.8246,19.8246,0,1,0,16.72-22.5044A19.8246,19.8246,0,0,0,1194.6282,597.8067Zm55.473-8.1929a17.4074,17.4074,0,1,0,14.6708-19.76A17.4081,17.4081,0,0,0,1250.1012,589.6138Zm55.4582-8.1782a15.0036,15.0036,0,1,0,12.6468-17.0261A14.9991,14.9991,0,0,0,1305.5594,581.4356Zm55.5924-8.2178a12.4547,12.4547,0,1,0,10.5033-14.1378A12.4692,12.4692,0,0,0,1361.1518,573.2178Zm55.4734-8.1929a10.0406,10.0406,0,1,0,8.4687-11.3989A10.039,10.039,0,0,0,1416.6252,565.0249Zm55.6021-8.2026a7.4927,7.4927,0,1,0,6.3007-8.5105A7.5,7.5,0,0,0,1472.2273,556.8223Zm55.5923-8.2081a4.9454,4.9454,0,1,0,4.1675-5.6273A4.9424,4.9424,0,0,0,1527.82,548.6142ZM426.9533,656.924a9.91,9.91,0,1,0,8.3554-11.27A9.9109,9.9109,0,0,0,426.9533,656.924Zm50.5567-7.4734a12.4526,12.4526,0,1,0,10.5084-14.1382A12.46,12.46,0,0,0,477.51,649.4506Zm50.5662-7.4637a15.0007,15.0007,0,1,0,12.6519-17.0307A14.9959,14.9959,0,0,0,528.0762,641.9869Zm50.4378-7.4485a17.67,17.67,0,1,0,14.8938-20.0628A17.6656,17.6656,0,0,0,578.514,634.5384Zm50.5515-7.4632a20.2229,20.2229,0,1,0,17.0571-22.9664A20.2358,20.2358,0,0,0,629.0655,627.0752Zm50.7-7.4886a22.6307,22.6307,0,1,0,19.0811-25.6952A22.6194,22.6194,0,0,0,679.7659,619.5866Zm50.69-7.4785a25.0438,25.0438,0,1,0,21.1159-28.4346A25.0612,25.0612,0,0,0,730.4561,612.1081ZM781.2805,604.6a27.3205,27.3205,0,1,0,23.0307-31.03A27.3211,27.3211,0,0,0,781.2805,604.6Zm51.0925-7.5526A29.3236,29.3236,0,1,0,857.1,563.7494,29.3322,29.3322,0,0,0,832.373,597.0476Zm52.159-7.6919a30.2616,30.2616,0,1,0,25.5212-34.36A30.2565,30.2565,0,0,0,884.532,589.3557Zm53.5978-7.91a29.735,29.735,0,1,0,25.0649-33.7646A29.7608,29.7608,0,0,0,938.13,581.4458Zm54.8181-8.0989a27.9822,27.9822,0,1,0,23.5865-31.7793A27.9935,27.9935,0,0,0,992.9479,573.3469Zm55.3195-8.1731a25.71,25.71,0,1,0,21.6763-29.1842A25.71,25.71,0,0,0,1048.2674,565.1738Zm55.473-8.1879a23.2954,23.2954,0,1,0,19.6421-26.4594A23.3023,23.3023,0,0,0,1103.74,556.9859Zm55.602-8.2081a20.7477,20.7477,0,1,0,17.489-23.5711A20.7469,20.7469,0,0,0,1159.3424,548.7778Zm55.4633-8.1879a18.3407,18.3407,0,1,0,15.4548-20.8321A18.338,18.338,0,0,0,1214.8057,540.59Zm55.7164-8.2376a15.6674,15.6674,0,1,0,13.2025-17.77A15.6589,15.6589,0,0,0,1270.5221,532.3523Zm55.6025-8.2026a13.1219,13.1219,0,1,0,11.0637-14.9071A13.1106,13.1106,0,0,0,1326.1246,524.15Zm55.5822-8.2031a10.5849,10.5849,0,1,0,8.93-12.0187A10.59,10.59,0,0,0,1381.7068,515.9466Zm55.6071-8.2178a8.0291,8.0291,0,1,0,6.7671-9.1157A8.0287,8.0287,0,0,0,1437.3139,507.7288Zm55.731-8.2325a5.3584,5.3584,0,1,0,4.51-6.0841A5.3516,5.3516,0,0,0,1493.0449,499.4963Zm55.5975-8.2077a2.8111,2.8111,0,1,0,2.3664-3.1861A2.8,2.8,0,0,0,1548.6424,491.2886ZM394.9627,607.394a7.5,7.5,0,1,0,6.3156-8.5207A7.49,7.49,0,0,0,394.9627,607.394Zm50.4276-7.4485a10.1781,10.1781,0,1,0,8.5733-11.5573A10.1747,10.1747,0,0,0,445.39,599.9455Zm50.5714-7.4637a12.7156,12.7156,0,1,0,10.7212-14.4406A12.7247,12.7247,0,0,0,495.9617,592.4818Zm50.4174-7.4485a15.4037,15.4037,0,1,0,12.9887-17.4773A15.4058,15.4058,0,0,0,546.3791,585.0333Zm50.4321-7.4388A18.0828,18.0828,0,1,0,612.048,557.07,18.0873,18.0873,0,0,0,596.8112,577.5945Zm50.5714-7.4683a20.62,20.62,0,1,0,17.37-23.4125A20.6029,20.6029,0,0,0,647.3826,570.1262Zm50.4224-7.4485a23.2983,23.2983,0,1,0,19.6426-26.4695A23.3192,23.3192,0,0,0,697.805,562.6777Zm50.5668-7.4637a25.8461,25.8461,0,1,0,21.79-29.3427A25.8253,25.8253,0,0,0,748.3718,555.214Zm50.5612-7.4683a28.3884,28.3884,0,1,0,23.934-32.2406A28.3849,28.3849,0,0,0,798.933,547.7457Zm50.5515-7.4734a30.9354,30.9354,0,1,0,26.0968-35.1091A30.9526,30.9526,0,0,0,849.4845,540.2723Zm51.0972-7.5328a32.94,32.94,0,1,0,27.7789-37.4116A32.9363,32.9363,0,0,0,900.5817,532.74Zm54.4117-8.0389a31.6,31.6,0,1,0,26.6424-35.8933A31.5938,31.5938,0,0,0,954.9934,524.7006Zm55.5923-8.2031a29.058,29.058,0,1,0,24.499-33A29.0481,29.0481,0,0,0,1010.5857,516.4975Zm55.5873-8.2128a26.5135,26.5135,0,1,0,22.3758-30.1069A26.5437,26.5437,0,0,0,1066.173,508.2847Zm55.6122-8.2178a23.9668,23.9668,0,1,0,20.1927-27.2186A23.9375,23.9375,0,0,0,1121.7852,500.0669Zm55.7209-8.2229a21.2866,21.2866,0,1,0,17.95-24.1666A21.29,21.29,0,0,0,1177.5061,491.844Zm55.5923-8.2076a18.7444,18.7444,0,1,0,15.8073-21.2987A18.7574,18.7574,0,0,0,1233.0984,483.6364Zm55.7265-8.2275a16.07,16.07,0,1,0,13.5541-18.232A16.0765,16.0765,0,0,0,1288.8249,475.4089Zm55.5969-8.2082a13.5266,13.5266,0,1,0,11.4112-15.3634A13.5123,13.5123,0,0,0,1344.4218,467.2007Zm55.7265-8.2275a10.8508,10.8508,0,1,0,9.1489-12.3165A10.8639,10.8639,0,0,0,1400.1483,458.9732Zm55.7362-8.2274a8.167,8.167,0,1,0,6.8763-9.28A8.1652,8.1652,0,0,0,1455.8845,450.7458Zm55.5969-8.2179a5.6243,5.6243,0,1,0,4.7334-6.3818A5.6255,5.6255,0,0,0,1511.4814,442.5279ZM411.0175,550.7728a10.175,10.175,0,1,0,8.5783-11.5523A10.173,10.173,0,0,0,411.0175,550.7728Zm50.5713-7.4536a12.7134,12.7134,0,1,0,10.7218-14.45A12.7062,12.7062,0,0,0,461.5888,543.3192Zm50.4276-7.4485a15.3939,15.3939,0,1,0,12.979-17.4875A15.3944,15.3944,0,0,0,512.0164,535.8707Zm50.5617-7.4632A17.94,17.94,0,1,0,577.7,508.0169,17.95,17.95,0,0,0,562.5781,528.4075Zm50.4271-7.4535a20.62,20.62,0,1,0,17.38-23.4131A20.6,20.6,0,0,0,613.0052,520.954Zm50.5617-7.4638A23.1648,23.1648,0,1,0,683.1,487.17,23.1783,23.1783,0,0,0,663.5669,513.49Zm50.4275-7.4484A25.8433,25.8433,0,1,0,735.78,476.7087,25.8248,25.8248,0,0,0,713.9944,506.0418Zm50.5663-7.4587a28.3862,28.3862,0,1,0,23.9238-32.2554A28.3979,28.3979,0,0,0,764.5607,498.5831Zm50.6856-7.4932a30.8009,30.8009,0,1,0,25.9678-34.975A30.81,30.81,0,0,0,815.2463,491.09Zm51.2359-7.5628a32.671,32.671,0,1,0,27.5406-37.0889A32.6474,32.6474,0,0,0,866.4822,483.5271Zm54.2679-7.9993a31.4687,31.4687,0,1,0,26.5332-35.7591A31.466,31.466,0,0,0,920.75,475.5278ZM976.218,467.32a29.0529,29.0529,0,1,0,24.4893-32.99A29.0356,29.0356,0,0,0,976.218,467.32Zm55.5827-8.198a26.5179,26.5179,0,1,0,22.3555-30.1216A26.53,26.53,0,0,0,1031.8007,459.1221Zm55.7458-8.2376a23.8374,23.8374,0,1,0,20.079-27.055A23.8208,23.8208,0,0,0,1087.5465,450.8845Zm55.5776-8.2077a21.2937,21.2937,0,1,0,17.96-24.1869A21.2861,21.2861,0,0,0,1143.1241,442.6768Zm55.602-8.2081a18.7494,18.7494,0,1,0,15.8023-21.2987A18.776,18.776,0,0,0,1198.7261,434.4687Zm55.7265-8.2275a16.07,16.07,0,1,0,13.5445-18.2619A16.0552,16.0552,0,0,0,1254.4526,426.2412Zm55.7407-8.2376a13.388,13.388,0,1,0,11.2822-15.1851A13.3969,13.3969,0,0,0,1310.1933,418.0036Zm55.5776-8.198a10.8549,10.8549,0,1,0,9.1535-12.3166A10.8639,10.8639,0,0,0,1365.7709,409.8056Zm55.7362-8.2275a8.1693,8.1693,0,1,0,6.8763-9.29A8.16,8.16,0,0,0,1421.5071,401.5781Zm55.5969-8.2178a5.6193,5.6193,0,1,0,4.7385-6.3916A5.6466,5.6466,0,0,0,1477.104,393.36Zm55.7315-8.228a2.9435,2.9435,0,1,0,2.4808-3.3447A2.9355,2.9355,0,0,0,1532.8355,385.1323ZM379.5527,501.1737a7.2342,7.2342,0,1,0,6.0925-8.2178A7.2386,7.2386,0,0,0,379.5527,501.1737Zm50.4321-7.4338a9.9085,9.9085,0,1,0,8.3452-11.2647A9.9156,9.9156,0,0,0,429.9848,493.74Zm50.5617-7.4733A12.453,12.453,0,1,0,491.05,472.1135,12.4676,12.4676,0,0,0,480.5465,486.2666Zm50.5663-7.4638a14.9982,14.9982,0,1,0,12.6366-17.0408A15.002,15.002,0,0,0,531.1128,478.8028Zm50.5566-7.4632a17.5391,17.5391,0,1,0,14.7847-19.919A17.5709,17.5709,0,0,0,581.6694,471.34Zm50.5663-7.4734a20.0864,20.0864,0,1,0,16.9281-22.8073A20.0552,20.0552,0,0,0,632.2357,463.8662Zm50.5663-7.4637a22.6284,22.6284,0,1,0,19.0715-25.6952A22.6326,22.6326,0,0,0,682.802,456.4025Zm50.6907-7.483a25.0438,25.0438,0,1,0,21.11-28.4346A25.0591,25.0591,0,0,0,733.4927,448.92Zm50.963-7.5329A27.1791,27.1791,0,1,0,807.3625,410.51,27.17,27.17,0,0,0,784.4557,441.3866Zm51.0876-7.543a29.1882,29.1882,0,1,0,24.6132-33.1492A29.1939,29.1939,0,0,0,835.5433,433.8436Zm52.1437-7.6918a30.13,30.13,0,1,0,25.4124-34.2108A30.1416,30.1416,0,0,0,887.687,426.1518Zm53.7517-7.95a29.4584,29.4584,0,1,0,24.8368-33.4368A29.4626,29.4626,0,0,0,941.4387,418.2022Zm54.8034-8.079a27.7141,27.7141,0,1,0,23.368-31.4815A27.7253,27.7253,0,0,0,996.2421,410.1232Zm55.1955-8.1584a25.5752,25.5752,0,1,0,21.5722-29.04A25.5975,25.5975,0,0,0,1051.4376,401.9648Zm55.4634-8.1975a23.162,23.162,0,1,0,19.5277-26.3009A23.1763,23.1763,0,0,0,1106.901,393.7673Zm55.4633-8.1782a20.7579,20.7579,0,1,0,17.4935-23.5716A20.7576,20.7576,0,0,0,1162.3643,385.5891Zm55.5969-8.2077a18.2119,18.2119,0,1,0,15.3455-20.6736A18.2059,18.2059,0,0,0,1217.9612,377.3814Zm55.5924-8.2178a15.6721,15.6721,0,1,0,13.2122-17.7756A15.6681,15.6681,0,0,0,1273.5536,369.1636Zm55.6071-8.2178a13.1232,13.1232,0,1,0,11.054-14.8975A13.1283,13.1283,0,0,0,1329.1607,360.9458Zm55.5923-8.1878a10.58,10.58,0,1,0,8.9157-12.0193A10.5694,10.5694,0,0,0,1384.753,352.758Zm55.7311-8.2377a7.8986,7.8986,0,1,0,6.6437-8.9724A7.907,7.907,0,0,0,1440.4841,344.52ZM396.2674,444.4533a9.2382,9.2382,0,1,0,7.7894-10.4806A9.2442,9.2442,0,0,0,396.2674,444.4533ZM446.8337,437a11.7891,11.7891,0,1,0,9.9378-13.3888A11.7911,11.7911,0,0,0,446.8337,437Zm50.5713-7.4734A14.3206,14.3206,0,1,0,509.4762,413.26,14.3216,14.3216,0,0,0,497.405,429.5264Zm50.6857-7.4734a16.7367,16.7367,0,1,0,14.115-19.016A16.7426,16.7426,0,0,0,548.0907,422.053Zm50.7-7.5033a19.1474,19.1474,0,1,0,16.1345-21.7454A19.1554,19.1554,0,0,0,598.7911,414.55Zm50.8192-7.4932a21.4252,21.4252,0,1,0,18.07-24.3257A21.429,21.429,0,0,0,649.61,407.0565Zm50.9682-7.5329a23.5667,23.5667,0,1,0,19.8656-26.7572A23.5421,23.5421,0,0,0,700.5785,399.5236ZM751.8,391.9608a25.4452,25.4452,0,1,0,21.4482-28.8914A25.4308,25.4308,0,0,0,751.8,391.9608Zm51.747-7.6421a26.7834,26.7834,0,1,0,22.5841-30.4194A26.8009,26.8009,0,0,0,803.5471,384.3187Zm52.417-7.7315a27.4595,27.4595,0,1,0,23.15-31.1639A27.4472,27.4472,0,0,0,855.9641,376.5872Zm53.4789-7.91A27.0508,27.0508,0,1,0,932.2456,337.97,27.0182,27.0182,0,0,0,909.443,368.6773Zm54.2725-8A25.8458,25.8458,0,1,0,985.5061,331.33,25.8475,25.8475,0,0,0,963.7155,360.6775Zm54.8033-8.0984a24.1058,24.1058,0,1,0,20.3219-27.3726A24.1178,24.1178,0,0,0,1018.5188,352.5791Zm55.2-8.1482A21.9595,21.9595,0,1,0,1092.23,319.5,21.9536,21.9536,0,0,0,1073.719,344.4309Zm55.32-8.168a19.6893,19.6893,0,1,0,16.6009-22.3511A19.6906,19.6906,0,0,0,1129.0385,336.2629Zm55.349-8.1782a17.4008,17.4008,0,1,0,14.6709-19.77A17.37,17.37,0,0,0,1184.3875,328.0847Zm55.5873-8.198a14.8556,14.8556,0,1,0,12.5228-16.8722A14.8549,14.8549,0,0,0,1239.9748,319.8867Zm55.4537-8.1878a12.4555,12.4555,0,1,0,10.5079-14.1627A12.4811,12.4811,0,0,0,1295.4285,311.6989Zm55.602-8.2179a9.9128,9.9128,0,1,0,8.3548-11.2647A9.9248,9.9248,0,0,0,1351.0305,303.481Zm55.6025-8.198a7.3687,7.3687,0,1,0,6.2017-8.3667A7.3857,7.3857,0,0,0,1406.633,295.283ZM365.0653,394.8288a6.031,6.031,0,1,0,5.0906-6.858A6.0392,6.0392,0,0,0,365.0653,394.8288Zm50.7-7.483a8.4384,8.4384,0,1,0,7.1045-9.5975A8.4382,8.4382,0,0,0,415.7657,387.3458Zm50.6953-7.4932a10.8451,10.8451,0,1,0,9.1489-12.3369A10.8355,10.8355,0,0,0,466.461,379.8526Zm50.6953-7.4836a13.2575,13.2575,0,1,0,11.178-15.0656A13.2511,13.2511,0,0,0,517.1563,372.369Zm50.8345-7.513A15.5293,15.5293,0,1,0,581.0689,347.22,15.5377,15.5377,0,0,0,567.9908,364.856Zm50.8193-7.5033a17.8129,17.8129,0,1,0,15.0229-20.2265A17.805,17.805,0,0,0,618.81,357.3527Zm51.1022-7.5329a19.8188,19.8188,0,1,0,16.7051-22.5293A19.8178,19.8178,0,0,0,669.9123,349.82Zm51.2166-7.5826a21.6926,21.6926,0,1,0,18.2927-24.6433A21.6862,21.6862,0,0,0,721.1289,342.2372Zm51.4889-7.5923a23.299,23.299,0,1,0,19.642-26.4594A23.3074,23.3074,0,0,0,772.6178,334.6449Zm52.02-7.672a24.3749,24.3749,0,1,0,20.55-27.7A24.3785,24.3785,0,0,0,824.6381,326.9729Zm52.5506-7.7514A24.9044,24.9044,0,1,0,898.19,290.9063,24.903,24.903,0,0,0,877.1887,319.2215Zm53.4739-7.91a24.5022,24.5022,0,1,0,20.6693-27.8294A24.51,24.51,0,0,0,930.6626,311.3116Zm54.0194-7.9795a23.5653,23.5653,0,1,0,19.8554-26.7475A23.5928,23.5928,0,0,0,984.682,303.3321Zm54.3969-8.0293a22.2277,22.2277,0,1,0,18.7393-25.2286A22.2153,22.2153,0,0,0,1039.0789,295.3028Zm54.9324-8.1283a20.3557,20.3557,0,1,0,17.1562-23.1052A20.3754,20.3754,0,0,0,1094.0113,287.1745Zm55.0711-8.1188a18.3425,18.3425,0,1,0,15.46-20.822A18.3412,18.3412,0,0,0,1149.0824,279.0557Zm55.2007-8.1482a16.2039,16.2039,0,1,0,13.6486-18.3905A16.1993,16.1993,0,0,0,1204.2831,270.9075Zm55.3241-8.168a13.9278,13.9278,0,1,0,11.7287-15.81A13.9185,13.9185,0,0,0,1259.6072,262.74Zm55.4583-8.1878a11.5222,11.5222,0,1,0,9.7143-13.091A11.5278,11.5278,0,0,0,1315.0655,254.5517Zm55.4734-8.1879a9.1066,9.1066,0,1,0,7.67-10.352A9.1068,9.1068,0,0,0,1370.5389,246.3638Zm55.4634-8.1883a6.6965,6.6965,0,1,0,5.6408-7.6025A6.6943,6.6943,0,0,0,1426.0023,238.1755ZM433.1505,330.5264a9.7747,9.7747,0,1,0,8.2456-11.0864A9.7544,9.7544,0,0,0,433.1505,330.5264Zm50.963-7.5334a11.9132,11.9132,0,1,0,10.0471-13.5275A11.914,11.914,0,0,0,484.1135,322.993ZM534.943,315.5a14.1914,14.1914,0,1,0,11.967-16.1079A14.1693,14.1693,0,0,0,534.943,315.5Zm51.0921-7.543a16.2016,16.2016,0,1,0,13.6537-18.4A16.1834,16.1834,0,0,0,586.0351,307.9568Zm51.2216-7.5623A18.0753,18.0753,0,1,0,652.4981,279.85,18.0839,18.0839,0,0,0,637.2567,300.3945Zm51.4843-7.6126a19.6824,19.6824,0,1,0,16.5907-22.3607A19.6594,19.6594,0,0,0,688.741,292.7819Zm51.7571-7.6517A21.0238,21.0238,0,1,0,758.22,261.2608,21.0067,21.0067,0,0,0,740.4981,285.13Zm52.283-7.7117a21.8289,21.8289,0,1,0,18.4019-24.7724A21.8247,21.8247,0,0,0,792.7811,277.4185Zm52.6848-7.7712a22.23,22.23,0,1,0,18.7392-25.2388A22.208,22.208,0,0,0,845.4659,269.6473Zm53.35-7.8906a21.9555,21.9555,0,1,0,18.5061-24.9309A21.9646,21.9646,0,0,0,898.8157,261.7567Zm53.7314-7.93A21.2892,21.2892,0,1,0,970.5025,229.65,21.3059,21.3059,0,0,0,952.5471,253.827Zm54.2577-8.0094a20.0937,20.0937,0,1,0,16.9434-22.8074A20.0632,20.0632,0,0,0,1006.8048,245.8176Zm54.6845-8.0984a18.4771,18.4771,0,1,0,15.5838-20.9613A18.4976,18.4976,0,0,0,1061.4893,237.7192Zm54.8034-8.069a16.7385,16.7385,0,1,0,14.1054-19.0262A16.752,16.752,0,0,0,1116.2927,229.65Zm55.0716-8.1187a14.7312,14.7312,0,1,0,12.408-16.7431A14.7309,14.7309,0,0,0,1171.3643,221.5315Zm55.19-8.1777a12.5871,12.5871,0,1,0,10.6075-14.2623A12.5619,12.5619,0,0,0,1226.5543,213.3538Zm55.3343-8.1583a10.3085,10.3085,0,1,0,8.6926-11.7216A10.3069,10.3069,0,0,0,1281.8886,205.1955Zm55.33-8.1681a8.0282,8.0282,0,1,0,6.7773-9.1309A8.0633,8.0633,0,0,0,1337.2183,197.0274Zm55.4633-8.1883a5.6255,5.6255,0,1,0,4.738-6.3814A5.6483,5.6483,0,0,0,1392.6816,188.8391Zm-939.3734,84.46a8.303,8.303,0,1,0,7.0009-9.4384A8.3128,8.3128,0,0,0,453.3082,273.2994Zm50.9585-7.5328a10.4463,10.4463,0,1,0,8.8064-11.85A10.4508,10.4508,0,0,0,504.2667,265.7666Zm51.0875-7.5329a12.4537,12.4537,0,1,0,10.5033-14.1332A12.4363,12.4363,0,0,0,555.3542,258.2337Zm51.2313-7.5628a14.3283,14.3283,0,1,0,12.0706-16.2766A14.31,14.31,0,0,0,606.5855,250.6709Zm51.3553-7.5923a16.0693,16.0693,0,1,0,13.55-18.2421A16.08,16.08,0,0,0,657.9408,243.0786Zm51.7617-7.6522a17.4059,17.4059,0,1,0,14.6708-19.75A17.428,17.428,0,0,0,709.7025,235.4264Zm51.8861-7.6619a18.6126,18.6126,0,1,0,15.6829-21.13A18.5969,18.5969,0,0,0,761.5886,227.7645Zm52.4074-7.7214a19.2842,19.2842,0,1,0,16.2631-21.8942A19.2729,19.2729,0,0,0,813.996,220.0431ZM866.82,212.242A19.5471,19.5471,0,1,0,883.3061,190.04,19.5377,19.5377,0,0,0,866.82,212.242Zm53.2112-7.8606a19.4165,19.4165,0,1,0,16.3723-22.0527A19.4052,19.4052,0,0,0,920.0307,204.3814Zm53.7415-7.93a18.7476,18.7476,0,1,0,15.7972-21.2986A18.763,18.763,0,0,0,973.7722,196.4517Zm54.0093-7.98a17.8089,17.8089,0,1,0,15.0133-20.2168A17.8071,17.8071,0,0,0,1027.7815,188.4722Zm54.397-8.0293a16.47,16.47,0,1,0,13.8818-18.6984A16.52,16.52,0,0,0,1082.1785,180.4429Zm54.8033-8.0989A14.73,14.73,0,1,0,1149.4,155.6111,14.7437,14.7437,0,0,0,1136.9818,172.344Zm54.7983-8.0984a12.9866,12.9866,0,1,0,10.955-14.7283A12.9812,12.9812,0,0,0,1191.78,164.2456Zm55.0716-8.1284a10.98,10.98,0,1,0,9.248-12.4655A10.99,10.99,0,0,0,1246.8517,156.1172Zm-775.231,60.2337a8.701,8.701,0,1,0,7.3331-9.8952A8.7372,8.7372,0,0,0,471.6207,216.3509Zm51.2262-7.5725a10.5744,10.5744,0,1,0,8.9259-12.0091A10.5578,10.5578,0,0,0,522.8469,208.7784Zm51.3553-7.5826a12.3162,12.3162,0,1,0,10.3793-13.994A12.3322,12.3322,0,0,0,574.2022,201.1958Zm51.6184-7.6223a13.7966,13.7966,0,1,0,11.6342-15.6714A13.7918,13.7918,0,0,0,625.8206,193.5735Zm51.752-7.6324a15.1363,15.1363,0,1,0,12.756-17.1994A15.1425,15.1425,0,0,0,677.5726,185.9411Zm52.159-7.7117a16.0606,16.0606,0,1,0,13.5445-18.2513A16.0543,16.0543,0,0,0,729.7316,178.2294Zm52.4075-7.731a16.7407,16.7407,0,1,0,14.115-19.0064A16.7262,16.7262,0,0,0,782.1391,170.4984Zm52.8184-7.8108a17.0011,17.0011,0,1,0,14.3385-19.294A16.9907,16.9907,0,0,0,834.9575,162.6876Zm53.2111-7.8408a16.8746,16.8746,0,1,0,14.2192-19.1649A16.88,16.88,0,0,0,888.1686,154.8468Zm53.6125-7.9a16.3392,16.3392,0,1,0,13.7681-18.5795A16.3564,16.3564,0,0,0,941.7811,146.9466Zm54.01-7.9993A15.3965,15.3965,0,1,0,1008.77,121.48,15.38,15.38,0,0,0,995.7909,138.9473Zm54.2674-8.0191a14.1941,14.1941,0,1,0,11.967-16.1181A14.1611,14.1611,0,0,0,1050.0583,130.9282Zm54.5356-8.04a12.7181,12.7181,0,1,0,10.7264-14.46A12.7129,12.7129,0,0,0,1104.5939,122.8887Zm54.6744-8.0786a11.1087,11.1087,0,1,0,9.3571-12.6342A11.0789,11.0789,0,0,0,1159.2683,114.81Zm54.9273-8.1187a9.2341,9.2341,0,1,0,7.7848-10.49A9.2295,9.2295,0,0,0,1214.1956,106.6914ZM646.6484,136.2576a11.6492,11.6492,0,1,0,9.8185-13.24A11.6464,11.6464,0,0,0,646.6484,136.2576Zm52.02-7.6918a12.72,12.72,0,1,0,10.7162-14.45A12.71,12.71,0,0,0,698.6687,128.5658Zm52.283-7.7117a13.5191,13.5191,0,1,0,11.3959-15.3736A13.5224,13.5224,0,0,0,750.9517,120.8541Zm52.4171-7.7412A14.1955,14.1955,0,1,0,815.3353,97.005,14.1829,14.1829,0,0,0,803.3688,113.1129ZM909.5274,97.4318a14.19,14.19,0,1,0,11.9619-16.118A14.1955,14.1955,0,0,0,909.5274,97.4318Zm53.4783-7.89A13.7888,13.7888,0,1,0,974.63,73.88,13.769,13.769,0,0,0,963.0057,89.5413Zm216.9466-32.0374a9.1083,9.1083,0,1,0,7.6751-10.3318A9.0728,9.0728,0,0,0,1179.9523,57.5039Zm54.7983-8.0888a7.3684,7.3684,0,1,0,6.2068-8.3865A7.3522,7.3522,0,0,0,1234.7506,49.4151ZM614.6477,86.7424a9.2386,9.2386,0,1,0,7.7944-10.5005A9.27,9.27,0,0,0,614.6477,86.7424Zm52.03-7.6914A10.306,10.306,0,1,0,675.3652,67.34,10.2973,10.2973,0,0,0,666.6776,79.051ZM719.09,71.32a10.9814,10.9814,0,1,0,9.253-12.4955A10.9828,10.9828,0,0,0,719.09,71.32ZM635.7382,29.367a6.8282,6.8282,0,1,0,5.7556-7.7513A6.8373,6.8373,0,0,0,635.7382,29.367Zm52.1595-7.6913a7.7656,7.7656,0,1,0,6.5436-8.8332A7.7445,7.7445,0,0,0,687.8977,21.6757ZM603.7425-20.1579a4.45,4.45,0,0,0,5.0261,3.7319,4.4292,4.4292,0,0,0,3.7158-5.0221,4.416,4.416,0,0,0-5.0063-3.7217A4.4337,4.4337,0,0,0,603.7425-20.1579Zm52.1539-7.7015a5.363,5.363,0,0,0,6.0879,4.5159,5.354,5.354,0,0,0,4.5145-6.0841,5.3767,5.3767,0,0,0-6.0823-4.5159A5.3779,5.3779,0,0,0,655.8964-27.8594Z"/><g id="bubble"><g id="bubble-2" data-name="bubble"><path d="M1348.4808,796.8257a178.3785,178.3785,0,0,1-69.3623-14.3626c-33.0951,73.1283-112.9249,127.7608-196.2253,133.6761-6.3616.4471-12.7954.68-19.1368.68-122.3467,0-208.9424-84.367-226.8568-103.3211-14.1223,8.0234-59.3064,30.9942-113.9184,30.9942a176.28,176.28,0,0,1-51.219-7.4134c-86.7925-26.3265-92.7945-110.4319-92.7483-133.56-7.7347.4875-15.3582.72-22.7461.72-62.6733,0-113.5067-17.12-151.0546-50.9118-45.0208-40.5083-56.2857-92.2678-55.9657-113.9677C350.8362,433.1009,448.5409,376.5,518.4521,376.5c3.1252,0,6.1714.1278,9.12.3715-25.7728-40.1831-8.7744-80.2973,13.56-97.3177,17.4892-13.3175,40.7052-20.0978,69.0215-20.0978s54.2658,6.78,66.7077,10.6235c4.9034-53.849,39.2022-115.0591,122.117-119.8308,2.5956-.1278,5.2241-.2324,7.82-.2324,46.76,0,93.0624,25.6012,119.96,65.8658,37.4756-35.5042,83.5689-56.1359,130.6035-58.3306,4.3283-.2205,8.676-.3251,12.9125-.3251h.0128c59.137,0,109.7347,19.9117,146.3407,57.553,30.33,31.1855,50.2582,73.8886,56.4236,120.6315,95.8541,3.8086,150.2893,41.6235,161.75,112.4583,6.0676,37.3156-1.2553,70.8813-21.7124,99.8959,69.0416,28.1782,102.2807,78.7761,89.0936,136.3232C1487.453,748.3636,1421.3733,796.8257,1348.4808,796.8257Z" style="fill:#fefefe"/><path d="M1512.4934,605.4978c-14.6318-23.6562-37.4367-43.19-67.9757-58.2491,15.6327-28.5908,20.6927-60.624,15.0241-95.5593-8.5186-52.5953-44.2161-115.4651-163.712-124.7421-8.31-44.8044-28.7347-85.5571-58.4823-116.1737-39.9869-41.1587-95.1157-62.87-159.4233-62.87h-.0134c-4.5439,0-9.1861.104-13.821.3251a207.6886,207.6886,0,0,0-64.1449,13.5256,228.4566,228.4566,0,0,0-65.0728,33.7518c-30.6635-34.3552-74.5335-54.8245-120.4373-54.8245-2.9619,0-5.9759.0814-8.9371.2556a162.9736,162.9736,0,0,0-50.4544,10.7394c-25.4723,7.9418-47.1652,22.0714-63.863,41.8672-14.3118,16.9978-24.5176,37.9546-30.0034,60.8962a232.6645,232.6645,0,0,0-43.3926-4.3306c-20.7583,0-39.2739,3.2975-55.3317,9.7532a109.5961,109.5961,0,0,0-35.0172,17.6011c-25.95,19.784-39.5684,55.7412-28.5325,92.1169a196.8152,196.8152,0,0,0-36.9916,10.136c-65.3807,21.0144-131.0226,78.5205-132.3757,168.9657-.49,33.322,18.3656,86.6306,60.9541,124.9395,40.9148,36.834,95.8736,55.5033,163.3459,55.5033,1.9288,0,3.877-.0172,5.8319-.0463,3.8181,44.7057,28.1984,109.0272,104.0662,132.0562a196.0045,196.0045,0,0,0,56.8019,8.232c33.4157,0,63.5563-7.9419,86.2562-16.417,9.304-3.0828,17.6593-6.3743,24.8054-9.5035,31.9255,30.7968,114.8993,98.2355,229.7135,98.2355,6.8061,0,13.7039-.2377,20.51-.7258a247.5137,247.5137,0,0,0,69.6756-15.4819c58.8164-19.4421,110.8261-60.0842,140.96-111.4365a192.9386,192.9386,0,0,0,53.5856,7.6744,185.7755,185.7755,0,0,0,66.6683-12.4758c56.4363-18.0826,101.6338-62.034,114.03-116.0976C1533.8008,662.3072,1528.8907,632.0044,1512.4934,605.4978Zm-10.31,78.5907c-14.73,64.2751-80.81,112.7372-153.7024,112.7372a178.3785,178.3785,0,0,1-69.3623-14.3626c-33.0951,73.1283-112.9249,127.7608-196.2253,133.6761-6.3616.4471-12.7954.68-19.1368.68-93.442,0-165.981-49.1933-203.0455-80.8894-20.5227-20.3184-30.2183-40.1606-30.2183-40.1606a56.0914,56.0914,0,0,0-7.5124,24.9337c-20.68,9.9844-56.7631,23.7894-99.999,23.7894a176.28,176.28,0,0,1-51.219-7.4134c-86.7925-26.3265-92.7945-110.4319-92.7483-133.56-7.7347.4875-15.3582.72-22.7461.72-62.6733,0-113.5067-17.12-151.0546-50.9118-45.0208-40.5083-56.2857-92.2678-55.9657-113.9677,1.4716-98.8739,86.1713-154.7316,154.2783-162.0112,7.8129,11.0532,18.3782,17.9732,29.8982,20.5157,14.05,3.1345,22.0592.3133,22.0592.3133s-3.9748-1.8345-12.2323-7.593a114.6437,114.6437,0,0,1-15.6783-13.7122c-25.7728-40.1831-8.7744-80.2973,13.56-97.3177,17.4892-13.3175,40.7052-20.0978,69.0215-20.0978s54.2658,6.78,66.7077,10.6235c4.9034-53.849,39.2022-115.0591,122.117-119.8308,2.5956-.1278,5.2241-.2324,7.82-.2324,46.76,0,93.0624,25.6012,119.96,65.8658,37.4756-35.5042,83.5689-56.1359,130.6035-58.3306,4.3283-.2205,8.676-.3251,12.9125-.3251h.0128c59.137,0,109.7347,19.9117,146.3407,57.553,30.33,31.1855,50.2582,73.8886,56.4236,120.6315,95.8541,3.8086,150.2893,41.6235,161.75,112.4583,6.0676,37.3156-1.2553,70.8813-21.7124,99.8959C1482.1312,575.9435,1515.37,626.5414,1502.1832,684.0885Z" style="fill:#231f20"/></g><g id="star"><polygon points="500.468 637.952 296.966 745.099 275.643 729.948 500.468 637.952" style="fill:#231f20"/><polyline points="165.728 819.701 195.863 752.966 158 690.292 230.73 698.353 278.589 642.961 293.397 714.666 360.821 743.108 297.26 779.373 291.068 852.339 236.975 803.044 165.728 819.701" style="fill:#231f20"/><polyline points="178.694 807.988 202.814 754.564 172.517 704.408 230.732 710.856 269.021 666.516 280.892 723.915 334.845 746.668 283.975 775.696 279.029 834.104 235.726 794.648 178.694 807.988" style="fill:#fefefe"/></g><g id="star-2" data-name="star"><polygon points="1343.608 741.684 1508.285 902.306 1533.031 893.845 1343.608 741.684" style="fill:#231f20"/><polyline points="1496.61 978 1496.61 978 1497.054 932.423 1456.329 904.898 1503.774 892.756 1518.355 849.638 1547.231 887.716 1596.965 888.597 1567.373 924.275 1583.522 967.934 1536.369 951.908 1496.61 978" style="fill:#231f20"/><polyline points="1502.161 968.773 1502.521 932.29 1469.93 910.265 1469.925 910.257 1507.888 900.539 1519.56 866.021 1542.676 896.503 1582.485 897.214 1558.803 925.762 1571.733 960.697 1533.982 947.876 1502.161 968.773" style="fill:#fefefe"/></g><g id="star-3" data-name="star"><polygon points="1213.338 276.748 1345.07 88.107 1370.959 91.769 1213.338 276.748" style="fill:#231f20"/><polyline points="1406.278 64.699 1406.278 64.699 1390.338 96.952 1409.838 130.47 1371.963 122.803 1346.831 148.454 1339.356 111.469 1304.327 93.762 1337.575 78.583 1341.066 42 1369.079 69.582 1406.278 64.699" style="fill:#231f20"/><polyline points="1399.16 69.359 1386.403 95.149 1402.011 122.015 1402.011 122.015 1371.704 115.858 1351.579 136.39 1345.611 106.801 1317.563 92.624 1344.184 80.483 1346.967 51.215 1369.411 73.279 1399.16 69.359" style="fill:#fefefe"/></g><g id="star-4" data-name="star"><polygon points="583.58 341.967 372.974 180.253 367.355 156.265 583.58 341.967" style="fill:#231f20"/><polyline points="410.791 169.938 381.919 173.909 371.704 199.192 355.6 173.909 325.699 169.843 344.685 150.245 336.405 122.455 364.222 135.564 389.067 122.527 387.293 150.245 410.802 169.926 410.791 169.938" style="fill:#231f20"/><polyline points="403.493 166.172 380.326 169.375 372.172 189.608 359.309 169.375 335.356 166.1 350.556 150.449 343.935 128.247 343.948 128.212 366.252 138.682 386.035 128.247 386.077 128.271 384.627 150.473 403.493 166.172" style="fill:#fefefe"/></g><g id="star-5" data-name="star"><polygon points="1427.207 602.173 1643.053 643.071 1656.145 658.697 1427.207 602.173" style="fill:#231f20"/><polyline points="1698 650.857 1670.794 662.896 1661.607 691.333 1645.976 670.2 1617.751 674.31 1635.293 649.162 1627.028 623.343 1627.055 623.329 1653.52 628.918 1676.606 608.818 1675.415 637.406 1698 650.857" style="fill:#231f20"/><polyline points="1689.266 652.388 1667.466 662.055 1660.129 684.793 1660.129 684.793 1647.631 667.83 1625.03 671.184 1625.024 671.159 1639.075 651.034 1632.445 630.368 1653.631 634.834 1672.147 618.726 1671.189 641.638 1689.261 652.355 1689.266 652.388" style="fill:#fefefe"/></g></g><g id="logo"><path d="M808.2367,582.3847a1.3307,1.3307,0,0,1,.8013-.2536H813.59a8.5971,8.5971,0,0,1,2.8651.4923,7.2092,7.2092,0,0,1,2.5012,1.49,7.404,7.404,0,0,1,1.77,2.5137,8.7254,8.7254,0,0,1,.6745,3.57v6.153a8.73,8.73,0,0,1-.6745,3.5678,7.4322,7.4322,0,0,1-1.77,2.5157,7.22,7.22,0,0,1-2.5012,1.4879,8.6,8.6,0,0,1-2.8651.4923H809.038a1.3368,1.3368,0,0,1-.8013-.2537.8433.8433,0,0,1-.3493-.73V583.1137A.8444.8444,0,0,1,808.2367,582.3847ZM810.19,601.66a.3976.3976,0,0,0,.4495.45H813.59a6.3385,6.3385,0,0,0,2.0377-.3392,4.992,4.992,0,0,0,1.77-1.0379,5.05,5.05,0,0,0,1.2363-1.798,6.6235,6.6235,0,0,0,.4635-2.5852v-6.153a6.6268,6.6268,0,0,0-.4635-2.5872,4.8768,4.8768,0,0,0-3.006-2.8369,6.3351,6.3351,0,0,0-2.0377-.3362H810.64a.3968.3968,0,0,0-.4495.4489Z" style="fill:#221f1f"/><path d="M828.7081,584.9126a1.3007,1.3007,0,0,1,1.7431,0,1.1692,1.1692,0,0,1,0,1.5181,1.2946,1.2946,0,0,1-1.7431,0,1.1692,1.1692,0,0,1,0-1.5181Zm.0981,4.7627a1.3321,1.3321,0,0,1,1.6022,0,.8871.8871,0,0,1,.3513.746v7.4728a5.4605,5.4605,0,0,0,.744,2.74,6.2419,6.2419,0,0,0,1.9535,2.1212,1.0469,1.0469,0,0,1,.1122,1.7134,1.3105,1.3105,0,0,1-.8707.3382,1.4561,1.4561,0,0,1-.76-.2677,4.9166,4.9166,0,0,1-.828-.6736,10.6333,10.6333,0,0,1-.76-.8446c-.2335-.2889-.4243-.5477-.5743-.7721a8.6994,8.6994,0,0,1-.9418-2.0084,7.7625,7.7625,0,0,1-.38-2.2057v-7.6137A.8869.8869,0,0,1,828.8062,589.6753Z" style="fill:#221f1f"/><path d="M848.1949,589.1831a8.64,8.64,0,0,1,1.516.5214,6.1139,6.1139,0,0,1,.9846.5477c.234.1691.37.2708.4067.308a.9757.9757,0,0,1,.3373.9563,1.0914,1.0914,0,0,1-.4782.744,1.3908,1.3908,0,0,1-.7863.2678.6965.6965,0,0,1-.3785-.0986,3.3691,3.3691,0,0,1-.2959-.21,5.757,5.757,0,0,0-3.2311-1.0127,7.77,7.77,0,0,0-1.2362.1,4.8527,4.8527,0,0,0-1.124.3091,2.4172,2.4172,0,0,0-.83.5477,1.1758,1.1758,0,0,0-.3227.8416,1.3488,1.3488,0,0,0,.4208,1.0541,2.6681,2.6681,0,0,0,1.0133.5627,5.9063,5.9063,0,0,0,1.2221.2385c.4209.0373.7727.0746,1.0525.1128a16.1118,16.1118,0,0,1,2.2334.4208,6.3514,6.3514,0,0,1,1.87.8154,3.9625,3.9625,0,0,1,1.2916,1.3772,4.151,4.151,0,0,1,.4782,2.0779c0,.1318-.0055.2537-.0145.3664s-.0232.2426-.0408.3916a4.6648,4.6648,0,0,1-.7173,2.0516,5.1739,5.1739,0,0,1-1.42,1.4477,6.4125,6.4125,0,0,1-1.8821.8718,7.7936,7.7936,0,0,1-2.1357.295h-.3922a2.6034,2.6034,0,0,1-.3946-.0292,7.5084,7.5084,0,0,1-1.7551-.3926,9.2811,9.2811,0,0,1-1.6858-.7863,7.865,7.865,0,0,1-1.4612-1.1244,5.1991,5.1991,0,0,1-1.0545-1.4608,1.1143,1.1143,0,0,1-.0982-.6191,1.2239,1.2239,0,0,1,.211-.5476,1.387,1.387,0,0,1,.4222-.3927,1,1,0,0,1,.5336-.155.9789.9789,0,0,1,.8421.4349c.2069.2909.4032.5476.5905.7732a5.4027,5.4027,0,0,0,1.6715,1.3479,5.6386,5.6386,0,0,0,2.0376.6192,1.4814,1.4814,0,0,0,.28.0291h.2818a5.6292,5.6292,0,0,0,1.2791-.155,4.4146,4.4146,0,0,0,1.1935-.4641,3.0159,3.0159,0,0,0,.9135-.8154,2.4334,2.4334,0,0,0,.4636-1.1788.923.923,0,0,1,.0146-.17,1.0965,1.0965,0,0,0,.0141-.1671,1.9185,1.9185,0,0,0-.3659-1.2221,2.8951,2.8951,0,0,0-.9131-.76,4.1865,4.1865,0,0,0-1.2362-.4209c-.4586-.0845-.8956-.1559-1.3062-.2113-.3746-.0373-.7883-.0937-1.2378-.1692a11.4194,11.4194,0,0,1-1.349-.308,8.0439,8.0439,0,0,1-1.2769-.4913,3.3539,3.3539,0,0,1-.9977-.7168,3.5454,3.5454,0,0,1-.7027-1.1527,3.6607,3.6607,0,0,1,.0554-2.6687,3.5418,3.5418,0,0,1,.8436-1.208,5.2827,5.2827,0,0,1,1.11-.7581,6.2768,6.2768,0,0,1,1.2362-.4782,8.8152,8.8152,0,0,1,1.2221-.2386,9.2553,9.2553,0,0,1,1.0687-.0714A8.1843,8.1843,0,0,1,848.1949,589.1831Z" style="fill:#221f1f"/><path d="M859.1967,593.7928a7.2535,7.2535,0,0,1,4.06-4.2443,8.1045,8.1045,0,0,1,3.2169-.6172c.2427,0,.5155.0152.815.0414.3.0281.603.0714.9136.1268a7.4429,7.4429,0,0,1,.899.2245,5.9535,5.9535,0,0,1,.7727.3091.9453.9453,0,0,1,.4781.55,1.2376,1.2376,0,0,1-.3105,1.2765.9035.9035,0,0,1-.6745.2537,3.89,3.89,0,0,1-1.2076-.2386,5.2633,5.2633,0,0,0-1.6858-.24,5.7888,5.7888,0,0,0-2.3053.436,5.0392,5.0392,0,0,0-2.8223,3.0069,6.7825,6.7825,0,0,0-.38,2.3175,7.0071,7.0071,0,0,0,.3659,2.3174,4.9529,4.9529,0,0,0,1.0813,1.8131,5.1006,5.1006,0,0,0,1.7431,1.1949,5.8962,5.8962,0,0,0,2.3173.435,5.2649,5.2649,0,0,0,1.6858-.2387,3.8628,3.8628,0,0,1,1.2076-.24.9078.9078,0,0,1,.6745.2537,1.24,1.24,0,0,1,.3105,1.2776.9456.9456,0,0,1-.4781.55,3.9784,3.9784,0,0,1-.7727.3353,6.7779,6.7779,0,0,1-.899.2244c-.3106.0574-.6136.1-.9136.1269s-.5723.0433-.815.0433a8.0719,8.0719,0,0,1-3.2169-.6191,7.3131,7.3131,0,0,1-2.4724-1.6984,7.582,7.582,0,0,1-1.5875-2.559,9.4383,9.4383,0,0,1,0-6.4187Z" style="fill:#221f1f"/><path d="M881.2535,604.5947a7.0794,7.0794,0,0,1-2.5011-1.502,7.7543,7.7543,0,0,1-1.7839-2.53,8.57,8.57,0,0,1-.6886-3.5677,8.7135,8.7135,0,0,1,.6745-3.5677,7.2115,7.2115,0,0,1,4.2991-4.0047,8.5206,8.5206,0,0,1,5.7036,0,7.2273,7.2273,0,0,1,2.501,1.4888,7.4317,7.4317,0,0,1,1.77,2.5159,9.7727,9.7727,0,0,1,0,7.1354,7.4665,7.4665,0,0,1-1.7838,2.53,7.2349,7.2349,0,0,1-2.5158,1.502,8.4068,8.4068,0,0,1-5.6748,0Zm4.874-2.1493a4.865,4.865,0,0,0,1.7718-1.0531,5.2065,5.2065,0,0,0,1.2362-1.812,7.4624,7.4624,0,0,0,0-5.17,5.0664,5.0664,0,0,0-1.2362-1.7981,4.9922,4.9922,0,0,0-1.7718-1.04,6.3153,6.3153,0,0,0-4.0726,0,4.9926,4.9926,0,0,0-1.7719,1.04,5.0613,5.0613,0,0,0-1.2362,1.7981,6.6158,6.6158,0,0,0-.4636,2.5852,6.449,6.449,0,0,0,.4777,2.5852,5.3346,5.3346,0,0,0,1.2509,1.812,4.8758,4.8758,0,0,0,1.7572,1.0531,6.1962,6.1962,0,0,0,2.023.3392A6.3189,6.3189,0,0,0,886.1275,602.4454Z" style="fill:#221f1f"/><path d="M909.0572,589.5082a1.3093,1.3093,0,0,1,.83.07,1.2782,1.2782,0,0,1,.6458.5476.8694.8694,0,0,1,.0287.8295L904.97,603.9917a.7784.7784,0,0,1-.4229.4218,1.6469,1.6469,0,0,1-.617.1117,1.74,1.74,0,0,1-.6459-.1117.778.778,0,0,1-.4213-.4218l-5.5353-13.0942a.8333.8333,0,0,1,.0267-.8155,1.3081,1.3081,0,0,1,.6472-.5335,1.3479,1.3479,0,0,1,.8155-.0836.8429.8429,0,0,1,.6171.5336l4.496,10.5936,4.5241-10.5362A.8089.8089,0,0,1,909.0572,589.5082Z" style="fill:#221f1f"/><path d="M931.4534,597.8105a1.1467,1.1467,0,0,1-.7153.4208l-11.6889,1.8553a4.6616,4.6616,0,0,0,2.05,2.1071,6.0966,6.0966,0,0,0,2.8117.6745,6.02,6.02,0,0,0,2.4438-.5063c.0377-.0182.1072-.0464.2109-.0847a.6774.6774,0,0,1,.3654-.0141,1.1079,1.1079,0,0,1,.828.7461,1.1627,1.1627,0,0,1,.0982.8133.95.95,0,0,1-.5743.6464,8.1644,8.1644,0,0,1-3.372.7026,8.5517,8.5517,0,0,1-2.8384-.4912,7.1274,7.1274,0,0,1-2.5012-1.503,7.745,7.745,0,0,1-1.7838-2.53,8.5664,8.5664,0,0,1-.6886-3.5687,8.73,8.73,0,0,1,.674-3.5678,7.2122,7.2122,0,0,1,4.3-4.0027,8.5276,8.5276,0,0,1,2.8384-.4922,8.3975,8.3975,0,0,1,2.8223.4922,7.3783,7.3783,0,0,1,2.5012,1.488,7.5011,7.5011,0,0,1,1.7979,2.5,8.4817,8.4817,0,0,1,.6892,3.5537A1.1919,1.1919,0,0,1,931.4534,597.8105Zm-2.43-1.6591a.3045.3045,0,0,0,.2391-.168.4389.4389,0,0,0,.0427-.282,5.7754,5.7754,0,0,0-.7459-1.951,5.0393,5.0393,0,0,0-1.25-1.3771,4.9212,4.9212,0,0,0-1.6148-.8013,6.4816,6.4816,0,0,0-1.7839-.2517,6.2767,6.2767,0,0,0-2.0516.3352,5.0235,5.0235,0,0,0-1.7572,1.04,5.0867,5.0867,0,0,0-1.2363,1.799,6.6147,6.6147,0,0,0-.4641,2.5843v.3946c.0393.2426.17.3463.3947.3091Z" style="fill:#221f1f"/><path d="M940.853,603.5427a.8235.8235,0,0,1-.3655.7439,1.4164,1.4164,0,0,1-1.5735,0,.826.826,0,0,1-.3639-.7439v-6.5476a8.964,8.964,0,0,1,.5618-3.2164,7.5853,7.5853,0,0,1,1.588-2.5581,7.3155,7.3155,0,0,1,2.4579-1.6983,7.9759,7.9759,0,0,1,3.2024-.6191q.3669,0,.83.0433c.3086.0262.6176.0695.9277.1258a6.2288,6.2288,0,0,1,.8849.2255,3.9761,3.9761,0,0,1,.758.3353,1.01,1.01,0,0,1,.4927.55,1.1575,1.1575,0,0,1,.0409.6886,1.185,1.185,0,0,1-.3514.5879.9513.9513,0,0,1-.6886.2537,3.704,3.704,0,0,1-1.1934-.2537,5.156,5.156,0,0,0-1.7-.2526,5.7592,5.7592,0,0,0-2.3029.4368,5.018,5.018,0,0,0-1.729,1.2081,5.2871,5.2871,0,0,0-1.0953,1.8261,6.7825,6.7825,0,0,0-.38,2.3175Z" style="fill:#221f1f"/><path d="M979.4888,589.5344a1.2029,1.2029,0,0,1,1.504.6483.9674.9674,0,0,1,.0141.743l-6.8557,16.1848a8.8381,8.8381,0,0,1-1.363,2.3033,7.8372,7.8372,0,0,1-1.727,1.56,7.33,7.33,0,0,1-1.953.9,7.4513,7.4513,0,0,1-2.0663.2939,7.535,7.535,0,0,1-1.6571-.1822,9.9163,9.9163,0,0,1-1.5734-.4923.9013.9013,0,0,1-.4929-.5476,1.2631,1.2631,0,0,1,.0147-.8849,1.1832,1.1832,0,0,1,.5905-.66.9926.9926,0,0,1,.7866-.0422,8.2885,8.2885,0,0,0,1.1527.3654,5.2411,5.2411,0,0,0,1.2076.1389,5.16,5.16,0,0,0,2.7956-.8416,5.9619,5.9619,0,0,0,2.178-2.81l1.0117-2.3606a1.2429,1.2429,0,0,0,0-.8991l-5.1145-11.9707a.9147.9147,0,0,1,.0141-.8416,1.3605,1.3605,0,0,1,.66-.5617,1.2585,1.2585,0,0,1,.8583-.0836.9171.9171,0,0,1,.603.5879l4.4119,10.3691L978.9,590.0266A.9078.9078,0,0,1,979.4888,589.5344Z" style="fill:#221f1f"/><path d="M991.4042,604.5947a7.0789,7.0789,0,0,1-2.5012-1.502,7.7484,7.7484,0,0,1-1.7839-2.53,8.5684,8.5684,0,0,1-.6886-3.5677,8.7135,8.7135,0,0,1,.6745-3.5677,7.2113,7.2113,0,0,1,4.2992-4.0047,8.52,8.52,0,0,1,5.7034,0,7.2272,7.2272,0,0,1,2.5012,1.4888,7.44,7.44,0,0,1,1.77,2.5159,9.7795,9.7795,0,0,1,0,7.1354,7.4679,7.4679,0,0,1-1.7844,2.53,7.2288,7.2288,0,0,1-2.5152,1.502,8.4068,8.4068,0,0,1-5.6748,0Zm4.8739-2.1493a4.8581,4.8581,0,0,0,1.7713-1.0531,5.1931,5.1931,0,0,0,1.2362-1.812,7.4624,7.4624,0,0,0,0-5.17,5.0537,5.0537,0,0,0-1.2362-1.7981,4.9849,4.9849,0,0,0-1.7713-1.04,6.3171,6.3171,0,0,0-4.0732,0,4.9845,4.9845,0,0,0-1.7712,1.04,5.0588,5.0588,0,0,0-1.2362,1.7981,6.6137,6.6137,0,0,0-.4641,2.5852,6.4489,6.4489,0,0,0,.4781,2.5852,5.3276,5.3276,0,0,0,1.2509,1.812,4.8724,4.8724,0,0,0,1.7572,1.0531,6.1965,6.1965,0,0,0,2.0229.3392A6.3209,6.3209,0,0,0,996.2781,602.4454Z" style="fill:#221f1f"/><path d="M1021.498,603.5427a.66.66,0,0,0-.392.1409,7.043,7.043,0,0,1-2.2072,1.0671,8.81,8.81,0,0,1-2.4031.3373,8.5263,8.5263,0,0,1-2.8364-.4933,7.2091,7.2091,0,0,1-4.2991-4.0026,8.7213,8.7213,0,0,1-.6745-3.5678v-6.5758a.8435.8435,0,0,1,.3514-.73,1.3917,1.3917,0,0,1,1.6022,0,.8437.8437,0,0,1,.3513.73v6.5758a6.614,6.614,0,0,0,.4621,2.5842,5.0907,5.0907,0,0,0,1.2362,1.799,5.002,5.002,0,0,0,1.7572,1.0379,6.2861,6.2861,0,0,0,2.05.3392,6.2,6.2,0,0,0,2.0235-.3392,5,5,0,0,0,1.7567-1.0379,5.2409,5.2409,0,0,0,1.2509-1.7839,6.3581,6.3581,0,0,0,.4781-2.5732v-6.6019a.8414.8414,0,0,1,.35-.73,1.3907,1.3907,0,0,1,1.6016,0,.8434.8434,0,0,1,.3513.73v12.9532a1.08,1.08,0,0,1-.3513.8295,1.1532,1.1532,0,0,1-.8007.3232,1.0614,1.0614,0,0,1-1.0667-.6191A.6308.6308,0,0,0,1021.498,603.5427Z" style="fill:#221f1f"/><path d="M1034.1433,603.5427a.8257.8257,0,0,1-.364.7439,1.4162,1.4162,0,0,1-1.5734,0,.8229.8229,0,0,1-.3659-.7439v-6.5476a8.9662,8.9662,0,0,1,.5617-3.2164,7.601,7.601,0,0,1,1.588-2.5581,7.312,7.312,0,0,1,2.4585-1.6983,7.9732,7.9732,0,0,1,3.2022-.6191q.3663,0,.83.0433c.3085.0262.6171.0695.9276.1258a6.2391,6.2391,0,0,1,.8849.2255,4.0024,4.0024,0,0,1,.7581.3353,1.0013,1.0013,0,0,1,.4923.55,1.1577,1.1577,0,0,1,.0413.6886,1.185,1.185,0,0,1-.3514.5879.9509.9509,0,0,1-.6871.2537,3.7044,3.7044,0,0,1-1.1954-.2537,5.1548,5.1548,0,0,0-1.7-.2526,5.7628,5.7628,0,0,0-2.3032.4368,5.0164,5.0164,0,0,0-1.7286,1.2081,5.2794,5.2794,0,0,0-1.0953,1.8261,6.77,6.77,0,0,0-.38,2.3175Z" style="fill:#221f1f"/><path d="M1057.4505,589.1831a8.6629,8.6629,0,0,1,1.5171.5214,6.1361,6.1361,0,0,1,.9846.5477c.2335.1691.37.2708.4067.308a.9768.9768,0,0,1,.3373.9563,1.1016,1.1016,0,0,1-.4782.744,1.3938,1.3938,0,0,1-.7873.2678.6949.6949,0,0,1-.3775-.0986,3.3119,3.3119,0,0,1-.296-.21,5.755,5.755,0,0,0-3.231-1.0127,7.7778,7.7778,0,0,0-1.2368.1,4.8559,4.8559,0,0,0-1.1234.3091,2.4124,2.4124,0,0,0-.83.5477,1.1741,1.1741,0,0,0-.3232.8416,1.3427,1.3427,0,0,0,.4229,1.0541,2.6478,2.6478,0,0,0,1.01.5627,5.94,5.94,0,0,0,1.2236.2385q.6319.056,1.0525.1128a16.108,16.108,0,0,1,2.2339.4208,6.35,6.35,0,0,1,1.8694.8154,3.9554,3.9554,0,0,1,1.2917,1.3772,4.1531,4.1531,0,0,1,.4781,2.0779c0,.1318-.005.2537-.014.3664s-.0232.2426-.0433.3916a4.6379,4.6379,0,0,1-.7148,2.0516,5.2224,5.2224,0,0,1-1.4185,1.4477,6.4613,6.4613,0,0,1-1.8835.8718,7.7936,7.7936,0,0,1-2.1357.295h-.3927a2.6026,2.6026,0,0,1-.3941-.0292,7.5131,7.5131,0,0,1-1.7557-.3926,9.2959,9.2959,0,0,1-1.6857-.7863,7.8848,7.8848,0,0,1-1.4612-1.1244,5.1977,5.1977,0,0,1-1.0541-1.4608,1.1125,1.1125,0,0,1-.0981-.6191,1.2231,1.2231,0,0,1,.21-.5476,1.4006,1.4006,0,0,1,.4208-.3927,1.009,1.009,0,0,1,.535-.155.9775.9775,0,0,1,.8421.4349c.2069.2909.4032.5476.5905.7732a5.4256,5.4256,0,0,0,1.6717,1.3479,5.64,5.64,0,0,0,2.0375.6192,1.4744,1.4744,0,0,0,.2819.0291h.28a5.63,5.63,0,0,0,1.279-.155,4.3968,4.3968,0,0,0,1.1939-.4641,3.05,3.05,0,0,0,.9131-.8154,2.433,2.433,0,0,0,.4641-1.1788.8809.8809,0,0,1,.0141-.17,1.0334,1.0334,0,0,0,.0121-.1671,1.9183,1.9183,0,0,0-.3634-1.2221,2.8988,2.8988,0,0,0-.9132-.76,4.1944,4.1944,0,0,0-1.2362-.4209c-.459-.0845-.8939-.1559-1.3081-.2113-.3745-.0373-.7848-.0937-1.2343-.1692a11.4194,11.4194,0,0,1-1.349-.308,8.0755,8.0755,0,0,1-1.279-.4913,3.3522,3.3522,0,0,1-.9971-.7168,3.5384,3.5384,0,0,1-.7032-1.1527,3.6713,3.6713,0,0,1-.2245-1.2633,3.584,3.584,0,0,1,.2818-1.4054,3.4845,3.4845,0,0,1,.8421-1.208,5.2672,5.2672,0,0,1,1.11-.7581,6.2744,6.2744,0,0,1,1.2362-.4782,8.825,8.825,0,0,1,1.2222-.2386,9.2594,9.2594,0,0,1,1.0686-.0714A8.17,8.17,0,0,1,1057.4505,589.1831Z" style="fill:#221f1f"/><path d="M1083.33,597.8105a1.1479,1.1479,0,0,1-.7158.4208l-11.6889,1.8553a4.6607,4.6607,0,0,0,2.0517,2.1071,6.0819,6.0819,0,0,0,2.8077.6745,6.019,6.019,0,0,0,2.4463-.5063c.0373-.0182.1067-.0464.21-.0847a.6776.6776,0,0,1,.3654-.0141,1.1075,1.1075,0,0,1,.8285.7461,1.16,1.16,0,0,1,.0978.8133.9483.9483,0,0,1-.5759.6464,8.1667,8.1667,0,0,1-3.3725.7026,8.5439,8.5439,0,0,1-2.8359-.4912,7.1438,7.1438,0,0,1-2.5017-1.503,7.7316,7.7316,0,0,1-1.7838-2.53,8.5743,8.5743,0,0,1-.6886-3.5687,8.7213,8.7213,0,0,1,.6745-3.5678,7.2087,7.2087,0,0,1,4.3-4.0027,8.52,8.52,0,0,1,2.8359-.4922,8.4032,8.4032,0,0,1,2.8248.4922,7.3752,7.3752,0,0,1,2.5007,1.488,7.4872,7.4872,0,0,1,1.7979,2.5,8.4724,8.4724,0,0,1,.6887,3.5537A1.1909,1.1909,0,0,1,1083.33,597.8105Zm-2.43-1.6591a.3018.3018,0,0,0,.2385-.168.422.422,0,0,0,.0414-.282,5.7759,5.7759,0,0,0-.744-1.951,5.0362,5.0362,0,0,0-1.25-1.3771,4.9193,4.9193,0,0,0-1.6148-.8013,6.49,6.49,0,0,0-1.7859-.2517,6.2848,6.2848,0,0,0-2.05.3352,5.0214,5.0214,0,0,0-1.7567,1.04,5.08,5.08,0,0,0-1.2362,1.799,6.6047,6.6047,0,0,0-.4622,2.5843v.3946c.0353.2426.1671.3463.3927.3091Z" style="fill:#221f1f"/><path d="M1089.8926,582.8338a.8573.8573,0,0,1,.3392-.73,1.4393,1.4393,0,0,1,1.6289,0,.8557.8557,0,0,1,.3373.73v14.1613a6.5941,6.5941,0,0,0,.4631,2.5993,5.1906,5.1906,0,0,0,1.2372,1.7979,4.8563,4.8563,0,0,0,1.7688,1.0531,6.3329,6.3329,0,0,0,2.0376.3392.8775.8775,0,0,1,.7438.3494,1.3308,1.3308,0,0,1,0,1.6016.8773.8773,0,0,1-.7438.3524,8.5325,8.5325,0,0,1-2.838-.4933,7.0938,7.0938,0,0,1-2.5016-1.502,7.7857,7.7857,0,0,1-1.7839-2.53,8.5779,8.5779,0,0,1-.6886-3.5677Z" style="fill:#221f1f"/><path d="M1105.2921,591.6847a.9586.9586,0,0,0-.7026-.2808h-.6191a.9836.9836,0,1,1,0-1.9671h.6745a.909.909,0,0,0,.7309-.3373,1.9,1.9,0,0,0,.3372-.8154,7.2507,7.2507,0,0,1,2.81-4.8594,7.5513,7.5513,0,0,1,2.3174-1.21,8.51,8.51,0,0,1,2.5439-.3926,1.1518,1.1518,0,0,1,.8135,1.9661,1.05,1.05,0,0,1-.8135.3393,6.2233,6.2233,0,0,0-1.7284.2375,5.3284,5.3284,0,0,0-1.5594.745,5.6629,5.6629,0,0,0-2.0226,3.0634.9043.9043,0,0,0,.1411.8427.84.84,0,0,0,.7288.4208h3.3171a.9836.9836,0,1,1,0,1.9671H1108.86a.9614.9614,0,0,0-.9845.9835v10.9851a1.1077,1.1077,0,0,1-.3352.8154,1.0537,1.0537,0,0,1-.8155.3373,1.1514,1.1514,0,0,1-1.1527-1.1527V592.3874A1.0972,1.0972,0,0,0,1105.2921,591.6847Z" style="fill:#221f1f"/><path d="M1092.43,557.2534h21.8132V495.8021H1127.28l35.5921,64.9566L1182,550.2819l-30.5917-55.82A38.6452,38.6452,0,0,0,1141.27,418.527h-56.3473l30.3995,55.4714h-33.98v21.8037H1092.43Zm29.3162-116.9187H1141.27a16.8319,16.8319,0,1,1,0,33.6637h-1.0721Z" style="fill:#221f1f"/><path d="M1099.08,400.7264V339.2857h27.0442a38.6429,38.6429,0,0,0,0-77.2857h-55.1875l26.3333,55.4765h-31.0769v21.8092h11.0777v61.4407Zm27.0442-116.9137a16.8319,16.8319,0,0,1,0,33.6638h-4.7275l-15.9744-33.6638Z" style="fill:#221f1f"/><path d="M815.9632,400.7264V339.2857h27.0436a38.6429,38.6429,0,0,0,0-77.2857H787.8227l26.3335,55.4765h-31.077v21.8092h11.0783v61.4407Zm27.0436-116.9137a16.8319,16.8319,0,1,1,0,33.6638h-4.726l-15.9754-33.6638Z" style="fill:#221f1f"/><path d="M786.1814,479.2791v-.1178H773.217a19.4133,19.4133,0,0,1,0-38.8266h41.4707V418.527H773.217a41.2,41.2,0,0,0-5.3249,82.0565v39.2156H738.458v21.8073h45.338a41.1974,41.1974,0,0,0,2.3854-82.3273Zm3.5179,59.5959V501.8907a19.4091,19.4091,0,0,1,0,36.9843Z" style="fill:#221f1f"/><rect x="835.4444" y="418.527" width="104.4809" height="21.8057" style="fill:#221f1f"/><polygon points="835.444 470.655 876.781 470.655 876.781 560.135 898.59 560.135 898.59 470.655 939.925 470.655 939.925 448.842 835.444 448.842 835.444 470.655" style="fill:#221f1f"/><polygon points="1005.781 434.622 968.137 545.909 1059.788 542.635 1005.781 434.622" style="fill:#d760a3"/><path d="M1011.208,405.4292,947.1489,556.4259h128.1294Zm0,55.8369,31.1273,73.3536h-62.24Z" style="fill:#221f1f"/><polygon points="926.915 295.551 1016.383 378.471 961.833 395.933 913.824 356.655 926.915 295.551" style="fill:#faaa41"/><polygon points="931.28 282.459 996.747 273.728 1036.023 317.377 1016.383 378.471 931.28 282.459" style="fill:#69bc45"/><path d="M1010.7032,301.9007a49.74,49.74,0,0,1,5.0093,55.944c-.692,1.2257-1.4445,2.4066-2.23,3.5623l-69.0243-69.0242a49.6757,49.6757,0,0,1,66.2448,9.5179ZM922.612,333.5253a49.3035,49.3035,0,0,1,6.9432-25.2058l68.0235,68.0235a49.6951,49.6951,0,0,1-74.9667-42.8177ZM972.3331,262a71.5141,71.5141,0,1,0,55.1916,26.0228A71.61,71.61,0,0,0,972.3331,262Z" style="fill:#221f1f"/></g></g></g></g><g id="title-and-body"><g style="clip-path:url(#clip-path-2)"><g id="_Group_" data-name="&lt;Group&gt;"><path id="_Path_" data-name="&lt;Path&gt;" d="M1902.9516.8134a10.039,10.039,0,0,0,11.3985-8.469,10.0411,10.0411,0,0,0-8.4638-11.3985,10.04,10.04,0,0,0-11.3933,8.4656A10.039,10.039,0,0,0,1902.9516.8134Z"/><path id="_Path_2" data-name="&lt;Path&gt;" d="M1921.5948,4.4235A10.8893,10.8893,0,0,0,1933.96-4.7577a10.8874,10.8874,0,0,0-9.1848-12.3632A10.8928,10.8928,0,0,0,1912.4136-7.94,10.89,10.89,0,0,0,1921.5948,4.4235Z"/><path id="_Path_3" data-name="&lt;Path&gt;" d="M1816.4225,2.4273a5.3055,5.3055,0,0,0,6.0238-4.4732,5.3079,5.3079,0,0,0-4.4713-6.02,5.3038,5.3038,0,0,0-6.02,4.47A5.3045,5.3045,0,0,0,1816.4225,2.4273Z"/><path id="_Path_4" data-name="&lt;Path&gt;" d="M1835.0569,6.0829A6.197,6.197,0,0,0,1842.098.859a6.204,6.204,0,0,0-5.2291-7.0481A6.2121,6.2121,0,0,0,1829.83-.9582,6.2036,6.2036,0,0,0,1835.0569,6.0829Z"/><path id="_Path_5" data-name="&lt;Path&gt;" d="M1853.693,9.7456a7.1,7.1,0,1,0-5.9851-8.0621A7.1,7.1,0,0,0,1853.693,9.7456Z"/><path id="_Path_6" data-name="&lt;Path&gt;" d="M1872.3292,13.4048a8.0006,8.0006,0,1,0-6.743-9.083A8.0028,8.0028,0,0,0,1872.3292,13.4048Z"/><path id="_Path_7" data-name="&lt;Path&gt;" d="M1890.9724,17.0183a8.8535,8.8535,0,1,0-7.4638-10.0513A8.8554,8.8554,0,0,0,1890.9724,17.0183Z"/><path id="_Path_8" data-name="&lt;Path&gt;" d="M1909.6262,20.5442a9.6124,9.6124,0,1,0-8.099-10.9144A9.6122,9.6122,0,0,0,1909.6262,20.5442Z"/><path id="_Path_9" data-name="&lt;Path&gt;" d="M1928.2921,24.014a10.3217,10.3217,0,1,0-8.7023-11.7179A10.3228,10.3228,0,0,0,1928.2921,24.014Z"/><path id="_Path_10" data-name="&lt;Path&gt;" d="M1767.0324,12.2505a3.2663,3.2663,0,1,0-2.754-3.7048A3.26,3.26,0,0,0,1767.0324,12.2505Z"/><path id="_Path_11" data-name="&lt;Path&gt;" d="M1785.67,15.9133a4.167,4.167,0,1,0-3.5137-4.7328A4.1662,4.1662,0,0,0,1785.67,15.9133Z"/><path id="_Path_12" data-name="&lt;Path&gt;" d="M1804.3048,19.5724a5.0659,5.0659,0,1,0-4.2679-5.75A5.0686,5.0686,0,0,0,1804.3048,19.5724Z"/><path id="_Path_13" data-name="&lt;Path&gt;" d="M1822.948,23.1859a5.9187,5.9187,0,1,0-4.9906-6.7219A5.9133,5.9133,0,0,0,1822.948,23.1859Z"/><path id="_Path_14" data-name="&lt;Path&gt;" d="M1841.5877,26.8031a6.7736,6.7736,0,1,0-5.7045-7.6868A6.7733,6.7733,0,0,0,1841.5877,26.8031Z"/><path id="_Path_15" data-name="&lt;Path&gt;" d="M1860.24,30.364a7.5732,7.5732,0,1,0-6.3888-8.5989A7.5684,7.5684,0,0,0,1860.24,30.364Z"/><path id="_Path_16" data-name="&lt;Path&gt;" d="M1878.8951,33.8862a8.3319,8.3319,0,1,0-7.0237-9.4583A8.3336,8.3336,0,0,0,1878.8951,33.8862Z"/><path id="_Path_17" data-name="&lt;Path&gt;" d="M1897.5647,37.314a8.9954,8.9954,0,1,0-7.5833-10.2128A9.0032,9.0032,0,0,0,1897.5647,37.314Z"/><path id="_Path_18" data-name="&lt;Path&gt;" d="M1916.2621,40.5555a9.4722,9.4722,0,1,0-7.9849-10.7529A9.4784,9.4784,0,0,0,1916.2621,40.5555Z"/><path id="_Path_19" data-name="&lt;Path&gt;" d="M1755.0464,28.5116a2.1311,2.1311,0,1,0-1.8-2.4242A2.131,2.131,0,0,0,1755.0464,28.5116Z"/><path id="_Path_20" data-name="&lt;Path&gt;" d="M1773.6842,32.1252a2.9843,2.9843,0,1,0-2.5119-3.3926A2.9857,2.9857,0,0,0,1773.6842,32.1252Z"/><path id="_Path_21" data-name="&lt;Path&gt;" d="M1792.3309,35.7423a3.8355,3.8355,0,1,0-3.2347-4.361A3.8441,3.8441,0,0,0,1792.3309,35.7423Z"/><path id="_Path_22" data-name="&lt;Path&gt;" d="M1810.9723,39.3522a4.6882,4.6882,0,1,0-3.9521-5.3255A4.6848,4.6848,0,0,0,1810.9723,39.3522Z"/><path id="_Path_23" data-name="&lt;Path&gt;" d="M1829.6173,42.9167a5.4936,5.4936,0,1,0-4.6239-6.2342A5.4928,5.4928,0,0,0,1829.6173,42.9167Z"/><path id="_Path_24" data-name="&lt;Path&gt;" d="M1848.2727,46.4846a6.2963,6.2963,0,1,0-5.3116-7.15A6.2992,6.2992,0,0,0,1848.2727,46.4846Z"/><path id="_Path_25" data-name="&lt;Path&gt;" d="M1866.9352,49.9615a7.0093,7.0093,0,1,0-5.9062-7.9639A7.0163,7.0163,0,0,0,1866.9352,49.9615Z"/><path id="_Path_26" data-name="&lt;Path&gt;" d="M1885.6048,53.3891a7.6708,7.6708,0,1,0-6.4676-8.7111A7.6775,7.6775,0,0,0,1885.6048,53.3891Z"/><path id="_Path_27" data-name="&lt;Path&gt;" d="M1904.2864,56.7148a8.2363,8.2363,0,1,0-6.9447-9.3531A8.2373,8.2373,0,0,0,1904.2864,56.7148Z"/><path id="_Path_28" data-name="&lt;Path&gt;" d="M1923,59.8653a8.6193,8.6193,0,1,0-7.2656-9.7916A8.6221,8.6221,0,0,0,1923,59.8653Z"/><path id="_Path_29" data-name="&lt;Path&gt;" d="M1780.2342,52.7365a3.4523,3.4523,0,1,0-2.9153-3.9189A3.4467,3.4467,0,0,0,1780.2342,52.7365Z"/><path id="_Path_30" data-name="&lt;Path&gt;" d="M1798.89,56.2624a4.2146,4.2146,0,1,0-3.5523-4.7819A4.2139,4.2139,0,0,0,1798.89,56.2624Z"/><path id="_Path_31" data-name="&lt;Path&gt;" d="M1817.54,59.8233a5.0109,5.0109,0,1,0-4.2311-5.694A5.0045,5.0045,0,0,0,1817.54,59.8233Z"/><path id="_Path_32" data-name="&lt;Path&gt;" d="M1836.2006,63.3a5.7256,5.7256,0,1,0-4.8275-6.5042A5.727,5.727,0,0,0,1836.2006,63.3Z"/><path id="_Path_33" data-name="&lt;Path&gt;" d="M1854.8719,66.7311a6.3923,6.3923,0,1,0-5.3887-7.2622A6.3954,6.3954,0,0,0,1854.8719,66.7311Z"/><path id="_Path_34" data-name="&lt;Path&gt;" d="M1873.5519,70.0641a6.9581,6.9581,0,1,0-5.8658-7.9043A6.9623,6.9623,0,0,0,1873.5519,70.0641Z"/><path id="_Path_35" data-name="&lt;Path&gt;" d="M1892.2512,73.3022a7.4331,7.4331,0,1,0-6.2657-8.4376A7.442,7.442,0,0,0,1892.2512,73.3022Z"/><path id="_Path_36" data-name="&lt;Path&gt;" d="M1910.977,76.3474a7.7133,7.7133,0,1,0-6.5063-8.7568A7.7108,7.7108,0,0,0,1910.977,76.3474Z"/><path id="_Path_37" data-name="&lt;Path&gt;" d="M1786.9212,72.383a2.9364,2.9364,0,1,0-2.4753-3.3363A2.936,2.936,0,0,0,1786.9212,72.383Z"/><path id="_Path_38" data-name="&lt;Path&gt;" d="M1805.5766,75.8983a3.6935,3.6935,0,1,0-3.1137-4.1889A3.69,3.69,0,0,0,1805.5766,75.8983Z"/><path id="_Path_39" data-name="&lt;Path&gt;" d="M1824.2391,79.3681a4.3976,4.3976,0,1,0-3.7136-4.9959A4.395,4.395,0,0,0,1824.2391,79.3681Z"/><path id="_Path_40" data-name="&lt;Path&gt;" d="M1842.9067,82.7992a5.0644,5.0644,0,1,0-4.2677-5.7536A5.068,5.068,0,0,0,1842.9067,82.7992Z"/><path id="_Path_41" data-name="&lt;Path&gt;" d="M1861.5869,86.1777a5.6813,5.6813,0,1,0-4.7906-6.4483A5.6752,5.6752,0,0,0,1861.5869,86.1777Z"/><path id="_Path_42" data-name="&lt;Path&gt;" d="M1880.2843,89.4158a6.1565,6.1565,0,1,0-5.187-6.9815A6.1528,6.1528,0,0,0,1880.2843,89.4158Z"/><path id="_Path_43" data-name="&lt;Path&gt;" d="M1898.9871,92.6119a6.58,6.58,0,1,0-5.5448-7.4692A6.5814,6.5814,0,0,0,1898.9871,92.6119Z"/><path id="_Path_44" data-name="&lt;Path&gt;" d="M1917.7216,95.6115a6.8128,6.8128,0,1,0-5.75-7.7394A6.8112,6.8112,0,0,0,1917.7216,95.6115Z"/><path id="_Path_45" data-name="&lt;Path&gt;" d="M1793.5133,92.6751a3.0818,3.0818,0,1,0-2.5928-3.4978A3.0731,3.0731,0,0,0,1793.5133,92.6751Z"/><path id="_Path_46" data-name="&lt;Path&gt;" d="M1812.188,96.0992a3.7376,3.7376,0,1,0-3.1558-4.2451A3.7448,3.7448,0,0,0,1812.188,96.0992Z"/><path id="_Path_47" data-name="&lt;Path&gt;" d="M1830.8592,99.4811a4.3585,4.3585,0,1,0-3.67-4.9467A4.3569,4.3569,0,0,0,1830.8592,99.4811Z"/><path id="_Path_48" data-name="&lt;Path&gt;" d="M1849.5532,102.7685a4.88,4.88,0,1,0-4.1134-5.54A4.8874,4.8874,0,0,0,1849.5532,102.7685Z"/><path id="_Path_49" data-name="&lt;Path&gt;" d="M1868.2474,106.0066a5.3529,5.3529,0,1,0-4.51-6.08A5.36,5.36,0,0,0,1868.2474,106.0066Z"/><path id="_Path_50" data-name="&lt;Path&gt;" d="M1886.9677,109.1044a5.6811,5.6811,0,1,0-4.7889-6.4516A5.678,5.678,0,0,0,1886.9677,109.1044Z"/><path id="_Path_51" data-name="&lt;Path&gt;" d="M1905.6987,112.1042a5.9155,5.9155,0,1,0-4.9906-6.7186A5.9187,5.9187,0,0,0,1905.6987,112.1042Z"/><path id="_Path_52" data-name="&lt;Path&gt;" d="M1924.4523,114.9669a6.0093,6.0093,0,1,0-5.07-6.82A6.009,6.009,0,0,0,1924.4523,114.9669Z"/><path id="_Path_53" data-name="&lt;Path&gt;" d="M1856.2752,122.17a4.1209,4.1209,0,1,0-3.4714-4.68A4.1236,4.1236,0,0,0,1856.2752,122.17Z"/><path id="_Path_54" data-name="&lt;Path&gt;" d="M1874.985,125.3163a4.5,4.5,0,1,0-3.7888-5.108A4.5061,4.5061,0,0,0,1874.985,125.3163Z"/><path id="_Path_55" data-name="&lt;Path&gt;" d="M1893.7106,128.3687a4.784,4.784,0,1,0-4.0291-5.4344A4.7848,4.7848,0,0,0,1893.7106,128.3687Z"/><path id="_Path_56" data-name="&lt;Path&gt;" d="M1912.4451,131.3647a5.0181,5.0181,0,1,0-4.2309-5.694A5.02,5.02,0,0,0,1912.4451,131.3647Z"/><path id="_Path_57" data-name="&lt;Path&gt;" d="M1844.2453,138.7042a3.2679,3.2679,0,1,0-2.7558-3.7118A3.2612,3.2612,0,0,0,1844.2453,138.7042Z"/><path id="_Path_58" data-name="&lt;Path&gt;" d="M1862.9569,141.851a3.6438,3.6438,0,1,0-3.0716-4.14A3.6437,3.6437,0,0,0,1862.9569,141.851Z"/><path id="_Path_59" data-name="&lt;Path&gt;" d="M1881.6878,144.8612a3.8867,3.8867,0,1,0-3.2716-4.417A3.8892,3.8892,0,0,0,1881.6878,144.8612Z"/><path id="_Path_60" data-name="&lt;Path&gt;" d="M1850.9813,158.0139a2.4134,2.4134,0,1,0-2.035-2.74A2.4164,2.4164,0,0,0,1850.9813,158.0139Z"/><path id="_Path_61" data-name="&lt;Path&gt;" d="M1869.7015,161.1152a2.7448,2.7448,0,1,0-2.3136-3.1225A2.7447,2.7447,0,0,0,1869.7015,161.1152Z"/><path id="_Path_62" data-name="&lt;Path&gt;" d="M1838.9546,174.552a1.5622,1.5622,0,1,0-1.3208-1.7716A1.5613,1.5613,0,0,0,1838.9546,174.552Z"/><path id="_Path_63" data-name="&lt;Path&gt;" d="M1857.6716,177.6535a1.8939,1.8939,0,1,0-1.5981-2.1507A1.901,1.901,0,0,0,1857.6716,177.6535Z"/></g></g></g></svg>