<svg xmlns="http://www.w3.org/2000/svg" xmlns:xlink="http://www.w3.org/1999/xlink" viewBox="0 0 2300 2300"><defs><radialGradient id="radial-gradient" cx="1125" cy="1120.7805" r="1122.8922" gradientUnits="userSpaceOnUse"><stop offset="0" stop-color="#fff"/><stop offset="0.1205" stop-color="#fff" stop-opacity="0.9836"/><stop offset="0.2454" stop-color="#fff" stop-opacity="0.9348"/><stop offset="0.3723" stop-color="#fff" stop-opacity="0.8534"/><stop offset="0.5007" stop-color="#fff" stop-opacity="0.7393"/><stop offset="0.6302" stop-color="#fff" stop-opacity="0.5923"/><stop offset="0.7607" stop-color="#fff" stop-opacity="0.4122"/><stop offset="0.8896" stop-color="#fff" stop-opacity="0.2034"/><stop offset="0.9548" stop-color="#fff" stop-opacity="0.0859"/><stop offset="1" stop-color="#fff" stop-opacity="0"/></radialGradient></defs><title>Artboard 2</title><g style="isolation:isolate"><g id="background"><path d="M0,0,1446.2993,1723.6323q-75.1062,63.0876-155.6438,119.615ZM582.4844,2173.8616q95.3631-25.488,187.2673-58.9861L0,0ZM196.1113,2241.561q98.6039-8.514,194.66-25.3855L0,0Zm755.0059-201.8833q89.2287-41.6792,174.0652-90.8048L0,0ZM2250,0H0L2241.561,196.1112Q2249.9311,99.168,2250,0Zm-76.1382,582.4844q25.202-94.2938,42.314-191.7129L0,0Zm-330.6145,708.1711q56.29-80.2421,105.6257-165.4731L0,0ZM1590.99,1590.99q69.4044-69.4042,132.6421-144.691L0,0Zm448.6875-639.8729q41.41-88.6516,75.1978-181.3656L0,0Z" style="opacity:0.4;mix-blend-mode:screen;fill:url(#radial-gradient)"/></g></g></svg>