<svg xmlns="http://www.w3.org/2000/svg" xmlns:xlink="http://www.w3.org/1999/xlink" viewBox="0 0 2300 2300"><defs><clipPath id="clip-path"><rect y="-1180" width="1920" height="1080" style="fill:none"/></clipPath><radialGradient id="radial-gradient" cx="1150" cy="1150" r="1150" gradientUnits="userSpaceOnUse"><stop offset="0" stop-color="#fff"/><stop offset="0.1205" stop-color="#fff" stop-opacity="0.9836"/><stop offset="0.2454" stop-color="#fff" stop-opacity="0.9348"/><stop offset="0.3723" stop-color="#fff" stop-opacity="0.8534"/><stop offset="0.5007" stop-color="#fff" stop-opacity="0.7393"/><stop offset="0.6302" stop-color="#fff" stop-opacity="0.5923"/><stop offset="0.7607" stop-color="#fff" stop-opacity="0.4122"/><stop offset="0.8896" stop-color="#fff" stop-opacity="0.2034"/><stop offset="0.9548" stop-color="#fff" stop-opacity="0.0859"/><stop offset="1" stop-color="#fff" stop-opacity="0"/></radialGradient><clipPath id="clip-path-2"><rect x="2020" y="-1180" width="1920" height="1080" style="fill:none"/></clipPath><radialGradient id="radial-gradient-2" cx="2022.8878" cy="-1181.3317" r="2279.2932" gradientUnits="userSpaceOnUse"><stop offset="0" stop-color="#fff"/><stop offset="0.1205" stop-color="#fbfbfb"/><stop offset="0.2454" stop-color="#eee"/><stop offset="0.3724" stop-color="#dadada"/><stop offset="0.5008" stop-color="#bcbcbc"/><stop offset="0.6304" stop-color="#979797"/><stop offset="0.761" stop-color="#696969"/><stop offset="0.8898" stop-color="#343434"/><stop offset="1"/></radialGradient></defs><title>Artboard 3</title><g style="isolation:isolate"><g id="title-slide"><g id="background"><g style="clip-path:url(#clip-path)"><path d="M1956.0825-1215.0885,960-640l813.1729,813.1729C1981.2819-34.9363,2110-322.4363,2110-640,2110-849.5049,2053.9648-1045.917,1956.0825-1215.0885Z" style="fill:#ff8ab4"/><path d="M-36.0825-64.9115C162.7716,278.771,534.3775,510,960,510c317.5637,0,605.0637-128.7181,813.1729-336.8271L960-640Z" style="fill:#ece400"/></g></g></g><g id="title-slide-2" data-name="title-slide"><path d="M1150,1150Zm0,0Zm0,0Zm0,0Zm0,0h0Zm0,0Zm0,0Zm0,0Zm0,0Zm0,0Zm0,0Zm0,0h0Zm0,0h0Zm0,0Zm0,0h0Zm0,0Zm0,0h0Zm0,0h0Zm0,0h0Zm0,0Zm0,0Zm0,0Zm0,0Zm0,0Zm0,0Zm0,0h0Zm0,0ZM336.8272,1963.1729a1154.49,1154.49,0,0,0,238.0843,182.91L1150,1150ZM1150,1150,38.9258,1447.7114a1143.03,1143.03,0,0,0,114.9917,277.3771L1150,1150Zm0,0L38.9258,852.2886A1151.5423,1151.5423,0,0,0,0,1150Zm0,0L852.2886,2261.0742A1151.538,1151.538,0,0,0,1150,2300V1150Zm0,0h0l813.1728,813.1728a1154.4932,1154.4932,0,0,0,182.91-238.0844L1150,1150Zm0,0h0l297.7114,1111.0742a1143.03,1143.03,0,0,0,277.3771-114.9917L1150,1150Zm0,0Zm0,0,1111.0741,297.7114A1151.538,1151.538,0,0,0,2300,1150ZM2261.0742,852.2886a1143.03,1143.03,0,0,0-114.9917-277.3771L1150,1150ZM336.8272,336.8272a1154.4911,1154.4911,0,0,0-182.91,238.0843L1150,1150ZM1150,1150Zm0,0h0ZM852.2886,38.9258A1143.03,1143.03,0,0,0,574.9115,153.9175L1150,1150ZM1150,1150h0l813.1729-813.1728a1154.4971,1154.4971,0,0,0-238.0844-182.91L1150,1150Zm0,0L1447.7114,38.9258A1151.5417,1151.5417,0,0,0,1150,0V1150Z" style="opacity:0.4;mix-blend-mode:screen;fill:url(#radial-gradient)"/></g><g id="title-and-body"><g style="clip-path:url(#clip-path-2)"><path d="M2020-1180,3466.2993,543.6323q-75.1062,63.0876-155.6438,119.615ZM2602.4844,993.8616q95.3631-25.488,187.2673-58.9861L2020-1180Zm-386.3731,67.6994q98.6038-8.514,194.66-25.3855L2020-1180Zm755.0059-201.8833q89.2287-41.6791,174.0652-90.8048L2020-1180ZM4270-1180H2020L4261.561-983.8888Q4269.9312-1080.832,4270-1180Zm-76.1382,582.4844q25.2019-94.2938,42.314-191.7129L2020-1180ZM3863.2473,110.6555q56.29-80.2421,105.6257-165.4731L2020-1180ZM3610.99,410.99q69.4044-69.4042,132.6421-144.691L2020-1180Zm448.6875-639.8729q41.41-88.6516,75.1978-181.3656L2020-1180Z" style="opacity:0.1;mix-blend-mode:screen;fill:url(#radial-gradient-2)"/></g></g></g></svg>