<svg xmlns="http://www.w3.org/2000/svg" xmlns:xlink="http://www.w3.org/1999/xlink" viewBox="0 0 1920 1080"><defs><clipPath id="clip-path"><rect width="1920" height="1080" style="fill:none"/></clipPath><clipPath id="clip-path-2"><rect x="2020" width="1920" height="1080" style="fill:none"/></clipPath></defs><title>title-slide</title><g id="title-slide"><g id="background"><g style="clip-path:url(#clip-path)"><path d="M960,540l942.0884-659.6574q28.7706,41.0128,53.9941,84.5689L960,540ZM-36.0825,1115.0884q25.1834,43.5249,53.9941,84.5689L960,540ZM960,540h0l813.1729,813.1728q35.4732-35.4732,67.7861-73.9605ZM146.8273-273.1728q-35.4732,35.4732-67.7862,73.96L960,540Z"/></g></g></g><g id="title-and-body"><g style="clip-path:url(#clip-path-2)"><g id="_Group_" data-name="&lt;Group&gt;"><path id="_Path_" data-name="&lt;Path&gt;" d="M1902.9516.8134a10.039,10.039,0,0,0,11.3985-8.469,10.0411,10.0411,0,0,0-8.4638-11.3985,10.04,10.04,0,0,0-11.3933,8.4656A10.039,10.039,0,0,0,1902.9516.8134Z"/><path id="_Path_2" data-name="&lt;Path&gt;" d="M1921.5948,4.4235A10.8893,10.8893,0,0,0,1933.96-4.7577a10.8874,10.8874,0,0,0-9.1848-12.3632A10.8928,10.8928,0,0,0,1912.4136-7.94,10.89,10.89,0,0,0,1921.5948,4.4235Z"/><path id="_Path_3" data-name="&lt;Path&gt;" d="M1816.4225,2.4273a5.3055,5.3055,0,0,0,6.0238-4.4732,5.3079,5.3079,0,0,0-4.4713-6.02,5.3038,5.3038,0,0,0-6.02,4.47A5.3045,5.3045,0,0,0,1816.4225,2.4273Z"/><path id="_Path_4" data-name="&lt;Path&gt;" d="M1835.0569,6.0829A6.197,6.197,0,0,0,1842.098.859a6.204,6.204,0,0,0-5.2291-7.0481A6.2121,6.2121,0,0,0,1829.83-.9582,6.2036,6.2036,0,0,0,1835.0569,6.0829Z"/><path id="_Path_5" data-name="&lt;Path&gt;" d="M1853.693,9.7456a7.1,7.1,0,1,0-5.9851-8.0621A7.1,7.1,0,0,0,1853.693,9.7456Z"/><path id="_Path_6" data-name="&lt;Path&gt;" d="M1872.3292,13.4048a8.0006,8.0006,0,1,0-6.743-9.083A8.0028,8.0028,0,0,0,1872.3292,13.4048Z"/><path id="_Path_7" data-name="&lt;Path&gt;" d="M1890.9724,17.0183a8.8535,8.8535,0,1,0-7.4638-10.0513A8.8554,8.8554,0,0,0,1890.9724,17.0183Z"/><path id="_Path_8" data-name="&lt;Path&gt;" d="M1909.6262,20.5442a9.6124,9.6124,0,1,0-8.099-10.9144A9.6122,9.6122,0,0,0,1909.6262,20.5442Z"/><path id="_Path_9" data-name="&lt;Path&gt;" d="M1928.2921,24.014a10.3217,10.3217,0,1,0-8.7023-11.7179A10.3228,10.3228,0,0,0,1928.2921,24.014Z"/><path id="_Path_10" data-name="&lt;Path&gt;" d="M1767.0324,12.2505a3.2663,3.2663,0,1,0-2.754-3.7048A3.26,3.26,0,0,0,1767.0324,12.2505Z"/><path id="_Path_11" data-name="&lt;Path&gt;" d="M1785.67,15.9133a4.167,4.167,0,1,0-3.5137-4.7328A4.1662,4.1662,0,0,0,1785.67,15.9133Z"/><path id="_Path_12" data-name="&lt;Path&gt;" d="M1804.3048,19.5724a5.0659,5.0659,0,1,0-4.2679-5.75A5.0686,5.0686,0,0,0,1804.3048,19.5724Z"/><path id="_Path_13" data-name="&lt;Path&gt;" d="M1822.948,23.1859a5.9187,5.9187,0,1,0-4.9906-6.7219A5.9133,5.9133,0,0,0,1822.948,23.1859Z"/><path id="_Path_14" data-name="&lt;Path&gt;" d="M1841.5877,26.8031a6.7736,6.7736,0,1,0-5.7045-7.6868A6.7733,6.7733,0,0,0,1841.5877,26.8031Z"/><path id="_Path_15" data-name="&lt;Path&gt;" d="M1860.24,30.364a7.5732,7.5732,0,1,0-6.3888-8.5989A7.5684,7.5684,0,0,0,1860.24,30.364Z"/><path id="_Path_16" data-name="&lt;Path&gt;" d="M1878.8951,33.8862a8.3319,8.3319,0,1,0-7.0237-9.4583A8.3336,8.3336,0,0,0,1878.8951,33.8862Z"/><path id="_Path_17" data-name="&lt;Path&gt;" d="M1897.5647,37.314a8.9954,8.9954,0,1,0-7.5833-10.2128A9.0032,9.0032,0,0,0,1897.5647,37.314Z"/><path id="_Path_18" data-name="&lt;Path&gt;" d="M1916.2621,40.5555a9.4722,9.4722,0,1,0-7.9849-10.7529A9.4784,9.4784,0,0,0,1916.2621,40.5555Z"/><path id="_Path_19" data-name="&lt;Path&gt;" d="M1755.0464,28.5116a2.1311,2.1311,0,1,0-1.8-2.4242A2.131,2.131,0,0,0,1755.0464,28.5116Z"/><path id="_Path_20" data-name="&lt;Path&gt;" d="M1773.6842,32.1252a2.9843,2.9843,0,1,0-2.5119-3.3926A2.9857,2.9857,0,0,0,1773.6842,32.1252Z"/><path id="_Path_21" data-name="&lt;Path&gt;" d="M1792.3309,35.7423a3.8355,3.8355,0,1,0-3.2347-4.361A3.8441,3.8441,0,0,0,1792.3309,35.7423Z"/><path id="_Path_22" data-name="&lt;Path&gt;" d="M1810.9723,39.3522a4.6882,4.6882,0,1,0-3.9521-5.3255A4.6848,4.6848,0,0,0,1810.9723,39.3522Z"/><path id="_Path_23" data-name="&lt;Path&gt;" d="M1829.6173,42.9167a5.4936,5.4936,0,1,0-4.6239-6.2342A5.4928,5.4928,0,0,0,1829.6173,42.9167Z"/><path id="_Path_24" data-name="&lt;Path&gt;" d="M1848.2727,46.4846a6.2963,6.2963,0,1,0-5.3116-7.15A6.2992,6.2992,0,0,0,1848.2727,46.4846Z"/><path id="_Path_25" data-name="&lt;Path&gt;" d="M1866.9352,49.9615a7.0093,7.0093,0,1,0-5.9062-7.9639A7.0163,7.0163,0,0,0,1866.9352,49.9615Z"/><path id="_Path_26" data-name="&lt;Path&gt;" d="M1885.6048,53.3891a7.6708,7.6708,0,1,0-6.4676-8.7111A7.6775,7.6775,0,0,0,1885.6048,53.3891Z"/><path id="_Path_27" data-name="&lt;Path&gt;" d="M1904.2864,56.7148a8.2363,8.2363,0,1,0-6.9447-9.3531A8.2373,8.2373,0,0,0,1904.2864,56.7148Z"/><path id="_Path_28" data-name="&lt;Path&gt;" d="M1923,59.8653a8.6193,8.6193,0,1,0-7.2656-9.7916A8.6221,8.6221,0,0,0,1923,59.8653Z"/><path id="_Path_29" data-name="&lt;Path&gt;" d="M1780.2342,52.7365a3.4523,3.4523,0,1,0-2.9153-3.9189A3.4467,3.4467,0,0,0,1780.2342,52.7365Z"/><path id="_Path_30" data-name="&lt;Path&gt;" d="M1798.89,56.2624a4.2146,4.2146,0,1,0-3.5523-4.7819A4.2139,4.2139,0,0,0,1798.89,56.2624Z"/><path id="_Path_31" data-name="&lt;Path&gt;" d="M1817.54,59.8233a5.0109,5.0109,0,1,0-4.2311-5.694A5.0045,5.0045,0,0,0,1817.54,59.8233Z"/><path id="_Path_32" data-name="&lt;Path&gt;" d="M1836.2006,63.3a5.7256,5.7256,0,1,0-4.8275-6.5042A5.727,5.727,0,0,0,1836.2006,63.3Z"/><path id="_Path_33" data-name="&lt;Path&gt;" d="M1854.8719,66.7311a6.3923,6.3923,0,1,0-5.3887-7.2622A6.3954,6.3954,0,0,0,1854.8719,66.7311Z"/><path id="_Path_34" data-name="&lt;Path&gt;" d="M1873.5519,70.0641a6.9581,6.9581,0,1,0-5.8658-7.9043A6.9623,6.9623,0,0,0,1873.5519,70.0641Z"/><path id="_Path_35" data-name="&lt;Path&gt;" d="M1892.2512,73.3022a7.4331,7.4331,0,1,0-6.2657-8.4376A7.442,7.442,0,0,0,1892.2512,73.3022Z"/><path id="_Path_36" data-name="&lt;Path&gt;" d="M1910.977,76.3474a7.7133,7.7133,0,1,0-6.5063-8.7568A7.7108,7.7108,0,0,0,1910.977,76.3474Z"/><path id="_Path_37" data-name="&lt;Path&gt;" d="M1786.9212,72.383a2.9364,2.9364,0,1,0-2.4753-3.3363A2.936,2.936,0,0,0,1786.9212,72.383Z"/><path id="_Path_38" data-name="&lt;Path&gt;" d="M1805.5766,75.8983a3.6935,3.6935,0,1,0-3.1137-4.1889A3.69,3.69,0,0,0,1805.5766,75.8983Z"/><path id="_Path_39" data-name="&lt;Path&gt;" d="M1824.2391,79.3681a4.3976,4.3976,0,1,0-3.7136-4.9959A4.395,4.395,0,0,0,1824.2391,79.3681Z"/><path id="_Path_40" data-name="&lt;Path&gt;" d="M1842.9067,82.7992a5.0644,5.0644,0,1,0-4.2677-5.7536A5.068,5.068,0,0,0,1842.9067,82.7992Z"/><path id="_Path_41" data-name="&lt;Path&gt;" d="M1861.5869,86.1777a5.6813,5.6813,0,1,0-4.7906-6.4483A5.6752,5.6752,0,0,0,1861.5869,86.1777Z"/><path id="_Path_42" data-name="&lt;Path&gt;" d="M1880.2843,89.4158a6.1565,6.1565,0,1,0-5.187-6.9815A6.1528,6.1528,0,0,0,1880.2843,89.4158Z"/><path id="_Path_43" data-name="&lt;Path&gt;" d="M1898.9871,92.6119a6.58,6.58,0,1,0-5.5448-7.4692A6.5814,6.5814,0,0,0,1898.9871,92.6119Z"/><path id="_Path_44" data-name="&lt;Path&gt;" d="M1917.7216,95.6115a6.8128,6.8128,0,1,0-5.75-7.7394A6.8112,6.8112,0,0,0,1917.7216,95.6115Z"/><path id="_Path_45" data-name="&lt;Path&gt;" d="M1793.5133,92.6751a3.0818,3.0818,0,1,0-2.5928-3.4978A3.0731,3.0731,0,0,0,1793.5133,92.6751Z"/><path id="_Path_46" data-name="&lt;Path&gt;" d="M1812.188,96.0992a3.7376,3.7376,0,1,0-3.1558-4.2451A3.7448,3.7448,0,0,0,1812.188,96.0992Z"/><path id="_Path_47" data-name="&lt;Path&gt;" d="M1830.8592,99.4811a4.3585,4.3585,0,1,0-3.67-4.9467A4.3569,4.3569,0,0,0,1830.8592,99.4811Z"/><path id="_Path_48" data-name="&lt;Path&gt;" d="M1849.5532,102.7685a4.88,4.88,0,1,0-4.1134-5.54A4.8874,4.8874,0,0,0,1849.5532,102.7685Z"/><path id="_Path_49" data-name="&lt;Path&gt;" d="M1868.2474,106.0066a5.3529,5.3529,0,1,0-4.51-6.08A5.36,5.36,0,0,0,1868.2474,106.0066Z"/><path id="_Path_50" data-name="&lt;Path&gt;" d="M1886.9677,109.1044a5.6811,5.6811,0,1,0-4.7889-6.4516A5.678,5.678,0,0,0,1886.9677,109.1044Z"/><path id="_Path_51" data-name="&lt;Path&gt;" d="M1905.6987,112.1042a5.9155,5.9155,0,1,0-4.9906-6.7186A5.9187,5.9187,0,0,0,1905.6987,112.1042Z"/><path id="_Path_52" data-name="&lt;Path&gt;" d="M1924.4523,114.9669a6.0093,6.0093,0,1,0-5.07-6.82A6.009,6.009,0,0,0,1924.4523,114.9669Z"/><path id="_Path_53" data-name="&lt;Path&gt;" d="M1856.2752,122.17a4.1209,4.1209,0,1,0-3.4714-4.68A4.1236,4.1236,0,0,0,1856.2752,122.17Z"/><path id="_Path_54" data-name="&lt;Path&gt;" d="M1874.985,125.3163a4.5,4.5,0,1,0-3.7888-5.108A4.5061,4.5061,0,0,0,1874.985,125.3163Z"/><path id="_Path_55" data-name="&lt;Path&gt;" d="M1893.7106,128.3687a4.784,4.784,0,1,0-4.0291-5.4344A4.7848,4.7848,0,0,0,1893.7106,128.3687Z"/><path id="_Path_56" data-name="&lt;Path&gt;" d="M1912.4451,131.3647a5.0181,5.0181,0,1,0-4.2309-5.694A5.02,5.02,0,0,0,1912.4451,131.3647Z"/><path id="_Path_57" data-name="&lt;Path&gt;" d="M1844.2453,138.7042a3.2679,3.2679,0,1,0-2.7558-3.7118A3.2612,3.2612,0,0,0,1844.2453,138.7042Z"/><path id="_Path_58" data-name="&lt;Path&gt;" d="M1862.9569,141.851a3.6438,3.6438,0,1,0-3.0716-4.14A3.6437,3.6437,0,0,0,1862.9569,141.851Z"/><path id="_Path_59" data-name="&lt;Path&gt;" d="M1881.6878,144.8612a3.8867,3.8867,0,1,0-3.2716-4.417A3.8892,3.8892,0,0,0,1881.6878,144.8612Z"/><path id="_Path_60" data-name="&lt;Path&gt;" d="M1850.9813,158.0139a2.4134,2.4134,0,1,0-2.035-2.74A2.4164,2.4164,0,0,0,1850.9813,158.0139Z"/><path id="_Path_61" data-name="&lt;Path&gt;" d="M1869.7015,161.1152a2.7448,2.7448,0,1,0-2.3136-3.1225A2.7447,2.7447,0,0,0,1869.7015,161.1152Z"/><path id="_Path_62" data-name="&lt;Path&gt;" d="M1838.9546,174.552a1.5622,1.5622,0,1,0-1.3208-1.7716A1.5613,1.5613,0,0,0,1838.9546,174.552Z"/><path id="_Path_63" data-name="&lt;Path&gt;" d="M1857.6716,177.6535a1.8939,1.8939,0,1,0-1.5981-2.1507A1.901,1.901,0,0,0,1857.6716,177.6535Z"/></g></g></g></svg>