<svg xmlns="http://www.w3.org/2000/svg" viewBox="0 0 2300 2300"><defs><radialGradient id="a" cx="1125" cy="1120.781" r="1122.892" gradientUnits="userSpaceOnUse"><stop offset="0" stop-color="#fff"/><stop offset=".12" stop-color="#fff" stop-opacity=".984"/><stop offset=".245" stop-color="#fff" stop-opacity=".935"/><stop offset=".372" stop-color="#fff" stop-opacity=".853"/><stop offset=".501" stop-color="#fff" stop-opacity=".739"/><stop offset=".63" stop-color="#fff" stop-opacity=".592"/><stop offset=".761" stop-color="#fff" stop-opacity=".412"/><stop offset=".89" stop-color="#fff" stop-opacity=".203"/><stop offset=".955" stop-color="#fff" stop-opacity=".086"/><stop offset="1" stop-color="#fff" stop-opacity="0"/></radialGradient></defs><g style="isolation:isolate"><path d="M0 0l1446.3 1723.632q-75.107 63.088-155.645 119.615zm582.484 2173.862q95.364-25.488 187.268-58.986L0 0zm-386.373 67.699q98.604-8.514 194.66-25.386L0 0zm755.006-201.883q89.229-41.68 174.065-90.805L0 0zM2250 0H0l2241.561 196.111Q2249.931 99.168 2250 0zm-76.138 582.484q25.202-94.293 42.314-191.712L0 0zm-330.615 708.172q56.29-80.243 105.626-165.474L0 0zM1590.99 1590.99q69.404-69.404 132.642-144.691L0 0zm448.688-639.873q41.41-88.651 75.197-181.365L0 0z" style="mix-blend-mode:screen" opacity=".4" fill="url(#a)"/></g></svg>