<svg xmlns="http://www.w3.org/2000/svg" viewBox="0 0 2300 2300"><defs><clipPath id="a"><path fill="none" d="M0-1180h1920v1080H0z"/></clipPath><radialGradient id="b" cx="1150" cy="1150" r="1150" gradientUnits="userSpaceOnUse"><stop offset="0" stop-color="#fff"/><stop offset=".12" stop-color="#fff" stop-opacity=".984"/><stop offset=".245" stop-color="#fff" stop-opacity=".935"/><stop offset=".372" stop-color="#fff" stop-opacity=".853"/><stop offset=".501" stop-color="#fff" stop-opacity=".739"/><stop offset=".63" stop-color="#fff" stop-opacity=".592"/><stop offset=".761" stop-color="#fff" stop-opacity=".412"/><stop offset=".89" stop-color="#fff" stop-opacity=".203"/><stop offset=".955" stop-color="#fff" stop-opacity=".086"/><stop offset="1" stop-color="#fff" stop-opacity="0"/></radialGradient><clipPath id="c"><path fill="none" d="M2020-1180h1920v1080H2020z"/></clipPath><radialGradient id="d" cx="2022.888" cy="-1181.332" r="2279.293" gradientUnits="userSpaceOnUse"><stop offset="0" stop-color="#fff"/><stop offset=".12" stop-color="#fbfbfb"/><stop offset=".245" stop-color="#eee"/><stop offset=".372" stop-color="#dadada"/><stop offset=".501" stop-color="#bcbcbc"/><stop offset=".63" stop-color="#979797"/><stop offset=".761" stop-color="#696969"/><stop offset=".89" stop-color="#343434"/><stop offset="1"/></radialGradient></defs><g style="isolation:isolate"><g clip-path="url(#a)"><path d="M1956.082-1215.089L960-640l813.173 813.173C1981.282-34.937 2110-322.437 2110-640c0-209.505-56.035-405.917-153.918-575.089z" fill="#ff8ab4"/><path d="M-36.083-64.912C162.772 278.772 534.378 510 960 510c317.564 0 605.064-128.718 813.173-336.827L960-640z" fill="#ece400"/></g><path d="M1150 1150zm0 0zm0 0zm0 0zm0 0zm0 0zm0 0zm0 0zm0 0zm0 0zm0 0zm0 0zm0 0zm0 0zm0 0zm0 0zm0 0zm0 0zm0 0zm0 0zm0 0zm0 0zm0 0zm0 0zm0 0zm0 0zm0 0zm-813.173 813.173a1154.49 1154.49 0 0 0 238.084 182.91L1150 1150zM1150 1150L38.926 1447.711a1143.03 1143.03 0 0 0 114.991 277.377L1150 1150zm0 0L38.926 852.289A1151.542 1151.542 0 0 0 0 1150zm0 0L852.289 2261.074A1151.538 1151.538 0 0 0 1150 2300V1150zm0 0l813.173 813.173a1154.493 1154.493 0 0 0 182.91-238.085L1150 1150zm0 0l297.711 1111.074a1143.03 1143.03 0 0 0 277.378-114.992L1150 1150zm0 0zm0 0l1111.074 297.711A1151.538 1151.538 0 0 0 2300 1150zm1111.074-297.711a1143.03 1143.03 0 0 0-114.992-277.377L1150 1150zM336.827 336.827a1154.491 1154.491 0 0 0-182.91 238.085L1150 1150zM1150 1150zm0 0zM852.289 38.926a1143.03 1143.03 0 0 0-277.377 114.991L1150 1150zM1150 1150l813.173-813.173a1154.497 1154.497 0 0 0-238.084-182.91L1150 1150zm0 0L1447.711 38.926A1151.542 1151.542 0 0 0 1150 0v1150z" style="mix-blend-mode:screen" opacity=".4" fill="url(#b)" data-name="title-slide"/><g clip-path="url(#c)"><path d="M2020-1180L3466.3 543.632q-75.107 63.088-155.645 119.615zm582.484 2173.862q95.363-25.488 187.268-58.986L2020-1180zm-386.373 67.699q98.604-8.514 194.66-25.385L2020-1180zm755.006-201.883q89.229-41.68 174.065-90.805L2020-1180zM4270-1180H2020l2241.561 196.111q8.37-96.943 8.439-196.111zm-76.138 582.484q25.202-94.293 42.314-191.712L2020-1180zm-330.615 708.171q56.29-80.242 105.626-165.473L2020-1180zM3610.99 410.99q69.404-69.404 132.642-144.691L2020-1180zm448.688-639.873q41.41-88.651 75.197-181.365L2020-1180z" style="mix-blend-mode:screen" opacity=".1" fill="url(#d)"/></g></g></svg>