<svg xmlns="http://www.w3.org/2000/svg" viewBox="0 0 1920 1080"><defs><clipPath id="a"><path fill="none" d="M0 0h1920v1080H0z"/></clipPath><clipPath id="b"><path fill="none" d="M2020 0h1920v1080H2020z"/></clipPath></defs><g clip-path="url(#a)"><path d="M586.68 1120.07a1.472 1.472 0 1 1-1.236 1.669 1.48 1.48 0 0 1 1.236-1.668zm50.254-5.934a3.077 3.077 0 1 0 2.59-3.494 3.08 3.08 0 0 0-2.59 3.494zm207.41-30.623a8.032 8.032 0 1 0 6.773-9.131 8.031 8.031 0 0 0-6.772 9.13zm211.122-31.179a9.24 9.24 0 1 0 7.8-10.486 9.227 9.227 0 0 0-7.8 10.486zm53.479-7.895a8.839 8.839 0 1 0 7.447-10.03 8.839 8.839 0 0 0-7.447 10.03zm216.157-31.918a4.957 4.957 0 1 0 4.173-5.618 4.96 4.96 0 0 0-4.173 5.618zm54.536-8.045a3.483 3.483 0 1 0 2.932-3.965 3.49 3.49 0 0 0-2.932 3.966zm-828.571 68.095a1.47 1.47 0 1 0 1.24-1.678 1.477 1.477 0 0 0-1.24 1.678zm51.484-7.608a3.082 3.082 0 1 0 2.595-3.493 3.09 3.09 0 0 0-2.594 3.493zm207.416-30.623a8.034 8.034 0 1 0 6.773-9.12 8.032 8.032 0 0 0-6.773 9.12zm211.122-31.169a9.244 9.244 0 1 0 7.794-10.495 9.24 9.24 0 0 0-7.794 10.495zm53.478-7.895a8.84 8.84 0 1 0 7.447-10.04 8.838 8.838 0 0 0-7.447 10.04zm216.168-31.923a4.952 4.952 0 1 0 4.163-5.627 4.934 4.934 0 0 0-4.163 5.627zm54.535-8.054a3.483 3.483 0 1 0 2.918-3.95 3.488 3.488 0 0 0-2.918 3.95zm-777.358 60.536a3.35 3.35 0 1 0 2.822-3.8 3.343 3.343 0 0 0-2.822 3.8zm51.355-7.587a5.093 5.093 0 1 0 4.291-5.776 5.103 5.103 0 0 0-4.291 5.776zm51.489-7.603a6.7 6.7 0 1 0 5.641-7.602 6.705 6.705 0 0 0-5.641 7.603zm51.623-7.617a8.173 8.173 0 1 0 6.886-9.27 8.168 8.168 0 0 0-6.886 9.27zm51.762-7.647a9.507 9.507 0 1 0 8.013-10.798 9.517 9.517 0 0 0-8.013 10.798zm52.15-7.702a10.444 10.444 0 1 0 8.8-11.86 10.434 10.434 0 0 0-8.801 11.86zm52.277-7.716a11.244 11.244 0 1 0 9.481-12.769 11.255 11.255 0 0 0-9.48 12.769zm105.509-15.577a11.912 11.912 0 1 0 10.037-13.527 11.912 11.912 0 0 0-10.037 13.527zm53.2-7.856a11.788 11.788 0 1 0 9.938-13.379 11.792 11.792 0 0 0-9.937 13.38zm53.48-7.9a11.384 11.384 0 1 0 9.6-12.927 11.376 11.376 0 0 0-9.6 12.927zm107.746-15.904a9.777 9.777 0 1 0 8.24-11.101 9.766 9.766 0 0 0-8.24 11.1zm54.278-8.02a8.566 8.566 0 1 0 7.218-9.72 8.565 8.565 0 0 0-7.218 9.72zm54.54-8.048a7.089 7.089 0 1 0 5.978-8.06 7.087 7.087 0 0 0-5.978 8.06zm54.53-8.055a5.624 5.624 0 1 0 4.733-6.38 5.622 5.622 0 0 0-4.733 6.38zm-830.168 68.343a5.218 5.218 0 1 0 4.411-5.945 5.209 5.209 0 0 0-4.41 5.945zm51.232-7.573a7.094 7.094 0 1 0 5.978-8.059 7.083 7.083 0 0 0-5.978 8.059zm51.345-7.577a8.84 8.84 0 1 0 7.457-10.04 8.845 8.845 0 0 0-7.457 10.04zm51.49-7.603a10.444 10.444 0 1 0 8.81-11.86 10.437 10.437 0 0 0-8.81 11.86zm51.766-7.647a11.78 11.78 0 1 0 9.928-13.379 11.786 11.786 0 0 0-9.928 13.379zm51.882-7.657a12.992 12.992 0 1 0 10.949-14.748 12.986 12.986 0 0 0-10.95 14.748zm52.277-7.721a13.799 13.799 0 1 0 11.63-15.662 13.79 13.79 0 0 0-11.63 15.662zm52.556-7.762a14.33 14.33 0 1 0 12.071-16.271 14.316 14.316 0 0 0-12.07 16.271zm52.814-7.796a14.6 14.6 0 1 0 12.31-16.58 14.589 14.589 0 0 0-12.31 16.58zm53.206-7.856a14.464 14.464 0 1 0 12.195-16.42 14.48 14.48 0 0 0-12.195 16.42zm53.623-7.92a13.922 13.922 0 1 0 11.728-15.824 13.917 13.917 0 0 0-11.728 15.825zm53.736-7.934a13.255 13.255 0 1 0 11.168-15.056 13.249 13.249 0 0 0-11.168 15.056zm54.273-8.02a12.044 12.044 0 1 0 10.156-13.675 12.043 12.043 0 0 0-10.156 13.676zm54.262-7.998a10.85 10.85 0 1 0 9.15-12.327 10.854 10.854 0 0 0-9.15 12.326zm54.665-8.074a9.24 9.24 0 1 0 7.794-10.5 9.247 9.247 0 0 0-7.794 10.5zm54.818-8.099a7.498 7.498 0 1 0 6.306-8.515 7.484 7.484 0 0 0-6.306 8.515zm-776.962 60.477a6.96 6.96 0 1 0 5.87-7.91 6.954 6.954 0 0 0-5.87 7.91zm51.092-7.543a8.973 8.973 0 1 0 7.567-10.188 8.966 8.966 0 0 0-7.567 10.188zm51.222-7.563a10.848 10.848 0 1 0 9.144-12.317 10.853 10.853 0 0 0-9.144 12.317zm51.484-7.602a12.458 12.458 0 1 0 10.499-14.153 12.469 12.469 0 0 0-10.5 14.153zm51.495-7.603a14.06 14.06 0 1 0 11.858-15.974 14.066 14.066 0 0 0-11.859 15.974zm51.886-7.667a15.266 15.266 0 1 0 12.87-17.333 15.266 15.266 0 0 0-12.87 17.333zm52.025-7.677a16.337 16.337 0 1 0 13.768-18.554 16.341 16.341 0 0 0-13.769 18.554zm52.417-7.741a17.004 17.004 0 1 0 14.338-19.314 16.997 16.997 0 0 0-14.339 19.314zm52.809-7.796a17.275 17.275 0 1 0 14.566-19.616 17.28 17.28 0 0 0-14.567 19.616zm53.35-7.876a17.006 17.006 0 1 0 14.338-19.318 17.007 17.007 0 0 0-14.339 19.319zm53.603-7.915a16.47 16.47 0 1 0 13.892-18.718 16.483 16.483 0 0 0-13.893 18.719zm53.88-7.96a15.667 15.667 0 1 0 13.207-17.79 15.666 15.666 0 0 0-13.208 17.791zm54.273-8.01a14.456 14.456 0 1 0 12.185-16.435 14.456 14.456 0 0 0-12.186 16.437zm54.535-8.053a12.987 12.987 0 1 0 10.95-14.754 12.983 12.983 0 0 0-10.95 14.755zm54.788-8.094a11.256 11.256 0 1 0 9.497-12.779 11.257 11.257 0 0 0-9.497 12.78zm54.948-8.109a9.376 9.376 0 1 0 7.894-10.644 9.364 9.364 0 0 0-7.895 10.645zm220.667-32.583a.923.923 0 0 0 1.052.784.935.935 0 1 0-.268-1.85.92.92 0 0 0-.785 1.067zM461.877 868.744a6.294 6.294 0 1 0 5.298-7.14 6.302 6.302 0 0 0-5.298 7.14zm50.953-7.522a8.435 8.435 0 1 0 7.115-9.578 8.443 8.443 0 0 0-7.115 9.578zm50.958-7.524a10.587 10.587 0 1 0 8.921-12.004 10.581 10.581 0 0 0-8.92 12.004zm51.098-7.543a12.585 12.585 0 1 0 10.612-14.291 12.584 12.584 0 0 0-10.612 14.291zm51.221-7.567a14.459 14.459 0 1 0 12.195-16.42 14.453 14.453 0 0 0-12.195 16.42zm51.355-7.583a16.206 16.206 0 1 0 13.669-18.39 16.215 16.215 0 0 0-13.669 18.39zm51.618-7.617a17.674 17.674 0 1 0 14.91-20.073 17.686 17.686 0 0 0-14.91 20.073zm52.035-7.682a18.742 18.742 0 1 0 15.797-21.289 18.752 18.752 0 0 0-15.797 21.289zm52.279-7.721a19.547 19.547 0 1 0 16.476-22.197 19.546 19.546 0 0 0-16.476 22.197zm52.813-7.801a19.818 19.818 0 1 0 16.7-22.495 19.812 19.812 0 0 0-16.7 22.495zm53.206-7.85a19.684 19.684 0 1 0 16.601-22.346 19.682 19.682 0 0 0-16.6 22.345zm53.742-7.94a19.017 19.017 0 1 0 16.035-21.592 19.015 19.015 0 0 0-16.035 21.591zm54.153-7.995a17.937 17.937 0 1 0 15.112-20.376 17.936 17.936 0 0 0-15.112 20.376zm54.397-8.035a16.608 16.608 0 1 0 14-18.851 16.595 16.595 0 0 0-14 18.852zm54.67-8.073a14.996 14.996 0 1 0 12.646-17.021 14.99 14.99 0 0 0-12.647 17.021zm54.937-8.109a13.117 13.117 0 1 0 11.059-14.902 13.118 13.118 0 0 0-11.06 14.903zm55.061-8.128a11.114 11.114 0 1 0 9.357-12.624 11.104 11.104 0 0 0-9.357 12.624zm55.2-8.153a8.967 8.967 0 1 0 7.562-10.183 8.969 8.969 0 0 0-7.562 10.183zm55.19-8.148a6.83 6.83 0 1 0 5.76-7.752 6.827 6.827 0 0 0-5.76 7.752zm55.335-8.174a4.554 4.554 0 1 0 3.835-5.16 4.537 4.537 0 0 0-3.835 5.161zm55.334-8.168a2.274 2.274 0 1 0 1.92-2.585 2.275 2.275 0 0 0-1.92 2.585zM428.69 819.403a5.085 5.085 0 1 0 4.287-5.78 5.089 5.089 0 0 0-4.287 5.78zm50.696-7.483a7.498 7.498 0 1 0 6.31-8.52 7.482 7.482 0 0 0-6.31 8.52zm50.824-7.503a9.775 9.775 0 1 0 8.24-11.096 9.768 9.768 0 0 0-8.24 11.096zm50.825-7.503a12.052 12.052 0 1 0 10.165-13.692 12.05 12.05 0 0 0-10.166 13.692zm50.829-7.508a14.33 14.33 0 1 0 12.07-16.278 14.329 14.329 0 0 0-12.07 16.278zm51.097-7.543a16.332 16.332 0 1 0 13.768-18.565 16.339 16.339 0 0 0-13.768 18.565zm51.226-7.573a18.207 18.207 0 1 0 15.351-20.674 18.2 18.2 0 0 0-15.35 20.674zm51.485-7.598a19.817 19.817 0 1 0 16.71-22.5 19.818 19.818 0 0 0-16.71 22.5zm51.757-7.642a21.156 21.156 0 1 0 17.836-24.023 21.149 21.149 0 0 0-17.836 24.023zm52.149-7.701a22.094 22.094 0 1 0 18.63-25.09 22.098 22.098 0 0 0-18.63 25.09zm52.675-7.777a22.5 22.5 0 1 0 18.977-25.546 22.498 22.498 0 0 0-18.977 25.546zm53.35-7.88a22.23 22.23 0 1 0 18.744-25.238 22.236 22.236 0 0 0-18.745 25.239zm53.875-7.95a21.423 21.423 0 1 0 18.065-24.325 21.427 21.427 0 0 0-18.065 24.325zm54.278-8.014a20.22 20.22 0 1 0 17.047-22.961 20.213 20.213 0 0 0-17.048 22.96zm54.664-8.074a18.614 18.614 0 1 0 15.688-21.13 18.61 18.61 0 0 0-15.688 21.13zm54.794-8.088a16.878 16.878 0 1 0 14.229-19.16 16.87 16.87 0 0 0-14.23 19.16zm55.071-8.129a14.863 14.863 0 1 0 12.538-16.882 14.857 14.857 0 0 0-12.538 16.882zm55.205-8.153a12.721 12.721 0 1 0 10.717-14.45 12.712 12.712 0 0 0-10.717 14.45zm55.335-8.173a10.441 10.441 0 1 0 8.796-11.866 10.421 10.421 0 0 0-8.797 11.866zm55.329-8.168a8.17 8.17 0 1 0 6.877-9.28 8.17 8.17 0 0 0-6.878 9.28zm55.463-8.189a5.755 5.755 0 1 0 4.843-6.54 5.733 5.733 0 0 0-4.843 6.54zm55.454-8.182a3.35 3.35 0 1 0 2.828-3.817 3.347 3.347 0 0 0-2.829 3.817zM443.95 762.9a8.57 8.57 0 1 0 7.224-9.726 8.566 8.566 0 0 0-7.224 9.726zm50.696-7.483a10.978 10.978 0 1 0 9.253-12.47 10.973 10.973 0 0 0-9.253 12.47zm50.695-7.484a13.39 13.39 0 1 0 11.287-15.204 13.386 13.386 0 0 0-11.287 15.204zm50.82-7.502a15.668 15.668 0 1 0 13.217-17.801 15.677 15.677 0 0 0-13.218 17.8zM647 732.923a17.942 17.942 0 1 0 15.117-20.38A17.942 17.942 0 0 0 647 732.923zm50.948-7.523a20.086 20.086 0 1 0 16.939-22.812 20.083 20.083 0 0 0-16.939 22.812zm51.232-7.558a21.96 21.96 0 1 0 18.505-24.946 21.968 21.968 0 0 0-18.505 24.947zm51.623-7.627a23.436 23.436 0 1 0 19.756-26.608 23.429 23.429 0 0 0-19.756 26.608zm51.886-7.667a24.644 24.644 0 1 0 20.768-27.978 24.622 24.622 0 0 0-20.768 27.978zm52.674-7.771a25.044 25.044 0 1 0 21.116-28.434 25.039 25.039 0 0 0-21.116 28.434zm53.36-7.886a24.767 24.767 0 1 0 20.873-28.131 24.768 24.768 0 0 0-20.873 28.132zm53.995-7.969a23.837 23.837 0 1 0 20.094-27.07 23.842 23.842 0 0 0-20.094 27.07zm54.536-8.054a22.363 22.363 0 1 0 18.853-25.393 22.368 22.368 0 0 0-18.853 25.393zm54.942-8.114a20.482 20.482 0 1 0 17.266-23.258 20.482 20.482 0 0 0-17.266 23.259zm55.052-8.123a18.479 18.479 0 1 0 15.588-20.991 18.493 18.493 0 0 0-15.589 20.991zm55.205-8.158a16.334 16.334 0 1 0 13.772-18.55 16.327 16.327 0 0 0-13.772 18.55zm55.468-8.188a13.92 13.92 0 1 0 11.733-15.81 13.918 13.918 0 0 0-11.733 15.81zm55.32-8.179a11.652 11.652 0 1 0 9.833-13.224 11.679 11.679 0 0 0-9.834 13.225zm55.468-8.177a9.241 9.241 0 1 0 7.795-10.501 9.236 9.236 0 0 0-7.795 10.501zm55.597-8.213a6.695 6.695 0 1 0 5.631-7.613 6.694 6.694 0 0 0-5.632 7.613zM411.29 713.47a6.833 6.833 0 1 0 5.756-7.747 6.824 6.824 0 0 0-5.756 7.747zm50.567-7.464a9.374 9.374 0 1 0 7.903-10.63 9.36 9.36 0 0 0-7.903 10.63zm50.561-7.468a11.916 11.916 0 1 0 10.052-13.533 11.93 11.93 0 0 0-10.052 13.533zm50.7-7.479a14.326 14.326 0 1 0 12.076-16.271 14.332 14.332 0 0 0-12.075 16.271zm50.551-7.468a16.873 16.873 0 1 0 14.231-19.155 16.876 16.876 0 0 0-14.23 19.155zm50.7-7.488a19.28 19.28 0 1 0 16.259-21.885 19.277 19.277 0 0 0-16.257 21.885zm50.835-7.509a21.558 21.558 0 1 0 18.173-24.479 21.565 21.565 0 0 0-18.172 24.48zm50.948-7.522a23.704 23.704 0 1 0 19.994-26.907 23.707 23.707 0 0 0-19.993 26.907zm51.232-7.563a25.577 25.577 0 1 0 21.562-29.045 25.566 25.566 0 0 0-21.561 29.045zm51.618-7.628a27.054 27.054 0 1 0 22.812-30.707 27.062 27.062 0 0 0-22.811 30.707zm52.417-7.731a27.721 27.721 0 1 0 23.373-31.477 27.72 27.72 0 0 0-23.372 31.477zm53.479-7.895a27.318 27.318 0 1 0 23.035-31.01 27.318 27.318 0 0 0-23.034 31.01zm54.267-8.014a26.115 26.115 0 1 0 22.024-29.65 26.122 26.122 0 0 0-22.023 29.65zm54.942-8.124a24.235 24.235 0 1 0 20.431-27.502 24.232 24.232 0 0 0-20.43 27.502zm55.186-8.143a22.097 22.097 0 1 0 18.636-25.075 22.103 22.103 0 0 0-18.635 25.075zm55.334-8.168a19.825 19.825 0 1 0 16.72-22.505 19.825 19.825 0 0 0-16.719 22.505zm55.473-8.193a17.407 17.407 0 1 0 14.67-19.76 17.408 17.408 0 0 0-14.669 19.76zm55.458-8.178a15.004 15.004 0 1 0 12.647-17.027 15 15 0 0 0-12.646 17.027zm55.593-8.218a12.455 12.455 0 1 0 10.503-14.138 12.47 12.47 0 0 0-10.502 14.138zm55.473-8.193a10.04 10.04 0 1 0 8.469-11.399 10.039 10.039 0 0 0-8.468 11.399zm55.602-8.203a7.493 7.493 0 1 0 6.3-8.51 7.5 7.5 0 0 0-6.299 8.51zm55.593-8.208a4.945 4.945 0 1 0 4.167-5.627 4.942 4.942 0 0 0-4.166 5.627zM426.953 656.924a9.91 9.91 0 1 0 8.356-11.27 9.91 9.91 0 0 0-8.356 11.27zm50.557-7.473a12.453 12.453 0 1 0 10.508-14.139 12.46 12.46 0 0 0-10.508 14.139zm50.566-7.464a15 15 0 1 0 12.652-17.03 14.996 14.996 0 0 0-12.652 17.03zm50.438-7.449a17.67 17.67 0 1 0 14.894-20.062 17.666 17.666 0 0 0-14.894 20.062zm50.551-7.463a20.223 20.223 0 1 0 17.058-22.966 20.236 20.236 0 0 0-17.058 22.966zm50.7-7.488a22.63 22.63 0 1 0 19.082-25.696 22.62 22.62 0 0 0-19.081 25.696zm50.69-7.479a25.044 25.044 0 1 0 21.116-28.435 25.061 25.061 0 0 0-21.115 28.435zm50.825-7.508a27.32 27.32 0 1 0 23.031-31.03 27.321 27.321 0 0 0-23.03 31.03zm51.093-7.553A29.324 29.324 0 1 0 857.1 563.75a29.332 29.332 0 0 0-24.727 33.299zm52.159-7.691a30.262 30.262 0 1 0 25.521-34.36 30.256 30.256 0 0 0-25.521 34.36zm53.598-7.91a29.735 29.735 0 1 0 25.065-33.765 29.76 29.76 0 0 0-25.065 33.765zm54.818-8.1a27.982 27.982 0 1 0 23.586-31.779 27.994 27.994 0 0 0-23.586 31.78zm55.32-8.172a25.71 25.71 0 1 0 21.676-29.185 25.71 25.71 0 0 0-21.677 29.185zm55.472-8.188a23.295 23.295 0 1 0 19.642-26.46 23.302 23.302 0 0 0-19.642 26.46zm55.602-8.208a20.748 20.748 0 1 0 17.49-23.572 20.747 20.747 0 0 0-17.49 23.572zm55.464-8.188a18.34 18.34 0 1 0 15.454-20.832 18.338 18.338 0 0 0-15.454 20.832zm55.716-8.238a15.667 15.667 0 1 0 13.203-17.77 15.659 15.659 0 0 0-13.203 17.77zm55.603-8.203a13.122 13.122 0 1 0 11.063-14.907 13.11 13.11 0 0 0-11.063 14.908zm55.582-8.203a10.585 10.585 0 1 0 8.93-12.018 10.59 10.59 0 0 0-8.93 12.019zm55.607-8.217a8.03 8.03 0 1 0 6.767-9.116 8.029 8.029 0 0 0-6.767 9.116zm55.73-8.233a5.358 5.358 0 1 0 4.51-6.084 5.352 5.352 0 0 0-4.51 6.084zm55.598-8.208a2.811 2.811 0 1 0 2.367-3.186 2.8 2.8 0 0 0-2.367 3.187zM394.962 607.394a7.5 7.5 0 1 0 6.316-8.52 7.49 7.49 0 0 0-6.315 8.52zm50.428-7.449a10.178 10.178 0 1 0 8.574-11.557 10.175 10.175 0 0 0-8.574 11.558zm50.572-7.463a12.716 12.716 0 1 0 10.72-14.44 12.725 12.725 0 0 0-10.72 14.44zm50.417-7.449a15.404 15.404 0 1 0 12.989-17.477 15.406 15.406 0 0 0-12.989 17.477zm50.432-7.438a18.083 18.083 0 1 0 15.237-20.525 18.087 18.087 0 0 0-15.237 20.524zm50.572-7.469a20.62 20.62 0 1 0 17.37-23.412 20.603 20.603 0 0 0-17.37 23.412zm50.422-7.448a23.298 23.298 0 1 0 19.643-26.47 23.32 23.32 0 0 0-19.643 26.47zm50.567-7.464a25.846 25.846 0 1 0 21.79-29.343 25.825 25.825 0 0 0-21.79 29.343zm50.561-7.468a28.388 28.388 0 1 0 23.934-32.24 28.385 28.385 0 0 0-23.934 32.24zm50.552-7.474a30.935 30.935 0 1 0 26.096-35.109 30.953 30.953 0 0 0-26.096 35.11zm51.097-7.532a32.94 32.94 0 1 0 27.779-37.412 32.936 32.936 0 0 0-27.78 37.412zm54.411-8.04a31.6 31.6 0 1 0 26.643-35.893 31.594 31.594 0 0 0-26.643 35.894zm55.593-8.202a29.058 29.058 0 1 0 24.499-33 29.048 29.048 0 0 0-24.5 33zm55.587-8.213a26.514 26.514 0 1 0 22.376-30.107 26.544 26.544 0 0 0-22.376 30.107zm55.612-8.218a23.967 23.967 0 1 0 20.193-27.219 23.938 23.938 0 0 0-20.193 27.219zm55.721-8.223a21.287 21.287 0 1 0 17.95-24.167 21.29 21.29 0 0 0-17.95 24.167zm55.592-8.208a18.744 18.744 0 1 0 15.808-21.298 18.757 18.757 0 0 0-15.808 21.298zm55.727-8.227a16.07 16.07 0 1 0 13.554-18.232 16.076 16.076 0 0 0-13.554 18.232zm55.597-8.208a13.527 13.527 0 1 0 11.411-15.364 13.512 13.512 0 0 0-11.411 15.364zm55.726-8.228a10.85 10.85 0 1 0 9.15-12.316 10.864 10.864 0 0 0-9.15 12.316zm55.737-8.227a8.167 8.167 0 1 0 6.876-9.28 8.165 8.165 0 0 0-6.877 9.28zm55.596-8.218a5.624 5.624 0 1 0 4.734-6.382 5.625 5.625 0 0 0-4.734 6.382zM411.017 550.773a10.175 10.175 0 1 0 8.579-11.553 10.173 10.173 0 0 0-8.579 11.553zm50.572-7.454a12.713 12.713 0 1 0 10.722-14.45 12.706 12.706 0 0 0-10.722 14.45zm50.427-7.448a15.394 15.394 0 1 0 12.98-17.488 15.394 15.394 0 0 0-12.98 17.488zm50.562-7.464a17.94 17.94 0 1 0 15.122-20.39 17.95 17.95 0 0 0-15.122 20.39zm50.427-7.453a20.62 20.62 0 1 0 17.38-23.413 20.6 20.6 0 0 0-17.38 23.413zm50.562-7.464a23.165 23.165 0 1 0 19.533-26.32 23.178 23.178 0 0 0-19.533 26.32zm50.427-7.448a25.843 25.843 0 1 0 21.786-29.333 25.825 25.825 0 0 0-21.786 29.333zm50.567-7.459a28.386 28.386 0 1 0 23.923-32.255 28.398 28.398 0 0 0-23.923 32.255zm50.685-7.493a30.8 30.8 0 1 0 25.968-34.975 30.81 30.81 0 0 0-25.968 34.975zm51.236-7.563a32.671 32.671 0 1 0 27.54-37.089 32.647 32.647 0 0 0-27.54 37.09zm54.268-8a31.469 31.469 0 1 0 26.533-35.758 31.466 31.466 0 0 0-26.533 35.759zm55.468-8.207a29.053 29.053 0 1 0 24.49-32.99 29.036 29.036 0 0 0-24.49 32.99zm55.583-8.198A26.518 26.518 0 1 0 1054.156 429a26.53 26.53 0 0 0-22.355 30.122zm55.746-8.238a23.837 23.837 0 1 0 20.078-27.055 23.82 23.82 0 0 0-20.079 27.055zm55.577-8.207a21.294 21.294 0 1 0 17.96-24.187 21.286 21.286 0 0 0-17.96 24.187zm55.602-8.208a18.75 18.75 0 1 0 15.802-21.3 18.776 18.776 0 0 0-15.802 21.3zm55.727-8.228a16.07 16.07 0 1 0 13.544-18.262 16.055 16.055 0 0 0-13.544 18.262zm55.74-8.237a13.388 13.388 0 1 0 11.283-15.186 13.397 13.397 0 0 0-11.283 15.186zm55.578-8.198a10.855 10.855 0 1 0 9.153-12.317 10.864 10.864 0 0 0-9.153 12.317zm55.736-8.228a8.17 8.17 0 1 0 6.876-9.29 8.16 8.16 0 0 0-6.876 9.29zm55.597-8.218a5.62 5.62 0 1 0 4.739-6.391 5.647 5.647 0 0 0-4.739 6.391zm55.732-8.228a2.943 2.943 0 1 0 2.48-3.344 2.936 2.936 0 0 0-2.48 3.344zM379.553 501.174a7.234 7.234 0 1 0 6.092-8.218 7.239 7.239 0 0 0-6.092 8.218zm50.432-7.434a9.909 9.909 0 1 0 8.345-11.265 9.916 9.916 0 0 0-8.345 11.265zm50.561-7.473a12.453 12.453 0 1 0 10.504-14.154 12.468 12.468 0 0 0-10.504 14.154zm50.567-7.464a14.998 14.998 0 1 0 12.636-17.041 15.002 15.002 0 0 0-12.636 17.04zm50.556-7.463a17.54 17.54 0 1 0 14.785-19.92 17.57 17.57 0 0 0-14.785 19.92zm50.567-7.474a20.086 20.086 0 1 0 16.928-22.807 20.055 20.055 0 0 0-16.928 22.807zm50.566-7.463a22.628 22.628 0 1 0 19.071-25.696 22.633 22.633 0 0 0-19.071 25.695zm50.69-7.484a25.044 25.044 0 1 0 21.11-28.434 25.06 25.06 0 0 0-21.11 28.435zm50.964-7.532a27.18 27.18 0 1 0 22.906-30.877 27.17 27.17 0 0 0-22.906 30.877zm51.087-7.543a29.188 29.188 0 1 0 24.613-33.15 29.194 29.194 0 0 0-24.613 33.15zm52.144-7.692a30.13 30.13 0 1 0 25.412-34.211 30.142 30.142 0 0 0-25.412 34.21zm53.752-7.95a29.458 29.458 0 1 0 24.836-33.437 29.463 29.463 0 0 0-24.836 33.437zm54.803-8.08a27.714 27.714 0 1 0 23.368-31.48 27.725 27.725 0 0 0-23.368 31.481zm55.196-8.158a25.575 25.575 0 1 0 21.572-29.04 25.598 25.598 0 0 0-21.572 29.04zm55.463-8.197a23.162 23.162 0 1 0 19.528-26.301 23.176 23.176 0 0 0-19.528 26.301zm55.463-8.178a20.758 20.758 0 1 0 17.494-23.572 20.758 20.758 0 0 0-17.494 23.572zm55.597-8.208a18.212 18.212 0 1 0 15.346-20.674 18.206 18.206 0 0 0-15.346 20.674zm55.593-8.218a15.672 15.672 0 1 0 13.212-17.775 15.668 15.668 0 0 0-13.212 17.776zm55.607-8.218a13.123 13.123 0 1 0 11.054-14.897 13.128 13.128 0 0 0-11.054 14.898zm55.592-8.187a10.58 10.58 0 1 0 8.916-12.02 10.57 10.57 0 0 0-8.916 12.02zm55.731-8.238a7.899 7.899 0 1 0 6.644-8.973 7.907 7.907 0 0 0-6.644 8.973zM396.267 444.453a9.238 9.238 0 1 0 7.79-10.48 9.244 9.244 0 0 0-7.79 10.48zM446.834 437a11.79 11.79 0 1 0 9.938-13.389A11.791 11.791 0 0 0 446.834 437zm50.571-7.473a14.32 14.32 0 1 0 12.071-16.267 14.322 14.322 0 0 0-12.071 16.266zm50.686-7.474a16.737 16.737 0 1 0 14.115-19.016 16.743 16.743 0 0 0-14.115 19.016zm50.7-7.503a19.147 19.147 0 1 0 16.134-21.746 19.155 19.155 0 0 0-16.134 21.746zm50.819-7.493a21.425 21.425 0 1 0 18.07-24.326 21.429 21.429 0 0 0-18.07 24.326zm50.968-7.533a23.567 23.567 0 1 0 19.866-26.757 23.542 23.542 0 0 0-19.865 26.757zm51.222-7.563a25.445 25.445 0 1 0 21.448-28.892 25.43 25.43 0 0 0-21.448 28.892zm51.747-7.642a26.783 26.783 0 1 0 22.584-30.42 26.8 26.8 0 0 0-22.584 30.42zm52.417-7.732a27.46 27.46 0 1 0 23.15-31.164 27.447 27.447 0 0 0-23.15 31.164zm53.479-7.91a27.05 27.05 0 1 0 22.803-30.707 27.018 27.018 0 0 0-22.803 30.707zm54.272-8a25.846 25.846 0 1 0 21.791-29.347 25.848 25.848 0 0 0-21.79 29.348zm54.804-8.098a24.106 24.106 0 1 0 20.322-27.373 24.118 24.118 0 0 0-20.322 27.373zm55.2-8.148a21.96 21.96 0 1 0 18.511-24.931 21.954 21.954 0 0 0-18.511 24.93zm55.32-8.168a19.69 19.69 0 1 0 16.6-22.352 19.69 19.69 0 0 0-16.6 22.352zm55.349-8.179a17.4 17.4 0 1 0 14.67-19.77 17.37 17.37 0 0 0-14.67 19.77zm55.587-8.198a14.856 14.856 0 1 0 12.523-16.872 14.855 14.855 0 0 0-12.523 16.873zm55.454-8.187a12.456 12.456 0 1 0 10.508-14.163 12.481 12.481 0 0 0-10.508 14.163zm55.602-8.218a9.913 9.913 0 1 0 8.354-11.265 9.925 9.925 0 0 0-8.354 11.265zm55.602-8.198a7.369 7.369 0 1 0 6.202-8.367 7.386 7.386 0 0 0-6.202 8.367zM365.065 394.829a6.031 6.031 0 1 0 5.09-6.858 6.04 6.04 0 0 0-5.09 6.858zm50.7-7.483a8.438 8.438 0 1 0 7.105-9.598 8.438 8.438 0 0 0-7.104 9.598zm50.696-7.493a10.845 10.845 0 1 0 9.148-12.337 10.835 10.835 0 0 0-9.148 12.337zm50.695-7.484a13.258 13.258 0 1 0 11.178-15.066 13.251 13.251 0 0 0-11.178 15.066zm50.834-7.513a15.53 15.53 0 1 0 13.079-17.636 15.538 15.538 0 0 0-13.078 17.636zm50.82-7.503a17.813 17.813 0 1 0 15.023-20.227 17.805 17.805 0 0 0-15.023 20.227zm51.102-7.533a19.819 19.819 0 1 0 16.705-22.53 19.818 19.818 0 0 0-16.705 22.53zm51.217-7.583a21.693 21.693 0 1 0 18.292-24.643 21.686 21.686 0 0 0-18.292 24.643zm51.488-7.592a23.299 23.299 0 1 0 19.642-26.46 23.307 23.307 0 0 0-19.641 26.46zm52.02-7.672a24.375 24.375 0 1 0 20.55-27.7 24.378 24.378 0 0 0-20.549 27.7zm52.551-7.752a24.904 24.904 0 1 0 21.002-28.315 24.903 24.903 0 0 0-21.001 28.315zm53.474-7.91a24.502 24.502 0 1 0 20.67-27.829 24.51 24.51 0 0 0-20.67 27.83zm54.02-7.979a23.565 23.565 0 1 0 19.855-26.748 23.593 23.593 0 0 0-19.855 26.748zm54.396-8.03a22.228 22.228 0 1 0 18.74-25.228 22.215 22.215 0 0 0-18.74 25.229zm54.933-8.128a20.356 20.356 0 1 0 17.156-23.105 20.375 20.375 0 0 0-17.156 23.106zm55.07-8.118a18.343 18.343 0 1 0 15.46-20.822 18.341 18.341 0 0 0-15.459 20.822zm55.201-8.149a16.204 16.204 0 1 0 13.649-18.39 16.2 16.2 0 0 0-13.648 18.39zm55.325-8.168a13.928 13.928 0 1 0 11.728-15.81 13.918 13.918 0 0 0-11.728 15.811zm55.458-8.187a11.522 11.522 0 1 0 9.714-13.091 11.528 11.528 0 0 0-9.714 13.09zm55.473-8.188a9.107 9.107 0 1 0 7.67-10.352 9.107 9.107 0 0 0-7.67 10.352zm55.464-8.189a6.697 6.697 0 1 0 5.64-7.602 6.694 6.694 0 0 0-5.64 7.602zM433.15 330.526a9.775 9.775 0 1 0 8.245-11.086 9.754 9.754 0 0 0-8.245 11.086zm50.962-7.533a11.913 11.913 0 1 0 10.048-13.527 11.914 11.914 0 0 0-10.048 13.527zm50.83-7.493a14.191 14.191 0 1 0 11.967-16.108 14.17 14.17 0 0 0-11.967 16.108zm51.092-7.543a16.202 16.202 0 1 0 13.654-18.4 16.183 16.183 0 0 0-13.654 18.4zm51.222-7.562a18.075 18.075 0 1 0 15.241-20.545 18.084 18.084 0 0 0-15.241 20.544zm51.484-7.613a19.682 19.682 0 1 0 16.59-22.36 19.66 19.66 0 0 0-16.59 22.36zm51.757-7.652a21.024 21.024 0 1 0 17.722-23.87 21.007 21.007 0 0 0-17.722 23.87zm52.283-7.711a21.829 21.829 0 1 0 18.402-24.773 21.825 21.825 0 0 0-18.402 24.773zm52.685-7.771a22.23 22.23 0 1 0 18.74-25.24 22.208 22.208 0 0 0-18.74 25.24zm53.35-7.891a21.956 21.956 0 1 0 18.506-24.931 21.965 21.965 0 0 0-18.506 24.93zm53.731-7.93a21.29 21.29 0 1 0 17.956-24.177 21.306 21.306 0 0 0-17.956 24.177zm54.258-8.01a20.094 20.094 0 1 0 16.943-22.807 20.063 20.063 0 0 0-16.943 22.808zm54.684-8.098a18.477 18.477 0 1 0 15.584-20.961 18.498 18.498 0 0 0-15.584 20.961zm54.804-8.069a16.738 16.738 0 1 0 14.105-19.026 16.752 16.752 0 0 0-14.105 19.026zm55.072-8.119a14.731 14.731 0 1 0 12.407-16.743 14.73 14.73 0 0 0-12.408 16.743zm55.19-8.177a12.587 12.587 0 1 0 10.607-14.263 12.562 12.562 0 0 0-10.608 14.263zm55.334-8.159a10.309 10.309 0 1 0 8.692-11.721 10.307 10.307 0 0 0-8.692 11.722zm55.33-8.168a8.028 8.028 0 1 0 6.777-9.13 8.063 8.063 0 0 0-6.778 9.13zm55.463-8.188a5.625 5.625 0 1 0 4.738-6.381 5.648 5.648 0 0 0-4.738 6.381zm-939.373 84.46a8.303 8.303 0 1 0 7-9.438 8.313 8.313 0 0 0-7 9.438zm50.958-7.533a10.446 10.446 0 1 0 8.807-11.85 10.45 10.45 0 0 0-8.807 11.85zm51.088-7.533a12.454 12.454 0 1 0 10.503-14.133 12.436 12.436 0 0 0-10.504 14.134zm51.231-7.563a14.328 14.328 0 1 0 12.07-16.276 14.31 14.31 0 0 0-12.07 16.277zm51.355-7.592a16.07 16.07 0 1 0 13.55-18.242 16.08 16.08 0 0 0-13.55 18.243zm51.762-7.652a17.406 17.406 0 1 0 14.67-19.75 17.428 17.428 0 0 0-14.67 19.75zm51.886-7.662a18.613 18.613 0 1 0 15.683-21.13 18.597 18.597 0 0 0-15.683 21.13zm52.407-7.721a19.284 19.284 0 1 0 16.264-21.895 19.273 19.273 0 0 0-16.264 21.895zm52.824-7.801a19.547 19.547 0 1 0 16.486-22.202 19.538 19.538 0 0 0-16.486 22.202zm53.211-7.86a19.416 19.416 0 1 0 16.373-22.053 19.405 19.405 0 0 0-16.373 22.052zm53.742-7.93a18.748 18.748 0 1 0 15.797-21.3 18.763 18.763 0 0 0-15.798 21.3zm54.009-7.98a17.809 17.809 0 1 0 15.013-20.217 17.807 17.807 0 0 0-15.014 20.217zm54.397-8.03a16.47 16.47 0 1 0 13.882-18.698 16.52 16.52 0 0 0-13.882 18.699zm54.803-8.099a14.73 14.73 0 1 0 12.418-16.732 14.744 14.744 0 0 0-12.418 16.733zm54.799-8.098a12.987 12.987 0 1 0 10.955-14.729 12.981 12.981 0 0 0-10.956 14.73zm55.071-8.129a10.98 10.98 0 1 0 9.248-12.465 10.99 10.99 0 0 0-9.248 12.466zm-775.23 60.234a8.701 8.701 0 1 0 7.332-9.895 8.737 8.737 0 0 0-7.333 9.896zm51.225-7.572a10.574 10.574 0 1 0 8.926-12.01 10.558 10.558 0 0 0-8.926 12.01zm51.356-7.583a12.316 12.316 0 1 0 10.379-13.994 12.332 12.332 0 0 0-10.38 13.995zm51.618-7.622a13.797 13.797 0 1 0 11.634-15.672 13.792 13.792 0 0 0-11.634 15.672zm51.752-7.633a15.136 15.136 0 1 0 12.756-17.2 15.143 15.143 0 0 0-12.756 17.201zm52.16-7.711a16.06 16.06 0 1 0 13.544-18.252 16.054 16.054 0 0 0-13.545 18.252zm52.407-7.731a16.74 16.74 0 1 0 14.115-19.007 16.726 16.726 0 0 0-14.116 19.007zm52.818-7.811a17.001 17.001 0 1 0 14.338-19.294 16.99 16.99 0 0 0-14.339 19.295zm53.211-7.841a16.875 16.875 0 1 0 14.22-19.165 16.88 16.88 0 0 0-14.22 19.166zm53.613-7.9a16.34 16.34 0 1 0 13.768-18.58 16.356 16.356 0 0 0-13.769 18.58zm54.01-8a15.396 15.396 0 1 0 12.978-17.466 15.38 15.38 0 0 0-12.98 17.467zm54.267-8.018a14.194 14.194 0 1 0 11.967-16.119 14.161 14.161 0 0 0-11.968 16.12zm54.536-8.04a12.718 12.718 0 1 0 10.726-14.46 12.713 12.713 0 0 0-10.727 14.46zm54.674-8.079a11.109 11.109 0 1 0 9.357-12.634 11.079 11.079 0 0 0-9.358 12.635zm54.927-8.119a9.234 9.234 0 1 0 7.785-10.49 9.23 9.23 0 0 0-7.785 10.491zm-567.548 29.568a11.65 11.65 0 1 0 9.819-13.24 11.646 11.646 0 0 0-9.819 13.24zm52.02-7.692a12.72 12.72 0 1 0 10.717-14.45 12.71 12.71 0 0 0-10.716 14.45zm52.283-7.712a13.52 13.52 0 1 0 11.396-15.374 13.522 13.522 0 0 0-11.395 15.374zm52.418-7.741a14.195 14.195 0 1 0 11.966-16.108 14.183 14.183 0 0 0-11.966 16.108zm106.158-15.681a14.19 14.19 0 1 0 11.962-16.118 14.195 14.195 0 0 0-11.962 16.118zm53.479-7.89A13.789 13.789 0 1 0 974.63 73.88a13.769 13.769 0 0 0-11.624 15.661zm216.946-32.038a9.108 9.108 0 1 0 7.675-10.331 9.073 9.073 0 0 0-7.675 10.33zm54.799-8.088a7.368 7.368 0 1 0 6.206-8.387 7.352 7.352 0 0 0-6.206 8.386zM614.648 86.742a9.239 9.239 0 1 0 7.794-10.5 9.27 9.27 0 0 0-7.794 10.5zm52.03-7.691a10.306 10.306 0 1 0 8.687-11.711 10.297 10.297 0 0 0-8.687 11.711zm52.412-7.731a10.981 10.981 0 1 0 9.253-12.495 10.983 10.983 0 0 0-9.253 12.495zm-83.352-41.953a6.828 6.828 0 1 0 5.756-7.751 6.837 6.837 0 0 0-5.756 7.751zm52.16-7.691a7.766 7.766 0 1 0 6.543-8.833 7.745 7.745 0 0 0-6.543 8.833zm-84.156-41.834a4.45 4.45 0 0 0 5.027 3.732 4.43 4.43 0 0 0 3.715-5.022 4.416 4.416 0 0 0-5.006-3.722 4.434 4.434 0 0 0-3.736 5.012zm52.154-7.701a5.363 5.363 0 0 0 6.088 4.516 5.354 5.354 0 0 0 4.515-6.085 5.377 5.377 0 0 0-6.083-4.515 5.378 5.378 0 0 0-4.52 6.084z"/><g data-name="bubble"><path d="M1348.48 796.826a178.379 178.379 0 0 1-69.361-14.363c-33.096 73.128-112.925 127.76-196.226 133.676-6.361.447-12.795.68-19.137.68-122.346 0-208.942-84.367-226.856-103.32-14.123 8.022-59.307 30.993-113.919 30.993a176.28 176.28 0 0 1-51.219-7.413c-86.792-26.327-92.794-110.432-92.748-133.56-7.735.487-15.358.72-22.746.72-62.674 0-113.507-17.12-151.055-50.912-45.02-40.508-56.286-92.268-55.966-113.968 1.59-106.258 99.294-162.859 169.205-162.859 3.125 0 6.171.128 9.12.371-25.773-40.183-8.774-80.297 13.56-97.317 17.49-13.318 40.705-20.098 69.022-20.098s54.265 6.78 66.707 10.623c4.904-53.849 39.202-115.059 122.117-119.83 2.596-.128 5.224-.233 7.82-.233 46.76 0 93.063 25.601 119.96 65.866 37.476-35.504 83.57-56.136 130.604-58.33a254.41 254.41 0 0 1 12.912-.326h.013c59.137 0 109.735 19.912 146.34 57.553 30.33 31.186 50.259 73.889 56.424 120.632 95.854 3.808 150.29 41.623 161.75 112.458 6.068 37.316-1.255 70.881-21.712 99.896 69.042 28.178 102.28 78.776 89.094 136.323-14.73 64.276-80.81 112.738-153.702 112.738z" fill="#fefefe"/><path d="M1512.493 605.498c-14.631-23.656-37.436-43.19-67.975-58.25 15.632-28.59 20.692-60.623 15.024-95.559-8.519-52.595-44.216-115.465-163.712-124.742-8.31-44.804-28.735-85.557-58.482-116.173-39.987-41.16-95.116-62.87-159.424-62.87h-.013c-4.544 0-9.186.104-13.821.325a207.689 207.689 0 0 0-64.145 13.525 228.457 228.457 0 0 0-65.073 33.752c-30.663-34.355-74.533-54.824-120.437-54.824-2.962 0-5.976.081-8.937.255a162.974 162.974 0 0 0-50.455 10.74c-25.472 7.941-47.165 22.071-63.863 41.867-14.311 16.998-24.517 37.954-30.003 60.896a232.665 232.665 0 0 0-43.393-4.33c-20.758 0-39.274 3.297-55.331 9.753a109.596 109.596 0 0 0-35.018 17.6c-25.95 19.785-39.568 55.742-28.532 92.118a196.815 196.815 0 0 0-36.992 10.136c-65.38 21.014-131.022 78.52-132.375 168.965-.49 33.322 18.365 86.63 60.954 124.94 40.915 36.834 95.873 55.503 163.346 55.503 1.928 0 3.877-.017 5.832-.046 3.818 44.705 28.198 109.027 104.066 132.056a196.005 196.005 0 0 0 56.802 8.232c33.415 0 63.556-7.942 86.256-16.417a287.711 287.711 0 0 0 24.805-9.504c31.926 30.797 114.9 98.236 229.714 98.236 6.806 0 13.704-.238 20.51-.726a247.514 247.514 0 0 0 69.675-15.482c58.817-19.442 110.826-60.084 140.96-111.436a192.939 192.939 0 0 0 53.586 7.674 185.775 185.775 0 0 0 66.668-12.476c56.437-18.082 101.634-62.034 114.03-116.097 7.06-30.832 2.15-61.135-14.247-87.641zm-10.31 78.59c-14.73 64.276-80.81 112.738-153.702 112.738a178.379 178.379 0 0 1-69.362-14.363c-33.095 73.128-112.925 127.76-196.226 133.676-6.361.447-12.795.68-19.136.68-93.442 0-165.981-49.193-203.046-80.89-20.523-20.318-30.218-40.16-30.218-40.16a56.091 56.091 0 0 0-7.513 24.934c-20.68 9.984-56.763 23.79-99.999 23.79a176.28 176.28 0 0 1-51.219-7.414c-86.792-26.327-92.794-110.432-92.748-133.56-7.735.487-15.358.72-22.746.72-62.673 0-113.507-17.12-151.055-50.912-45.02-40.508-56.285-92.268-55.965-113.968 1.471-98.874 86.171-154.731 154.278-162.01 7.813 11.052 18.378 17.972 29.898 20.515 14.05 3.134 22.06.313 22.06.313s-3.975-1.834-12.233-7.593a114.644 114.644 0 0 1-15.678-13.712c-25.773-40.183-8.775-80.297 13.56-97.318 17.489-13.317 40.705-20.098 69.021-20.098s54.266 6.78 66.708 10.624c4.903-53.849 39.202-115.06 122.117-119.83 2.596-.129 5.224-.233 7.82-.233 46.76 0 93.062 25.601 119.96 65.866 37.476-35.505 83.569-56.136 130.604-58.331 4.328-.22 8.676-.325 12.912-.325h.013c59.137 0 109.735 19.912 146.34 57.553 30.33 31.185 50.259 73.888 56.424 120.631 95.854 3.809 150.29 41.624 161.75 112.459 6.068 37.315-1.255 70.881-21.712 99.896 69.041 28.178 102.28 78.775 89.093 136.322z" fill="#231f20"/></g><path fill="#231f20" d="M500.468 637.952L296.966 745.099l-21.323-15.151 224.825-91.996z"/><path fill="#231f20" d="M165.728 819.701l30.135-66.735L158 690.292l72.73 8.061 47.859-55.392 14.808 71.705 67.424 28.442-63.561 36.265-6.192 72.966-54.093-49.295-71.247 16.657"/><path fill="#fefefe" d="M178.694 807.988l24.12-53.424-30.297-50.156 58.215 6.448 38.289-44.34 11.871 57.399 53.953 22.753-50.87 29.028-4.946 58.408-43.303-39.456-57.032 13.34"/><g data-name="star"><path fill="#231f20" d="M1343.608 741.684l164.677 160.622 24.746-8.461-189.423-152.161z"/><path fill="#231f20" d="M1496.61 978l.444-45.577-40.725-27.525 47.445-12.142 14.581-43.118 28.876 38.078 49.734.881-29.592 35.678 16.149 43.659-47.153-16.026L1496.61 978"/><path fill="#fefefe" d="M1502.161 968.773l.36-36.483-32.591-22.025-.005-.008 37.963-9.718 11.672-34.518 23.116 30.482 39.809.711-23.682 28.548 12.93 34.935-37.751-12.821-31.821 20.897"/></g><g data-name="star"><path fill="#231f20" d="M1213.338 276.748L1345.07 88.107l25.889 3.662-157.621 184.979z"/><path fill="#231f20" d="M1406.278 64.699l-15.94 32.253 19.5 33.518-37.875-7.667-25.132 25.651-7.475-36.985-35.029-17.707 33.248-15.179L1341.066 42l28.013 27.582 37.199-4.883"/><path fill="#fefefe" d="M1399.16 69.359l-12.757 25.79 15.608 26.866-30.307-6.157-20.125 20.532-5.968-29.589-28.048-14.177 26.621-12.141 2.783-29.268 22.444 22.064 29.749-3.92"/></g><g data-name="star"><path fill="#231f20" d="M583.58 341.967L372.974 180.253l-5.619-23.988L583.58 341.967z"/><path fill="#231f20" d="M410.791 169.938l-28.872 3.971-10.215 25.283-16.104-25.283-29.901-4.066 18.986-19.598-8.28-27.79 27.817 13.109 24.845-13.037-1.774 27.718 23.509 19.681-.011.012"/><path fill="#fefefe" d="M403.493 166.172l-23.167 3.203-8.154 20.233-12.863-20.233-23.953-3.275 15.2-15.651-6.621-22.202.013-.035 22.304 10.47 19.783-10.435.042.024-1.45 22.202 18.866 15.699"/></g><g data-name="star"><path fill="#231f20" d="M1427.207 602.173l215.846 40.898 13.092 15.626-228.938-56.524z"/><path fill="#231f20" d="M1698 650.857l-27.206 12.039-9.187 28.437-15.631-21.133-28.225 4.11 17.542-25.148-8.265-25.819.027-.014 26.465 5.589 23.086-20.1-1.191 28.588L1698 650.857"/><path fill="#fefefe" d="M1689.266 652.388l-21.8 9.667-7.337 22.738-12.498-16.963-22.601 3.354-.006-.025 14.051-20.125-6.63-20.666 21.186 4.466 18.516-16.108-.958 22.912 18.072 10.717.005.033"/></g><path d="M808.237 582.385a1.33 1.33 0 0 1 .801-.254h4.552a8.597 8.597 0 0 1 2.865.492 7.21 7.21 0 0 1 2.501 1.49 7.404 7.404 0 0 1 1.77 2.514 8.725 8.725 0 0 1 .675 3.57v6.153a8.73 8.73 0 0 1-.675 3.568 7.432 7.432 0 0 1-1.77 2.516 7.22 7.22 0 0 1-2.5 1.488 8.6 8.6 0 0 1-2.866.492h-4.552a1.337 1.337 0 0 1-.801-.254.843.843 0 0 1-.35-.73v-20.316a.844.844 0 0 1 .35-.73zm1.953 19.275a.398.398 0 0 0 .45.45h2.95a6.338 6.338 0 0 0 2.038-.34 4.992 4.992 0 0 0 1.77-1.037 5.05 5.05 0 0 0 1.236-1.798 6.623 6.623 0 0 0 .464-2.585v-6.153a6.627 6.627 0 0 0-.464-2.588 4.877 4.877 0 0 0-3.006-2.836 6.335 6.335 0 0 0-2.038-.337h-2.95a.397.397 0 0 0-.45.45zm18.518-16.747a1.3 1.3 0 0 1 1.743 0 1.17 1.17 0 0 1 0 1.518 1.295 1.295 0 0 1-1.743 0 1.17 1.17 0 0 1 0-1.518zm.098 4.762a1.332 1.332 0 0 1 1.602 0 .887.887 0 0 1 .352.746v7.473a5.46 5.46 0 0 0 .744 2.74 6.242 6.242 0 0 0 1.953 2.121 1.047 1.047 0 0 1 .112 1.714 1.31 1.31 0 0 1-.87.338 1.456 1.456 0 0 1-.76-.268 4.917 4.917 0 0 1-.828-.673 10.633 10.633 0 0 1-.76-.845 10.766 10.766 0 0 1-.575-.772 8.7 8.7 0 0 1-.941-2.008 7.763 7.763 0 0 1-.38-2.206v-7.614a.887.887 0 0 1 .351-.746zm19.389-.492a8.64 8.64 0 0 1 1.516.521 6.114 6.114 0 0 1 .984.548c.234.17.37.271.407.308a.976.976 0 0 1 .337.956 1.091 1.091 0 0 1-.478.744 1.39 1.39 0 0 1-.786.268.697.697 0 0 1-.379-.098 3.37 3.37 0 0 1-.295-.21 5.757 5.757 0 0 0-3.232-1.013 7.77 7.77 0 0 0-1.236.1 4.853 4.853 0 0 0-1.124.31 2.417 2.417 0 0 0-.83.547 1.176 1.176 0 0 0-.322.841 1.349 1.349 0 0 0 .42 1.054 2.668 2.668 0 0 0 1.014.563 5.906 5.906 0 0 0 1.222.239c.42.037.772.074 1.052.112a16.112 16.112 0 0 1 2.234.421 6.351 6.351 0 0 1 1.87.816 3.962 3.962 0 0 1 1.291 1.377 4.151 4.151 0 0 1 .478 2.078c0 .132-.005.253-.014.366s-.023.243-.04.392a4.665 4.665 0 0 1-.718 2.051 5.174 5.174 0 0 1-1.42 1.448 6.412 6.412 0 0 1-1.882.872 7.794 7.794 0 0 1-2.136.295h-.392a2.603 2.603 0 0 1-.395-.03 7.508 7.508 0 0 1-1.755-.392 9.281 9.281 0 0 1-1.686-.786 7.865 7.865 0 0 1-1.46-1.125 5.2 5.2 0 0 1-1.055-1.46 1.114 1.114 0 0 1-.099-.62 1.224 1.224 0 0 1 .211-.547 1.387 1.387 0 0 1 .423-.393 1 1 0 0 1 .533-.155.979.979 0 0 1 .842.435c.207.291.404.548.59.773a5.403 5.403 0 0 0 1.672 1.348 5.639 5.639 0 0 0 2.038.62 1.481 1.481 0 0 0 .28.028h.282a5.63 5.63 0 0 0 1.279-.155 4.415 4.415 0 0 0 1.193-.464 3.016 3.016 0 0 0 .914-.815 2.433 2.433 0 0 0 .463-1.179.923.923 0 0 1 .015-.17 1.097 1.097 0 0 0 .014-.167 1.919 1.919 0 0 0-.366-1.222 2.895 2.895 0 0 0-.913-.76 4.186 4.186 0 0 0-1.236-.42 27.69 27.69 0 0 0-1.306-.212 18.742 18.742 0 0 1-1.238-.17 11.42 11.42 0 0 1-1.349-.307 8.044 8.044 0 0 1-1.277-.492 3.354 3.354 0 0 1-.998-.717 3.545 3.545 0 0 1-.702-1.152 3.66 3.66 0 0 1 .055-2.669 3.542 3.542 0 0 1 .844-1.208 5.283 5.283 0 0 1 1.11-.758 6.277 6.277 0 0 1 1.236-.478 8.815 8.815 0 0 1 1.222-.239 9.255 9.255 0 0 1 1.069-.071 8.184 8.184 0 0 1 2.009.223zm11.002 4.61a7.253 7.253 0 0 1 4.06-4.244 8.104 8.104 0 0 1 3.217-.618c.242 0 .515.016.815.042.3.028.603.071.913.127a7.443 7.443 0 0 1 .9.224 5.954 5.954 0 0 1 .772.31.945.945 0 0 1 .478.55 1.238 1.238 0 0 1-.31 1.276.903.903 0 0 1-.675.253 3.89 3.89 0 0 1-1.208-.238 5.263 5.263 0 0 0-1.685-.24 5.789 5.789 0 0 0-2.306.436 5.04 5.04 0 0 0-2.822 3.007 6.782 6.782 0 0 0-.38 2.317 7.007 7.007 0 0 0 .366 2.317 4.953 4.953 0 0 0 1.081 1.814 5.1 5.1 0 0 0 1.743 1.194 5.896 5.896 0 0 0 2.318.435 5.265 5.265 0 0 0 1.685-.238 3.863 3.863 0 0 1 1.208-.24.908.908 0 0 1 .675.253 1.24 1.24 0 0 1 .31 1.278.946.946 0 0 1-.478.55 3.978 3.978 0 0 1-.773.335 6.778 6.778 0 0 1-.899.225 10 10 0 0 1-1.728.17 8.072 8.072 0 0 1-3.217-.62 7.313 7.313 0 0 1-2.473-1.698 7.582 7.582 0 0 1-1.587-2.559 9.438 9.438 0 0 1 0-6.418zm22.057 10.802a7.08 7.08 0 0 1-2.502-1.502 7.754 7.754 0 0 1-1.783-2.53 8.57 8.57 0 0 1-.69-3.568 8.713 8.713 0 0 1 .675-3.568 7.212 7.212 0 0 1 4.3-4.004 8.52 8.52 0 0 1 5.703 0 7.227 7.227 0 0 1 2.501 1.488 7.432 7.432 0 0 1 1.77 2.516 9.773 9.773 0 0 1 0 7.136 7.466 7.466 0 0 1-1.784 2.53 7.235 7.235 0 0 1-2.515 1.502 8.407 8.407 0 0 1-5.675 0zm4.874-2.15a4.865 4.865 0 0 0 1.771-1.053 5.207 5.207 0 0 0 1.237-1.812 7.462 7.462 0 0 0 0-5.17 5.066 5.066 0 0 0-1.237-1.798 4.992 4.992 0 0 0-1.771-1.04 6.315 6.315 0 0 0-4.073 0 4.993 4.993 0 0 0-1.772 1.04 5.061 5.061 0 0 0-1.236 1.798 6.616 6.616 0 0 0-.464 2.586 6.449 6.449 0 0 0 .478 2.585 5.335 5.335 0 0 0 1.25 1.812 4.876 4.876 0 0 0 1.758 1.053 6.196 6.196 0 0 0 2.023.339 6.319 6.319 0 0 0 2.036-.34zm22.929-12.937a1.31 1.31 0 0 1 .83.07 1.278 1.278 0 0 1 .646.548.87.87 0 0 1 .029.83l-5.592 13.036a.778.778 0 0 1-.423.422 1.647 1.647 0 0 1-.617.111 1.74 1.74 0 0 1-.646-.111.778.778 0 0 1-.421-.422l-5.535-13.094a.833.833 0 0 1 .026-.816 1.308 1.308 0 0 1 .648-.533 1.348 1.348 0 0 1 .815-.084.843.843 0 0 1 .617.533l4.496 10.594 4.524-10.536a.809.809 0 0 1 .603-.548zm22.396 8.302a1.147 1.147 0 0 1-.715.421l-11.689 1.856a4.662 4.662 0 0 0 2.05 2.107 6.097 6.097 0 0 0 2.812.674 6.02 6.02 0 0 0 2.444-.506c.037-.018.107-.046.21-.085a.677.677 0 0 1 .366-.014 1.108 1.108 0 0 1 .828.746 1.163 1.163 0 0 1 .098.813.95.95 0 0 1-.574.647 8.164 8.164 0 0 1-3.372.702 8.552 8.552 0 0 1-2.838-.49 7.127 7.127 0 0 1-2.502-1.504 7.745 7.745 0 0 1-1.783-2.53 8.566 8.566 0 0 1-.69-3.568 8.73 8.73 0 0 1 .675-3.568 7.212 7.212 0 0 1 4.3-4.003 8.528 8.528 0 0 1 2.838-.492 8.398 8.398 0 0 1 2.823.492 7.378 7.378 0 0 1 2.5 1.488 7.501 7.501 0 0 1 1.799 2.5 8.482 8.482 0 0 1 .689 3.554 1.192 1.192 0 0 1-.269.76zm-2.43-1.659a.304.304 0 0 0 .24-.168.439.439 0 0 0 .042-.282 5.775 5.775 0 0 0-.746-1.95 5.04 5.04 0 0 0-1.25-1.378 4.921 4.921 0 0 0-1.614-.801 6.482 6.482 0 0 0-1.784-.252 6.277 6.277 0 0 0-2.052.335 5.024 5.024 0 0 0-1.757 1.04 5.087 5.087 0 0 0-1.236 1.8 6.615 6.615 0 0 0-.465 2.584v.394c.04.243.17.347.395.31zm11.83 7.392a.824.824 0 0 1-.365.744 1.416 1.416 0 0 1-1.574 0 .826.826 0 0 1-.364-.744v-6.548a8.964 8.964 0 0 1 .562-3.216 7.585 7.585 0 0 1 1.588-2.558 7.316 7.316 0 0 1 2.458-1.699 7.976 7.976 0 0 1 3.202-.619q.367 0 .83.043c.309.027.618.07.928.126a6.229 6.229 0 0 1 .885.226 3.976 3.976 0 0 1 .758.335 1.01 1.01 0 0 1 .493.55 1.157 1.157 0 0 1 .04.689 1.185 1.185 0 0 1-.351.588.951.951 0 0 1-.689.253 3.704 3.704 0 0 1-1.193-.253 5.156 5.156 0 0 0-1.7-.253 5.76 5.76 0 0 0-2.303.437 5.018 5.018 0 0 0-1.729 1.208 5.287 5.287 0 0 0-1.095 1.826 6.782 6.782 0 0 0-.38 2.317zm38.636-14.009a1.203 1.203 0 0 1 1.504.649.967.967 0 0 1 .014.743l-6.856 16.184a8.838 8.838 0 0 1-1.363 2.304 7.837 7.837 0 0 1-1.727 1.56 7.33 7.33 0 0 1-1.953.9 7.451 7.451 0 0 1-2.066.294 7.535 7.535 0 0 1-1.657-.183 9.916 9.916 0 0 1-1.574-.492.901.901 0 0 1-.492-.547 1.263 1.263 0 0 1 .014-.885 1.183 1.183 0 0 1 .59-.66.993.993 0 0 1 .787-.042 8.289 8.289 0 0 0 1.153.365 5.241 5.241 0 0 0 1.208.139 5.16 5.16 0 0 0 2.795-.842 5.962 5.962 0 0 0 2.178-2.81l1.012-2.36a1.243 1.243 0 0 0 0-.9l-5.115-11.97a.915.915 0 0 1 .015-.842 1.36 1.36 0 0 1 .66-.561 1.258 1.258 0 0 1 .858-.084.917.917 0 0 1 .603.588l4.412 10.369 4.411-10.424a.908.908 0 0 1 .589-.493zm11.915 15.061a7.079 7.079 0 0 1-2.501-1.502 7.748 7.748 0 0 1-1.784-2.53 8.568 8.568 0 0 1-.689-3.568 8.713 8.713 0 0 1 .675-3.568 7.211 7.211 0 0 1 4.3-4.004 8.52 8.52 0 0 1 5.703 0 7.227 7.227 0 0 1 2.5 1.488 7.44 7.44 0 0 1 1.77 2.516 9.78 9.78 0 0 1 0 7.136 7.468 7.468 0 0 1-1.784 2.53 7.229 7.229 0 0 1-2.515 1.502 8.407 8.407 0 0 1-5.675 0zm4.874-2.15a4.858 4.858 0 0 0 1.771-1.053 5.193 5.193 0 0 0 1.237-1.812 7.462 7.462 0 0 0 0-5.17 5.054 5.054 0 0 0-1.237-1.798 4.985 4.985 0 0 0-1.77-1.04 6.317 6.317 0 0 0-4.074 0 4.984 4.984 0 0 0-1.771 1.04 5.059 5.059 0 0 0-1.237 1.798 6.614 6.614 0 0 0-.464 2.586 6.449 6.449 0 0 0 .478 2.585 5.328 5.328 0 0 0 1.251 1.812 4.872 4.872 0 0 0 1.758 1.053 6.197 6.197 0 0 0 2.022.339 6.32 6.32 0 0 0 2.036-.34zm25.22 1.098a.66.66 0 0 0-.392.14 7.043 7.043 0 0 1-2.207 1.068 8.81 8.81 0 0 1-2.403.337 8.526 8.526 0 0 1-2.837-.493 7.21 7.21 0 0 1-4.299-4.003 8.721 8.721 0 0 1-.674-3.568v-6.576a.844.844 0 0 1 .351-.73 1.392 1.392 0 0 1 1.602 0 .844.844 0 0 1 .352.73v6.576a6.614 6.614 0 0 0 .462 2.584 5.09 5.09 0 0 0 1.236 1.8 5.002 5.002 0 0 0 1.757 1.037 6.286 6.286 0 0 0 2.05.34 6.2 6.2 0 0 0 2.024-.34 5 5 0 0 0 1.756-1.038 5.24 5.24 0 0 0 1.251-1.783 6.358 6.358 0 0 0 .478-2.574v-6.602a.841.841 0 0 1 .35-.73 1.39 1.39 0 0 1 1.602 0 .843.843 0 0 1 .351.73v12.954a1.08 1.08 0 0 1-.351.83 1.153 1.153 0 0 1-.8.322 1.061 1.061 0 0 1-1.067-.619.63.63 0 0 0-.592-.392zm12.645 0a.826.826 0 0 1-.364.744 1.416 1.416 0 0 1-1.573 0 .823.823 0 0 1-.366-.744v-6.548a8.966 8.966 0 0 1 .562-3.216 7.601 7.601 0 0 1 1.588-2.558 7.312 7.312 0 0 1 2.458-1.699 7.973 7.973 0 0 1 3.202-.619q.367 0 .83.043c.309.027.617.07.928.126a6.24 6.24 0 0 1 .885.226 4.002 4.002 0 0 1 .758.335 1.001 1.001 0 0 1 .492.55 1.158 1.158 0 0 1 .042.689 1.185 1.185 0 0 1-.352.588.95.95 0 0 1-.687.253 3.704 3.704 0 0 1-1.195-.253 5.155 5.155 0 0 0-1.7-.253 5.763 5.763 0 0 0-2.304.437 5.016 5.016 0 0 0-1.728 1.208 5.28 5.28 0 0 0-1.095 1.826 6.77 6.77 0 0 0-.38 2.317zm23.307-14.36a8.663 8.663 0 0 1 1.518.521 6.136 6.136 0 0 1 .984.548c.234.17.37.271.407.308a.977.977 0 0 1 .337.956 1.102 1.102 0 0 1-.478.744 1.394 1.394 0 0 1-.787.268.695.695 0 0 1-.378-.098 3.312 3.312 0 0 1-.296-.21 5.755 5.755 0 0 0-3.23-1.013 7.778 7.778 0 0 0-1.238.1 4.856 4.856 0 0 0-1.123.31 2.412 2.412 0 0 0-.83.547 1.174 1.174 0 0 0-.323.841 1.343 1.343 0 0 0 .423 1.054 2.648 2.648 0 0 0 1.01.563 5.94 5.94 0 0 0 1.223.239q.632.056 1.053.112a16.108 16.108 0 0 1 2.234.421 6.35 6.35 0 0 1 1.87.816 3.955 3.955 0 0 1 1.29 1.377 4.153 4.153 0 0 1 .479 2.078c0 .132-.005.253-.014.366s-.023.243-.043.392a4.638 4.638 0 0 1-.715 2.051 5.222 5.222 0 0 1-1.419 1.448 6.461 6.461 0 0 1-1.883.872 7.794 7.794 0 0 1-2.136.295h-.393a2.603 2.603 0 0 1-.394-.03 7.513 7.513 0 0 1-1.755-.392 9.296 9.296 0 0 1-1.686-.786 7.885 7.885 0 0 1-1.461-1.125 5.198 5.198 0 0 1-1.054-1.46 1.113 1.113 0 0 1-.098-.62 1.223 1.223 0 0 1 .21-.547 1.4 1.4 0 0 1 .42-.393 1.009 1.009 0 0 1 .535-.155.978.978 0 0 1 .842.435c.207.291.404.548.59.773a5.426 5.426 0 0 0 1.673 1.348 5.64 5.64 0 0 0 2.037.62 1.474 1.474 0 0 0 .282.028h.28a5.63 5.63 0 0 0 1.279-.155 4.397 4.397 0 0 0 1.194-.464 3.05 3.05 0 0 0 .913-.815 2.433 2.433 0 0 0 .464-1.179.88.88 0 0 1 .014-.17 1.033 1.033 0 0 0 .012-.167 1.918 1.918 0 0 0-.363-1.222 2.899 2.899 0 0 0-.913-.76 4.194 4.194 0 0 0-1.236-.42 27.1 27.1 0 0 0-1.309-.212 18.667 18.667 0 0 1-1.234-.17 11.42 11.42 0 0 1-1.349-.307 8.075 8.075 0 0 1-1.279-.492 3.352 3.352 0 0 1-.997-.717 3.538 3.538 0 0 1-.703-1.152 3.671 3.671 0 0 1-.225-1.264 3.584 3.584 0 0 1 .282-1.405 3.485 3.485 0 0 1 .842-1.208 5.267 5.267 0 0 1 1.11-.758 6.274 6.274 0 0 1 1.236-.478 8.825 8.825 0 0 1 1.223-.239 9.26 9.26 0 0 1 1.068-.071 8.17 8.17 0 0 1 2.008.223zm25.88 8.627a1.148 1.148 0 0 1-.716.421l-11.689 1.856a4.66 4.66 0 0 0 2.052 2.107 6.082 6.082 0 0 0 2.808.674 6.019 6.019 0 0 0 2.446-.506c.037-.018.107-.046.21-.085a.678.678 0 0 1 .365-.014 1.107 1.107 0 0 1 .829.746 1.16 1.16 0 0 1 .098.813.948.948 0 0 1-.576.647 8.167 8.167 0 0 1-3.373.702 8.544 8.544 0 0 1-2.836-.49 7.144 7.144 0 0 1-2.501-1.504 7.732 7.732 0 0 1-1.784-2.53 8.574 8.574 0 0 1-.689-3.568 8.721 8.721 0 0 1 .675-3.568 7.209 7.209 0 0 1 4.3-4.003 8.52 8.52 0 0 1 2.836-.492 8.403 8.403 0 0 1 2.825.492 7.375 7.375 0 0 1 2.5 1.488 7.487 7.487 0 0 1 1.798 2.5 8.472 8.472 0 0 1 .689 3.554 1.19 1.19 0 0 1-.267.76zm-2.43-1.659a.302.302 0 0 0 .238-.168.422.422 0 0 0 .042-.282 5.776 5.776 0 0 0-.744-1.95 5.036 5.036 0 0 0-1.25-1.378 4.92 4.92 0 0 0-1.615-.801 6.49 6.49 0 0 0-1.786-.252 6.285 6.285 0 0 0-2.05.335 5.021 5.021 0 0 0-1.757 1.04 5.08 5.08 0 0 0-1.236 1.8 6.605 6.605 0 0 0-.462 2.584v.394c.035.243.167.347.393.31zm8.993-13.317a.857.857 0 0 1 .339-.73 1.44 1.44 0 0 1 1.629 0 .856.856 0 0 1 .337.73v14.161a6.594 6.594 0 0 0 .463 2.6 5.19 5.19 0 0 0 1.237 1.797 4.856 4.856 0 0 0 1.77 1.053 6.333 6.333 0 0 0 2.037.34.877.877 0 0 1 .743.349 1.33 1.33 0 0 1 0 1.602.877.877 0 0 1-.743.352 8.533 8.533 0 0 1-2.838-.493 7.094 7.094 0 0 1-2.502-1.502 7.786 7.786 0 0 1-1.784-2.53 8.578 8.578 0 0 1-.688-3.568zm15.399 8.851a.959.959 0 0 0-.703-.281h-.619a.984.984 0 1 1 0-1.967h.675a.909.909 0 0 0 .73-.337 1.9 1.9 0 0 0 .338-.816 7.25 7.25 0 0 1 2.81-4.86 7.551 7.551 0 0 1 2.317-1.21 8.51 8.51 0 0 1 2.544-.392 1.152 1.152 0 0 1 .814 1.966 1.05 1.05 0 0 1-.814.34 6.223 6.223 0 0 0-1.728.237 5.328 5.328 0 0 0-1.56.745 5.663 5.663 0 0 0-2.022 3.063.904.904 0 0 0 .141.843.84.84 0 0 0 .729.42h3.317a.984.984 0 1 1 0 1.968h-3.401a.961.961 0 0 0-.985.983v10.986a1.108 1.108 0 0 1-.335.815 1.054 1.054 0 0 1-.815.337 1.151 1.151 0 0 1-1.153-1.152v-10.986a1.097 1.097 0 0 0-.28-.702zm-12.862-34.432h21.813v-61.45h13.037l35.592 64.956L1182 550.282l-30.592-55.82a38.645 38.645 0 0 0-10.138-75.935h-56.347l30.4 55.471h-33.98v21.804h11.087zm29.316-116.918h19.524a16.832 16.832 0 1 1 0 33.663h-1.072zm-22.666-39.609v-61.44h27.044a38.643 38.643 0 0 0 0-77.286h-55.187l26.333 55.477h-31.077v21.809h11.078v61.44zm27.044-116.913a16.832 16.832 0 0 1 0 33.664h-4.727l-15.975-33.664zM815.963 400.726v-61.44h27.044a38.643 38.643 0 0 0 0-77.286h-55.184l26.333 55.477H783.08v21.809h11.079v61.44zm27.044-116.913a16.832 16.832 0 1 1 0 33.664h-4.726l-15.976-33.664zM786.181 479.28v-.119h-12.964a19.413 19.413 0 0 1 0-38.826h41.47v-21.808h-41.47a41.2 41.2 0 0 0-5.325 82.056V539.8h-29.434v21.807h45.338a41.197 41.197 0 0 0 2.385-82.327zm3.518 59.595v-36.984a19.41 19.41 0 0 1 0 36.984zm45.745-120.348h104.481v21.806H835.444zm0 52.128h41.337v89.48h21.809v-89.48h41.335v-21.813H835.444v21.813z" fill="#221f1f"/><path fill="#d760a3" d="M1005.781 434.622l-37.644 111.287 91.651-3.274-54.007-108.013z"/><path d="M1011.208 405.43l-64.06 150.996h128.13zm0 55.836l31.127 73.354h-62.24z" fill="#221f1f"/><path fill="#faaa41" d="M926.915 295.551l89.468 82.92-54.55 17.462-48.009-39.278 13.091-61.104z"/><path fill="#69bc45" d="M931.28 282.459l65.467-8.731 39.276 43.649-19.64 61.094-85.103-96.012z"/><path d="M1010.703 301.9a49.74 49.74 0 0 1 5.01 55.945 50.605 50.605 0 0 1-2.23 3.562l-69.025-69.024a49.676 49.676 0 0 1 66.245 9.518zm-88.091 31.625a49.303 49.303 0 0 1 6.943-25.205l68.024 68.023a49.695 49.695 0 0 1-74.967-42.818zM972.333 262a71.514 71.514 0 1 0 55.192 26.023A71.61 71.61 0 0 0 972.333 262z" fill="#221f1f"/></g><g data-name="&lt;Group&gt;" clip-path="url(#b)"><path data-name="&lt;Path&gt;" d="M1902.952.813a10.039 10.039 0 0 0 11.398-8.469 10.041 10.041 0 0 0-8.464-11.398 10.04 10.04 0 0 0-11.393 8.466 10.039 10.039 0 0 0 8.459 11.401z"/><path data-name="&lt;Path&gt;" d="M1921.595 4.423a10.89 10.89 0 0 0 12.365-9.18 10.887 10.887 0 0 0-9.185-12.364 10.893 10.893 0 0 0-12.361 9.181 10.89 10.89 0 0 0 9.18 12.364zm-105.173-1.996a5.306 5.306 0 0 0 6.024-4.473 5.308 5.308 0 0 0-4.471-6.02 5.304 5.304 0 0 0-6.02 4.47 5.304 5.304 0 0 0 4.467 6.023zm18.635 3.656a6.197 6.197 0 0 0 7.041-5.224 6.204 6.204 0 0 0-5.23-7.048 6.212 6.212 0 0 0-7.038 5.23 6.204 6.204 0 0 0 5.227 7.042zm18.636 3.663a7.1 7.1 0 1 0-5.985-8.063 7.1 7.1 0 0 0 5.985 8.063zm18.637 3.659a8 8 0 1 0-6.744-9.083 8.003 8.003 0 0 0 6.743 9.083zm18.642 3.613a8.854 8.854 0 1 0-7.463-10.051 8.855 8.855 0 0 0 7.463 10.051z"/><path data-name="&lt;Path&gt;" d="M1909.626 20.544a9.612 9.612 0 1 0-8.099-10.914 9.612 9.612 0 0 0 8.1 10.914z"/><path data-name="&lt;Path&gt;" d="M1928.292 24.014a10.322 10.322 0 1 0-8.702-11.718 10.323 10.323 0 0 0 8.702 11.718zm-161.26-11.764a3.266 3.266 0 1 0-2.754-3.704 3.26 3.26 0 0 0 2.754 3.705zm18.638 3.663a4.167 4.167 0 1 0-3.514-4.733 4.166 4.166 0 0 0 3.514 4.733zm18.635 3.659a5.066 5.066 0 1 0-4.268-5.75 5.069 5.069 0 0 0 4.268 5.75zm18.643 3.614a5.919 5.919 0 1 0-4.99-6.722 5.913 5.913 0 0 0 4.99 6.722zm18.64 3.617a6.774 6.774 0 1 0-5.705-7.687 6.773 6.773 0 0 0 5.705 7.687zm18.652 3.561a7.573 7.573 0 1 0-6.389-8.599 7.568 7.568 0 0 0 6.389 8.599zm18.655 3.522a8.332 8.332 0 1 0-7.024-9.458 8.334 8.334 0 0 0 7.024 9.458zm18.67 3.428a8.995 8.995 0 1 0-7.584-10.213 9.003 9.003 0 0 0 7.584 10.213zm18.697 3.242a9.472 9.472 0 1 0-7.985-10.753 9.478 9.478 0 0 0 7.985 10.753zm-161.216-12.044a2.131 2.131 0 1 0-1.8-2.425 2.131 2.131 0 0 0 1.8 2.425zm18.638 3.613a2.984 2.984 0 1 0-2.512-3.392 2.986 2.986 0 0 0 2.512 3.392zm18.646 3.617a3.836 3.836 0 1 0-3.234-4.36 3.844 3.844 0 0 0 3.235 4.36zm18.642 3.61a4.688 4.688 0 1 0-3.952-5.325 4.685 4.685 0 0 0 3.952 5.325zm18.645 3.565a5.494 5.494 0 1 0-4.624-6.235 5.493 5.493 0 0 0 4.624 6.235zm18.656 3.568a6.296 6.296 0 1 0-5.312-7.15 6.3 6.3 0 0 0 5.312 7.15zm18.662 3.477a7.01 7.01 0 1 0-5.906-7.964 7.016 7.016 0 0 0 5.906 7.964zm18.67 3.428a7.67 7.67 0 1 0-6.468-8.712 7.678 7.678 0 0 0 6.468 8.711zm18.681 3.325a8.236 8.236 0 1 0-6.944-9.353 8.237 8.237 0 0 0 6.944 9.353zm18.714 3.15a8.62 8.62 0 1 0-7.266-9.791 8.622 8.622 0 0 0 7.266 9.791zm-142.766-7.129a3.452 3.452 0 1 0-2.915-3.918 3.447 3.447 0 0 0 2.915 3.919zm18.656 3.526a4.215 4.215 0 1 0-3.552-4.782 4.214 4.214 0 0 0 3.552 4.782zm18.65 3.561a5.01 5.01 0 1 0-4.231-5.694 5.005 5.005 0 0 0 4.231 5.694zm18.66 3.477a5.726 5.726 0 1 0-4.827-6.504 5.727 5.727 0 0 0 4.828 6.504zm18.672 3.431a6.392 6.392 0 1 0-5.389-7.262 6.395 6.395 0 0 0 5.389 7.262zm18.68 3.333a6.958 6.958 0 1 0-5.866-7.904 6.962 6.962 0 0 0 5.866 7.904zm18.699 3.238a7.433 7.433 0 1 0-6.266-8.437 7.442 7.442 0 0 0 6.266 8.437zm18.726 3.045a7.713 7.713 0 1 0-6.506-8.756 7.71 7.71 0 0 0 6.506 8.756zm-124.056-3.964a2.936 2.936 0 1 0-2.475-3.336 2.936 2.936 0 0 0 2.475 3.336zm18.656 3.515a3.693 3.693 0 1 0-3.114-4.189 3.69 3.69 0 0 0 3.114 4.19zm18.663 3.47a4.398 4.398 0 1 0-3.715-4.996 4.395 4.395 0 0 0 3.714 4.996zm18.667 3.432a5.064 5.064 0 1 0-4.268-5.754 5.068 5.068 0 0 0 4.268 5.753zm18.68 3.378a5.681 5.681 0 1 0-4.79-6.449 5.675 5.675 0 0 0 4.79 6.449zm18.697 3.238a6.157 6.157 0 1 0-5.187-6.982 6.153 6.153 0 0 0 5.187 6.982zm18.703 3.196a6.58 6.58 0 1 0-5.545-7.47 6.581 6.581 0 0 0 5.545 7.47zm18.735 3a6.813 6.813 0 1 0-5.75-7.74 6.811 6.811 0 0 0 5.75 7.74zm-124.209-2.937a3.082 3.082 0 1 0-2.592-3.498 3.073 3.073 0 0 0 2.592 3.498zm18.675 3.425a3.738 3.738 0 1 0-3.156-4.246 3.745 3.745 0 0 0 3.156 4.245zm18.672 3.381a4.359 4.359 0 1 0-3.67-4.947 4.357 4.357 0 0 0 3.67 4.947zm18.693 3.288a4.88 4.88 0 1 0-4.113-5.54 4.887 4.887 0 0 0 4.113 5.54zm18.694 3.238a5.353 5.353 0 1 0-4.51-6.08 5.36 5.36 0 0 0 4.51 6.08zm18.721 3.097a5.681 5.681 0 1 0-4.79-6.451 5.678 5.678 0 0 0 4.79 6.451zm18.731 3a5.915 5.915 0 1 0-4.99-6.718 5.919 5.919 0 0 0 4.99 6.718zm18.753 2.863a6.01 6.01 0 1 0-5.07-6.82 6.009 6.009 0 0 0 5.07 6.82zm-68.177 7.203a4.12 4.12 0 1 0-3.471-4.68 4.124 4.124 0 0 0 3.471 4.68zm18.71 3.146a4.5 4.5 0 1 0-3.789-5.108 4.506 4.506 0 0 0 3.789 5.108zm18.725 3.053a4.784 4.784 0 1 0-4.028-5.435 4.785 4.785 0 0 0 4.029 5.435zm18.735 2.996a5.018 5.018 0 1 0-4.23-5.694 5.02 5.02 0 0 0 4.23 5.694zm-68.2 7.339a3.268 3.268 0 1 0-2.755-3.712 3.261 3.261 0 0 0 2.755 3.712zm18.712 3.147a3.644 3.644 0 1 0-3.072-4.14 3.644 3.644 0 0 0 3.072 4.14zm18.731 3.01a3.887 3.887 0 1 0-3.272-4.417 3.89 3.89 0 0 0 3.272 4.417zm-30.707 13.153a2.413 2.413 0 1 0-2.035-2.74 2.416 2.416 0 0 0 2.035 2.74zm18.72 3.101a2.745 2.745 0 1 0-2.313-3.122 2.745 2.745 0 0 0 2.313 3.122zm-30.746 13.437a1.562 1.562 0 1 0-1.321-1.772 1.561 1.561 0 0 0 1.32 1.772zm18.717 3.102a1.894 1.894 0 1 0-1.599-2.151 1.901 1.901 0 0 0 1.599 2.15z"/></g></svg>