<svg xmlns="http://www.w3.org/2000/svg" viewBox="0 0 1920 1080"><defs><clipPath id="a"><path fill="none" d="M0 0h1920v1080H0z"/></clipPath><clipPath id="b"><path fill="none" d="M2020 0h1920v1080H2020z"/></clipPath></defs><g clip-path="url(#a)"><path d="M1956.082-35.089C1757.228-378.77 1385.622-610 960-610c-317.564 0-605.064 128.718-813.173 336.827L960 540z" fill="#74dae6"/><path d="M146.827-273.173C-61.282-65.063-190 222.437-190 540c0 209.505 56.035 405.917 153.917 575.088L960 540z" fill="#d82eff"/><path d="M1956.082-35.089L960 540l813.173 813.173C1981.282 1145.063 2110 857.563 2110 540c0-209.505-56.035-405.917-153.918-575.088z" fill="#ff8ab4"/><path d="M-36.083 1115.089C162.772 1458.77 534.378 1690 960 1690c317.564 0 605.064-128.718 813.173-336.827L960 540z" fill="#ece400"/></g><g data-name="&lt;Group&gt;" clip-path="url(#b)"><path data-name="&lt;Path&gt;" d="M1902.952.813a10.039 10.039 0 0 0 11.398-8.469 10.041 10.041 0 0 0-8.464-11.398 10.04 10.04 0 0 0-11.393 8.466 10.039 10.039 0 0 0 8.459 11.401z"/><path data-name="&lt;Path&gt;" d="M1921.595 4.423a10.89 10.89 0 0 0 12.365-9.18 10.887 10.887 0 0 0-9.185-12.364 10.893 10.893 0 0 0-12.361 9.181 10.89 10.89 0 0 0 9.18 12.364zm-105.173-1.996a5.306 5.306 0 0 0 6.024-4.473 5.308 5.308 0 0 0-4.471-6.02 5.304 5.304 0 0 0-6.02 4.47 5.304 5.304 0 0 0 4.467 6.023zm18.635 3.656a6.197 6.197 0 0 0 7.041-5.224 6.204 6.204 0 0 0-5.23-7.048 6.212 6.212 0 0 0-7.038 5.23 6.204 6.204 0 0 0 5.227 7.042zm18.636 3.663a7.1 7.1 0 1 0-5.985-8.063 7.1 7.1 0 0 0 5.985 8.063zm18.637 3.659a8 8 0 1 0-6.744-9.083 8.003 8.003 0 0 0 6.743 9.083zm18.642 3.613a8.854 8.854 0 1 0-7.463-10.051 8.855 8.855 0 0 0 7.463 10.051z"/><path data-name="&lt;Path&gt;" d="M1909.626 20.544a9.612 9.612 0 1 0-8.099-10.914 9.612 9.612 0 0 0 8.1 10.914z"/><path data-name="&lt;Path&gt;" d="M1928.292 24.014a10.322 10.322 0 1 0-8.702-11.718 10.323 10.323 0 0 0 8.702 11.718zm-161.26-11.764a3.266 3.266 0 1 0-2.754-3.704 3.26 3.26 0 0 0 2.754 3.705zm18.638 3.663a4.167 4.167 0 1 0-3.514-4.733 4.166 4.166 0 0 0 3.514 4.733zm18.635 3.659a5.066 5.066 0 1 0-4.268-5.75 5.069 5.069 0 0 0 4.268 5.75zm18.643 3.614a5.919 5.919 0 1 0-4.99-6.722 5.913 5.913 0 0 0 4.99 6.722zm18.64 3.617a6.774 6.774 0 1 0-5.705-7.687 6.773 6.773 0 0 0 5.705 7.687zm18.652 3.561a7.573 7.573 0 1 0-6.389-8.599 7.568 7.568 0 0 0 6.389 8.599zm18.655 3.522a8.332 8.332 0 1 0-7.024-9.458 8.334 8.334 0 0 0 7.024 9.458zm18.67 3.428a8.995 8.995 0 1 0-7.584-10.213 9.003 9.003 0 0 0 7.584 10.213zm18.697 3.242a9.472 9.472 0 1 0-7.985-10.753 9.478 9.478 0 0 0 7.985 10.753zm-161.216-12.044a2.131 2.131 0 1 0-1.8-2.425 2.131 2.131 0 0 0 1.8 2.425zm18.638 3.613a2.984 2.984 0 1 0-2.512-3.392 2.986 2.986 0 0 0 2.512 3.392zm18.646 3.617a3.836 3.836 0 1 0-3.234-4.36 3.844 3.844 0 0 0 3.235 4.36zm18.642 3.61a4.688 4.688 0 1 0-3.952-5.325 4.685 4.685 0 0 0 3.952 5.325zm18.645 3.565a5.494 5.494 0 1 0-4.624-6.235 5.493 5.493 0 0 0 4.624 6.235zm18.656 3.568a6.296 6.296 0 1 0-5.312-7.15 6.3 6.3 0 0 0 5.312 7.15zm18.662 3.477a7.01 7.01 0 1 0-5.906-7.964 7.016 7.016 0 0 0 5.906 7.964zm18.67 3.428a7.67 7.67 0 1 0-6.468-8.712 7.678 7.678 0 0 0 6.468 8.711zm18.681 3.325a8.236 8.236 0 1 0-6.944-9.353 8.237 8.237 0 0 0 6.944 9.353zm18.714 3.15a8.62 8.62 0 1 0-7.266-9.791 8.622 8.622 0 0 0 7.266 9.791zm-142.766-7.129a3.452 3.452 0 1 0-2.915-3.918 3.447 3.447 0 0 0 2.915 3.919zm18.656 3.526a4.215 4.215 0 1 0-3.552-4.782 4.214 4.214 0 0 0 3.552 4.782zm18.65 3.561a5.01 5.01 0 1 0-4.231-5.694 5.005 5.005 0 0 0 4.231 5.694zm18.66 3.477a5.726 5.726 0 1 0-4.827-6.504 5.727 5.727 0 0 0 4.828 6.504zm18.672 3.431a6.392 6.392 0 1 0-5.389-7.262 6.395 6.395 0 0 0 5.389 7.262zm18.68 3.333a6.958 6.958 0 1 0-5.866-7.904 6.962 6.962 0 0 0 5.866 7.904zm18.699 3.238a7.433 7.433 0 1 0-6.266-8.437 7.442 7.442 0 0 0 6.266 8.437zm18.726 3.045a7.713 7.713 0 1 0-6.506-8.756 7.71 7.71 0 0 0 6.506 8.756zm-124.056-3.964a2.936 2.936 0 1 0-2.475-3.336 2.936 2.936 0 0 0 2.475 3.336zm18.656 3.515a3.693 3.693 0 1 0-3.114-4.189 3.69 3.69 0 0 0 3.114 4.19zm18.663 3.47a4.398 4.398 0 1 0-3.715-4.996 4.395 4.395 0 0 0 3.714 4.996zm18.667 3.432a5.064 5.064 0 1 0-4.268-5.754 5.068 5.068 0 0 0 4.268 5.753zm18.68 3.378a5.681 5.681 0 1 0-4.79-6.449 5.675 5.675 0 0 0 4.79 6.449zm18.697 3.238a6.157 6.157 0 1 0-5.187-6.982 6.153 6.153 0 0 0 5.187 6.982zm18.703 3.196a6.58 6.58 0 1 0-5.545-7.47 6.581 6.581 0 0 0 5.545 7.47zm18.735 3a6.813 6.813 0 1 0-5.75-7.74 6.811 6.811 0 0 0 5.75 7.74zm-124.209-2.937a3.082 3.082 0 1 0-2.592-3.498 3.073 3.073 0 0 0 2.592 3.498zm18.675 3.425a3.738 3.738 0 1 0-3.156-4.246 3.745 3.745 0 0 0 3.156 4.245zm18.672 3.381a4.359 4.359 0 1 0-3.67-4.947 4.357 4.357 0 0 0 3.67 4.947zm18.693 3.288a4.88 4.88 0 1 0-4.113-5.54 4.887 4.887 0 0 0 4.113 5.54zm18.694 3.238a5.353 5.353 0 1 0-4.51-6.08 5.36 5.36 0 0 0 4.51 6.08zm18.721 3.097a5.681 5.681 0 1 0-4.79-6.451 5.678 5.678 0 0 0 4.79 6.451zm18.731 3a5.915 5.915 0 1 0-4.99-6.718 5.919 5.919 0 0 0 4.99 6.718zm18.753 2.863a6.01 6.01 0 1 0-5.07-6.82 6.009 6.009 0 0 0 5.07 6.82zm-68.177 7.203a4.12 4.12 0 1 0-3.471-4.68 4.124 4.124 0 0 0 3.471 4.68zm18.71 3.146a4.5 4.5 0 1 0-3.789-5.108 4.506 4.506 0 0 0 3.789 5.108zm18.725 3.053a4.784 4.784 0 1 0-4.028-5.435 4.785 4.785 0 0 0 4.029 5.435zm18.735 2.996a5.018 5.018 0 1 0-4.23-5.694 5.02 5.02 0 0 0 4.23 5.694zm-68.2 7.339a3.268 3.268 0 1 0-2.755-3.712 3.261 3.261 0 0 0 2.755 3.712zm18.712 3.147a3.644 3.644 0 1 0-3.072-4.14 3.644 3.644 0 0 0 3.072 4.14zm18.731 3.01a3.887 3.887 0 1 0-3.272-4.417 3.89 3.89 0 0 0 3.272 4.417zm-30.707 13.153a2.413 2.413 0 1 0-2.035-2.74 2.416 2.416 0 0 0 2.035 2.74zm18.72 3.101a2.745 2.745 0 1 0-2.313-3.122 2.745 2.745 0 0 0 2.313 3.122zm-30.746 13.437a1.562 1.562 0 1 0-1.321-1.772 1.561 1.561 0 0 0 1.32 1.772zm18.717 3.102a1.894 1.894 0 1 0-1.599-2.151 1.901 1.901 0 0 0 1.599 2.15z"/></g></svg>