<svg id="patch-shape-02" xmlns="http://www.w3.org/2000/svg" viewBox="0 0 200 350"><path id="patch-shape-02-glass" fill="#63C5EA" d="M125.499,281.009c4.341,3.85,6.238,11.417,2.35,16.211c-1.977,2.764-5.97,4.371-9.146,5.153c-3.52,0.867-7.238,0.951-10.812,0.37c-6.034-0.98-14.234-4.795-12.881-12.24c0.311-1.562,0.48-3.188,1.07-4.678l-0.004-0.002c0.567-1.588,1.556-3.047,2.894-4.316c-0.484-4.649-0.858-9.31-1.281-13.965c-10.678,2.021-21.989,6.206-29.595,14.294c-5.474,5.821-8.055,13.845-4.746,21.433c3.704,8.495,12.546,13.79,20.867,16.943c9.196,3.484,19.182,4.843,28.985,4.65c9.79-0.192,19.706-1.938,28.747-5.778c8.165-3.469,16.756-9.1,20.101-17.713c2.997-7.719,0.078-15.633-5.622-21.23c-7.912-7.771-19.359-11.524-30.098-13.142L125.499,281.009 M143.61,311.751c-8.001,5.392-17.881,7.863-27.402,8.576c-9.767,0.732-19.915-0.354-29.064-3.966c-7.993-3.157-17.144-9.199-18.079-18.563c-0.401-4.019,0.985-7.938,3.337-11.163c1.126-1.544,2.709-3.851,4.781-2.271c1.785,1.361,1.45,3.743,1.973,5.694c2.598,9.703,13.234,15.122,22.116,17.75c10.251,3.032,21.381,3.401,31.878,1.515c1.462-0.263,2.916-0.573,4.357-0.934c1.313-0.329,2.865-1.098,4.233-0.957C143.727,307.636,145.792,310.29,143.61,311.751 M103.688,292.505l0.17,0.092c3.857,2.198,8.703,2.469,12.953,1.414c3.792-0.941,8.135-3.413,8.379-7.777l0.09-1.5c0.043,0.059,0.094,0.107,0.137,0.168c0.393,0.621,1.182,2.727,1.182,2.727c0.59,1.641,1.506,5.039-0.896,7.945c0.002-0.002,0.006-0.006,0.01-0.006c-0.503,0.329-0.94,0.924-1.43,1.305c-0.709,0.551-1.483,1.021-2.284,1.426c-1.398,0.708-2.897,1.209-4.427,1.546c-3.125,0.687-6.408,0.719-9.558,0.175c-4.279-0.74-11.366-3.389-10.352-8.979c0.514-2.055,0.566-4.033,1.747-5.873C100.144,290.222,101.056,291.007,103.688,292.505 M111.425,145.938c3.633-0.138,7.254-0.475,10.809-1.012c-1.723,1.132-3.271,2.514-4.629,4.087c-1.229-0.082-2.46-0.141-3.691-0.178C113.668,147.486,112.726,146.376,111.425,145.938 M108.798,146.004c-2.24,0.736-4.475,1.492-6.725,2.197c-1.4,0.438-2.807,0.861-4.211,1.29c-1.801,0.55-3.74,0.615-5.583,1.01l-1.385-5.967C96.696,145.577,102.745,146.072,108.798,146.004 M160.905,125.908c-1.205,5.382-2.404,10.733-2.404,10.741v-0.006c-0.045,0.204-0.072,0.397-0.113,0.599c-2.014,1.168-4.026,2.336-6.039,3.504c-1.256,0.729-2.512,1.457-3.768,2.186c-0.932,0.541-1.925,1.011-2.525,1.955c-2.955-1.872-6.162-3.005-9.48-3.381C145.706,138.448,154.843,133.587,160.905,125.908 M174.569,190.265c1.534,10.324,0.167,21.249-3.264,31.078c-3.009,8.621-7.845,16.566-14.188,23.141c-5.116,5.304-11.163,9.683-17.764,12.953c-0.461,0.478-1.426,0.723-2.017,0.977c-1.157,0.497-2.324,0.973-3.493,1.439c-3.231,1.29-6.584,2.259-9.984,2.992l-0.225,3.797h0.002l-0.738,12.508c-0.002-0.002-0.002-0.002-0.002-0.002l-0.184,3.102c0,0.002,0.002,0.002,0.002,0.002l-0.227,3.834c-0.163,2.9-3.402,4.485-5.839,5.175c-2.824,0.799-5.94,0.867-8.775,0.081c-1.497-0.415-3.595-1.189-4.595-2.506c-1.232-1.622-1.258-4.273-1.473-6.191l0,0c-0.1-0.883-0.201-1.896-0.311-3.047h-0.002c-0.291-3.041-0.637-7.088-1.131-12.512l0,0c-0.104-1.146-0.214-2.34-0.333-3.613c-17.619-2.902-33.52-13.396-43.422-28.214c-10.422-15.595-13.398-35.068-8.392-53.117c0.705-2.539,1.523-5.062,2.565-7.483c0.416-0.965,0.836-1.927,1.27-2.884c0.225-0.497,0.507-1.601,0.966-1.943c1.673-3.433,3.585-6.753,5.263-10.187c0.439-0.676,5.026-9.187,1.906-21.177c0,0-1.396-5.307-2.8-10.644c4.889,5.742,11.594,9.719,18.529,12.494l3.208,13.821c-8.263,3.075-17.183,7.688-22.117,15.307v0c-0.701,1.083-1.318,2.24-1.789,3.443c-0.001-0.038-0.007-0.075-0.011-0.105c-7.566,15.633-8.321,33.853-1.658,49.934c6.337,15.295,18.844,27.72,34.234,33.851c18.5,7.37,40.096,5.23,56.684-5.851c18.985-12.683,29.813-35.845,27.048-58.554c-0.061-0.501-0.123-1.002-0.201-1.501L174.569,190.265 M89.942,140.437c-2.007-8.651-4.014-17.302-6.021-25.954c-2.019-8.702-3.908-17.446-6.061-26.116c-0.205-0.825-0.455-1.639-0.726-2.445c5.724-2.424,11.771-4.046,17.899-5.044c-2.895,10.054-4.431,21.028-2.2,31.375c1.669,7.743,5.798,15.078,12.896,19.003l2.924,1.607h0.004c0.059,0.033,0.117,0.065,0.174,0.09c4.043,2.197,8.659,3.05,13.231,2.756c2.47-0.159,4.913-0.632,7.284-1.332c1.935-0.571,5.374-1.137,5.641-3.623c0.974-9.15,1.915-18.303,2.872-27.455c0.546-5.229,1.093-10.457,1.64-15.686c4.748,1.897,9.353,4.367,13.269,7.682c2.042,1.729,3.896,3.706,5.349,5.96c0.736,1.142,1.364,2.354,1.846,3.624c0.511,1.314,1.979,2.016,3.324,1.596c2.714,11.278-5.6,20.815-14.513,26.426c-8.922,5.617-19.477,8.552-29.875,9.792c-9.516,1.135-19.252,0.85-28.663-0.993C90.142,141.292,90.097,140.824,89.942,140.437 M69.935,134.471c-7.031-4-13.803-10.097-15.586-18.317c-1.988-9.353,3.524-17.625,10.577-23.208l10.238,44.128C73.352,136.278,71.599,135.417,69.935,134.471"/><path id="patch-shape-02-drink" fill="#9E4B97" d="M168.567,190.997c2.793,19.425-4.584,39.586-19.275,52.601c-16.145,14.303-39.458,18.414-59.598,10.813c-19.597-7.397-34.256-25.431-37.379-46.169c-1.328-8.815-0.553-17.891,2.167-26.375c0.361,1.603,0.949,3.11,1.739,4.552c-0.356-0.642,0.233,0.391,0.277,0.464c0.115,0.193,0.232,0.384,0.353,0.573c-0.043-0.068,0.56,0.852,0.287,0.449c0.826,1.238,1.801,2.367,2.835,3.435c-0.453-0.47,0.5,0.491,0.586,0.574c0.404,0.389,0.816,0.771,1.24,1.139c0.8,0.693,1.635,1.341,2.495,1.96c1.598,1.149,3.132,2.083,4.803,2.995c-6.938,7.602-8.953,18.807-5.07,28.341c3.357,8.243,10.798,14.447,19.518,16.244c8.932,1.841,18.387-1.046,24.758-7.569c6.801-6.965,9.345-17.308,6.527-26.637c-0.172-0.569-0.363-1.134-0.572-1.691c8.237-0.501,16.447-1.94,24.303-4.486c7.754-2.513,15.774-6.205,21.48-12.189c0.796,1.139,2.132,1.763,3.523,1.59L168.567,190.997"/><path id="patch-shape-02-drink-top" fill="#8188C0" d="M115.634,151.664c-0.406,0.635-0.789,1.288-1.137,1.966c-0.082-0.664-0.156-1.343-0.234-2.016C114.72,151.63,115.179,151.642,115.634,151.664 M132.134,162.619c-1.346,0.24-2.596,1.129-3.57,2.689c-0.082,2.32,0.191,4.805,1.282,6.888c1.238,2.363,3.595,3.464,6.229,3.29c2.092-0.131,4.081-1.164,5.01-3.109C139.603,165.526,135.571,162.001,132.134,162.619 M88.036,187.479c-0.784-0.432-1.417-1.044-1.622-1.942l-6.67-28.737c-4.808,1.805-9.495,4.108-13.638,7.162c-4.091,3.014-8.019,7.123-9.057,12.267c-1.867,9.255,6.979,15.936,14.056,19.796c4.425-3.936,10.158-6.438,16.491-6.767L88.036,187.479 M151.423,193.437c2.76-1.729,5.783-4.038,8.078-6.88c0.601-3.889,1.293-7.715,2.088-11.568c-1.336-1.587-2.674-3.173-4.008-4.762c-0.306,2.442-0.733,4.872-1.109,7.304c-1.117,7.222-5.213,13.844-11.728,17.355c-7.702,4.152-17.18,3.378-24.097-1.979l-0.242,1.559c-0.342,2.218-2.219,2.876-4.057,3.59c-1.863,0.725-3.72,1.465-5.58,2.195c0.875,1.193,1.658,2.457,2.332,3.789C127.874,203.286,141.929,199.372,151.423,193.437"/><path id="patch-shape-02-highlight" fill="#FFFFFF" d="M62.051,216.757c-0.305-14.36,11.195-26.753,25.545-27.499c-0.759,3.069-1.199,6.161-1.683,9.286c-0.356,2.288,1.514,4.402,3.826,4.338c3.003-0.085,6.004-0.217,9.008-0.299c2.153-0.058,4.331-0.053,6.449-0.489c1.919-0.396,3.754-1.132,5.572-1.843c0.805,1.097,1.53,2.252,2.161,3.457c0.281,0.536,0.541,1.083,0.782,1.637c0.153,0.351,0.547,0.968,0.547,1.35l0,0c4.863,12.949-1.159,27.86-13.616,33.822c-8.245,3.946-18.208,3.376-25.948-1.482C67.063,234.243,62.245,225.768,62.051,216.757 M140.526,307.552c-10.234,3.126-21.364,3.702-31.904,1.939c-9.74-1.628-20.856-5.525-26.812-13.911c-1.236-1.739-2.196-3.684-2.716-5.758c-0.492-1.963-0.173-4.332-2.102-5.592c-2.103-1.374-3.675,1.112-4.745,2.619c-1.191,1.676-2.14,3.534-2.696,5.518c-2.544,9.073,4.149,16.772,11.504,21.06c8.36,4.874,18.299,6.859,27.889,7.086c9.755,0.231,19.815-1.35,28.721-5.454c1.157-0.533,2.293-1.111,3.401-1.74c1.042-0.59,2.732-1.267,3.297-2.382C145.468,308.753,142.328,307,140.526,307.552"/><path id="patch-shape-02-lemon-background" fill="#FFFFFF" d="M174.662,46.202c-2.266-7.373-7.318-14.029-15.119-15.889c-9.465-2.256-19.344,2.59-26.798,8.031c-9.431,6.883-16.963,16.312-22.607,26.469c-5.938,10.684-10.133,22.754-10.707,35.034c-0.402,8.587,0.98,18.265,7.023,24.84c5.051,5.496,12.511,7.129,19.673,5.735c2.185-0.425,4.318-1.094,6.378-1.934l0.38-3.642c-0.906,0.55-1.812,1.1-2.718,1.649c-1.71,1.035-2.941-0.213-2.401-2.43c2.025-8.398,4.051-16.796,6.077-25.193c1.191-4.94,2.796-9.942,3.325-15c2.302,0.773,4.561,1.686,6.761,2.712c-0.899-1.109-1.798-2.218-2.696-3.327c-0.791-0.978-0.347-2.35,0.623-3.083c0.432-0.325,0.996-0.375,1.51-0.484c2.302-0.486,4.604-0.972,6.906-1.458c5.652-1.193,11.305-2.386,16.956-3.579c0.473-0.1,0.944-0.199,1.417-0.299c0.656-0.139,1.533-0.481,2.199-0.235c1.443,0.535,0.9,2.755,0.428,3.753c-1.745,3.736-3.49,7.473-5.234,11.209c-1.75,3.746-3.74,7.459-5.276,11.299c0.373,0.628,0.729,1.274,1.045,1.934c6.111-9.226,10.863-19.496,13.181-30.35C176.781,63.561,177.212,54.502,174.662,46.202 M160.754,33.736c1.732,0.616,0.669,3.371,0.089,4.418c-0.469,0.846-0.937,1.692-1.404,2.539c-1.904,3.44-3.811,6.88-5.723,10.316c-2.303,4.14-4.612,8.276-6.939,12.402c-1.298,2.301-2.58,4.612-3.865,6.92c-0.849,1.523-1.555,3.34-2.85,4.528c0,0,0,0-0.001,0l0,0c-0.254,0.145-0.627,0.228-0.905,0.107c-0.681-0.359-0.369-1.608-0.336-2.155c0.082-1.376,0.163-2.752,0.243-4.128c0.136-2.33,0.27-4.66,0.4-6.99c0.206-3.675,0.404-7.351,0.612-11.026c0.138-2.438,0.275-4.876,0.458-7.311c0.156-2.082-0.03-4.735,0.938-6.593c1.068-2.968,4.378-2.491,6.9-2.596c1.648-0.068,3.298-0.134,4.947-0.203c1.1-0.046,2.2-0.093,3.3-0.141c0.697-0.03,1.395-0.061,2.092-0.092C159.337,33.704,160.151,33.521,160.754,33.736 M115.162,60.268c3.16-3.765,6.326-7.525,9.521-11.261c1.647-1.928,3.285-3.871,5.006-5.736c0.365-0.396,0.684-0.77,1.188-0.982c1.063-0.447,1.989,0.141,2.124,1.279c0.228,1.256,0.302,2.56,0.452,3.827c0.344,2.913,0.688,5.825,1.032,8.738c0.609,5.161,1.22,10.322,1.829,15.483c0.214,1.808,0.99,4.221-0.414,5.68c-0.854,0.888-1.637,0.234-2.495-0.211c-1.302-0.675-2.604-1.35-3.907-2.024c-5.36-2.778-10.722-5.555-16.082-8.333c-1.226-0.632-0.768-2.593-0.353-3.568C113.533,62.055,114.4,61.175,115.162,60.268 M135.141,86.061c-0.163,1.07-0.767,2.172-1.147,3.169c-0.881,2.31-1.762,4.619-2.644,6.928c-2.274,5.963-4.55,11.926-6.824,17.889c-1.095,2.87-2.186,5.742-3.285,8.61v0c-0.666,1.735-1.263,3.532-2.978,4.518c-1.087,0.625-2.159-0.433-2.982-1.078c-0.723-0.566-1.43-1.154-2.136-1.741c-1.933-1.606-3.856-3.223-5.792-4.825c-1.077-0.892-2.592-1.662-2.593-3.226c-0.001-1.335,0.669-2.688,1.593-3.627l27.096-27.349C134.267,84.526,135.339,84.805,135.141,86.061 M132.94,83.321c-4.697,3.782-9.658,7.276-14.477,10.901c-3.507,2.639-7.015,5.278-10.523,7.913c-1.299,0.975-2.631,2.301-4.087,3.019c-1.634,0.805-2.471-0.703-2.244-2.173c0.612-3.985,1.224-7.971,1.835-11.957c0.45-2.937,0.9-5.874,1.351-8.811c0.327-2.137,1.183-5.453,3.88-5.346c2.646,0.105,5.316,0.659,7.931,1.038c3.138,0.454,6.274,0.907,9.413,1.354c2.205,0.314,4.411,0.625,6.617,0.934c0.801,0.112,1.446,0.166,1.389,1.136C133.979,82.092,133.553,82.866,132.94,83.321 M138.043,82.4c-0.042,0.028-0.073,0.071-0.106,0.094c-0.291,0.172-0.564,0.244-0.809,0.254l0,0c-0.822,0.024-1.054-0.912-1.008-1.561c0.078-1.097,0.726-2.176,1.657-2.763c0.969-0.605,1.817-0.227,1.881,0.919C139.701,80.484,138.971,81.764,138.043,82.4 M170.739,64.47c-8.851,4.08-17.701,8.161-26.551,12.241c-0.439,0.203-0.879,0.405-1.318,0.608c-0.467,0.215-0.981,0.128-1.146-0.414c-0.41-1.365,1.126-2.819,1.841-3.806c3.293-4.547,6.586-9.095,9.874-13.646c3.484-4.822,6.951-9.658,10.459-14.464c0.84-1.149,1.812-2.257,2.599-3.438c0.898-1.051,2.882-1.764,3.342,0.07c0.168,0.673,0.337,1.346,0.506,2.019c1.272,5.08,2.545,10.159,3.817,15.239c0.009,0.033,0.017,0.067,0.025,0.1C174.788,61.423,172.75,63.544,170.739,64.47"/><path id="patch-shape-02-lemon" fill="#EEE93C" d="M98.941,77.364c3.683-10.699,9.16-20.778,16.274-29.585c7.039-8.716,16.179-16.682,26.791-20.642c3.999-1.492,8.276-2.316,12.55-1.941c4.189,0.372,7.751,2.054,11.365,4.065c-0.11-0.05-0.221-0.102-0.33-0.154c0.002,0.001,0.004,0.002,0.006,0.003c0.795,0.596,1.796,1.063,2.631,1.664c1.139,0.819,2.123,1.813,3.079,2.832c1.874,1.996,3.259,4.525,4.321,7.028c2.077,5.013,2.848,10.541,2.848,15.941c0.019,10.514-2.695,20.987-6.816,30.606c-2.507,5.852-5.594,11.455-9.172,16.72c-0.196-0.534-0.427-1.079-0.682-1.588c6.519-9.82,11.503-20.878,13.608-32.519c1.589-8.782,1.637-18.348-1.867-26.701c-2.975-7.093-8.874-12.561-16.746-13.279c-9.979-0.909-19.813,4.841-27.202,10.981c-9.068,7.536-16.251,17.339-21.484,27.859c-5.417,10.888-9.093,23.163-8.722,35.417c0.245,8.078,2.443,16.926,8.872,22.35c5.824,4.913,13.718,5.369,20.791,3.278c1.169-0.346,2.32-0.754,3.449-1.215l-0.209,1.983c-7.093,2.896-15.46,3.86-22.389-0.012c0.002,0,0.002,0.001,0.004,0.002c-0.002,0-0.002-0.001-0.004-0.001c0.018,0.011,0.034,0.021,0.051,0.033c-3.181-1.748-6.215-3.471-8.627-6.268c-3.456-3.986-5.32-9.116-6.181-14.263c-1.813-10.771,0.251-22.019,3.679-32.265C98.866,77.585,98.904,77.475,98.941,77.364 M131.747,107.558l-3.98,16.506c-0.541,2.217,0.691,3.465,2.4,2.43c0.906-0.55,1.813-1.1,2.719-1.65c0.88-8.421,1.759-16.843,2.64-25.265c0.465-4.443,0.929-8.887,1.394-13.331c-0.436,1.077-0.592,2.329-0.862,3.453c-0.583,2.414-1.166,4.828-1.748,7.242C133.455,100.481,132.601,104.02,131.747,107.558 M142.813,77.344c8.851-4.08,17.701-8.161,26.552-12.241c0.458-0.211,0.915-0.422,1.372-0.633c2.011-0.927,4.05-3.045,3.451-5.492c-1.211-4.833-2.423-9.667-3.634-14.5c-0.372-1.484-0.616-4.93-2.968-3.775c-1.271,0.64-2.159,2.236-2.988,3.38c-6.497,8.963-12.994,17.926-19.491,26.889c-0.407,0.562-0.814,1.124-1.222,1.686c-0.33,0.455-0.66,0.91-0.99,1.366c-0.518,0.714-1.162,1.431-1.222,2.355C141.63,77.067,142.08,77.682,142.813,77.344 M137.536,82.652c1.01-0.325,1.732-1.468,2.004-2.438c0.217-0.775,0.171-2.303-1.027-2.102c-1.038,0.174-1.883,1.268-2.209,2.201c-0.265,0.756-0.393,2.435,0.822,2.435C137.259,82.737,137.397,82.702,137.536,82.652 M133.448,85.33l-27.096,27.349c-1.016,1.033-2.552,3.927-1.023,5.182c1.63,1.351,3.27,2.691,4.904,4.036c1.316,1.084,2.633,2.167,3.949,3.251c0.869,0.715,1.977,1.924,3.098,2.22c1.028,0.053,1.903-0.747,2.475-1.517c0.898-1.435,1.447-3.094,2.051-4.674c0.766-2.008,1.531-4.016,2.298-6.023c2.265-5.936,4.529-11.872,6.794-17.809c1.059-2.772,2.116-5.544,3.174-8.317c0.269-0.705,0.538-1.41,0.807-2.115c0.04-0.105,0.08-0.21,0.121-0.315C135.482,85.33,134.614,84.184,133.448,85.33 M112.972,66.317c0.119,0.169,0.26,0.315,0.443,0.41c3.566,1.848,7.132,3.696,10.698,5.543c2.145,1.111,4.29,2.223,6.436,3.334c1.128,0.584,2.257,1.169,3.385,1.753c0.226,0.117,0.45,0.233,0.675,0.35c0.838,0.434,1.643-0.732,1.906-1.363c0.394-1.934-0.129-4.125-0.36-6.089c-0.302-2.553-0.604-5.106-0.905-7.66c-0.679-5.741-1.357-11.483-2.036-17.225c-0.061-0.515-0.122-1.03-0.183-1.544c-0.17-1.439-1.522-2.351-2.735-1.186c-2.048,1.966-3.815,4.256-5.647,6.423c-3.177,3.756-6.351,7.514-9.529,11.269c-0.389,0.459-0.777,0.918-1.166,1.377C113.043,62.789,112.03,64.974,112.972,66.317 M170.142,74.056c-4.086,0.591-8.158,1.704-12.196,2.556c-5.071,1.07-10.143,2.141-15.214,3.211c-1.116,0.235-2.665,2.001-1.738,3.136l2.943,3.631c6.565,3.083,12.989,7.484,16.824,13.79c0.421-1.158,1.063-2.276,1.583-3.391c1.202-2.576,2.405-5.151,3.608-7.727c1.772-3.797,3.546-7.593,5.318-11.39C171.802,76.75,172.273,73.757,170.142,74.056 M147.745,34.193c-1.335,0.056-3.294-0.208-4.5,0.546c0,0.081-0.962,0.829-1.075,0.966c-0.423,0.512-0.761,1.098-0.995,1.719c-0.318,0.844-0.325,1.724-0.379,2.611c-0.026,0.446-0.054,0.893-0.08,1.34c-0.112,1.855-0.225,3.71-0.336,5.566c-0.378,6.274-0.757,12.548-1.135,18.821c-0.126,2.085-0.251,4.171-0.377,6.257c-0.036,0.605-0.447,2.57,0.287,2.947c0.276,0.122,0.653,0.037,0.906-0.107l0,0c0.492-0.492,0.824-1.223,1.181-1.816c0.564-0.939,1.115-1.887,1.663-2.835c1.353-2.341,2.686-4.693,4.013-7.048c2.472-4.384,4.924-8.779,7.369-13.177c1.878-3.377,3.75-6.756,5.62-10.138c0.361-0.653,0.721-1.307,1.084-1.959c0.538-0.97,0.971-2.382,0.479-3.457c-0.563-1.232-2.416-0.713-3.479-0.667C154.575,33.914,151.16,34.049,147.745,34.193 M133.417,80.301c-7.485-1.045-14.956-2.211-22.449-3.195c-0.932-0.122-2.077-0.408-3.019-0.201c-1.72,0.377-2.753,2.695-2.988,4.228c-0.168,1.1-0.337,2.2-0.506,3.3c-0.947,6.182-1.896,12.365-2.845,18.547c-0.227,1.471,0.61,2.978,2.244,2.173c1.013-0.499,1.952-1.417,2.852-2.092c3.533-2.651,7.063-5.307,10.593-7.962c5.202-3.913,10.597-7.662,15.642-11.778C134.126,82.439,134.429,80.441,133.417,80.301"/><path id="patch-shape-02-tube" fill="#E63B8E" d="M87.308,141.056c-3.136-0.733-6.176-1.639-9.074-2.733c-2.208-9.52-4.417-19.041-6.626-28.561c-1.436-6.188-2.871-12.375-4.307-18.563c-1.806-7.793-8.492-13.941-16.409-15.093l-31.695-4.537l0.009-0.064c-1.885-0.034-1.893-3.125-1.69-4.375c0.192-1.224,1.098-4.059,2.848-3.684l0.003-0.018l31.69,4.547c11.322,1.63,20.671,10.208,23.254,21.362L87.308,141.056 M90.246,153.715c-0.755-3.251-1.509-6.503-2.264-9.755c-3.055-0.661-6.064-1.479-9.021-2.503l9.903,42.669l0.668-2.703c0.391-1.58,1.755-2.731,3.379-2.853l3.049-0.225L90.246,153.715"/><path id="patch-shape-02-text-background" fill="#48B035" d="M164.487,172.587c-6.836-8.124-6.646-7.907-10.766-12.762c-0.989-3.388-2.643-6.362-5.111-8.893l0.338-2.181c5.496,6.475,10.976,12.962,16.443,19.46L164.487,172.587 M132.134,162.619c3.438-0.618,7.469,2.907,8.951,9.758c1.192-2.474,0.637-5.526-0.136-8.038c-0.67-2.176-1.737-4.35-3.436-5.91c-1.133-1.04-2.677-1.857-4.257-1.569c-2.438,0.436-3.694,3.019-4.283,5.17c-0.225,0.98-0.367,2.107-0.41,3.277C129.538,163.749,130.788,162.859,132.134,162.619 M164.276,182.82c-0.128,0.019-0.257,0.017-0.387-0.006l-0.781,5.059l12.686-1.552l0.775-5.002L164.276,182.82 M138.388,187.782c-12.523,2.276-22.518-8.558-23.488-20.373c-0.112,0.725-0.209,1.449-0.275,2.181c1.084,5.537,2.352,10.653,3.781,15.364c4.6,6.9,12.774,10.448,20.877,8.115c7.395-2.13,12.314-8.657,13.467-16.114l0.131-0.847C150.305,182.225,144.937,186.611,138.388,187.782 M101.478,180.295l-5.114-22.777l-0.408,2.64l4.539,20.211C100.787,180.347,101.11,180.322,101.478,180.295 M112.628,190.931c-2.913,1.149-5.811,2.437-8.966,2.692c-3.533,0.287-7.094,0.164-10.631,0.394l0.001-0.008c-0.85,0.023-1.771,0.163-2.614,0.045l-0.783,5.064l2.618-0.074l0.002-0.011l-0.001,0.011c2.754-0.128,5.51-0.188,8.266-0.274c1.379-0.044,2.765-0.103,4.116-0.405c1.404-0.314,2.755-0.843,4.093-1.36c2.656-1.028,5.299-2.093,7.957-3.116l0.75-4.842C115.519,189.788,113.933,190.415,112.628,190.931"/><path id="patch-shape-02-text" fill="#EEE93C" d="M169.587,153.018c0.867-4.933,1.734-9.866,2.602-14.798c4.624-0.304,9.249-0.608,13.873-0.912c-4.237,13.9-7.644,28.103-9.268,42.562c-4.229,0.517-8.46,1.033-12.689,1.55c0.937-4.53,1.869-9.062,2.809-13.591c-2.022-2.022-3.752-4.459-5.597-6.651c-1.039-1.235-2.079-2.471-3.12-3.704c-2.98-3.528-5.975-7.044-8.963-10.566l13.203-7.662C165.616,146.566,167.134,149.523,169.587,153.018 M151.22,176.383c-4.27,8.917-15.463,13.069-24.313,8.227c-8.243-4.512-12.083-14.853-10.241-23.834c1.737-8.475,9.139-15.202,17.988-14.939c5.692,0.169,10.931,3.295,14.412,7.708c3.342,4.237,4.646,10.084,4.168,15.395C153.002,171.512,152.336,174.05,151.22,176.383 M142.833,166.027c-0.802-3.912-2.737-8.515-6.694-10.165c-4.321-1.801-7.483,1.988-8.534,5.823c-1.033,4.504-0.798,11.393,3.629,14.105c2.673,1.638,6.604,1.531,9.132-0.36C143.297,173.238,143.503,169.332,142.833,166.027 M110.226,149.498c-4.412,1.448-8.831,2.849-13.271,4.208l6.259,27.876c-3.342,0.251-6.684,0.501-10.027,0.744l-2.554,10.337c4.292-0.122,8.635-0.103,12.914-0.449c1.951-0.157,3.743-0.734,5.563-1.427c2.868-1.091,5.71-2.249,8.574-3.351C113.833,175.49,111.552,161.972,110.226,149.498"/><path id="patch-shape-02-outline" fill="#010000" d="M140.392,85.056c0.001,0,0.003,0.001,0.004,0.001C140.394,85.057,140.392,85.056,140.392,85.056 M156.282,94.835c-0.001,0-0.002-0.001-0.002-0.002C156.28,94.834,156.28,94.835,156.282,94.835 M109.907,130.458c0.002,0.001,0.003,0.001,0.005,0.002C109.91,130.459,109.909,130.459,109.907,130.458 M179.106,164.841c-0.004,0.017-0.007,0.035-0.01,0.052C179.101,164.876,179.103,164.859,179.106,164.841 M142.833,166.027c0.65,3.208,0.492,6.986-2.238,9.225c-2.47,2.024-6.419,2.206-9.163,0.656c-4.615-2.606-4.872-9.667-3.827-14.222c1.03-3.759,4.091-7.542,8.37-5.889C140.037,157.366,142.023,162.076,142.833,166.027 M141.45,166.311c-0.687-3.353-2.27-7.388-5.547-9.006c-3.557-1.756-6.073,1.601-6.93,4.727c-0.946,4.13-0.794,11.339,4.063,13.06c2.296,0.813,5.278,0.502,7.054-1.286C142.021,171.857,141.956,168.811,141.45,166.311 M189.784,137.885c-0.346,2.224-0.552,4.52-1.054,6.713c-0.702,3.063-1.802,6.075-2.632,9.11c-0.796,2.912-1.547,5.837-2.244,8.774c-1.334,5.621-2.556,11.295-3.23,17.037c-0.086,0.732-0.192,1.457-0.306,2.187c-0.124,0.799,0.432,2.046,0.597,2.85c0.428,2.094,0.761,4.206,1.001,6.329c2.006,17.735-2.517,36.122-12.921,50.67c-3.16,4.418-6.84,8.46-10.936,12.028c-2.105,1.833-4.319,3.541-6.623,5.118c-2.765,1.893-5.744,3.34-8.59,5.079c9.075,3.337,18.02,8.759,23.357,17.043c4.787,7.43,5.727,16.68,1.979,24.756c-3.101,6.682-8.734,11.882-14.898,15.736l-0.533,0.326c-8.264,5.043-17.729,7.994-27.261,9.444c-10.003,1.522-20.301,1.423-30.259-0.389c-9.682-1.76-19.343-5.183-27.306-11.078c-7.394-5.474-13.159-13.493-13.322-22.972c-0.264-15.336,13.208-26.29,26.178-31.637c-19.853-9.177-35.053-27.273-40.256-48.564c-2.145-8.78-2.538-17.943-1.24-26.884c1.142-7.868,3.405-16.096,7.34-23.069l-0.008-0.004c2.238-4.285,4.856-8.496,6.389-13.105c1.432-4.31,1.337-8.729,0.199-13.098c-1.262-4.796-2.525-9.592-3.787-14.388c-1.464-5.563-3.218-10.986-2.604-16.829c0.853-8.123,5.602-15.097,11.71-20.286c-1.941-2.936-5.087-5.012-8.673-5.536c-9.776-1.4-19.553-2.801-29.33-4.202c-1.178-0.168-2.462-0.249-3.596-0.63c-9.443-2.576-8.463-18.015-0.275-21.526c2.179-0.935,4.318-0.663,6.552-0.343c2.411,0.346,4.823,0.691,7.234,1.037c7.548,1.082,15.096,2.164,22.644,3.246c10.564,1.518,19.845,7.885,25.227,16.891c4.451-1.602,9.193-2.846,14.181-3.727c7.235-20.554,20.787-38.482,36.857-48.531l0.803-0.496c20.813-12.628,33.785-5.17,38.666-2.361c0.372,0.211,0.752,0.414,1.111,0.646c8.587,4.925,13.263,14.146,14.956,23.622c1.793,10.04,0.64,20.481-2.027,30.258c-1.499,5.496-3.511,10.851-5.935,16.005c-1.261,2.682-2.635,5.311-4.113,7.879c-0.721,1.252-1.466,2.49-2.235,3.713c-0.35,0.555,0.051,1.473,0.15,2.118c0.131,0.852,0.221,1.71,0.268,2.571c0.304,5.589-1.507,11.248-2.705,16.629c-0.84,3.771-1.615,7.568-2.616,11.301c0.836,1.405,1.376,3.042,2.057,4.531l0.76-4.313c0.299-1.709,1.729-2.99,3.461-3.105l13.873-0.912C188.183,133.396,190.149,135.539,189.784,137.885 M95.113,93.312c-1.057,7.877-0.987,16.299,1.984,23.782c1.462,3.691,3.72,7.191,6.845,9.692c1.856,1.486,3.941,2.565,6.016,3.706c-0.016-0.01-0.031-0.02-0.046-0.031c6.929,3.87,15.292,2.904,22.384,0.01c0.884-8.394,1.755-16.789,2.633-25.184c0.746-7.139,1.49-14.278,2.24-21.417c1.151,0.387,2.3,0.802,3.424,1.265c0,0-0.002-0.001-0.002-0.001c1.078,0.539,2.243,0.937,3.338,1.448c2.869,1.403,5.655,2.936,8.246,4.815c-0.004-0.002-0.006-0.004-0.008-0.006c0.148,0.108,0.297,0.217,0.443,0.327c-0.002-0.002-0.004-0.003-0.008-0.005c0.28,0.204,0.556,0.417,0.828,0.631c0,0-0.002-0.001-0.002-0.002c0.395,0.31,0.781,0.625,1.162,0.949c-0.002-0.001-0.002-0.001-0.004-0.002c0.146,0.115,0.28,0.248,0.42,0.371c-0.002-0.002-0.004-0.004-0.006-0.005c0.316,0.278,0.629,0.562,0.934,0.85c0-0.001-0.002-0.001-0.002-0.002c0.507,0.496,1.016,0.987,1.5,1.506c-0.002-0.001-0.002-0.002-0.004-0.003c0.002,0.002,0.004,0.004,0.006,0.006c0,0,0,0,0-0.001c1.247,1.347,2.372,2.802,3.326,4.371c0.055-0.119,0.055-0.119,0,0c0.252,0.422,0.488,0.854,0.715,1.289c-0.002-0.005-0.006-0.01-0.008-0.016c0.031,0.06,0.061,0.12,0.092,0.179c-0.004-0.009-0.008-0.019-0.014-0.027c0.088,0.169,0.178,0.337,0.26,0.508c0.453-0.683,0.453-0.682,0,0c0.119,0.266,0.154,0.35,0.107,0.251c0.175,0.393,0.354,0.783,0.51,1.184c0-0.001-0.002-0.001-0.002-0.002c0.021,0.053,0.047,0.102,0.066,0.155c6.502-9.567,11.457-20.301,14.085-31.585c2.325-9.984,2.993-20.871-0.551-30.65c-1.866-5.15-5.441-10.063-10.431-12.558c0.109,0.052,0.22,0.104,0.33,0.154c-2.024-1.127-4.004-2.252-6.214-2.991c-2.423-0.81-4.962-1.19-7.515-1.171c-5.234,0.06-10.32,1.775-14.937,4.15c-10.149,5.222-18.493,13.455-25.164,22.609c-6.267,8.601-11.067,18.409-14.141,28.59H97.95C96.659,84.647,95.701,88.961,95.113,93.312 M77.134,85.922c1.067,3.172,1.676,6.528,2.431,9.782c1.347,5.807,2.694,11.613,4.041,17.419c2.108,9.089,4.217,18.178,6.325,27.267c0.101,0.437,0.204,0.874,0.305,1.311c10.803,2.116,22.058,2.203,32.911,0.385c10.34-1.732,20.744-5.25,29.178-11.627c7.395-5.592,13.272-14.38,10.962-23.983c-3.061,0.957-3.826-3.073-5.003-4.957c-1.422-2.276-3.255-4.276-5.283-6.024c-3.963-3.417-8.66-5.946-13.501-7.88c-1.036,9.908-2.072,19.815-3.107,29.723c-0.468,4.472-0.929,8.946-1.404,13.417c-0.257,2.398-3.411,2.943-5.283,3.516c-2.483,0.759-5.048,1.273-7.642,1.439c-4.572,0.294-9.188-0.559-13.231-2.756c-0.057-0.025-0.115-0.057-0.174-0.09h-0.004l-2.924-1.607c-7.098-3.926-11.227-11.261-12.896-19.003c-2.23-10.346-0.695-21.32,2.2-31.375C88.905,81.875,82.858,83.498,77.134,85.922 M158.501,136.643v0.006c0-0.008,1.199-5.358,2.404-10.741c-6.063,7.68-15.199,12.541-24.33,15.598c3.318,0.375,6.525,1.509,9.48,3.381c0.581-0.913,1.514-1.368,2.414-1.89c1.293-0.75,2.586-1.5,3.879-2.25c2.013-1.168,4.025-2.336,6.039-3.504C158.429,137.04,158.456,136.847,158.501,136.643 M151.714,152.01l-2.766-3.258l-0.338,2.181c2.469,2.53,4.122,5.505,5.111,8.893c4.119,4.854,3.93,4.638,10.766,12.762l0.904-4.375C160.841,162.804,156.287,157.399,151.714,152.01 M71.105,196.024c-0.703,0.625-1.372,1.287-2.007,1.982c-6.378-3.481-12.941-8.698-14.616-16.141c-3.401,10.609-3.724,22.104-0.802,32.864c2.812,10.354,8.552,19.865,16.307,27.271c14.891,14.219,36.784,19.603,56.598,14.022c19.947-5.617,35.564-21.964,40.705-41.972c1.928-7.506,2.382-15.382,1.278-23.055l-5.002,0.611c-1.572,0.195-2.504-0.57-3.527-1.594c-3.707,3.896-8.477,6.778-13.328,9.018c0,0.002-0.002,0.002-0.002,0.002c-1.488,0.691-3.007,1.325-4.541,1.906c-0.002,0-0.004,0-0.004,0c-0.674,0.256-1.355,0.508-2.047,0.748c-0.002,0-0.002,0-0.004,0c-8.215,3.018-17.152,4.465-25.855,4.998c-0.342-0.906-0.725-1.789-1.156-2.646c8.896-0.454,17.809-2.008,26.229-4.946c7.378-2.574,15.164-6.336,20.172-12.537c0.601-3.889,1.293-7.715,2.088-11.568c-1.336-1.587-2.674-3.173-4.008-4.762c-0.306,2.442-0.733,4.872-1.109,7.304c-1.117,7.222-5.213,13.844-11.728,17.355c-7.702,4.152-17.18,3.378-24.097-1.979l-0.242,1.559c-0.237,1.541-1.324,2.536-2.72,3.073c-1.486,0.571-2.969,1.152-4.449,1.739c-2.69,1.065-5.408,2.313-8.265,2.86c-2.981,0.572-6.099,0.429-9.122,0.53c-2.037,0.068-4.073,0.155-6.11,0.213c-2.313,0.064-4.183-2.05-3.826-4.338c0.58-3.747,1.213-7.387,2.122-11.064c-0.784-0.432-1.417-1.044-1.622-1.942l-6.67-28.737c-4.808,1.805-9.495,4.108-13.638,7.162c-4.091,3.014-8.019,7.123-9.057,12.267C55.182,185.483,64.028,192.164,71.105,196.024 M89.627,151.054C89.628,151.054,89.628,151.054,89.627,151.054l-1.646-7.094c-3.055-0.661-6.064-1.479-9.021-2.503l9.903,42.669l0.668-2.703c0.391-1.58,1.755-2.731,3.379-2.853c1.017-0.075,2.033-0.15,3.05-0.225l-5.716-24.631v0L89.627,151.054 M114.624,169.59c1.084,5.537,2.352,10.653,3.781,15.364c4.6,6.9,12.774,10.448,20.877,8.115c7.395-2.13,12.314-8.657,13.467-16.114l0.131-0.847c-3.751,8.908-13.786,14.052-23.188,11.2c-8.604-2.611-14.08-11.233-14.792-19.899C114.787,168.135,114.69,168.859,114.624,169.59 M115.634,151.664c-0.455-0.021-0.914-0.034-1.371-0.05c0.078,0.673,0.152,1.352,0.234,2.016C114.845,152.951,115.228,152.298,115.634,151.664 M150.476,155.615c-2.75-4.768-7.801-8.499-13.228-9.501c-4.456-0.823-9.075,0.196-12.807,2.745c-7.643,5.222-9.894,15.464-7.028,23.973c3.021,8.971,11.638,15.48,21.307,13.448c10.555-2.218,15.943-13.054,14.305-23.2C152.603,160.472,151.745,157.933,150.476,155.615 M122.233,144.926c-3.555,0.537-7.176,0.875-10.809,1.012c1.301,0.438,2.243,1.548,2.488,2.897c1.231,0.037,2.462,0.096,3.691,0.178C118.962,147.44,120.511,146.059,122.233,144.926 M110.226,149.498c-4.412,1.448-8.831,2.849-13.271,4.208l6.259,27.876c-3.342,0.251-6.684,0.501-10.027,0.744l-2.554,10.337c2.17-0.062,4.338-0.165,6.508-0.225c1.577-0.05,3.155-0.102,4.733-0.133c0.666-0.034,1.332-0.056,1.996-0.12c0.538-0.052,1.13-0.251,1.666-0.251c1.68-0.365,3.289-1.029,4.885-1.654c2.421-0.948,4.837-1.91,7.264-2.844C113.833,175.49,111.552,161.972,110.226,149.498 M92.256,199.022L92.256,199.022l-0.002,0.021c2.754-0.128,5.51-0.188,8.266-0.274c1.379-0.044,2.765-0.103,4.116-0.405c1.404-0.314,2.755-0.843,4.093-1.36c2.656-1.028,5.299-2.093,7.957-3.116l0.75-4.842c-3.729,1.445-7.481,3.316-11.392,4.221c-2.001,0.463-4.079,0.455-6.122,0.508c-2.156,0.056-4.311,0.121-6.465,0.219c-0.34,0.011-0.681,0.021-1.021,0.032c-0.658,0.019-1.364,0.119-2.018,0.028l-0.783,5.064l2.618-0.074L92.256,199.022 M101.478,180.295l-5.114-22.777l-0.408,2.64l4.539,20.211C100.787,180.347,101.11,180.322,101.478,180.295 M108.798,146.004c-6.053,0.068-12.102-0.427-17.904-1.471l1.385,5.967c1.776-0.38,3.67-0.426,5.403-0.955c1.4-0.428,2.802-0.85,4.2-1.286C104.196,147.539,106.494,146.761,108.798,146.004 M92.898,153.172l0.197,0.848c0.047-0.304,0.107-0.608,0.143-0.913C93.125,153.128,93.012,153.15,92.898,153.172 M60.51,80.371c3.331,2.72,5.787,6.496,6.791,10.828c1.926,8.304,3.853,16.608,5.779,24.912c1.515,6.531,3.03,13.063,4.545,19.594c0.001,0,0.001,0,0.001,0l0.607,2.618c2.898,1.095,5.938,2,9.074,2.733L75.31,89.338c-2.583-11.154-11.932-19.732-23.254-21.362l-31.69-4.547l-0.003,0.018c-1.634-0.35-2.552,2.185-2.788,3.352c-0.259,1.28-0.38,4.67,1.631,4.707l-0.009,0.064l31.695,4.537C54.482,76.628,57.788,78.147,60.51,80.371 M54.192,115.381c1.847,10.598,11.769,17.656,20.973,21.692c-2.131-9.22-4.277-18.437-6.417-27.655c-1.274-5.492-2.563-10.98-3.822-16.475C58.067,98.219,52.636,106.39,54.192,115.381 M126.327,266.999l-0.828,14.01c4.341,3.85,6.238,11.417,2.35,16.211c-1.977,2.764-5.97,4.371-9.146,5.153c-3.52,0.867-7.238,0.951-10.812,0.37c-6.034-0.98-14.234-4.795-12.881-12.24c0.311-1.562,0.48-3.188,1.07-4.678l-0.004-0.002c0.567-1.588,1.556-3.047,2.894-4.316c-0.484-4.649-0.858-9.31-1.281-13.965c-10.678,2.021-21.989,6.206-29.595,14.294c-5.474,5.821-8.055,13.845-4.746,21.433c3.704,8.495,12.546,13.79,20.867,16.943c9.196,3.484,19.182,4.843,28.985,4.65c9.79-0.192,19.706-1.938,28.747-5.778c8.165-3.469,16.756-9.1,20.101-17.713c2.997-7.719,0.078-15.633-5.622-21.23C148.513,272.369,137.065,268.616,126.327,266.999 M125.702,295.573c2.402-2.906,1.486-6.305,0.896-7.945c0,0-0.789-2.105-1.182-2.727c-0.043-0.061-0.094-0.109-0.137-0.168l-0.09,1.5c-0.244,4.364-4.587,6.836-8.379,7.777c-4.25,1.055-9.096,0.784-12.953-1.414l-0.17-0.092c-2.633-1.498-3.544-2.283-4.28-7.338c-1.181,1.84-1.233,3.818-1.747,5.873c-0.998,5.502,5.89,8.164,10.123,8.938c3.142,0.574,6.423,0.568,9.552-0.084c1.537-0.32,3.044-0.804,4.456-1.493c0.795-0.388,1.56-0.84,2.271-1.364c0.583-0.422,1.066-1.088,1.648-1.469C125.708,295.567,125.704,295.571,125.702,295.573 M175.185,198.337c0-2.791-0.232-5.496-0.615-8.072c-1.086,0.132-2.172,0.268-3.258,0.396c3.524,22.555-7.04,46.093-25.56,59.178c-16.373,11.569-38.047,14.2-56.783,7.186c-15.531-5.815-28.29-17.999-34.937-33.179c-6.954-15.879-6.63-34.055,0.576-49.789c0.196-0.427,0.396-0.852,0.601-1.275c0.004,0.03,0.01,0.067,0.011,0.105c0.471-1.203,1.088-2.36,1.789-3.443v0c0.375-0.578,0.77-1.142,1.198-1.68c0-0.001,0.001-0.002,0.001-0.002c5.211-6.602,13.177-10.743,20.918-13.624l-3.208-13.821c-6.936-2.775-13.64-6.752-18.529-12.494c1.404,5.337,2.8,10.644,2.8,10.644c3.12,11.99-1.467,20.501-1.906,21.177c0.031-0.064,0.068-0.139,0.092-0.188c-0.935,1.564-1.832,3.604-2.729,5.333c-0.872,1.68-1.796,3.343-2.625,5.042c-0.274,0.204-0.441,0.807-0.579,1.1c-0.365,0.777-0.712,1.563-1.058,2.349c-0.603,1.374-1.18,2.741-1.681,4.156c-1.672,4.725-2.85,9.625-3.453,14.602c-1.115,9.206-0.218,18.614,2.667,27.431c5.532,16.906,18.168,31.116,34.234,38.721c5.348,2.531,11.043,4.321,16.881,5.283c0.503,5.374,0.95,10.753,1.464,16.125h0.002c0.259,2.725,0.244,5.924,1.35,8.479c0.626,1.447,2.263,2.233,3.646,2.795c2.915,1.187,6.284,1.284,9.333,0.598c2.662-0.6,6.484-2.186,6.664-5.384l0.227-3.834c0,0-0.002,0-0.002-0.002l0.184-3.102c0,0,0,0,0.002,0.002l0.738-12.508h-0.002l0.225-3.797c3.339-0.72,6.642-1.661,9.816-2.926c1.163-0.463,2.322-0.934,3.474-1.426c0.643-0.274,1.703-0.538,2.204-1.057C160.196,247.11,174.942,226.165,175.185,198.337 M176.569,181.319c-2.082,0.254-4.164,0.508-6.246,0.763c-1.436,0.175-2.872,0.351-4.309,0.525c-0.655,0.08-1.458,0.31-2.125,0.207l-0.781,5.059l12.686-1.552L176.569,181.319 M186.062,137.307l-13.873,0.912c-0.867,4.933-1.734,9.866-2.602,14.798c-2.453-3.494-3.971-6.451-7.15-13.772l-13.203,7.662c10.949,12.903,6.918,8.135,17.678,20.921v0c-0.005-0.005-0.009-0.01-0.012-0.017c0.004,0.006,0.008,0.011,0.014,0.017l-0.002,0.005c0-0.001,0-0.002,0-0.003c-0.935,4.53-1.87,9.06-2.807,13.589c4.229-0.517,8.46-1.033,12.689-1.549c0.435-3.882,1.012-7.784,1.668-11.544c0,0.005-0.002,0.011-0.002,0.016c0.285-1.646,0.588-3.292,0.918-4.93c-0.002,0.003-0.002,0.005-0.002,0.008C181.135,154.604,183.44,145.903,186.062,137.307"/></svg>