<svg id="patch" xmlns="http://www.w3.org/2000/svg" viewBox="0 0 358 280"><title>patch</title><path id="pizza-outline" d="M378.47056,182.21081c-.97253-5.18633-3.93124-10.11165-6.71681-14.49389a129.46127,129.46127,0,0,0-16.211-20.23395,173.76368,173.76368,0,0,0-39.73321-30.58853,181.095,181.095,0,0,0-48.1418-18.64285,201.61331,201.61331,0,0,0-65.33736-3.78687q-4.52664.4522-9.0334,1.08108a65.21534,65.21534,0,0,0-8.20751,1.4195,20.70566,20.70566,0,0,0-10.64477,6.622c-2.98,3.64309-4.0176,8.357-4.56092,12.93948a62.94611,62.94611,0,0,0,.21736,15.281,21.30641,21.30641,0,0,0,1.72133,7.00455q-4.81727,2.56647-9.6916,5.71332c-5.78563-1.192-11.02389.99016-15.115,5.06667-2.014,2.00682-3.69313,4.31542-5.69749,6.33478a46.705,46.705,0,0,1-6.88192,5.70651c-3.71438,2.527-7.7804,4.41407-11.6403,6.68946a22.8642,22.8642,0,0,0-8.33879,7.56667,18.09566,18.09566,0,0,0-2.34056,6.85938c-.42215,3.03832-.61665,6.9058.65654,9.7551-2.22312,3.10842-4.36219,6.29237-6.39421,9.5142C90.69908,206.29769,90.00053,223.6226,89.845,234.84267A169.58837,169.58837,0,0,0,79.65129,275.271a158.62766,158.62766,0,0,0,.36211,40.92827q.39077,2.80941.87986,5.60357a20.64719,20.64719,0,0,0,1.1701,5.25089,5.78225,5.78225,0,0,0,7.91588,2.58283,11.42111,11.42111,0,0,0,3.9957,7.92281,12.36616,12.36616,0,0,0,10.608,2.03844,17.83617,17.83617,0,0,0,13.07359-14.81308,57.799,57.799,0,0,0,.14835-6.91861c-.00955-1.6812-.19777-3.893.624-5.42981,2.46736.90113,4.82645,1.7924,7.51165,1.45954a10.44873,10.44873,0,0,0,6.63812-3.79617c-.40682,2.82776-.63178,5.57813.45692,8.2849a8.83814,8.83814,0,0,0,3.40449,4.30034,7.41161,7.41161,0,0,0,7.758-.04636c2.96539-1.75735,4.96865-4.93328,6.38676-7.99919,2.11847-4.58008,2.59374-9.5537,3.08585-14.51528a26.075,26.075,0,0,1,2.12886-9.13043c1.52674-3.09732,3.56262-5.91034,4.95605-9.08017,8.40291-5.04591,16.78386-9.87666,25.02753-14.4279,1.04818,6.04074,6.3466,12.20022,12.92126,11.51855,6.13209-.63579,9.42658-6.647,10.0557-12.23866.46311-4.11615.65748-8.24168,1.69044-12.27388,5.32867-2.66778,10.64548-5.23233,15.85756-7.64829,6.7588,3.25558,12.44677,8.43967,18.99733,12.08969a41.889,41.889,0,0,0,21.60727,5.69322c7.5682-.21626,15.35635-2.32641,21.23283-7.28142,4.66539-3.93382,7.83149-9.23345,10.5075-14.65076,1.86668-3.77888,3.75239-7.583,5.45043-11.43969a41.66477,41.66477,0,0,0,3.55688-12.20314,172.90622,172.90622,0,0,1,20.65224-2.60836c3.10718-.19243,6.2209-.286,9.334-.25889,2.96188.0258,5.916.32287,8.87448.33718,11.23181.05433,22.91186-5.06828,28.82263-14.98227A27.648,27.648,0,0,0,378.47056,182.21081ZM178.0794,111.38166c1.15138-3.75,4.5072-6.23369,8.10419-7.39442a46.722,46.722,0,0,1,7.85835-1.43247q4.12155-.579,8.26233-1.007a206.37236,206.37236,0,0,1,31.6758-.88164,180.83532,180.83532,0,0,1,50.40085,9.74269A172.01362,172.01362,0,0,1,323.30129,129.832a165.75964,165.75964,0,0,1,27.61366,23.12369,119.6814,119.6814,0,0,1,16.03268,20.41266q.60941,1.0056,1.18613,2.03066c-9.71377-1.91934-19.92181,4.67629-24.56066,12.934a25.97693,25.97693,0,0,0-2.99678,8.66326l-.045-.00485c-9.00386-8.36348-17.74213-16.934-27.50115-24.43511q-4.91609-3.77866-10.07706-7.22117a19.85238,19.85238,0,0,0-10.37047-12.5611c-5.536-2.86352-11.78018-3.04387-17.86337-2.47993a162.397,162.397,0,0,0-44.67658-11.09556,189.697,189.697,0,0,0-27.14625-.81983q-7.00946.27674-13.99143,1.0074c-1.96513.20395-3.92865.5909-5.87949.08725a7.86069,7.86069,0,0,1-4.02181-2.47128,9.28394,9.28394,0,0,1-1.80486-5.06589c-.30178-2.13553-.51125-4.28494-.608-6.43986A41.75656,41.75656,0,0,1,178.0794,111.38166Zm107.57438,43.89819a17.35562,17.35562,0,0,1,9.24741,5.01343h0a13.84008,13.84008,0,0,1,3.8104,7.952h0a20.60389,20.60389,0,0,1-.69873,6.52476,19.99217,19.99217,0,0,1-2.63476,5.45516,22.8336,22.8336,0,0,1-8.40239,6.94277c-8.20073,4.19379-18.204,5.00673-27.12687,3.05783a37.22708,37.22708,0,0,1-13.28541-5.811c-3.24673-2.24007-6.60575-5.0331-8.28757-8.70773a7.8135,7.8135,0,0,1,1.36254-8.90636c3.04186-3.24125,7.85092-4.57714,11.90486-6.04019a112.32773,112.32773,0,0,1,16.648-4.73364c5.6046-1.08947,11.81-1.96,17.46256-.747Zm-155.40351,17.7a80.82558,80.82558,0,0,0,10.78267-6.62625,53.67572,53.67572,0,0,0,5.84374-5.13035c2.06983-2.10066,3.79181-4.54363,5.94385-6.55618a9.49481,9.49481,0,0,1,5.06712-2.75421c2.42749-.32451,4.906.71489,7.06253,1.71236,2.491,1.15217,4.82625,2.64558,7.50087,3.35287a12.242,12.242,0,0,0,7.546-.31928A21.1177,21.1177,0,0,0,183.159,155.06c1.06114-.62395,2.41679-1.65072,3.73284-1.45183a6.10451,6.10451,0,0,1,3.08293,2.01882,28.18071,28.18071,0,0,1,2.81546,3.44013v.00006c.51466-.16825,1.04449-.32029,1.55743-.44211a35.21118,35.21118,0,0,1,3.21854-3.22036c-3.05537-4.24605-7.46571-9.11639-13.25956-7.53645-2.8445.77568-5.15146,3.35575-8.14207,3.53693-3.181.19271-6.12135-2.06806-8.87792-3.3358,3.54-2.1957,7.05158-4.14756,10.50276-5.844a13.03164,13.03164,0,0,0,7.84283,2.24819c3.25411-.1185,6.523-.67022,9.77378-.91749,6.28975-.47843,12.6018-.68489,18.909-.5686a169.30785,169.30785,0,0,1,34.11867,4.02387,154.78578,154.78578,0,0,1,16.79759,4.79424,124.984,124.984,0,0,0-16.52828,4.95534c-6.59579-.40772-13.45284-.43887-19.936,1.01514a22.24827,22.24827,0,0,0-6.36008,2.32213,16.3229,16.3229,0,0,0-5.23742,5.29313,34.19364,34.19364,0,0,0-4.14085,9.999c-.74155-3.98988-3.1781-7.247-5.8837-10.03582-.93964,1.81775-2.88251,2.85169-3.93532,4.58574,1.90741,2.01938,3.73432,4.40731,4.01393,7.27143.28636,2.93336-1.268,5.73662-2.97049,7.99545-7.90653-7.76612-19.30639-11.9301-30.16734-12.99277-10.3835-1.016-23.73338.69921-30.43258,9.76552a16.8095,16.8095,0,0,0-1.23742,17.54358c-7.55431,1.50663-15.6606-2.49856-20.885-7.80359a5.62651,5.62651,0,0,1-1.837-2.73133,17.94484,17.94484,0,0,1-.02454-4.91309,10.34722,10.34722,0,0,1,2.9635-6.195C124.78405,175.75666,127.61715,174.38893,130.25027,172.97987Zm79.714,14.54463a26.41436,26.41436,0,0,1-1.26905,3.23356c-.16927-.278-.32245-.558-.50591-.834C208.85342,189.11783,209.43158,188.31938,209.96422,187.5245Zm-63.58214,9.32133a11.88009,11.88009,0,0,1,1.6488-12.76707c3.1667-3.70045,8.04529-5.61716,12.693-6.57979,10.4363-2.16157,21.98083-.06492,31.3847,4.8209,4.998,2.59671,9.85183,6.23725,12.7419,11.18039l.00006.00013c2.28422,3.907,2.91489,8.67618.564,12.69762-2.1176,3.62238-5.95358,5.88137-9.80049,7.245-9.63917,3.4168-20.84455,2.20544-30.277-1.32082a39.39474,39.39474,0,0,1-14.838-9.30741h.00006A21.13888,21.13888,0,0,1,146.38208,196.84583Zm-29.02519-.86378c7.07594,7.41779,18.512,12.02,28.58351,8.83764a36.82621,36.82621,0,0,0,8.38352,7.10818,14.344,14.344,0,0,0,.43078,15.79839c-6.25886-5.54463-14.64981-7.66847-22.86105-7.14245-1.34746-4.21822-2.21989-8.6609-5.08383-12.18717-3.579-4.40663-9.11383-5.25919-14.48938-4.997Q114.76808,199.6078,117.35689,195.982Zm-25.445,50.30328a33.84985,33.84985,0,0,1-.98057,7.13757,40.4968,40.4968,0,0,1-2.57657,5.79323Q89.88231,252.63806,91.91191,246.28533ZM85.931,317.04564a152.35918,152.35918,0,0,1-1.23841-34.03453c.14864,4.96935.5963,9.92756,1.188,14.862a25.47163,25.47163,0,0,0,1.89866,7.69739c1.07266,2.37068,2.52283,4.54131,3.64887,6.88414Q88.68545,314.72031,85.931,317.04564Zm7.00264,1.55145c-1.7861,1.33628-3.40421,2.56775-4.82766,3.67186q-.06975-.38131-.138-.76282,2.46149-2.08741,4.91294-4.1208A11.48526,11.48526,0,0,1,92.93364,318.59709Zm62.445-42.83644c-.50366,2.86209-2.04816,5.42122-3.50411,7.88434a35.65759,35.65759,0,0,0-3.895,8.1402c-1.688,5.84077-1.027,12.11789-2.96644,17.89441a15.2101,15.2101,0,0,1-3.9107,6.55944c-.3885.33511-.74411.66405-1.15616.28473a3.87255,3.87255,0,0,1-.71288-2.78928c.18859-4.28712,2.1062-9.13429.54266-13.35917a4.312,4.312,0,0,0-4.2233-2.91181c-2.35869.05955-4.038,2.06228-5.30851,3.83226-.79893,1.113-1.51007,2.28785-2.32787,3.38735-.747,1.00434-1.608,2.11392-2.94039,2.22919-2.76171.23893-5.08286-2.10729-7.93766-1.62909-5.47791.91759-6.25364,7.60078-6.25332,12.04535.00019,2.76057.34767,5.72644-.43531,8.41227a10.79623,10.79623,0,0,1-4.29041,5.50451c-1.97855,1.38275-4.73183,2.39179-7.04061,1.20013-1.71207-.88367-2.10669-2.86576-2.15511-4.6363-.07436-2.71893.52743-5.39365.7395-8.09262a17.7637,17.7637,0,0,0-1.52861-8.454c-1.19869-2.7648-2.9642-5.23867-4.15236-8.007-1.2154-2.83182-1.37985-5.953-1.70091-8.98539a132.7628,132.7628,0,0,1-.85668-15.16412c.05149-5.68388.6348-11.45374,2.79188-16.75664.77329-1.901,1.83786-3.66647,2.6121-5.5619,2.10269-5.14763,1.97325-11.14272,2.03676-16.6074.06823-5.86942-.0558-11.83132.99367-17.63059.74682-4.12689,2.22749-8.398,5.52542-11.17284,3.73564-3.1431,9.10531-3.69917,13.78011-3.11191,4.01826.50479,6.53228,3.0144,8.03734,6.66381a59.22061,59.22061,0,0,1,1.996,6.24388,42.34613,42.34613,0,0,0-20.38455,9.92c-4.77124,4.24428-9.2044,10.04784-9.03194,16.76675.17192,6.69726,5.04343,11.76924,10.52213,14.95008a60.1859,60.1859,0,0,0,20.778,7.18822c8.176,1.28642,17.20839,1.10606,24.68087-2.8557C154.85923,269.89719,155.915,272.72672,155.37862,275.76065Zm1.79221-17.959c-5.84083,8.92139-18.85858,8.99057-28.19053,7.39737a57.04165,57.04165,0,0,1-15.42226-4.91548c-4.1985-2.05287-8.79973-4.84525-10.51852-9.46607-1.48225-3.98492.04259-8.13578,2.42269-11.41307a34.52983,34.52983,0,0,1,12.54867-10.2483c9.13034-4.55029,21.00173-5.77769,30.0846-.44238C157.52722,234.25394,163.744,247.83069,157.17083,257.80162Zm.51533,6.64323-.02043-.04827c9.24661-8.201,8.406-22.28845,1.57535-31.71424a51.47557,51.47557,0,0,0,14.88895,8.564,73.79932,73.79932,0,0,0,7.05111,2.334c2.27131.6406,4.75056,1.45646,6.49473,3.132C178.17654,251.96359,168.14164,257.85283,157.68616,264.44485Zm31.02747-7.3056c-.05133.26514-.10333.53508-.15514.80716-9.80612,5.294-19.29529,10.70581-28.304,16.06446a16.09609,16.09609,0,0,0-.84689-5.06292c10.4912-6.63568,20.56092-12.56127,30.08912-17.83831A29.5543,29.5543,0,0,1,188.71363,257.13925ZM212.021,245.83892a9.164,9.164,0,0,1,6.27057-3.03264Q215.17593,244.29242,212.021,245.83892Zm86.50841-39.3136c.74275,2.59328,1.81914,5.07387,2.13522,7.77579a21.06281,21.06281,0,0,1-.75042,7.94977c-1.48927,5.4843-4.311,10.56342-6.74733,15.66271-2.09833,4.39182-4.34163,8.86238-7.74587,12.3996-3.84664,3.99691-8.86828,5.98751-14.26558,6.84916a32.7889,32.7889,0,0,1-18.09294-2.2515c-5.27543-2.24136-9.94664-5.60813-14.63865-8.85331-5.13094-3.54877-10.64059-7.31791-17.01063-7.95282-5.32142-.53039-10.36144,1.23243-13.63651,5.57952-3.76606,4.9988-4.92254,11.58844-5.55706,17.67052-.27215,2.60859-.161,5.49346-1.2725,7.91875-.99352,2.16788-3.02515,3.5756-5.20439,2.00029a7.83506,7.83506,0,0,1-2.61831-3.44771l-.00012-.00025c-.00949-.02444-.01615-.04974-.02539-.07418l-.00006-.00018c-1.71079-4.53614.52222-9.72173.99077-14.28354a11.20142,11.20142,0,0,0-6.75839-12.608,43.152,43.152,0,0,0-7.04569-2.45859,61.93741,61.93741,0,0,1-7.12809-2.65392,40.48276,40.48276,0,0,1-11.91483-7.58793,15.52885,15.52885,0,0,1-3.80156-5.39526,9.476,9.476,0,0,1,1.02681-8.498,54.9219,54.9219,0,0,0,28.42658,5.73846c7.96834-.60451,16.97951-3.33047,21.8149-10.19014a16.267,16.267,0,0,0,2.34441-13.65835c4.07787-5.94938,4.7879-13.31008,6.68894-20.09641a27.02429,27.02429,0,0,1,3.97719-8.92071,10.946,10.946,0,0,1,5.81452-4.125,42.585,42.585,0,0,1,11.20036-1.6495c-5.09859,3.6166-7.44175,9.68471-5.02325,15.6146,2.51717,6.17183,8.54455,10.73312,14.19071,13.8393,12.27311,6.752,28.86419,6.97745,41.32589.54813a25.8389,25.8389,0,0,0,13.14617-14.74437,26.52977,26.52977,0,0,1,6.67741,5.46958,4.32392,4.32392,0,0,1,1.043,2.06212,3.15494,3.15494,0,0,1-1.35682,2.51558c-3.65266,3.3297-8.60533,5.22565-10.29592,10.30979A16.47516,16.47516,0,0,0,298.52942,206.52532Zm4.01147-5.77589c.1998-2.86788,1.59413-4.71728,3.81075-6.43847,2.00522-1.557,4.2627-2.81661,6.06041-4.632a7.35943,7.35943,0,0,0,2.35208-6.21574,10.15978,10.15978,0,0,0-2.92326-5.33942,37.23333,37.23333,0,0,0-8.41491-6.40625c.00948-.10021.00991-.19926.01792-.29929,10.71323,7.46173,20.35878,16.19236,29.79475,25.18935C325.77848,196.65357,315.38264,197.90505,302.54089,200.74943Zm69.18537-9.544c-1.54826,9.63839-10.15239,15.971-19.268,17.71492-4.92346.94193-9.8493.26687-14.81412.21606a144.02256,144.02256,0,0,0-14.63752.63442c-5.98739.54986-11.94322,1.42476-17.85075,2.54269-.45384-2.356-1.3439-4.56928-2.02467-6.85992a190.33421,190.33421,0,0,1,19.1863-3.36389,82.35036,82.35036,0,0,1,15.24185-.62428,39.46281,39.46281,0,0,1,7.37437,1.2782,27.204,27.204,0,0,1,1.31467-8.98559,21.09821,21.09821,0,0,1,5.54926-8.3494c4.10225-3.785,10.89132-6.9906,16.51217-5.07342a4.7575,4.7575,0,0,1,3.26495,3.17739A19.488,19.488,0,0,1,371.72626,191.20546ZM292.265,219.05625c-6.50561-8.97161-19.35248-8.878-29.10582-7.05365a76.39266,76.39266,0,0,0-15.74307,4.84452c-4.46987,1.89773-10.257,4.13923-10.029,9.97031.207,5.29343,4.47528,10.02241,8.07111,13.48862a61.394,61.394,0,0,0,12.18377,9.06624c4.04694,2.30785,8.68366,4.56227,13.41071,4.8267a15.13678,15.13678,0,0,0,10.61844-4.07822c4.43869-3.8747,7.36662-9.39958,9.31064-14.89377a41.98492,41.98492,0,0,0,2.00736-7.85676C293.35331,224.89765,293.8535,221.24734,292.265,219.05625Zm-48.2938,12.31437c-.99728-1.55119-2.45759-4.02681-1.689-5.936q10.34631-4.32374,20.89338-8.14136c.77954-.28087,1.5599-.60109,2.35366-.83984a16.13223,16.13223,0,0,1,2.96021-.45983,41.96656,41.96656,0,0,1,5.208-.236,24.11578,24.11578,0,0,1,9.35838,1.84377A367.43157,367.43157,0,0,0,243.97116,231.37062Zm35.65472,10.62684c-1.68175,2.22277-3.93186,4.483-6.7617,5.051-2.15851.43326-4.44381-.361-6.42888-1.14842a50.74445,50.74445,0,0,1-15.23779-9.811,354.7294,354.7294,0,0,1,35.12227-12.0284A37.06634,37.06634,0,0,1,279.62588,241.99746Z" transform="translate(-21 -60)" style="fill:#010000"/><path id="pizza" d="M187.67587,246.7124c-9.49933,5.25119-19.53423,11.14043-29.98971,17.73245l-.02043-.04827c9.24661-8.201,8.406-22.28845,1.57535-31.71424a51.47557,51.47557,0,0,0,14.88895,8.564,73.79932,73.79932,0,0,0,7.05111,2.334C183.45245,244.221,185.9317,245.03688,187.67587,246.7124Zm-33.352-34.78453a36.82621,36.82621,0,0,1-8.38352-7.10818c-10.07145,3.18235-21.50758-1.41986-28.58351-8.83764q-2.58627,3.625-5.03645,7.4176c5.37537-.2622,10.91054.59051,14.48938,4.997,2.864,3.52633,3.73635,7.9689,5.08383,12.18717,8.21127-.526,16.6022,1.59783,22.86105,7.14245A14.344,14.344,0,0,1,154.32392,211.92787ZM90.06128,255.738c1.15808-2.26773,1.63695-5.60746,1.85063-9.45267q-2.0292,6.347-3.55714,12.9308C88.88864,258.03952,89.47646,256.88957,90.06128,255.738Zm69.60245,14.01748a14.67874,14.67874,0,0,1,.59075,4.25539c9.00872-5.35865,18.49789-10.77041,28.304-16.06446a32.15936,32.15936,0,0,0,.93822-6.83677c-9.5282,5.277-19.59792,11.20263-30.08912,17.83831C159.49324,269.21616,159.58133,269.4732,159.66373,269.75548Zm-69.82757,39.7247a35.47711,35.47711,0,0,1-2.84851-5.89224,34.4951,34.4951,0,0,1-1.30311-7.40125c-.49207-4.37684-.86023-8.772-.992-13.17558A152.35918,152.35918,0,0,0,85.931,317.04564q2.75448-2.32643,5.49709-4.591C90.9565,311.47349,90.41242,310.50091,89.83616,309.48018ZM87.968,321.50613q.06762.38131.138.76282c1.42345-1.10411,3.04156-2.33558,4.82766-3.67186a11.48526,11.48526,0,0,0-.05267-1.21176Q90.42876,319.42374,87.968,321.50613ZM265.86322,216.33555q-11.17859,3.93847-23.581,9.099c-.768,1.90756.69194,4.38527,1.689,5.936a367.43157,367.43157,0,0,1,39.08468-13.76928C277.738,215.22483,271.4905,215.46469,265.86322,216.33555Zm105.71151-32.82291c-.61553-2.51049-3.337-3.46013-5.631-3.63813a17.32771,17.32771,0,0,0-8.31964,1.67564,21.52482,21.52482,0,0,0-11.37573,12.20792,27.20569,27.20569,0,0,0-1.31467,8.98559c-9.84563-2.58552-20.39288-1.20566-30.29341.44869-3.85659.64443-7.693,1.4088-11.50911,2.26128.68078,2.29067,1.57081,4.50388,2.02467,6.85992a163.65927,163.65927,0,0,1,33.64126-3.15953c2.75042.0555,5.50553.362,8.25536.321a30.53714,30.53714,0,0,0,7.85025-1.13544,25.18489,25.18489,0,0,0,12.61822-7.87341A20.46375,20.46375,0,0,0,371.57473,183.51264Zm-38.86751,12.58853c-7.22262-6.88725-16.75951-15.974-29.26334-24.68288-.008.1-.00844.19908-.01792.29929a40.32111,40.32111,0,0,1,7.67181,5.65337,11.80074,11.80074,0,0,1,3.52777,5.3854c1.31507,5.288-3.76529,8.27055-7.37021,10.88016-2.57893,1.86688-4.48346,3.79741-4.71444,7.11292,12.84175-2.84438,23.23759-4.09586,30.69774-4.14179C333.06037,196.43767,332.88811,196.27372,332.70722,196.10117Zm-124.01205-5.34311a26.41448,26.41448,0,0,0,1.26905-3.23356c-.53264.79488-1.1108,1.59333-1.775,2.39957C208.37272,190.20008,208.5259,190.48008,208.69517,190.75806Zm94.258-25.42292a19.85238,19.85238,0,0,0-10.37047-12.5611c-5.536-2.86352-11.78018-3.04387-17.86337-2.47993a160.34511,160.34511,0,0,0-36.74511-10.08337,191.8039,191.8039,0,0,0-45.15145-1.19681q-3.04365.26253-6.07952.60706a9.65621,9.65621,0,0,1-4.375-.34759,7.35655,7.35655,0,0,1-4.93621-5.80059c-1.098-6.57074-1.422-13.54368.1031-20.07078a11.79069,11.79069,0,0,1,4.05237-7.01414,17.64808,17.64808,0,0,1,8.50436-3.24319,222.38916,222.38916,0,0,1,23.89651-2.487,193.47844,193.47844,0,0,1,40.80805,2.232,176.1568,176.1568,0,0,1,33.967,9.11707,171.89543,171.89543,0,0,1,28.12561,13.7352,170.05656,170.05656,0,0,1,22.30119,16.13344,156.8075,156.8075,0,0,1,16.49368,16.31175,114.12086,114.12086,0,0,1,10.70309,14.27015q.90615,1.45092,1.74682,2.94174c-9.71377-1.91934-19.92181,4.67629-24.56066,12.934a25.97693,25.97693,0,0,0-2.99678,8.66326l-.045-.00485c-9.00386-8.36348-17.74213-16.934-27.50115-24.43511Q308.11412,168.77765,302.95315,165.33514Zm1.39837-18.63645c4.05114,2.50026,10.79772.50181,10.8593-4.91521.03949-3.474-3.04888-5.03135-5.5857-6.64429a165.64332,165.64332,0,0,0-15.67806-8.77847,178.01938,178.01938,0,0,0-22.824-9.34188,170.69648,170.69648,0,0,0-28.75885-6.83216,161.76872,161.76872,0,0,0-33.97579-1.38646q-4.5294.29562-9.03739.84734-2.35354.288-4.698.64514a20.37641,20.37641,0,0,0-4.25685.83948c-4.23246,1.62951-6.59319,8.17108-2.14981,10.994,2.4856,1.57915,6.04394.48187,8.80517.216q4.61079-.444,9.24187-.62414a181.86207,181.86207,0,0,1,24.77036.7101,178.01342,178.01342,0,0,1,30.90909,5.7498A166.68192,166.68192,0,0,1,295.82747,141.784Q300.16186,144.11194,304.35152,146.69869ZM248.703,156.76086a124.984,124.984,0,0,1,16.52828-4.95534c-21.6369-7.527-44.68043-9.89762-67.46964-8.41572-3.70042.24062-7.37969.63287-11.06812,1.00365a13.25365,13.25365,0,0,1-8.90411-2.16814c-3.45118,1.69649-6.96281,3.64835-10.50276,5.844,2.75847,1.26861,5.69559,3.52846,8.87792,3.3358,2.99064-.18106,5.29733-2.76119,8.14207-3.53693,5.79411-1.58,10.20428,3.29053,13.25956,7.53645,1.03644-.88278,2.83629-2.44626,4.14913-1.27963a17.90715,17.90715,0,0,1,2.52511,3.13656c1.48253,2.10317,4.312,5.37017,2.9045,8.09281,2.7056,2.7888,5.14215,6.04594,5.8837,10.03582,1.46151-5.4515,3.81846-11.64284,8.73231-14.892,4.16746-2.75563,9.63215-3.40931,14.48808-3.74825A94.90476,94.90476,0,0,1,248.703,156.76086Zm-36.682,89.07806a9.164,9.164,0,0,1,6.27057-3.03264Q215.17593,244.29242,212.021,245.83892Z" transform="translate(-21 -60)" style="fill:#f6b030"/><path id="pizza-highlight" d="M185.85257,117.883a7.21919,7.21919,0,0,1,3.10975-5.99761c2.25226-1.539,5.428-1.57422,8.04712-1.93373a160.39828,160.39828,0,0,1,18.29421-1.45271,162.93727,162.93727,0,0,1,32.9221,2.65462,172.6904,172.6904,0,0,1,27.81331,7.57,177.84667,177.84667,0,0,1,21.445,9.42951,159.05114,159.05114,0,0,1,14.28774,8.37823c1.41928.93921,2.70419,1.90148,3.21506,3.62419a5.7705,5.7705,0,0,1-2.08614,6.135,7.44818,7.44818,0,0,1-6.96532,1.15316,20.42617,20.42617,0,0,1-3.75539-2.06257q-2.15389-1.28412-4.34633-2.50151a166.23393,166.23393,0,0,0-34.10543-14.19955,177.38407,177.38407,0,0,0-31.00937-6.08431,182.23692,182.23692,0,0,0-25.30111-.91912q-4.75471.15987-9.49591.58417-1.92876.17481-3.8527.39872a11.1463,11.1463,0,0,1-4.411.10172A5.212,5.212,0,0,1,185.85257,117.883Z" transform="translate(-21 -60)" style="fill:#fff"/><path id="cheese" d="M204.18677,185.13925c.02294.02241.0435.04537.06631.06779,1.67226-2.21869,3.17762-4.93112,2.98881-7.80628-.19254-2.93176-2.08855-5.41189-4.03023-7.46379-.84639,1.39207-1.34071,4.19272-3.35053,4.29162-2.11412.104-3.64042-2.54468-4.848-3.9233a24.51474,24.51474,0,0,0-2.60572-2.33123,13.01786,13.01786,0,0,1-2.5906-3.14356c-.69082-1.12512-1.24138-2.4235-.51577-3.67716.69506-1.2009,2.25567-1.683,3.48924-2.08619a18.17346,18.17346,0,0,0-4.46552-4.84882c-1.72216-1.1181-3.14808-.34484-4.78921.61919a16.957,16.957,0,0,1-5.95885,2.4693,13.62112,13.62112,0,0,1-7.0704-.974c-3.95942-1.56981-8.09351-5.02914-12.61862-4.4199-4.58313.617-7.354,5.466-10.25474,8.52764a55.35993,55.35993,0,0,1-10.78423,8.793c-3.15466,1.98-6.49874,3.60744-9.727,5.45593-2.59246,1.48442-5.21836,3.23531-6.52638,6.03595a12.29549,12.29549,0,0,0-1.03614,4.69486c-.05975,1.39589-.26765,3.35661.51949,4.58069,1.77818,2.76523,4.96843,4.92142,7.75492,6.51676,4.37861,2.50689,9.54127,4.01107,14.58219,3.00571a16.88665,16.88665,0,0,1,.26048-16.06653c2.48893-4.23505,6.72763-7.1014,11.21389-8.86465,11.00989-4.32725,23.98818-3.06877,34.85918,1.07081A44.833,44.833,0,0,1,204.18677,185.13925Zm-41.44942-19.97513c-1.9416,2.52182-10.40409,4.45821-13.07874,3.98479-.58069-2.13354-1.38584-4.94433-.781-7.14337.57921-2.10585,3.084-1.659,4.48791-2.93483l7.04827-.85113C161.13753,160.42155,164.3817,163.02522,162.73735,165.16412Zm-9.03514,101.97774c-6.53906,3.46688-14.28766,4.012-21.5303,3.26657a61.60333,61.60333,0,0,1-21.38868-6.22263c-5.7796-2.92592-11.58955-7.32477-12.832-14.10873-1.17714-6.42735,2.30191-12.44117,6.61954-16.89785a42.22011,42.22011,0,0,1,22.56692-12.00672c-1.11323-3.8657-2.079-8.69337-5.51642-11.23233a10.99685,10.99685,0,0,0-6.115-1.80637,22.03064,22.03064,0,0,0-7.33676.69131c-8.32024,2.42229-10.41026,11.17879-11.01084,18.84877-.39876,5.09263-.28052,10.20764-.3999,15.31012-.122,5.21415-.33946,10.673-2.74709,15.40417A39.76435,39.76435,0,0,0,89.796,271.85962a77.01733,77.01733,0,0,0-.34006,12.409c.11672,2.8055.32961,5.60652.60219,8.40089.31459,3.225.40008,6.73049,1.5418,9.78776.99907,2.67525,2.647,5.04044,3.91115,7.58734a18.94252,18.94252,0,0,1,2.14473,8.19985c.03476,2.88631-.70645,5.72854-.78948,8.61281-.055,1.91016.09052,4.30686,1.88251,5.43612,2.25925,1.42371,5.17265.40425,7.186-.9633a10.612,10.612,0,0,0,4.5274-6.02862c1.25736-5.3718-.98953-11.43457,1.91654-16.47162a6.50234,6.50234,0,0,1,6.81339-3.48977c2.78491.54417,5.60767,2.91437,7.98172.26663,1.84664-2.05951,2.95712-4.70573,5.01083-6.5963,1.67746-1.54421,4.15374-2.1634,6.11171-.71307,1.55812,1.15415,1.92507,3.25771,1.9883,5.07768a37.62459,37.62459,0,0,1-.62421,6.8097,19.6137,19.6137,0,0,0-.42894,4.3377c.03753.47068.32979,2.06974.94649,2.208.58845.13191,1.39938-.94792,1.69626-1.30055a16.90859,16.90859,0,0,0,2.21838-3.49643c2.83371-5.82577,2.09325-12.535,3.51674-18.71661a31.96737,31.96737,0,0,1,3.97768-9.08635c1.54412-2.61264,3.25616-5.30565,3.79458-8.34594C155.92039,272.74247,154.86356,269.90751,153.70221,267.14186Zm-43.495,21.195c-3.21082.00583-6.23039-1.28159-9.40732-1.51375-1.0056-.07348-2.02954.036-3.02923-.1084a7.51346,7.51346,0,0,1-3.421-1.66508l.022-7.39783c1.80712-1.59589,3.63246-3.63695,5.89528-4.58658,2.16869-.91013,4.10288.14328,5.68945,1.66269a14.11166,14.11166,0,0,1,4.04411,6.31869A20.60219,20.60219,0,0,1,110.20719,288.33684Zm29.25422,1.80406c-1.94154,2.52182-10.40213,4.45563-13.07549,3.98227-.58246-2.13489-1.38355-4.94134-.78053-7.14239.57714-2.10658,3.08193-1.66026,4.48546-2.93581l7.04962-.84971C137.86294,285.39716,141.10644,288.00071,139.46141,290.1409ZM304.635,178.15436c-.74027-.5406-1.49631-1.04522-2.26068-1.532-4.21006,12.62871-17.54123,18.35544-29.91749,19.19565a45.92746,45.92746,0,0,1-22.06763-3.75243c-6.098-2.77986-12.48576-7.3-15.811-13.28726a13.48039,13.48039,0,0,1-1.74971-8.52066,13.61992,13.61992,0,0,1,5.90634-8.893,47.33975,47.33975,0,0,0-9.97929,1.297,11.747,11.747,0,0,0-5.98061,3.19923c-4.54364,4.93549-5.5107,12.16535-7.02425,18.44052-1.00068,4.14883-2.25281,8.2826-4.684,11.83694,2.2807,8.45545-2.41563,16.06013-9.75222,19.96748-8.26176,4.40009-18.35453,4.80086-27.40568,3.21621a56.055,56.055,0,0,1-15.44083-5.05573c-6.48321,10.553,8.00018,18.69216,15.86649,21.989a64.53541,64.53541,0,0,0,7.71471,2.6526,24.86276,24.86276,0,0,1,7.06706,2.96488,10.7372,10.7372,0,0,1,5.046,8.26531c.29037,3.587-.7537,7.11787-1.314,10.62483-.42156,2.63871-.64052,5.52154.68755,7.95132.99649,1.82311,3.3035,4.23911,5.53288,2.88862,2.13261-1.29187,2.58885-4.21014,2.802-6.47145.13938-1.47891.25467-2.95964.41868-4.43618a51.903,51.903,0,0,1,1.81684-9.42651,22.49471,22.49471,0,0,1,4.72808-8.85976,13.85675,13.85675,0,0,1,9.23517-4.36134c5.6849-.42005,10.95954,1.94647,15.68138,4.89544,4.89654,3.05808,9.42936,6.67271,14.45038,9.53561a36.20751,36.20751,0,0,0,15.87682,5.07032c5.65033.31171,11.89017-.70939,16.81588-3.629a26.51908,26.51908,0,0,0,9.10325-9.866c2.7617-4.76212,5.06408-9.89388,7.35117-14.8968,1.86958-4.08965,3.52139-8.56713,3.44311-13.13384-.05144-3.0008-1.07111-5.71-1.96958-8.5287-1.63469-5.12845-1.535-10.82122,2.35983-14.8933a38.34092,38.34092,0,0,1,5.67337-4.46659c1.59469-1.13721,4.031-2.707,2.91945-4.94635C308.73069,181.08563,306.46941,179.49391,304.635,178.15436ZM204.25449,236.23127c-2.44145,1.00089-2.56068,2.1063-5.78283,1.72866l-2.9399-4.99691c.98037-3.04177,1.72028-7.33463,5.805-6.792a11.22008,11.22008,0,0,1,5.80977,2.52824,15.22628,15.22628,0,0,1,3.3359,5.0959C208.61179,234.91562,206.0757,235.48594,204.25449,236.23127Zm21.10286-28.24778a36.98256,36.98256,0,0,1-.88443-4.26124,10.26928,10.26928,0,0,1-.01184-4.363c.70807-2.37115,3.69889-1.90506,5.30868-3.36881l8.38792-1.0136c.74076,2.25106,3.05151,3.94779,3.29377,6.37867.21043,2.11141-2.02683,3.29169-3.64052,4.04453a30.22958,30.22958,0,0,1-6.76892,2.1278A15.84239,15.84239,0,0,1,225.35735,207.98349Zm63.37806,32.54726c-2.451,4.87926-5.94014,9.74912-10.94908,12.21723a14.81,14.81,0,0,1-11.04578.65314,46.88066,46.88066,0,0,1-12.17724-5.90235,57.422,57.422,0,0,1-11.20171-9.33923c-2.64416-2.90239-5.38187-6.49066-5.90832-10.51216a7.62119,7.62119,0,0,1,2.24608-6.594c1.90283-1.8286,4.646-2.86845,7.0277-3.91015a75.18988,75.18988,0,0,1,18.22185-5.45908c5.95812-.94834,12.32307-1.126,18.10588.83962a19.83048,19.83048,0,0,1,6.46792,3.57729c1.48723,1.26109,3.03432,2.79623,3.49695,4.75379a17.82156,17.82156,0,0,1-.055,6.72486,43.17561,43.17561,0,0,1-2.32306,8.59568A45.59821,45.59821,0,0,1,288.73541,240.53075Z" transform="translate(-21 -60)" style="fill:#f7eb00"/><path id="sausage" d="M283.34409,154.92235c-11.10163-.99379-22.5477,2.40011-32.8521,6.2201-4.30008,1.5941-9.80737,3.14116-12.1828,7.46392-1.92448,3.50211-.37819,7.34416,1.94633,10.20988a33.96362,33.96362,0,0,0,13.14459,9.39994,41.02067,41.02067,0,0,0,16.61128,2.97116c9.12487-.20438,20.05743-3.1771,25.504-11.16016,3.34963-4.90959,4.55935-11.583,1.50755-16.91852C294.24733,158.25613,288.77521,155.43327,283.34409,154.92235Zm-31.92146,7.13839a8.85753,8.85753,0,0,1,7.69115-.49093c2.32658,1.01031,2.78341,3.45577.56887,4.92458a7.93107,7.93107,0,0,1-6.8929.48233C250.58633,166.12712,248.80119,163.68375,251.42263,162.06074Zm-7.88672,12.63895c-.76731-.48705-1.80792-1.34158-1.69085-2.37718.09724-.86025.9647-1.29446,1.70338-1.50885a8.91926,8.91926,0,0,1,6.58539.90369c.78.45717,1.73133,1.25242,1.63113,2.271-.09269.94224-1.0545,1.485-1.86546,1.73086A8.15212,8.15212,0,0,1,243.53591,174.69969Zm15.7754,11.58137c-1.75624,1.1229-4.39359.838-6.24695.14226-1.39249-.52272-4.09009-2.42476-1.90639-3.80867,1.8017-1.14182,4.62366-.82183,6.52434-.14873C259.25057,183.02129,261.52774,184.87905,259.31131,186.28106Zm1.75839-8.998c-1.07041-.45383-2.3868-1.2926-2.50568-2.58455a2.81519,2.81519,0,0,1,1.63924-2.48669,9.85511,9.85511,0,0,1,8.16653-.69672,3.363,3.363,0,0,1,2.32808,2.36348,3.16947,3.16947,0,0,1-1.73753,2.92793A8.99573,8.99573,0,0,1,261.0697,177.2831Zm18.70979,9.83276c-1.9914,2.0931-5.64188,2.47145-8.3237,1.94072-2.00195-.3962-5.64918-2.22821-3.58542-4.70739,1.837-2.20673,5.7361-2.64793,8.38384-2.32878,1.40627.16951,3.09926.6028,3.9771,1.82461A2.49428,2.49428,0,0,1,279.77949,187.11586Zm1.32325-26.05343a5.508,5.508,0,0,1-5.039,2.39021c-1.94821-.17848-3.35243-1.77123-2.17892-3.63087a6.028,6.028,0,0,1,5.08942-2.589A2.42527,2.42527,0,0,1,281.10274,161.06243Zm9.90791,18.12562c-1.13487,1.72262-3.59841,2.499-5.56554,2.38114-1.78079-.1067-4.04124-1.38806-2.70479-3.40645,1.14287-1.726,3.66415-2.56248,5.63983-2.51541C290.32874,175.69376,292.37521,177.11527,291.01065,179.18805Zm3.0316-13.35278a7.39124,7.39124,0,0,1-6.5483,3.85611c-2.43149-.01127-4.66966-1.74022-3.479-4.31319a8.04125,8.04125,0,0,1,6.651-4.20872C293.36437,161.06394,295.24659,163.22011,294.04225,165.83527ZM168.95274,176.699c-8.72652,0-22.86807,3.03735-23.7311,13.95518-.41874,5.29733,2.9214,10.07631,6.63012,13.49463a40.76595,40.76595,0,0,0,13.14839,7.859c10.18035,3.88689,22.87769,5.19747,33.00631.45968,3.9606-1.85263,7.63627-4.96675,8.66116-9.40776,1.18391-5.13013-1.55794-10.10892-4.982-13.72366C193.52548,180.72159,180.55241,176.699,168.95274,176.699Zm-18.00348,14.4179c-1.82717-1.77682-.6455-3.80684,1.59617-4.24305a7.17852,7.17852,0,0,1,6.10238,1.71625c1.75352,1.72653.749,3.734-1.466,4.21981A7.182,7.182,0,0,1,150.94926,191.11685Zm9.54417,14.11572a6.5753,6.5753,0,0,1-5.7756-1.0877c-1.65427-1.28888-1.6658-3.36129.48149-4.0766a6.59267,6.59267,0,0,1,5.78412,1.08857C162.63536,202.44283,162.64964,204.52969,160.49343,205.23257Zm3.53585-26.6426a8.95542,8.95542,0,0,1,8.02732,1.60311,3.67449,3.67449,0,0,1,1.586,2.98371,3.14359,3.14359,0,0,1-2.3914,2.461,8.97549,8.97549,0,0,1-7.80686-1.42657,3.83487,3.83487,0,0,1-1.80473-3.15671A3.1462,3.1462,0,0,1,164.02928,178.59Zm3.86619,13.24329a8.94378,8.94378,0,0,1,8.01721,1.59168,3.67683,3.67683,0,0,1,1.59025,2.9869,3.14863,3.14863,0,0,1-2.393,2.45788,8.98552,8.98552,0,0,1-7.8075-1.42431,3.82342,3.82342,0,0,1-1.80046-3.15706A3.14253,3.14253,0,0,1,167.89547,191.83326Zm8.95091,20.57811a8.95952,8.95952,0,0,1-8.017-1.592A3.67962,3.67962,0,0,1,167.24,207.83a3.14852,3.14852,0,0,1,2.397-2.45769,8.97069,8.97069,0,0,1,7.80408,1.42634,3.81646,3.81646,0,0,1,1.79642,3.15259A3.14431,3.14431,0,0,1,176.84638,212.41137Zm11.97008-26.34056a7.19408,7.19408,0,0,1,6.23462,1.11968c1.8546,1.3968,1.93952,3.71035-.46256,4.50933a7.18124,7.18124,0,0,1-6.12165-1.05758C186.57046,189.27958,186.32681,186.8869,188.81646,186.07081Zm1.57657,25.34968a6.60137,6.60137,0,0,1-5.78653-1.08777c-1.65409-1.2919-1.655-3.36647.49114-4.0804a6.5979,6.5979,0,0,1,5.78455,1.08689C192.5312,208.62436,192.54533,210.7155,190.393,211.42049Zm11.67651-7.666a8.98688,8.98688,0,0,1-8.0411-1.59533,3.66385,3.66385,0,0,1-1.58414-2.99175,3.15946,3.15946,0,0,1,2.40391-2.45687,8.98449,8.98449,0,0,1,7.80507,1.423,3.82839,3.82839,0,0,1,1.80178,3.16024A3.13935,3.13935,0,0,1,202.06954,203.7545Zm-67.71162,21.477c-10.80385,0-22.17071,5.16593-28.7139,13.92617-2.4793,3.31936-4.12569,7.57014-2.6045,11.65975,1.75728,4.72431,6.51593,7.54268,10.81339,9.609A57.20619,57.20619,0,0,0,129.6483,265.309a41.91117,41.91117,0,0,0,16.12492-.2427c4.51994-1.0708,8.82112-3.27106,11.427-7.258a18.05816,18.05816,0,0,0,2.20306-13.54946,24.37057,24.37057,0,0,0-9.10642-14.0742A26.295,26.295,0,0,0,134.35792,225.23152ZM107.65985,246.8357c-2.30377-1.23786-.75589-3.56519.949-4.46775,1.66865-.88338,4.12611-1.23969,5.78473-.13844,1.96308,1.30339.85752,3.44485-.82974,4.36447A6.55752,6.55752,0,0,1,107.65985,246.8357ZM118.56122,257.872a5.80721,5.80721,0,0,1-5.59751.07152c-1.87824-1.076-1.52877-3.069.21285-4.07276a5.56859,5.56859,0,0,1,5.27053-.115A2.2699,2.2699,0,0,1,118.56122,257.872Zm-1.22861-21.65828c-2.76052-1.59552-1.14317-4.49157,1.0074-5.7351,2.12784-1.23039,5.29346-1.66983,7.41678-.18933,2.38671,1.66416,1.25183,4.44544-.90115,5.67888A7.97955,7.97955,0,0,1,117.33261,236.21371Zm5.89374,6.56549a7.24328,7.24328,0,0,1,7.532-.25c2.22662,1.38334,2.60072,4.1792.37333,5.76816a7.59417,7.59417,0,0,1-7.50894.3258C121.01686,247.27774,120.7567,244.45042,123.22635,242.7792Zm11.26639,20.09093a7.514,7.514,0,0,1-7.47648-.68257c-2.36049-1.63393-2.5724-4.567.10067-6.007a7.09818,7.09818,0,0,1,7.27941.59235C136.52292,258.34594,137.10694,261.44172,134.49274,262.87013Zm6.9485-31.01006a5.46746,5.46746,0,0,1,5.91976.07163c1.74938,1.21329,2.21606,3.64976.37855,5.02391a5.5912,5.5912,0,0,1-6.12313-.0709C139.69051,235.61311,139.43386,233.203,141.44124,231.86007Zm5.12307,28.66834a5.24047,5.24047,0,0,1-5.35025-.76865c-1.647-1.26953-2.15-3.64911-.05942-4.76378a5.02253,5.02253,0,0,1,5.35446.78748C147.96935,257.02684,148.56591,259.46208,146.56431,260.52841Zm9.37619-10.024c-2.31835,1.29169-5.479.45537-7.41882-1.161-2.16492-1.80389-2.66175-4.97279.053-6.53231a6.55816,6.55816,0,0,1,7.41,1.0812C157.90618,245.66729,158.60619,249.02716,155.9405,250.50437Z" transform="translate(-21 -60)" style="fill:#e75092"/><path id="sausage-highlight" d="M146.8208,256.07037c1.36037,1.38427,1.50311,3.6898-.47742,4.56467a5.37008,5.37008,0,0,1-5.44794-1.144c-1.54361-1.41076-1.58094-3.69224.48607-4.604A5.10405,5.10405,0,0,1,146.8208,256.07037Zm-29.20592-25.113a3.82508,3.82508,0,0,0-1.79706,3.15245,3.1316,3.1316,0,0,0,2.19237,2.429,8.12758,8.12758,0,0,0,7.44905-.96429c2.12076-1.57426,2.24783-4.37361-.26516-5.61768A7.66683,7.66683,0,0,0,117.61488,230.95741Zm23.82638.90269c-2.00684,1.34257-1.75029,3.75338.17516,5.02464a5.59129,5.59129,0,0,0,6.12312.07087c1.83751-1.37415,1.37061-3.81071-.37856-5.02388A5.46743,5.46743,0,0,0,141.44126,231.8601Zm-33.5595,10.96078c-1.84089,1.35287-1.85568,3.54005.46426,4.30607a6.7259,6.7259,0,0,0,5.82466-.91966c1.68676-1.26125,1.71917-3.41006-.346-4.28013A6.43314,6.43314,0,0,0,107.88176,242.82088Zm15.34461-.04164c-2.46669,1.66917-2.21541,4.49755.39442,5.844a7.59837,7.59837,0,0,0,7.51084-.32578c2.22786-1.58909,1.853-4.385-.37333-5.76818A7.24341,7.24341,0,0,0,123.22637,242.77924Zm-10.2836,11.23524a2.19409,2.19409,0,0,0,.2625,4.05554,5.7406,5.7406,0,0,0,5.604-.36719,2.245,2.245,0,0,0-.36216-3.9471A5.562,5.562,0,0,0,112.94277,254.01448ZM148.46323,242.875c-2.62265,1.59574-2.0526,4.70942.05845,6.46839,1.96,1.63311,5.224,2.49547,7.53474,1.09124,2.53618-1.54123,1.81826-4.79643-.07179-6.54237A6.53629,6.53629,0,0,0,148.46323,242.875Zm-21.5713,13.43333c-2.64255,1.60318-2.01388,4.533.35613,6.03225,2.10745,1.33318,5.31,1.78719,7.49713.38035,2.50006-1.60816,1.56643-4.66975-.57289-6.10566A7.0671,7.0671,0,0,0,126.89193,256.30835Zm58.20569-50.056c-2.15366.70459-2.138,2.794-.49109,4.08037a6.59073,6.59073,0,0,0,5.7865,1.08777c2.14939-.71579,2.147-2.78924.48917-4.08125A6.60615,6.60615,0,0,0,185.09762,206.25235ZM164.02927,178.59a3.14452,3.14452,0,0,0-2.38963,2.46452,3.8345,3.8345,0,0,0,1.80473,3.15673,8.97576,8.97576,0,0,0,7.80684,1.42655,3.14427,3.14427,0,0,0,2.39142-2.461,3.67232,3.67232,0,0,0-1.586-2.9837A8.95542,8.95542,0,0,0,164.02927,178.59Zm24.78721,7.48084c-2.407.789-2.29342,3.10057-.45642,4.49111a7.163,7.163,0,0,0,6.22845,1.13792c2.31621-.77044,2.36575-3.00914.56889-4.42983A7.187,7.187,0,0,0,188.81648,186.07083Zm-36.9059.96445c-2.40607.78785-2.30423,3.114-.463,4.50466a7.18142,7.18142,0,0,0,6.23884,1.133c2.31444-.77167,2.36225-3.00433.56972-4.42623A7.18792,7.18792,0,0,0,151.91058,187.03528Zm15.98486,4.798a3.14173,3.14173,0,0,0-2.39419,2.45412,3.82386,3.82386,0,0,0,1.80121,3.15623,8.97427,8.97427,0,0,0,7.80748,1.42611,3.14957,3.14957,0,0,0,2.393-2.45791,3.67475,3.67475,0,0,0-1.59024-2.98688A8.94376,8.94376,0,0,0,167.89544,191.83329Zm-12.69613,8.235c-2.15359.70754-2.12979,2.79232-.48149,4.07657a6.566,6.566,0,0,0,5.77253,1.08771c2.14987-.716,2.15763-2.78.4931-4.07575A6.60287,6.60287,0,0,0,155.19931,200.06831Zm39.6489-3.35772a3.16057,3.16057,0,0,0-2.40389,2.45685,3.80685,3.80685,0,0,0,1.79571,3.15811,9.00936,9.00936,0,0,0,7.82948,1.429,3.13952,3.13952,0,0,0,2.38391-2.46073,3.67933,3.67933,0,0,0-1.58886-2.994A8.95871,8.95871,0,0,0,194.84821,196.71059ZM169.637,205.37234A3.15008,3.15008,0,0,0,167.24,207.83a3.82267,3.82267,0,0,0,1.79975,3.15506,8.98274,8.98274,0,0,0,7.80663,1.42628,3.14188,3.14188,0,0,0,2.39115-2.46008,3.67081,3.67081,0,0,0-1.5851-2.98618A8.949,8.949,0,0,0,169.637,205.37234Zm113.26305-27.427c-1.51483,1.89717.383,3.396,2.261,3.6005a6.58187,6.58187,0,0,0,5.70884-2.16c1.35651-1.7876.05938-3.447-1.91116-3.69792A7.06248,7.06248,0,0,0,282.90008,177.94539Zm-31.47744-15.88461c-2.6176,1.62054-.83829,4.06561,1.36712,4.916a7.93542,7.93542,0,0,0,6.8929-.48235c2.21937-1.46768,1.75325-3.9162-.56889-4.92454A8.85774,8.85774,0,0,0,251.42264,162.06078Zm22.62795-2.47771c-1.30624,1.7396-.27269,3.53094,1.75036,3.83831a5.5547,5.5547,0,0,0,5.16155-2.14342c1.12373-1.61327.56385-3.62268-1.46521-3.98993A5.97539,5.97539,0,0,0,274.05059,159.58307Zm-30.95753,11.38634c-2.46458.99956-.61389,3.19807.92866,4.011a7.79972,7.79972,0,0,0,6.32245.5784c2.48615-1.08995,1.09622-3.25489-.73874-4.11754A8.65775,8.65775,0,0,0,243.09306,170.96941Zm16.68729,1.522c-2.5644,1.87625-.4383,4.22931,1.812,4.9906,2.42457.82023,5.68619.66466,7.77148-.95532a2.88282,2.88282,0,0,0,1.2923-2.85412c-.32251-1.2928-1.68577-2.00824-2.8565-2.34677A9.75547,9.75547,0,0,0,259.78035,172.49143Zm-8.39663,9.99891c-2.37378,1.18205-.07787,3.20243,1.40585,3.82437,1.85914.77931,4.48644,1.09614,6.32515.0819,2.26075-1.247.54021-3.15262-1.15019-3.8254A8.59332,8.59332,0,0,0,251.38372,182.49034Zm32.896-17.60054c-1.55241,2.51275.26894,4.6646,2.94374,4.79479a7.53212,7.53212,0,0,0,6.58035-3.396c1.30918-2.21249.36621-4.77692-2.29772-5.09135A8.02633,8.02633,0,0,0,284.27973,164.8898Zm-15.882,18.95136c-2.702,2.18089.17658,4.4774,2.49614,5.08687,2.66665.70066,6.13653.40556,8.367-1.34483a2.88883,2.88883,0,0,0,1.28038-3.17925c-.47432-1.24764-1.90506-1.87584-3.101-2.17171C274.5645,181.52078,270.77015,181.93614,268.39774,183.84116Z" transform="translate(-21 -60)" style="fill:#fff"/><path id="scallion" d="M203.717,169.22821c-1.17091,1.35348-1.45906,4.30522-3.33215,4.91116-2.2781.737-4.147-2.436-5.3717-3.834a30.53735,30.53735,0,0,0-2.82951-2.52589,12.16015,12.16015,0,0,1-2.8279-3.77426c-1.642-3.46967,2.398-4.764,4.992-5.38012a29.08281,29.08281,0,0,1,3.79895-3.693c.7441-.57414,2.0007-1.55661,3.01855-1.19315a4.09162,4.09162,0,0,1,1.41025,1.31967c.71245.85192,1.36164,1.7587,1.99216,2.67259,1.03695,1.503,2.40426,3.20225,2.85441,5.0152C208.14145,165.64376,205.35578,167.33683,203.717,169.22821ZM106.85337,275.65769c-4.93489-5.49044-7.39957-2.49408-12.48177,1.99413l-.022,7.39782a7.62388,7.62388,0,0,0,3.32325,1.65125c1.02906.16856,2.09015.04646,3.127.12222,3.17708.23217,6.19629,1.51955,9.40732,1.51373C110.71826,282.93587,110.57853,279.806,106.85337,275.65769ZM203.1539,226.595c-5.522-1.7185-5.98729,1.29552-7.62216,6.368l2.9399,4.99694a5.89425,5.89425,0,0,0,3.01191-.26879c.74484-.31472,1.40247-.81427,2.12824-1.16973,2.21894-1.08679,4.73293-1.44584,6.87065-2.72624C208.66816,229.949,207.32292,227.89311,203.1539,226.595Zm35.00376-31.61813-8.38788,1.01357c-1.61018,1.46412-4.60032.997-5.3087,3.36885a10.01256,10.01256,0,0,0-.00923,4.216,36.70642,36.70642,0,0,0,.90551,4.40822,15.62342,15.62342,0,0,0,5.56533-.4314,30.31859,30.31859,0,0,0,6.88823-2.152c1.57278-.73375,3.78637-1.88677,3.64854-3.9363C241.29309,198.98978,238.9051,197.24822,238.15766,194.97688Zm-101.0172,88.21837-7.04958.84972c-1.4053,1.27716-3.9077.8268-4.48548,2.93582-.60251,2.19932.19875,5.00986.78049,7.14236a13.27973,13.27973,0,0,0,4.77052-.381,25.39963,25.39963,0,0,0,5.66815-1.77808c1.32352-.61541,3.17218-1.57041,3.09219-3.28507C139.81953,286.59478,137.76571,285.10093,137.14046,283.19525ZM160.4138,158.21961l-7.0483.85113c-1.40563,1.27738-3.908.82654-4.48788,2.9348-.60432,2.19725.201,5.01229.781,7.14339a13.28165,13.28165,0,0,0,4.77209-.38184,25.41236,25.41236,0,0,0,5.66944-1.77941c1.323-.61537,3.17257-1.57048,3.09211-3.28485C163.09442,161.61875,161.04,160.12489,160.4138,158.21961Z" transform="translate(-21 -60)" style="fill:#46af35"/><path id="text-outline" d="M61.13819,123.53459c-4.89129-1.663-9.45159,2.30911-11.51824,6.395-2.41337,4.77133-3.18524,11.247-1.13947,16.287,1.71535,4.226,5.94412,7.31187,10.39383,4.693,4.70969-2.77185,7.35578-8.80061,7.88488-14.055C67.22878,132.19127,66.3,125.29905,61.13819,123.53459ZM55.22127,140.0928a15.68254,15.68254,0,0,1-1.54972,3.66492,15.13209,15.13209,0,0,1,1.4349-11.89865A13.91683,13.91683,0,0,1,55.22127,140.0928ZM296.38392,96.24607c-2.87772-5.347-8.89342-7.23006-14.56665-5.89742-4.50812,1.059-8.90134,1.8991-12.39036,5.25673-3.70708-1.41051-7.29091-.57886-10.96888.29662-3.61205.85979-6.92116,1.95386-9.68759,4.6045a15.06979,15.06979,0,0,0-9.03709-.15365,58.16232,58.16232,0,0,0-5.74963,1.45874c.25425-10.27693.61-20.55064,1.23348-30.81228.13843-2.27853.77378-5.05925-.03366-7.24668a5.79693,5.79693,0,0,0-5.93039-3.73021A80.6726,80.6726,0,0,0,217.89006,62.336c-1.79231.42637-3.58558.84553-5.3521,1.37254-2.17426.64865-5.00881,1.3008-6.77963,2.79793-2.68563-1.40744-6.11435-.13681-8.87044.491-1.30309.29683-2.60189.6136-3.90211.92276a89.53652,89.53652,0,0,0-13.03311,3.86854,49.08343,49.08343,0,0,0-8.704,1.63447c-1.05325.24836-2.1055.50112-3.15824.75167-1.3238.31508-2.6526.61531-3.96448.978q-2.16579.59879-4.278,1.37431a11.67339,11.67339,0,0,0-3.68424,1.76587c-2.68172-1.41092-6.1-.13608-8.85331.4869-1.31249.297-2.62032.61528-3.92955.9263a89.42359,89.42359,0,0,0-13.03528,3.87225A47.28456,47.28456,0,0,0,122.10922,85.1c-1.31312.30933-2.625.62415-3.93744.93623-1.818.43227-3.63231.87279-5.41816,1.42788-1.99938.62146-4.55514,1.23474-6.18371,2.61679-2.73893-1.42953-6.25514-.10955-9.0635.53245-1.33574.30536-2.66727.62974-4.00024.947-1.54992.36882-3.10243.72846-4.644,1.13119a41.43843,41.43843,0,0,0-8.88482,3.01782,5.78664,5.78664,0,0,0-2.56443,2.77048,11.9397,11.9397,0,0,0-.54448,4.57673A24.38516,24.38516,0,0,0,57.7903,98.903a71.12055,71.12055,0,0,0-10.70676,2.66915A37.88017,37.88017,0,0,0,23.705,125.29139a46.48223,46.48223,0,0,0-.238,30.55044,29.98325,29.98325,0,0,0,8.48964,12.81894,22.22828,22.22828,0,0,0,15.34587,5.32469c3.82037-.13255,7.55175-1.19041,11.25-2.08692A36.43914,36.43914,0,0,0,73.87784,163.812a38.68732,38.68732,0,0,0,3.46887-3.45671,5.79562,5.79562,0,0,0,6.86824,3.87378c1.53274-.33372,3.0549-.72708,4.581-1.0903,2.47247-.58846,4.847-1.60123,7.35685-2.02649,1.66457-.282,3.28362-.66059,4.92732-1.05083,2.29889-.54579,4.54091-1.02859,5.80332-3.30728,2.13889,1.22908,4.27118.585,6.473.06122,1.98332-.4718,3.9377-.97585,5.89966-1.53411,2.22119-.632,4.47149-.93026,6.71062-1.4626a25.42,25.42,0,0,0,5.12713-1.37026c1.65825.38994,3.22637-.12787,4.82919-.50874,1.2403-.29473,2.50172-.54415,3.72272-.91324,1.39926-.423,2.79375-.85941,4.20009-1.25865,1.19384-.33891,2.40649-.46736,3.6142-.73079,1.31751-.28739,2.62633-.62377,3.93834-.93538,2.07011-.49166,3.96561-1.1195,5.08269-3.1341,2.13786,1.22915,4.2699.58322,6.47092.06,1.98137-.471,3.9332-.97534,5.89333-1.53236,2.2235-.63187,4.477-.9327,6.7186-1.46528a25.40173,25.40173,0,0,0,5.12336-1.36825c1.65874.39066,3.22773-.12766,4.83109-.50862,1.24085-.29483,2.50248-.54476,3.72427-.91323,1.39786-.42157,2.79027-.85883,4.19465-1.2586,1.19486-.34013,2.40888-.46669,3.61857-.72829,1.31752-.28493,2.62563-.625,3.937-.93718,2.06991-.49273,3.96514-1.12016,5.08087-3.136,2.78555,1.60313,6.48324.09339,9.3622-.62488,2.238-.55836,4.41375-1.39925,6.70137-1.7332,1.39989-.20436,2.73681-.5104,4.11324-.83774,1.67908-.39931,3.57121-.63068,4.98328-1.69689,3.586,1.23586,6.967.46989,10.49751-.37141,3.64787-.86928,7.01155-1.96579,9.80355-4.65424,3.63973,1.38348,7.131.632,10.74572-.22865,3.6828-.87684,7.07376-1.96133,9.8987-4.675,4.45544,1.68755,9.16153.25242,13.56639-.90843a16.29179,16.29179,0,0,0,11.80667-12.98081A13.12168,13.12168,0,0,0,296.38392,96.24607ZM80.72222,141.922c-3.30017,12.5149-13.40342,23.53145-26.69695,24.92788A16.98567,16.98567,0,0,1,39.43743,161.472a27.62808,27.62808,0,0,1-6.309-12.598,40.349,40.349,0,0,1,5.24928-30.91033,31.02925,31.02925,0,0,1,14.37533-11.64486c6.873-2.75672,14.97424-3.21379,21.04177,1.60665,8.62374,6.85127,9.44779,20.229,7.73039,30.27433C81.31127,139.45127,81.04648,140.69451,80.72222,141.922Zm47.89807,5.35072a88.13942,88.13942,0,0,0-13.52273,3.21422c-.0772-8.57243-.38944-10.894-.33046-18.19359-4.23618.7765-8.38913,1.96235-12.54818,3.06819-.11225,9.40963-.18884,13.57549-.34808,18.59641a88.17865,88.17865,0,0,0-13.69843,3.41563c-.66594-29.32052-.498-44.74809-.148-57.85156a76.67678,76.67678,0,0,1,15.88827-4.33982c-.46969,7.13974-.57754,10.7001-1.1144,23.86915,3.90889-1.24639,8.36284-2.51679,12.1243-3.52763.09225-6.903.31223-14.15606.70986-22.32059A65.036,65.036,0,0,1,130.62515,89.323C129.6118,104.49245,129.1552,116.53344,128.62029,147.27276ZM178.2149,135.485a88.02164,88.02164,0,0,0-13.52035,3.2128c-.07769-8.5685-.39133-10.89143-.33236-18.18966-4.2369.77279-8.38989,1.96217-12.54885,3.06813-.1103,9.40962-.18493,13.57309-.34416,18.59389a87.71318,87.71318,0,0,0-13.71042,3.41814c-.34094-14.96523-.57624-29.94243-.39387-44.91141q.07886-6.47214.25286-12.94266a76.89461,76.89461,0,0,1,15.8939-4.3397c-.47226,7.14214-.5814,10.69881-1.11881,23.87155,3.90834-1.24768,8.35269-2.5155,12.12681-3.53021.08369-7.44384.343-14.88546.70674-22.32053a65.74489,65.74489,0,0,1,14.99275-3.88015C179.2001,92.71083,178.74919,104.74556,178.2149,135.485Zm49.58634-11.7842a88.7164,88.7164,0,0,0-13.514,3.21164c-.07659-8.57108-.39011-10.89266-.33934-18.18967-4.234.76666-8.38535,1.96053-12.54065,3.06427-.10852,9.4122-.19569,13.57813-.345,18.59776a87.94483,87.94483,0,0,0-13.70766,3.41691c-.6679-29.32057-.49992-44.74931-.1418-57.85658a77.03559,77.03559,0,0,1,15.8939-4.33725c-.47276,7.14214-.58256,10.69881-1.12817,23.87161,3.92026-1.24885,8.36333-2.51667,12.13372-3.529.09158-6.90168.30544-14.15471.70925-22.32053A65.01947,65.01947,0,0,1,229.80677,65.751C228.7933,80.92179,228.34361,92.9602,227.80124,123.70075Zm18.122-3.296c-2.90685,1.84456-6.93611,2.32316-9.68305-.09114-2.69662-2.37008-2.51034-6.21254-.93329-9.16863a10.53441,10.53441,0,0,1,8.58732-5.69863,6.40687,6.40687,0,0,1,6.81132,5.55684A10.17818,10.17818,0,0,1,245.92328,120.4048Zm20.64387-4.90879c-2.90528,1.847-6.93541,2.32662-9.6814-.08911-2.69694-2.3726-2.50019-6.21145-.92851-9.16912a10.5151,10.5151,0,0,1,8.58228-5.69926,6.40409,6.40409,0,0,1,6.81319,5.55845A10.18507,10.18507,0,0,1,266.56715,115.496Zm20.64258-4.905c-2.90674,1.84308-6.93457,2.32493-9.681-.09063-2.69734-2.37237-2.50116-6.21138-.92835-9.16881a10.52005,10.52005,0,0,1,8.584-5.69861,6.40093,6.40093,0,0,1,6.81034,5.55758A10.18457,10.18457,0,0,1,287.20973,110.591Z" transform="translate(-21 -60)" style="fill:#010000"/><path id="text" d="M283.487,95.86851c3.35468-.79685,7.17553.57069,8.25867,4.10412.90274,2.94491-.23269,6.31061-2.17569,8.57529-2.31487,2.69812-6.24115,4.41117-9.74474,3.25513a6.47076,6.47076,0,0,1-4.33473-7.18828A10.85248,10.85248,0,0,1,283.487,95.86851Zm-28.06464,11.52467c-1.21229,3.054-.7034,6.67713,2.18944,8.56476,3.10375,2.02526,7.17006,1.05184,9.90805-1.144a10.14376,10.14376,0,0,0,3.86321-8.39519,6.36517,6.36517,0,0,0-6.42494-5.88431C260.71886,100.47512,256.95292,103.55456,255.42239,107.39318Zm-20.65312,4.90759c-1.20956,3.05556-.69566,6.67745,2.1975,8.56379,3.10313,2.02324,7.17238,1.054,9.9096-1.14263a10.13506,10.13506,0,0,0,3.86-8.397,6.36951,6.36951,0,0,0-6.42364-5.88271C240.07108,105.38371,236.30809,108.46493,234.76927,112.30077ZM195.02121,73.36785a60.04113,60.04113,0,0,0-7.80837,2.57724c-.35809,13.10729-.52608,28.536.14178,57.85656a87.95956,87.95956,0,0,1,13.7077-3.41689c.14924-5.01963.23645-9.18555.345-18.59773,4.15528-1.10379,8.30663-2.29755,12.5406-3.0643-.05073,7.297.26278,9.61859.33933,18.1897a88.71031,88.71031,0,0,1,13.514-3.21165c.54238-30.74058.992-42.779,2.00553-57.94978a65.02585,65.02585,0,0,0-14.98525,3.87894c-.4038,8.16579-.61765,15.41883-.70922,22.32056-3.77037,1.01228-8.21347,2.28008-12.13372,3.52893.5456-13.17279.65541-16.72943,1.12819-23.8716C200.38887,72.08672,197.69658,72.69125,195.02121,73.36785ZM145.42855,85.15577a59.599,59.599,0,0,0-7.81082,2.5784c-.40209,15.07778-.33888,30.15324-.10126,45.23314q.09945,6.31089.24228,12.621a87.72032,87.72032,0,0,1,13.7104-3.41818c.15926-5.02079.23388-9.18426.34421-18.59387,4.159-1.10594,8.31193-2.29529,12.54881-3.06817-.05895,7.29829.25469,9.62117.3324,18.18971a88.02342,88.02342,0,0,1,13.5203-3.21282c.5343-30.73941.98524-42.77409,2.00424-57.94977a65.743,65.743,0,0,0-14.99269,3.8801c-.36387,7.43507-.623,14.8767-.70678,22.32056-3.77409,1.01472-8.21848,2.28252-12.12678,3.53021.53737-13.17278.64654-16.72943,1.1188-23.87159C150.7947,83.87334,148.10205,84.47536,145.42855,85.15577ZM95.83281,96.9437a59.14821,59.14821,0,0,0-7.80838,2.5784c-.35,13.10342-.518,28.531.148,57.85154a88.162,88.162,0,0,1,13.69844-3.41561c.15927-5.02092.23581-9.18683.34807-18.59644,4.159-1.10582,8.312-2.29175,12.54817-3.06817-.059,7.29958.25328,9.62117.33047,18.19357a88.1397,88.1397,0,0,1,13.52275-3.21423c.53493-30.73929.99152-42.78028,2.00488-57.94978a65.03171,65.03171,0,0,0-14.9927,3.88023c-.39763,8.16451-.61764,15.41754-.70986,22.32056-3.7615,1.01086-8.2154,2.28124-12.12434,3.52764.53686-13.169.64475-16.72943,1.11444-23.86915C101.19732,95.66346,98.50434,96.25942,95.83281,96.9437Zm-38.653,7.96055a31.24012,31.24012,0,0,0-17.1254,10.75926,36.4936,36.4936,0,0,0-6.87614,14.61328c-2.2196,9.64443-1.32858,21.16864,4.71141,29.3294a17.35363,17.35363,0,0,0,11.80317,7.2583c6.297.699,12.8522-1.7217,17.93885-5.3454,10.38954-7.40143,14.90387-20.28865,14.56409-32.72342-.14915-5.45862-1.2155-11.12779-4.06156-15.85381A17.67762,17.67762,0,0,0,63.97416,104.229,23.74411,23.74411,0,0,0,57.1798,104.90425Zm8.93335,35.4428a20.45944,20.45944,0,0,1-4.09751,7.84213c-1.63511,1.90811-3.90367,3.71394-6.527,3.75875-4.50745.077-7.15128-4.817-7.84329-8.66383-.97208-5.40371.28924-11.98043,3.857-16.24439,2.88845-3.45208,8.28854-5.53507,12.01961-2.06291,3.94853,3.67453,3.90978,10.56125,2.59117,15.37025Z" transform="translate(-21 -60)" style="fill:#62c4ea"/></svg>