<svg id="patch" xmlns="http://www.w3.org/2000/svg" viewBox="0 0 357.995 279.973"><title>patch</title><path id="pizza" d="M292.672,113.57a168.135,168.135,0,0,1,62.3,43.811A105.706,105.706,0,0,1,368.134,175.4c-13.139-2.6-25.606,9.222-27.558,21.6l-.045,0c-12.042-11.186-23.843-22.517-37.578-31.656a19.859,19.859,0,0,0-9.813-12.261c-5.616-3.108-12.169-3.359-18.421-2.78-21.376-8.751-44.5-12.455-67.541-12.033-6.227.115-12.475.466-18.665,1.169,1.654-.439,3.272-1,4.924-1.449,1.757-.471,3.574-.7,5.344-1.127,2.648-.639,5.838-1.046,7.293-3.674,1.825,1.05,4.027.747,5.98.285,2.095-.5,4.173-1.116,6.239-1.722,2.285-.669,4.614-.991,6.931-1.519,1.983-.451,4.341-.677,6.01-1.937,3.119,1.075,6.357.585,9.492-.135a26.971,26.971,0,0,0,8.422-3.04,168.569,168.569,0,0,1,48.5,17.664q2.719,1.5,5.379,3.113a10.758,10.758,0,0,0,4.188,1.8,7.5,7.5,0,0,0,6.8-2.448,5.5,5.5,0,0,0-.5-7.358,19.851,19.851,0,0,0-3.581-2.555c-1.9-1.188-3.8-2.365-5.73-3.488a175.467,175.467,0,0,0-27.09-12.725,36.67,36.67,0,0,0,8.851-1.731A16.3,16.3,0,0,0,292.672,113.57ZM90.985,253.191a34.684,34.684,0,0,0,.927-6.906q-2.03,6.348-3.557,12.931A38.585,38.585,0,0,0,90.985,253.191ZM181.02,143.812a12.592,12.592,0,0,1-3.231-1.587c-3.451,1.7-6.962,3.649-10.5,5.844,2.552,1.174,4.942,3.023,7.815,3.313,2.964.3,5.195-1.742,7.706-2.938,6.188-2.947,11.406,2.3,14.758,6.961.95-.809,2.32-2.084,3.676-1.57s2.386,2.575,3.19,3.695c1.492,2.077,4.124,5.095,2.713,7.824,2.706,2.789,5.142,6.046,5.884,10.036,1.717-6.406,4.506-13.057,10.843-16.041,3.616-1.7,7.682-2.234,11.625-2.575a89.42,89.42,0,0,1,13.206-.013,125.131,125.131,0,0,1,16.528-4.956c-20.85-7.253-43.176-9.742-65.166-8.543-3.192.174-6.363.452-9.541.805S184.12,144.832,181.02,143.812Zm100.933,73.341a27.137,27.137,0,0,0-10.342-1.38,40.44,40.44,0,0,0-4.95.446A26.945,26.945,0,0,0,261.8,217.8q-9.843,3.591-19.516,7.634c-.768,1.907.692,4.385,1.689,5.936a367.343,367.343,0,0,1,39.085-13.77Q282.511,217.358,281.953,217.153Zm-122.289,52.6a14.9,14.9,0,0,1,.59,4.256c9.009-5.359,18.5-10.771,28.3-16.065a32.152,32.152,0,0,0,.939-6.836c-9.528,5.277-19.6,11.2-30.089,17.838C159.493,269.216,159.581,269.473,159.664,269.755Zm211.911-86.242c-.834-3.4-5.289-3.889-8.143-3.6a20.212,20.212,0,0,0-9.739,3.942,21.526,21.526,0,0,0-6.561,7.826,25.5,25.5,0,0,0-2.2,11.062c-6.874-1.805-14-1.585-21.011-.835a186.441,186.441,0,0,0-20.792,3.545c.679,2.285,1.573,4.512,2.025,6.86,11.3-2.139,22.957-3.573,34.478-3.128,5.453.211,10.867.56,16.144-1.122a25.041,25.041,0,0,0,11.776-7.729A20.466,20.466,0,0,0,371.575,183.513ZM208.7,190.758a26.482,26.482,0,0,0,1.269-3.234,29.829,29.829,0,0,1-1.775,2.4C208.373,190.2,208.526,190.48,208.7,190.758ZM90.612,310.876a60.938,60.938,0,0,1-3.128-6.01,25.775,25.775,0,0,1-1.606-6.932c-.566-4.958-1.036-9.933-1.185-14.923a152.385,152.385,0,0,0,1.238,34.035q2.754-2.326,5.5-4.591C91.171,311.92,90.894,311.4,90.612,310.876Zm2.269,6.509q-2.453,2.039-4.913,4.121c.045.254.092.509.138.763,1.423-1.1,3.042-2.336,4.828-3.672A11.675,11.675,0,0,0,92.881,317.385Zm61.443-105.457a36.851,36.851,0,0,1-8.384-7.108c-10.141,3.2-21.5-1.413-28.583-8.838q-2.586,3.626-5.037,7.418c4.664-.228,9.705.408,13.273,3.7,3.784,3.494,4.8,8.782,6.3,13.48,8.211-.526,16.6,1.6,22.861,7.142A14.343,14.343,0,0,1,154.324,211.928ZM258.066,103.469h0l0,0Zm-20.69-2.581c-1.12-.077-2.239-.155-3.361-.212-.01.378-.022.757-.031,1.136A31.072,31.072,0,0,1,237.376,100.888ZM212.021,245.839q3.158-1.551,6.271-3.033A9.166,9.166,0,0,0,212.021,245.839Zm-24.345.873a14.7,14.7,0,0,0-6.293-3.074,81.061,81.061,0,0,1-8.163-2.757,50.21,50.21,0,0,1-13.979-8.2c6.831,9.426,7.671,23.514-1.575,31.715l.02.048C168.142,257.853,178.177,251.964,187.676,246.712Zm115.768-75.294c-.008.1-.009.2-.018.3a37.162,37.162,0,0,1,8.4,6.389c1.722,1.837,3.188,4.168,2.984,6.78-.59,7.557-11.728,8.137-12.266,15.862,12.842-2.844,23.238-4.095,30.7-4.141C323.8,187.611,314.157,178.88,303.444,171.418Z" transform="translate(-20.975 -60.02)" style="fill:#f6b030"/><path id="pizza-outline" d="M237.43,100.876c3.77-.853,7.572-1.8,11.34-.37a18.417,18.417,0,0,1,8.555-4.32,194.754,194.754,0,0,0-23.113-2.539q-.109,3.51-.2,7.021Q235.724,100.757,237.43,100.876ZM375.344,201.539c-4.239,7.109-11.588,11.836-19.515,13.843a43.851,43.851,0,0,1-13.189,1,128.556,128.556,0,0,0-16.515.209,176.032,176.032,0,0,0-18.465,2.456c-.852,7.9-4.818,15.153-8.276,22.163-3.08,6.244-6.514,12.519-12.135,16.852-11.415,8.8-27.853,8.071-40.2,1.8-7.3-3.712-13.356-9.462-20.745-13.021-5.212,2.416-10.529,4.981-15.857,7.649-1.936,7.553,0,18.8-8.061,23.344-7.526,4.24-15.342-3.059-16.607-10.35-8.244,4.551-16.625,9.382-25.027,14.428-1.818,4.134-4.873,7.7-6.086,12.1-1.235,4.472-1.116,9.216-1.979,13.763a26.6,26.6,0,0,1-5.123,11.867c-2.574,3.166-6.761,5.393-10.723,3.275-4.65-2.486-4.926-8.234-4.266-12.819a10.771,10.771,0,0,1-6.012,3.694c-2.826.546-5.517-.4-8.138-1.358-1.084,2.027-.632,4.821-.606,7.028a29.224,29.224,0,0,1-.514,7.264,17.966,17.966,0,0,1-6.872,10.1,14.843,14.843,0,0,1-12.269,2.78c-4.783-1.229-7.653-5.176-8.189-9.968a5.824,5.824,0,0,1-6.626-.842c-2.169-1.981-2.18-5.309-2.634-8.009a158.881,158.881,0,0,1,2.091-63.218,174.792,174.792,0,0,1,7.035-22.725c.156-11.22.854-28.545,16.534-32.825,2.032-3.221,4.171-6.405,6.394-9.514-1.83-4.1-1.144-9.912.413-13.991,1.789-4.685,5.618-7.852,9.833-10.32,4.582-2.683,9.4-4.914,13.634-8.162a43.732,43.732,0,0,0,5.7-5.2c1.769-1.942,3.357-4.054,5.293-5.84,2.99-.663,7.177-1.036,8.835-4.026,1.819,1.045,3.832.688,5.766.229,2.046-.485,4.083-1,6.108-1.564s4.107-.931,6.174-1.372a27.377,27.377,0,0,0,6.158-1.6c2.87.676,5.922-1.039,8.755-1.331q4.561-.471,9.143-.738c6.42-.383,12.858-.481,19.286-.245a171.37,171.37,0,0,1,36.938,5.323,157.121,157.121,0,0,1,19.91,6.623c6.252-.579,12.805-.328,18.421,2.78a19.859,19.859,0,0,1,9.813,12.261c13.735,9.139,25.536,20.47,37.578,31.656l.045,0c1.952-12.375,14.419-24.193,27.558-21.6-6.262-11.157-15.105-20.935-24.475-29.563A168.669,168.669,0,0,0,312.713,123.3a173.24,173.24,0,0,0-20.041-9.725A16.367,16.367,0,0,0,296.7,107.6a177.986,177.986,0,0,1,45.1,27.149,165.48,165.48,0,0,1,18.578,17.972,106.811,106.811,0,0,1,15.189,21.491C379.934,182.743,380.349,193.143,375.344,201.539ZM268.191,156.027a108.146,108.146,0,0,0-14.668,4.034c-3.919,1.354-8.2,2.512-11.661,4.865-3.579,2.432-5.46,6.389-3.677,10.57,1.721,4.033,5.43,6.971,8.989,9.331a40.38,40.38,0,0,0,26.273,6.2c8.56-.844,18.525-4.435,22.92-12.383,2.431-4.4,3.337-10.036,1.089-14.684a16.493,16.493,0,0,0-11.8-8.677h0C280,154.067,273.8,154.937,268.191,156.027Zm-148.5,32.961c.3,1.921,2.678,3.629,4.095,4.793a29.068,29.068,0,0,0,5.66,3.655,20.626,20.626,0,0,0,12.967,2.087,17.068,17.068,0,0,1,.717-16.8c2.771-4.232,7.221-7.06,11.936-8.681,10.1-3.473,21.806-2.467,31.791.877a45.142,45.142,0,0,1,17.393,10.284c1.716-2.277,3.252-5.046,2.971-8-.273-2.857-2.11-5.255-4.014-7.272,1.052-1.734,3-2.768,3.935-4.586,2.706,2.789,5.142,6.046,5.884,10.036,1.851-6.9,5.082-14,12.239-16.613,7.358-2.683,15.736-2.492,23.435-2.016a125.131,125.131,0,0,1,16.528-4.956c-22.282-7.751-46.092-10.053-69.547-8.27-5.976.454-12.543,2.378-17.9-1.31-3.451,1.7-6.962,3.649-10.5,5.844,2.818,1.3,5.609,3.548,8.878,3.336,2.928-.189,5.068-2.532,7.757-3.42,5.859-1.935,10.563,3.137,13.644,7.42a35.176,35.176,0,0,0-3.218,3.22c-.513.122-1.043.274-1.558.442h0c-1.361-1.905-3.759-5.672-6.492-5.464-1.314.1-2.474,1.078-3.577,1.712a15.1,15.1,0,0,1-4.7,1.9c-6.769,1.28-11.444-4.141-17.7-5.226-6.616-1.147-10.5,6.443-14.55,10.326-4.707,4.509-10.209,7.84-15.935,10.885-2.987,1.589-6.335,3.177-8.34,6.023C119.546,181.988,119.182,185.721,119.694,188.988Zm88.495.936c.184.276.337.556.506.834a26.482,26.482,0,0,0,1.269-3.234A29.829,29.829,0,0,1,208.189,189.924ZM150.5,202.815h0c6.717,7.049,16.713,10.887,26.205,12.2,8.871,1.229,20.78.429,27.191-6.741,3.764-4.21,3.726-10.035.956-14.775h0c-5.551-9.5-17.647-14.558-28.047-16.233a44.105,44.105,0,0,0-16.926.418c-5.018,1.163-10.48,3.55-13.14,8.232C143.4,191.787,146.223,198.327,150.5,202.815Zm-38.179.585c4.6-.225,9.579.385,13.139,3.578,3.9,3.494,4.914,8.845,6.435,13.606,8.211-.526,16.6,1.6,22.861,7.142a14.343,14.343,0,0,1-.431-15.8,36.851,36.851,0,0,1-8.384-7.108c-10.071,3.182-21.507-1.42-28.583-8.838Q114.771,199.608,112.32,203.4ZM88.355,259.216A39.6,39.6,0,0,0,91,253.174a34.142,34.142,0,0,0,.915-6.889Q89.883,252.633,88.355,259.216Zm3.073,53.239c-1.125-2.342-2.589-4.51-3.649-6.884a24.545,24.545,0,0,1-1.77-6.7,148.308,148.308,0,0,1-1.316-15.864,152.385,152.385,0,0,0,1.238,34.035Q88.685,314.72,91.428,312.455Zm1.506,6.142a11.675,11.675,0,0,0-.053-1.212q-2.453,2.039-4.913,4.121c.045.254.092.509.138.763C89.529,321.165,91.148,319.933,92.934,318.6ZM153.7,267.142c-6.662,3.532-14.5,4.05-21.874,3.233A61.076,61.076,0,0,1,110,263.783c-5.507-2.922-10.918-7.363-12.066-13.842-1.241-7,3.019-13.389,7.874-17.979a42.387,42.387,0,0,1,21.333-10.79c-1.181-4.1-2.208-9-6.049-11.49-3.441-2.236-8.67-2-12.482-.973-10.659,2.866-11.526,15.326-11.727,24.507-.118,5.358.145,10.773-.4,16.112a27.082,27.082,0,0,1-1.628,7.238c-.973,2.467-2.374,4.728-3.25,7.241-3.637,10.432-2.294,22.251-1.128,33a22.413,22.413,0,0,0,2.081,7.808c1.2,2.394,2.707,4.628,3.714,7.117a17.835,17.835,0,0,1,1.346,7.725c-.165,2.791-.841,5.541-.755,8.349.059,1.953.58,4.025,2.566,4.824,2.238.9,4.767-.094,6.629-1.388a10.811,10.811,0,0,0,4.223-5.3c.805-2.448.566-5.107.515-7.639-.067-3.368.071-7.226,1.957-10.148a6.267,6.267,0,0,1,3.776-2.773c2.192-.534,4.025.554,6.053,1.185,2.4.747,3.883.063,5.333-1.892s2.576-4.206,4.422-5.814a4.711,4.711,0,0,1,5.5-.833c2.017,1.165,2.5,3.7,2.538,5.846a47.9,47.9,0,0,1-.911,7.509c-.12.851-.859,5.624,1.063,5.258.771-.147,1.705-1.567,2.119-2.142a16.055,16.055,0,0,0,1.686-3.057,27.8,27.8,0,0,0,1.9-7.429c.692-5.276.718-10.6,2.994-15.524,2.09-4.518,6.063-8.81,6.281-13.989A17.411,17.411,0,0,0,153.7,267.142Zm3.469-9.34c5.38-8.161,2.087-18.876-4.356-25.389-7.57-7.651-19.157-8.616-29.041-5.562a37.835,37.835,0,0,0-14.427,8.214c-3.955,3.65-8.072,9.108-6.6,14.83,1.292,5.013,6.106,8.053,10.447,10.211a57.2,57.2,0,0,0,16.785,5.255C139.205,266.773,151.46,266.525,157.171,257.8Zm.515,6.643c10.456-6.592,20.491-12.481,29.99-17.733a14.7,14.7,0,0,0-6.293-3.074,81.061,81.061,0,0,1-8.163-2.757,50.21,50.21,0,0,1-13.979-8.2c6.831,9.426,7.671,23.514-1.575,31.715ZM189.5,251.11c-9.528,5.277-19.6,11.2-30.089,17.838a16.089,16.089,0,0,1,.846,5.063c9.009-5.359,18.5-10.771,28.3-16.065A32.152,32.152,0,0,0,189.5,251.11Zm28.795-8.3a9.166,9.166,0,0,0-6.271,3.033Q215.179,244.288,218.292,242.806Zm80.15-45.827c1.474-4.433,5.711-6.59,9.136-9.325a7.055,7.055,0,0,0,2.339-2.47c.526-1.3-.339-2.476-1.151-3.441a27.185,27.185,0,0,0-6.392-5.121c-4.367,13.1-18.786,18.952-31.618,19.39a45.331,45.331,0,0,1-20.1-3.821c-5.758-2.6-11.582-6.524-15.137-11.842a13.026,13.026,0,0,1,3.219-18.984c-4.32.179-9.176.434-13.108,2.42-3.522,1.779-5.529,5.427-6.841,9-2.826,7.7-2.977,16.434-7.732,23.371,2.429,9.016-3.141,17-11.138,20.686-7.881,3.635-17.208,3.978-25.652,2.568a55.773,55.773,0,0,1-15.8-5.144c-6.1,9.931,6.634,17.837,14.246,21.283a62.7,62.7,0,0,0,7.329,2.778,46.651,46.651,0,0,1,7.288,2.533c4.309,2.161,6.9,5.777,6.869,10.683-.031,5.344-3.089,10.937-1.1,16.208h0c.009.024.016.049.025.074h0c.826,2.124,3.259,5.136,5.824,3.771,2.515-1.338,2.863-4.906,3.056-7.409.434-5.625,1.051-11.412,3.452-16.593,2.317-5,6.349-8.7,11.939-9.439,5.863-.772,11.437,1.7,16.3,4.739,5.242,3.277,10.075,7.183,15.519,10.143a34.836,34.836,0,0,0,18.352,4.5c5.595-.269,11.4-1.856,15.841-5.387,4.73-3.761,7.413-9.363,9.98-14.684,3-6.227,6.785-12.648,7.334-19.687C301.276,210.594,296.038,204.209,298.442,196.979Zm4.1,3.77c12.842-2.844,23.238-4.095,30.7-4.141-9.436-9-19.082-17.728-29.795-25.19-.008.1-.009.2-.018.3,4.777,2.8,13.627,8.374,10.907,15.124C311.926,192.818,303.037,193.623,302.541,200.749Zm69.034-17.236c-.868-3.34-5.178-3.953-8.066-3.692a19.805,19.805,0,0,0-9.454,3.764,21.58,21.58,0,0,0-6.7,7.642,25.263,25.263,0,0,0-2.419,11.517c-6.89-1.81-13.964-1.59-20.993-.837a186.8,186.8,0,0,0-20.81,3.547c.681,2.29,1.571,4.5,2.025,6.86a162.131,162.131,0,0,1,37.265-3.01c5.37.236,10.587.039,15.609-2.06a24.142,24.142,0,0,0,10.266-7.856A19.594,19.594,0,0,0,371.575,183.513Zm-79.31,35.543c1.393,1.922,1.189,4.638.923,6.865a42.225,42.225,0,0,1-1.72,7.864,38.382,38.382,0,0,1-7.964,14.554c-3.7,3.983-8.629,6.52-14.158,5.679-5.647-.859-10.988-3.961-15.667-7.1a54.746,54.746,0,0,1-12.195-10.877c-2.79-3.469-5.715-8.818-3.135-13.184,2.046-3.463,6.5-4.962,10.018-6.407a74.064,74.064,0,0,1,16.565-4.753C274.339,210.212,286.121,210.583,292.265,219.056Zm-9.209-1.455c-6.1-2.724-13.972-2.459-20.138-.215q-10.41,3.789-20.636,8.049c-.768,1.909.692,4.384,1.689,5.936A367.343,367.343,0,0,1,283.056,217.6Zm3.264,6.46A354.593,354.593,0,0,0,251.2,236.089a52.443,52.443,0,0,0,12.109,8.417,24.359,24.359,0,0,0,7.035,2.568,8.129,8.129,0,0,0,6.5-2.071c3.3-2.756,5.493-6.879,7.038-10.822A31.96,31.96,0,0,0,286.32,224.061Z" transform="translate(-20.975 -60.02)" style="fill:#010000"/><path id="pizza-highlight" d="M314.987,140.156c-.891-3-4.82-4.7-7.271-6.213q-4.895-3.011-10-5.666a178.026,178.026,0,0,0-20.643-9.157,12.684,12.684,0,0,1-4.9-.762,19.553,19.553,0,0,1-9.02,4.46c-3.787.961-7.833,1.884-11.624.443a14.444,14.444,0,0,1-2.384,1.849,171.238,171.238,0,0,1,29.881,8.845q7.163,2.862,14.037,6.382,3.3,1.689,6.512,3.527c2.058,1.176,4.1,2.811,6.354,3.58C310.435,148.979,316.543,145.4,314.987,140.156Z" transform="translate(-20.975 -60.02)" style="fill:#fff"/><path id="cheese" d="M204.187,185.139c.023.023.043.046.066.068,1.729-2.293,3.252-5.069,2.967-8.036-.273-2.843-2.11-5.228-4.008-7.234-.838,1.378-1.18,3.859-3.046,4.254-2.173.461-3.708-2.15-4.86-3.535-1.8-2.168-4.176-3.526-5.614-6.04-1.753-3.063.348-4.65,3.1-5.549a20.587,20.587,0,0,0-3.758-4.338c-1.92-1.519-3.537-1.02-5.5.109-3.9,2.243-7.63,3.308-12.059,1.848-3.665-1.209-6.766-3.831-10.581-4.632-3.651-.766-6.592.9-9.036,3.487-2.525,2.673-4.686,5.56-7.448,8.023a59.94,59.94,0,0,1-10.77,7.553c-3.593,2-7.71,3.681-10.745,6.524-2.848,2.668-3.77,6.735-3.367,10.54.426,4.022,5.763,6.973,8.945,8.693,4.22,2.28,9.154,3.6,13.941,2.649a17.074,17.074,0,0,1,.142-15.858c2.543-4.484,7.05-7.459,11.78-9.245,10.714-4.047,22.924-2.926,33.525.914A45.266,45.266,0,0,1,204.187,185.139Zm-41.45-19.975c-1.941,2.522-10.4,4.458-13.078,3.985-.592-2.174-1.683-5.262-.668-7.472.8-1.74,3.09-1.439,4.375-2.606l7.048-.851C161.138,160.422,164.382,163.025,162.737,165.164ZM153.7,267.142c-6.633,3.517-14.439,4.025-21.782,3.239a60.475,60.475,0,0,1-22.22-6.761c-5.5-2.971-10.85-7.472-11.825-14-1.054-7.058,3.39-13.481,8.331-18.034a42.4,42.4,0,0,1,20.932-10.413c-1.131-3.927-2-8.654-5.517-11.232-2.06-1.512-4.688-1.8-7.17-1.846a19.269,19.269,0,0,0-7.571,1.177c-7.668,3.088-9.325,12.172-9.8,19.494-.365,5.634-.171,11.286-.405,16.924a41.835,41.835,0,0,1-.929,7.841,42.348,42.348,0,0,1-2.9,7.311c-4.476,10.21-3.733,21.474-2.746,32.314a48.654,48.654,0,0,0,.988,7.659,30.536,30.536,0,0,0,3.353,7.237,24.323,24.323,0,0,1,2.936,7.437,26.031,26.031,0,0,1-.219,8.138c-.276,2.147-.665,4.654.11,6.75.794,2.15,3.031,2.893,5.162,2.482a10.821,10.821,0,0,0,8.346-9.544c.462-4.734-.928-9.9,1.486-14.279a7.142,7.142,0,0,1,4.576-3.673c2.273-.5,4.18.706,6.3,1.259,5.145,1.34,6.423-6.2,10.06-8.374a4.437,4.437,0,0,1,5.773.7c1.393,1.682,1.4,4.2,1.282,6.267-.145,2.646-.808,5.224-1.013,7.858-.073.932-.071,4.445,1.649,3.4,1.665-1.017,2.879-3.717,3.6-5.417a27.707,27.707,0,0,0,1.778-7.392c.63-5.085.742-10.159,2.871-14.914,2.04-4.555,6.011-8.814,6.363-13.969C155.686,272.112,154.716,269.556,153.7,267.142Zm-43.495,21.195c-2.869,0-5.59-1.031-8.409-1.408-1.337-.179-2.7-.009-4.027-.214a7.668,7.668,0,0,1-3.421-1.665l.022-7.4c1.747-1.543,3.36-3.392,5.5-4.408,2.2-1.047,4.217-.212,5.923,1.335a14.483,14.483,0,0,1,3.936,5.616C110.68,282.806,110.464,285.625,110.207,288.337Zm29.254,1.8c-1.941,2.522-10.4,4.456-13.075,3.982-.593-2.174-1.68-5.261-.667-7.47.8-1.742,3.088-1.441,4.372-2.608l7.049-.85C137.863,285.4,141.106,288,139.461,290.141ZM304.635,178.154c-.74-.54-1.5-1.045-2.261-1.532-3.875,11.623-15.818,17.526-27.281,18.944-13.738,1.7-29.75-2.539-38.567-13.859-2.525-3.242-4.329-7.261-3.7-11.449a13.719,13.719,0,0,1,5.907-8.893c-4.353.181-9.252.463-13.216,2.461-3.44,1.733-5.457,5.414-6.758,8.892-2.885,7.713-2.92,16.44-7.694,23.42,2.183,8.094-2.344,15.847-9.388,19.769-8.135,4.53-18.062,5-27.078,3.532a56.141,56.141,0,0,1-16.133-5.173c-4.063,6.613.642,12.763,6.063,16.643a49.222,49.222,0,0,0,8.8,4.914c4.442,1.959,9.331,2.781,13.691,4.874,4.048,1.944,6.954,5.339,7.175,9.953.243,5.078-2.216,10-1.586,15.065.441,3.548,4.954,9.247,7.965,4.348,1.1-1.785,1.215-4.011,1.4-6.041.251-2.8.529-5.586,1.058-8.346.916-4.781,2.5-9.841,5.958-13.427a14.816,14.816,0,0,1,12.678-4.108c10.267,1.254,18.1,9.585,26.751,14.46,8.778,4.945,19.293,6.712,28.9,3.036,9.747-3.731,14.106-13.614,18.2-22.475,2.195-4.75,4.647-9.582,5.178-14.864s-2.167-9.715-2.75-14.828a13.335,13.335,0,0,1,4.467-12.029c1.754-1.523,3.752-2.713,5.586-4.131,1.609-1.244,2.656-2.716,1.473-4.665C308.319,180.75,306.39,179.436,304.635,178.154ZM204.254,236.231c-2.441,1-2.56,2.107-5.782,1.729l-2.94-5c.848-2.63,1.572-6.775,5.077-6.839,4.893-.089,7.987,3.673,9.873,7.671C208.612,234.916,206.076,235.486,204.254,236.231Zm21.1-28.248a37.451,37.451,0,0,1-.985-4.978c-.174-1.333-.379-3.034.35-4.25,1.061-1.768,3.613-1.46,5.048-2.765l8.388-1.013c.638,1.938,2.318,3.311,3.017,5.218.746,2.038-.28,3.477-2.009,4.507a23.709,23.709,0,0,1-6.393,2.435C230.429,207.722,227.78,208.412,225.357,207.983Zm63.378,32.548c-2.054,4.089-4.742,8.059-8.51,10.751-4.384,3.131-9.409,3.459-14.442,1.823a57.829,57.829,0,0,1-24.6-17.518c-2.7-3.5-5.277-8.542-2.806-12.849,1.2-2.089,3.358-3.341,5.475-4.334,2.263-1.062,4.589-2.03,6.928-2.91,9.619-3.62,21.175-6.281,31.3-3.278,4.86,1.441,10.792,4.829,11.2,10.431C293.718,228.656,291.394,235.24,288.735,240.531Z" transform="translate(-20.975 -60.02)" style="fill:#f7eb00"/><path id="sausage" d="M283.344,154.922c-11.778-1.054-23.151,2.733-34.068,6.662-3.969,1.428-8.64,2.963-10.87,6.855-2.789,4.868,1.024,10,4.548,13.227,8.168,7.485,19.637,10.373,30.5,9.315,8.784-.855,18.449-4.314,22.978-12.438,2.683-4.814,3.341-10.948.377-15.794C293.977,158.116,288.648,155.421,283.344,154.922Zm-31.921,7.139a8.652,8.652,0,0,1,7.5-.566c2.195.907,3,3.32.919,4.88a7.653,7.653,0,0,1-7.383.463C250.467,165.9,249.066,163.52,251.423,162.061ZM243.536,174.7c-2.07-1.314-2.19-3.4.41-3.988a8.737,8.737,0,0,1,6.188,1.005c1.774,1.062,2.274,3.025.075,3.9A7.788,7.788,0,0,1,243.536,174.7Zm15.775,11.581c-1.818,1.162-4.457.885-6.368.093-1.3-.54-3.723-2.239-1.945-3.642,1.673-1.32,4.465-.981,6.34-.381C258.9,182.85,261.625,184.817,259.311,186.281Zm1.759-9c-2.592-1.1-3.392-3.607-.69-5.172a9.628,9.628,0,0,1,7.8-.664c2.715.989,3.371,3.692.782,5.36A8.822,8.822,0,0,1,261.07,177.283Zm18.709,9.833c-2.023,2.126-5.58,2.516-8.323,1.941-1.949-.409-5.449-2.124-3.7-4.555,1.623-2.255,5.113-2.7,7.669-2.552C277.938,182.09,282.765,183.981,279.779,187.116Zm1.324-26.054a5.435,5.435,0,0,1-5.039,2.391c-2.036-.211-3.289-1.958-2.069-3.79a5.828,5.828,0,0,1,5.171-2.411A2.444,2.444,0,0,1,281.1,161.062Zm9.908,18.126a6.258,6.258,0,0,1-5.39,2.387c-1.69-.069-4.073-1.22-2.98-3.238.977-1.806,3.455-2.647,5.385-2.689S292.442,177.013,291.011,179.188Zm3.031-13.353a7.276,7.276,0,0,1-6.365,3.852c-2.653.044-4.935-1.98-3.49-4.648a7.956,7.956,0,0,1,6.479-3.87C293.276,161.1,295.206,163.308,294.042,165.835ZM168.953,176.7c-7.339,0-16.912,1.651-21.543,7.992-7.25,9.928,4.079,20.6,12.327,24.947,10.078,5.314,22.886,7.695,33.975,4.445,4.953-1.452,10.256-4.229,12.371-9.229,2.293-5.421-.4-11.149-4.1-15.2C193.788,180.692,180.834,176.7,168.953,176.7Zm-18,14.418c-1.672-1.626-.647-3.675,1.4-4.2a6.88,6.88,0,0,1,6.435,1.824c1.5,1.688.413,3.592-1.606,4.066A7.034,7.034,0,0,1,150.949,191.117Zm9.544,14.116a6.368,6.368,0,0,1-6.066-1.338,2.182,2.182,0,0,1,.962-3.881,6.367,6.367,0,0,1,5.869,1.378C162.62,202.7,162.364,204.623,160.493,205.233Zm3.536-26.643a8.833,8.833,0,0,1,7.557,1.248c2.435,1.711,2.808,4.729-.335,5.8a8.8,8.8,0,0,1-7.484-1.195C161.328,182.776,160.8,179.656,164.029,178.59Zm3.866,13.243a8.819,8.819,0,0,1,7.547,1.238c2.439,1.71,2.813,4.728-.332,5.8a8.811,8.811,0,0,1-7.485-1.193C165.185,196.011,164.666,192.891,167.9,191.833Zm8.951,20.578a8.834,8.834,0,0,1-7.547-1.238c-2.443-1.712-2.807-4.731.338-5.8a8.8,8.8,0,0,1,7.481,1.195C179.555,208.232,180.071,211.352,176.846,212.411Zm11.97-26.34a7,7,0,0,1,6.528,1.36c1.568,1.433,1.311,3.548-.755,4.269a6.91,6.91,0,0,1-6.536-1.4C186.536,188.885,186.728,186.755,188.816,186.071Zm1.577,25.349a6.382,6.382,0,0,1-6.077-1.338,2.186,2.186,0,0,1,.971-3.884,6.366,6.366,0,0,1,5.869,1.376C192.516,208.879,192.262,210.808,190.393,211.42Zm11.677-7.665a8.857,8.857,0,0,1-7.57-1.242c-2.45-1.714-2.8-4.735.348-5.8a8.81,8.81,0,0,1,7.482,1.191C204.765,199.564,205.3,202.694,202.07,203.755Zm-67.712,21.477a37.027,37.027,0,0,0-25.932,10.7c-3.347,3.388-6.649,8.032-5.862,13.063.753,4.81,4.93,8.043,8.936,10.233,9.609,5.253,21.843,8.183,32.738,6.163,4.676-.867,9.372-2.837,12.34-6.706,3.111-4.056,3.861-9.508,2.825-14.424a24.207,24.207,0,0,0-8.421-13.537A26.222,26.222,0,0,0,134.358,225.232Zm-26.7,21.6c-1.94-1.043-1.03-3.079.391-4.118a6.116,6.116,0,0,1,6-.69c2.04,1.073,1.5,3.255-.179,4.38A6.4,6.4,0,0,1,107.66,246.836Zm10.9,11.036a5.7,5.7,0,0,1-5.6.072c-1.708-1.022-1.524-2.913.048-3.967a5.372,5.372,0,0,1,5.6-.115A2.283,2.283,0,0,1,118.561,257.872Zm-1.228-21.658c-2.375-1.373-1.381-3.993.437-5.357,2.046-1.537,5.36-2.11,7.643-.786,2.373,1.377,1.928,4.118-.093,5.592A7.8,7.8,0,0,1,117.333,236.214Zm5.893,6.565a7.091,7.091,0,0,1,7.852-.032,3.36,3.36,0,0,1-.116,5.662,7.471,7.471,0,0,1-7.7.012A3.226,3.226,0,0,1,123.226,242.779Zm11.267,20.091a7.389,7.389,0,0,1-7.926-1.036,3.323,3.323,0,0,1,.55-5.653,6.993,6.993,0,0,1,7.56.816C136.545,258.61,136.882,261.564,134.493,262.87Zm6.948-31.01a5.4,5.4,0,0,1,6.215.3,3.02,3.02,0,0,1-.083,4.91,5.56,5.56,0,0,1-6.118-.3A2.907,2.907,0,0,1,141.441,231.86Zm5.123,28.668a5.212,5.212,0,0,1-5.881-1.259c-1.213-1.341-1.246-3.339.472-4.273a4.982,4.982,0,0,1,5.6,1.019C148.016,257.3,148.386,259.558,146.564,260.528ZM155.94,250.5c-2.467,1.375-5.919.4-7.818-1.532-1.808-1.84-1.952-4.765.453-6.161a6.536,6.536,0,0,1,7.653,1.321C157.939,245.934,158.423,249.129,155.94,250.5Z" transform="translate(-20.975 -60.02)" style="fill:#e75092"/><path id="sausage-highlight" d="M146.821,256.07c1.212,1.234,1.489,3.392-.15,4.4-1.765,1.082-4.351.36-5.776-.975-1.339-1.255-1.59-3.392.143-4.429A4.976,4.976,0,0,1,146.821,256.07Zm-29.206-25.113c-2.441,1.845-2.229,4.722.77,5.718a7.838,7.838,0,0,0,7.494-1.457,3.117,3.117,0,0,0-.514-5.167C123,228.707,119.7,229.383,117.615,230.957Zm23.826.9a2.892,2.892,0,0,0-.147,4.789,5.565,5.565,0,0,0,6.279.419,3,3,0,0,0,.217-4.785A5.362,5.362,0,0,0,141.441,231.86Zm-33.559,10.961c-1.4,1.03-1.916,2.974-.224,4a6.33,6.33,0,0,0,6.187-.39c1.607-1.037,2.255-3.21.342-4.327C112.289,241,109.568,241.584,107.882,242.821Zm15.344-.042a3.227,3.227,0,0,0,.038,5.642,7.483,7.483,0,0,0,7.7-.012,3.36,3.36,0,0,0,.116-5.662A7.093,7.093,0,0,0,123.226,242.779Zm-10.283,11.235a2.23,2.23,0,0,0,.262,4.056,5.7,5.7,0,0,0,5.287-.155,2.29,2.29,0,0,0,.281-3.95A5.389,5.389,0,0,0,112.943,254.014Zm35.52-11.139c-2.4,1.461-2.068,4.45-.219,6.22,1.968,1.886,5.572,2.868,7.969,1.234,2.148-1.463,1.675-4.347.124-6.075A6.518,6.518,0,0,0,148.463,242.875Zm-21.571,13.433c-2.212,1.342-2.124,3.986-.246,5.59a7.323,7.323,0,0,0,7.922.926c2.232-1.321,2-4,.281-5.659A6.922,6.922,0,0,0,126.892,256.308ZM185.1,206.252c-1.87.612-2.124,2.539-.765,3.846a6.363,6.363,0,0,0,5.87,1.377,2.186,2.186,0,0,0,.971-3.885A6.391,6.391,0,0,0,185.1,206.252ZM164.029,178.59c-3.109,1.027-2.778,4.025-.423,5.737a8.784,8.784,0,0,0,7.645,1.311c3.02-1.029,2.849-3.937.5-5.686A8.828,8.828,0,0,0,164.029,178.59Zm24.787,7.481c-2.1.689-2.285,2.841-.746,4.251a6.931,6.931,0,0,0,6.519,1.378,2.349,2.349,0,0,0,.975-4.058A6.912,6.912,0,0,0,188.816,186.071Zm-36.9.964c-2.1.688-2.295,2.852-.754,4.265a6.941,6.941,0,0,0,6.529,1.373,2.347,2.347,0,0,0,.975-4.054A6.912,6.912,0,0,0,151.911,187.035Zm15.984,4.8c-3.11,1.019-2.786,4.014-.431,5.727a8.783,8.783,0,0,0,7.646,1.31c3.022-1.03,2.85-3.937.494-5.686A8.824,8.824,0,0,0,167.9,191.833Zm-12.7,8.235c-1.869.614-2.115,2.539-.755,3.842a6.346,6.346,0,0,0,5.857,1.377,2.181,2.181,0,0,0,.975-3.879A6.4,6.4,0,0,0,155.2,200.068Zm39.649-3.357c-3.107,1.019-2.811,4.013-.446,5.731a8.817,8.817,0,0,0,7.668,1.313c3.017-1.031,2.838-3.951.486-5.695A8.825,8.825,0,0,0,194.848,196.711Zm-25.211,8.661c-3.107,1.022-2.795,4.014-.436,5.729a8.79,8.79,0,0,0,7.645,1.31c3.018-1.027,2.852-3.939.5-5.686A8.824,8.824,0,0,0,169.637,205.372ZM282.9,177.945c-1.6,2.01.767,3.529,2.638,3.63,1.94.105,4.362-.644,5.45-2.367,1.213-1.922-.5-3.42-2.4-3.556A6.891,6.891,0,0,0,282.9,177.945Zm-31.477-15.884c-2.27,1.405-1.053,3.712.881,4.7a7.641,7.641,0,0,0,7.543-.382c1.978-1.477,1.383-3.844-.733-4.805A8.634,8.634,0,0,0,251.423,162.061Zm22.628-2.478c-1.263,1.682-.185,3.52,1.75,3.838a5.411,5.411,0,0,0,5.257-2.3,2.421,2.421,0,0,0-1.379-3.793A5.775,5.775,0,0,0,274.051,159.583Zm-30.958,11.386c-2.147.871-.839,2.873.54,3.778a7.533,7.533,0,0,0,6.711.812c1.986-.905,1.393-2.757-.148-3.785A8.262,8.262,0,0,0,243.093,170.969Zm16.687,1.522c-2.57,1.881-.189,4.34,2,5.049a8.5,8.5,0,0,0,7.587-1.013c2.474-1.965.991-4.446-1.564-5.2A9.543,9.543,0,0,0,259.78,172.491Zm-8.4,10c-2.156,1.074-.254,3.006,1.136,3.7a7.62,7.62,0,0,0,6.418.293c2.214-1.131.914-3.053-.815-3.843A8.281,8.281,0,0,0,251.384,182.49Zm32.9-17.6c-1.495,2.419.376,4.647,2.943,4.8a7.362,7.362,0,0,0,6.671-3.564,3.225,3.225,0,0,0-2.584-4.94A7.918,7.918,0,0,0,284.28,164.89ZM268.4,183.841c-2.788,2.25.591,4.665,2.882,5.18,2.7.607,6.19.277,8.29-1.7,2.632-2.481-.113-4.719-2.7-5.21A10.687,10.687,0,0,0,268.4,183.841Z" transform="translate(-20.975 -60.02)" style="fill:#fff"/><path id="scallion" d="M203.717,169.228c-1.32,1.527-1.553,5.316-4.283,5-2.43-.277-3.927-3.623-5.616-5.079-1.836-1.583-5.546-4.418-4.758-7.3.572-2.093,3.469-2.8,5.288-3.227,1.5-1.671,3.366-4.031,5.566-4.8s3.989,2.959,5.025,4.432c1.229,1.749,3.077,3.993,2.485,6.292C206.914,166.531,204.987,167.762,203.717,169.228Zm-96.864,106.43c-4.935-5.491-7.4-2.494-12.481,1.994l-.022,7.4a7.776,7.776,0,0,0,3.323,1.651c1.437.25,2.923.05,4.373.265,2.729.4,5.377,1.376,8.161,1.371C110.718,282.936,110.579,279.806,106.853,275.658Zm96.3-49.063c-5.522-1.718-5.987,1.3-7.622,6.368l2.94,5c2.545.3,3.971-1.02,6.2-1.9,1.933-.762,4.01-1.187,5.81-2.265C208.668,229.949,207.323,227.893,203.154,226.6Zm35-31.618-8.388,1.013c-1.474,1.341-4.112,1-5.12,2.907-.657,1.243-.436,2.886-.263,4.218a36.97,36.97,0,0,0,.97,4.868c2.468.437,5.193-.277,7.579-.885a22.276,22.276,0,0,0,6.5-2.559C243.969,201.637,239.244,198.279,238.158,194.977ZM137.14,283.2l-7.049.85c-1.284,1.166-3.574.865-4.372,2.607-1.014,2.213.072,5.292.667,7.471a15.511,15.511,0,0,0,6.22-.707,19.813,19.813,0,0,0,5.424-2.072c1.442-.867,2.264-2.09,1.648-3.782C139.1,285.963,137.674,284.82,137.14,283.2ZM160.414,158.22l-7.048.851c-1.284,1.166-3.574.865-4.374,2.606-1.017,2.212.073,5.292.667,7.472a15.521,15.521,0,0,0,6.222-.708,19.836,19.836,0,0,0,5.425-2.074c1.441-.866,2.264-2.089,1.647-3.781C162.37,160.987,160.948,159.844,160.414,158.22Z" transform="translate(-20.975 -60.02)" style="fill:#46af35"/><path id="text" d="M283.487,95.869c2.979-.708,6.484.328,7.9,3.211,1.62,3.29.173,7.428-2.238,9.923s-6.321,4.013-9.7,2.663a6.663,6.663,0,0,1-3.812-7.846A10.872,10.872,0,0,1,283.487,95.869Zm-28.065,11.524c-1.192,3-.656,6.7,2.19,8.565,3.084,2.02,7.189,1.038,9.908-1.144,2.756-2.212,4.647-6.181,3.626-9.717a6.6,6.6,0,0,0-7.2-4.515A10.772,10.772,0,0,0,255.422,107.393ZM234.769,112.3c-1.189,3-.648,6.7,2.2,8.564,3.084,2.018,7.191,1.04,9.909-1.143,2.756-2.213,4.646-6.181,3.622-9.718a6.6,6.6,0,0,0-7.2-4.514A10.8,10.8,0,0,0,234.769,112.3ZM195.021,73.368a59.978,59.978,0,0,0-7.808,2.577c-.358,13.107-.526,28.536.142,57.857a87.823,87.823,0,0,1,13.707-3.417c.15-5.02.237-9.186.345-18.6,4.156-1.1,8.307-2.3,12.541-3.064-.051,7.3.263,9.618.339,18.189A88.71,88.71,0,0,1,227.8,123.7c.543-30.741.992-42.779,2.006-57.95a65,65,0,0,0-14.985,3.879c-.4,8.166-.618,15.419-.71,22.32-3.77,1.013-8.213,2.281-12.133,3.529.545-13.172.655-16.729,1.128-23.871C200.389,72.087,197.7,72.691,195.021,73.368ZM145.429,85.156a59.475,59.475,0,0,0-7.811,2.578c-.514,19.279-.3,38.576.141,57.854a87.834,87.834,0,0,1,13.71-3.418c.159-5.021.234-9.184.344-18.594,4.159-1.106,8.312-2.295,12.549-3.068-.059,7.3.255,9.621.333,18.19a88,88,0,0,1,13.52-3.213c.534-30.739.985-42.774,2-57.95a65.745,65.745,0,0,0-14.993,3.88c-.363,7.435-.623,14.877-.706,22.321-3.774,1.015-8.219,2.282-12.127,3.53.537-13.173.646-16.729,1.119-23.872C150.795,83.873,148.1,84.475,145.429,85.156Zm-49.6,11.788a59.052,59.052,0,0,0-7.809,2.578c-.35,13.1-.518,28.531.148,57.852a88.088,88.088,0,0,1,13.7-3.416c.159-5.021.236-9.187.348-18.6,4.159-1.106,8.312-2.292,12.548-3.069-.059,7.3.253,9.622.331,18.194a88.057,88.057,0,0,1,13.522-3.214c.535-30.74.992-42.781,2-57.95a65.026,65.026,0,0,0-14.993,3.88c-.4,8.165-.617,15.418-.709,22.321-3.762,1.011-8.216,2.281-12.125,3.527.537-13.169.645-16.729,1.115-23.869C101.2,95.663,98.5,96.259,95.833,96.944ZM57.18,104.9c-12.111,2.877-20.757,12.568-23.776,24.442-2.712,10.664-1.758,24.152,6.313,32.406,9.009,9.215,23.257,4.762,31.5-3.217,7.957-7.7,11.321-19.115,10.971-29.98-.217-6.747-1.846-14.088-6.719-19.062S63.783,103.333,57.18,104.9Zm8.933,35.443c-1.29,4.688-5.129,11.675-10.81,11.6-4.751-.064-7.229-5.412-7.784-9.46A20.576,20.576,0,0,1,51,127.68c2.91-3.9,8.859-6.424,12.794-2.442,3.768,3.813,3.644,10.289,2.322,15.109Z" transform="translate(-20.975 -60.02)" style="fill:#62c4ea"/><path id="text-outline" d="M61.138,123.535c-5.38-1.83-10.122,3.03-12.058,7.555-2.114,4.939-2.707,11.379-.071,16.247a8.318,8.318,0,0,0,5.392,4.422c2.624.521,5.025-.91,6.849-2.674,3.548-3.43,5.392-8.6,5.6-13.465C67.034,131.172,65.955,125.181,61.138,123.535Zm-5.917,16.558a15.674,15.674,0,0,1-1.549,3.665,15.13,15.13,0,0,1,1.434-11.9A13.908,13.908,0,0,1,55.221,140.093ZM296.384,96.246a12.508,12.508,0,0,0-12.041-6.275,35.111,35.111,0,0,0-7.664,1.668,17.608,17.608,0,0,0-7.252,3.966c-3.786-1.44-7.834-.5-11.615.455a19.538,19.538,0,0,0-9.042,4.446,14.155,14.155,0,0,0-7.523-.47,47.129,47.129,0,0,0-7.263,1.776c.252-10.182.566-20.373,1.217-30.538.243-3.808,1.357-8.582-2.869-10.671-1.958-.967-4.147-.519-6.2-.155-2.345.415-4.652,1.012-6.964,1.579-2.468.6-4.932,1.192-7.374,1.9-2.071.6-4.348,1.157-6.033,2.58-1.79-.938-3.894-.671-5.79-.262-2.01.435-4.006.965-6.007,1.443a106.339,106.339,0,0,0-12.785,3.625c-2.014.758-4.262.791-6.38,1.265-2.242.5-4.47,1.067-6.706,1.6-2.136.507-4.265,1.017-6.354,1.7-1.836.6-4.074,1.142-5.572,2.419-1.785-.939-3.887-.674-5.778-.264-2.015.437-4.018.965-6.023,1.443a102.024,102.024,0,0,0-13.284,3.817,16.18,16.18,0,0,1-3.319.577c-1.133.184-2.253.431-3.37.691-2.157.5-4.311,1.023-6.466,1.538-2.067.494-4.11,1.047-6.144,1.663a14.169,14.169,0,0,0-5.21,2.323c-2.566-1.339-5.635-.316-8.243.333-3.149.785-6.323,1.465-9.465,2.277A38.954,38.954,0,0,0,80.193,95.6c-3.029,1.618-3.249,4.353-3.325,7.459-9.125-6.861-21.412-4.833-31.343-.909a37.9,37.9,0,0,0-19.911,18.584,46.477,46.477,0,0,0-3.1,32.057c2.757,10.173,9.928,19.542,20.948,21.01a28.184,28.184,0,0,0,9.515-.571,67.058,67.058,0,0,0,9.2-2.425,37.593,37.593,0,0,0,15.177-10.448c1.959,6.32,9.777,3.378,14.141,2.015,3-.937,6.046-1.473,9.1-2.192,2.39-.563,5-1.088,6.3-3.424,1.82,1.046,3.834.69,5.768.231,2.048-.486,4.087-1,6.115-1.565s4.1-.93,6.167-1.37a27.3,27.3,0,0,0,6.161-1.6c2.159.508,4.609-.444,6.7-.937,2.47-.584,4.848-1.548,7.339-2.04,2.295-.454,4.582-.906,6.844-1.513a6.706,6.706,0,0,0,4.506-2.99c1.819,1.045,3.832.688,5.766.229,2.046-.485,4.083-1,6.108-1.564s4.107-.931,6.174-1.372a27.377,27.377,0,0,0,6.158-1.6c2.16.508,4.611-.444,6.7-.938,2.469-.583,4.846-1.55,7.336-2.04,2.3-.452,4.583-.9,6.845-1.512a6.7,6.7,0,0,0,4.505-2.992c1.825,1.05,4.027.747,5.98.285,2.095-.5,4.173-1.116,6.239-1.722,2.285-.669,4.614-.991,6.931-1.519,1.983-.451,4.341-.677,6.01-1.937,3.732,1.286,7.671.357,11.367-.585a19.38,19.38,0,0,0,8.934-4.441c3.793,1.442,7.836.516,11.624-.443a19.539,19.539,0,0,0,9.02-4.46c3.769,1.427,7.825.592,11.591-.386a19.553,19.553,0,0,0,8.517-4.046C297.05,109.706,299.529,102.136,296.384,96.246ZM80.722,141.922c-2.765,10.486-10.369,20.09-20.83,23.64-5.529,1.876-11.7,2.058-16.813-1.09-5.319-3.277-8.38-9.255-9.843-15.153-2.965-11.955-.341-25.943,8.116-35.152,7.643-8.324,22.53-14.1,32.443-6.242C83.47,115.593,83.605,131.007,80.722,141.922Zm47.9,5.351a88.057,88.057,0,0,0-13.522,3.214c-.078-8.572-.39-10.894-.331-18.194-4.236.777-8.389,1.963-12.548,3.069-.112,9.409-.189,13.575-.348,18.6a88.2,88.2,0,0,0-13.7,3.416c-.666-29.321-.5-44.748-.148-57.852a76.711,76.711,0,0,1,15.889-4.34c-.47,7.14-.578,10.7-1.115,23.869,3.909-1.246,8.363-2.516,12.125-3.527.092-6.9.312-14.156.709-22.321a65.026,65.026,0,0,1,14.993-3.88C129.612,104.492,129.155,116.533,128.62,147.273Zm49.6-11.788A87.885,87.885,0,0,0,164.7,138.7c-.078-8.569-.392-10.892-.333-18.19-4.237.773-8.39,1.962-12.549,3.068-.11,9.41-.185,13.573-.344,18.594a87.722,87.722,0,0,0-13.71,3.418c-.44-19.283-.656-38.569-.141-57.854a76.943,76.943,0,0,1,15.894-4.34c-.473,7.143-.582,10.7-1.119,23.872,3.908-1.248,8.353-2.515,12.127-3.53.083-7.444.343-14.886.706-22.321a65.745,65.745,0,0,1,14.993-3.88C179.2,92.711,178.749,104.746,178.215,135.485ZM227.8,123.7a88.71,88.71,0,0,0-13.514,3.211c-.076-8.571-.39-10.892-.339-18.189-4.234.766-8.385,1.96-12.541,3.064-.108,9.412-.2,13.578-.345,18.6a87.823,87.823,0,0,0-13.707,3.417c-.668-29.321-.5-44.75-.142-57.857a77.016,77.016,0,0,1,15.894-4.337c-.473,7.142-.583,10.7-1.128,23.871,3.92-1.248,8.363-2.516,12.133-3.529.092-6.9.306-14.154.71-22.32a65,65,0,0,1,14.985-3.879C228.793,80.922,228.344,92.96,227.8,123.7Zm18.122-3.3c-2.827,1.794-6.792,2.294-9.522.042-2.637-2.176-2.7-5.865-1.351-8.781a10.714,10.714,0,0,1,8.013-6.148,6.661,6.661,0,0,1,7.4,4.341C251.7,113.833,249.254,118.28,245.923,120.405Zm20.644-4.909c-2.825,1.8-6.791,2.3-9.52.044-2.637-2.178-2.691-5.865-1.346-8.781a10.694,10.694,0,0,1,8.008-6.149,6.664,6.664,0,0,1,7.4,4.342C272.343,108.925,269.9,113.374,266.567,115.5Zm20.643-4.905c-2.827,1.792-6.791,2.3-9.52.042-2.638-2.177-2.692-5.864-1.346-8.78a10.7,10.7,0,0,1,8.01-6.149,6.66,6.66,0,0,1,7.4,4.342C292.985,104.019,290.541,108.468,287.21,110.591Z" transform="translate(-20.975 -60.02)" style="fill:#010000"/></svg>