<svg id="patch-shape-03" xmlns="http://www.w3.org/2000/svg" viewBox="0 0 280 250"><path id="patch-shape-03-nose" fill="#D95A9B" d="M205.155,159.632c-1.262,0.094-2.464,0.896-3.702,1.166c-1.261,0.276-2.199,1.348-3.516,1.438c-0.106,0-0.185-0.018-0.256-0.048c-0.527-0.246-0.848-0.702-1.455-0.868c-0.711-0.195-1.501-0.157-2.232-0.247c-0.654-0.084-1.303-0.251-1.957-0.315c-0.468-0.047-1.387,0.346-1.768,0.089c-0.487-0.358-0.771-0.815-1.361-1.061c-0.642-0.269-1.245-0.686-1.911-0.885c-0.616-0.184-1.287-0.163-1.891,0.06c-0.646,0.238-1.167,0.762-1.884,0.8c-0.083,0-0.186-0.027-0.235-0.054l-0.04-0.023c-0.595-0.68-0.215-2.452-0.098-3.235c0.244-1.633,0.684-3.232,1.166-4.809c0.865-0.433,1.382-1.326,2.14-1.91c0.845-0.65,1.812-1.138,2.8-1.527c0.944-0.372,2.05-0.516,2.818-1.226c0.745-0.69,1.19-1.613,2.208-1.987c0.46,0.987,1.438,1.648,2.521,1.727c1.459,0.105,2.908,0.014,4.369,0.201c2.426,0.312,5.819,0.943,7.502,2.923c0.208,0.69,0.723,1.43,1.293,1.873c0.855,1.581,0.392,3.326-0.654,4.689c-0.469,0.609-1.029,1.145-1.635,1.616C206.667,158.572,205.745,158.943,205.155,159.632 M146.955,106.143c0.381,1.35,0.868,2.745,1.451,4.068c0.675-1.148,1.264-2.246,1.768-3.28c-0.324,0.118-0.669,0.177-1.014,0.177C148.293,107.107,147.506,106.738,146.955,106.143"/><path id="patch-shape-03-eyes" fill="#F7EB00" d="M122.826,119.705c-0.276,0.283-0.556,0.536-0.833,0.804c1.194-2.855,1.769-5.905,2.17-8.96c0.557-4.237,0.782-8.536,0.589-12.806c2.446,0.314,4.887,0.695,7.301,1.199c0.723,3.373-0.899,7.239-2.381,10.188C127.908,113.642,125.566,116.891,122.826,119.705 M96.238,117.081c-0.045-0.136-3.73-12.239-2.948-19.634c-5.915,0-10.806-0.073-15.258-0.227c0.301,3.342,1.334,6.613,2.519,9.737c1.233,3.255,2.598,6.679,4.521,9.598c3.827,5.811,10.361,9.35,17.154,10.34C99.726,124.663,97.648,121.324,96.238,117.081 M109.481,93.604c-0.162,0.25-0.268,0.529-0.424,0.783c0.417,0.076,0.847,0.052,1.222-0.163l-0.153-0.238c-0.212-0.129-0.42-0.276-0.642-0.387C109.483,93.601,109.482,93.602,109.481,93.604 M109.082,95.389c-0.272,0-0.546-0.016-0.818-0.025c-1.233,4.537-1.1,9.59-0.822,14.25c0.071,1.197,0.169,2.394,0.302,3.586c0.113,1.02,0.439,2.129,0.439,3.148c0.34,1.963,0.562,3.7,1.563,5.467c1.825-4.076,2.18-8.864,2.273-13.273c0.042-1.989,0.032-3.95,0.195-5.935c0.198-2.392,0.443-4.864-0.015-7.241c-0.42-0.374-0.683-0.829-0.882-1.348l-0.057,0.096C110.816,94.903,109.982,95.389,109.082,95.389 M188.631,92.981c-1.018,0.269-2.13-0.023-2.879-0.765c-0.354,0.811-0.443,1.635-1.103,2.29c-0.571,3.573-0.464,7.279-0.216,10.881c0.273,3.973,0.776,7.96,1.73,11.831c0.916-0.36,1.976-0.139,2.673,0.557c0.801-3.908,0.95-7.961,0.814-11.938c-0.131-3.818,0.68-7.689-0.097-11.47C189.107,93.984,188.853,93.517,188.631,92.981 M203.88,121.364c3.121-2.497,5.114-5.646,6.903-9.139c2.474-4.831,5.004-9.976,6.217-15.297l-13.524-0.12c1.025,5.255-0.309,11.067-1.576,16.171c-1.11,4.469-2.525,8.884-5.515,12.5C199.094,124.525,201.636,123.166,203.88,121.364 M167.664,98.504c-1.513,0.231-3.021,0.49-4.52,0.798c-0.2,9.693,4.966,19.953,13.439,24.896c-2.174-3.354-3.15-7.241-3.701-11.154c-0.704-5.002-0.95-10.115-0.592-15.156C170.698,98.072,169.165,98.274,167.664,98.504"/><path id="patch-shape-03-face" fill="#4D63AC" d="M118.112,22.418c0.189,1.013,0.362,2.029,0.521,3.047c-1.968-1.257-3.916-0.331-5.667,0.798c-1.813,1.169-3.515,2.515-5.164,3.902C110.975,27.407,114.317,24.301,118.112,22.418 M248.787,108.852c2.087,6.78,2.873,11.638,3.053,14.919c-1.492-0.71-3.325-0.038-4.014,1.459c-0.353,0.767-0.26,1.522-0.178,2.335c0.108,1.071,0.207,2.145,0.295,3.218c0.235,2.896,0.409,5.808,0.362,8.715c-1.222-0.718-2.822-0.46-3.761,0.596c-1.058,1.19-1.173,3.1-1.216,4.603c-0.093,3.242-0.364,6.494-0.912,9.693c-1.736-0.851-3.407,0.134-4.184,1.722c-0.415,0.85-0.925,1.68-1.284,2.554c-0.379,0.917-0.354,2.042-0.499,3.016c-0.405,2.715-0.894,5.604-2.071,8.111c-0.812-0.919-2.14-1.247-3.287-0.822c-1.346,0.498-2.143,2.038-3.016,3.091c-1.89,2.277-3.933,4.443-6.152,6.402c-3.969,3.502-8.366,6.536-12.925,9.216c-10.205,6.002-21.433,10.21-32.924,12.976c-17.511,4.216-35.924,5.18-53.738,2.427c2.232-9.933-0.281-20.088-6.349-28.16c9.296-1.508,15.922-11.692,12.042-20.634c-3.79-8.524-14.293-11.201-22.065-6.398c-0.137-1.944-0.598-3.857-1.381-5.643l-0.916,0.398c0,0,0,0,0-0.001l0.861-0.522c-2.309-4.8-6.279-8.563-11.45-10.082c-6.039-1.775-12.718-0.341-17.686,3.464c-2.374-0.123-4.835,0.478-7.113,1.077c-1.954,0.514-3.962,1.117-5.712,2.152c-5.354-1.398-10.96-0.597-15.835,1.964c0.945-6.628,2.75-13.111,3.642-19.741c0.224-1.667-1.021-3.23-2.695-3.387c0.516-5.478,3.64-10.615,6.016-15.456c1.675-3.412,3.411-6.793,5.15-10.173c4.002-7.776,8.227-15.415,13.05-22.72c1.865-2.824,3.812-5.593,5.788-8.339c2.201-3.059,4.82-5.832,7.389-8.583c6.157-6.596,12.578-12.966,19.253-19.037c-4.093,3.841-8.602,8.287-10.857,13.526c-0.895,2.077-1.606,5.073,0.542,6.64c1.523,1.112,3.792,0.691,5.58,0.702c3.842,0.023,7.685,0.029,11.526,0.143c1.16,0.034,2.307,0.191,3.337-0.465c1.172-0.747,1.41-1.979,1.787-3.222c0.893-2.945,1.934-5.843,2.753-8.81c0.425-1.538,0.786-3.095,1.042-4.671c0.169,2.207,0.283,4.424,0.244,6.638c-0.024,1.362-0.042,2.817-0.389,4.146c-0.92,2.079,0.81,4.427,3.063,4.199c7.362-0.351,14.778-0.207,22.146-0.251c9.563-0.058,19.139-0.158,28.701,0.083c1.191,0.03,2.41,0.017,3.596,0.168c2.272,0.63,3.333-1.318,4.372-2.923c1.168-1.804,2.396-3.57,3.708-5.271c2.002-2.596,4.23-4.982,6.476-7.366c3.251-3.452,6.611-6.586,10.575-9.223c2.391-1.59,5.207-3.481,8.086-4.052c0.574,0.973,0.8,2.185,0.986,3.283c-2.398-2.247-5.208-0.422-7.383,1.113c-2.402,1.696-4.657,3.602-6.82,5.591c-4.222,3.883-8.722,8.313-11.257,13.54c-0.984,2.029-1.998,5.097-0.135,6.935c1.467,1.448,3.844,1.018,5.723,1.029c3.684,0.022,7.367,0.029,11.05,0.124c1.354,0.035,2.861,0.324,4.07-0.449c1.349-0.862,1.545-2.482,1.985-3.896c1.082-3.479,2.335-6.912,3.134-10.472c-0.172,3.111-0.46,6.218-0.896,9.304c-0.181,1.274-0.387,2.545-0.639,3.807c-0.24,1.203-0.639,2.359,0.006,3.514c0.451,0.808,1.318,1.28,2.051,1.805c1.241,0.89,2.464,1.806,3.67,2.743c3.57,2.777,7.045,5.738,10.108,9.074c0.732,0.798,1.438,1.62,2.103,2.475c0.518,0.667,0.961,1.506,1.587,2.081c0.883,0.814,1.632,1.78,2.353,2.736c3.482,4.63,6.39,9.734,9.121,14.833C244.248,97.679,247.027,103.132,248.787,108.852 M78.193,129.442c0.052-4.367-6.421-4.355-9.349-4.329c-2.829,0.049-8.717,0.215-9.257,4.026c-0.673,4.747,6.315,4.812,9.313,4.79C75.109,133.819,78.149,132.354,78.193,129.442 M124.313,128.166c5.11-4.004,9.336-9.288,12.24-15.087c2.708-5.407,5.015-12.838,1.445-18.398l-0.14-0.219c-0.404-0.628-1.028-1.083-1.749-1.276c-6.462-1.749-13.285-2.45-19.945-2.93c-0.393-0.696-0.868-1.345-1.318-2.004c-0.898-1.313-2.669-1.696-4.032-0.871l-0.246,0.149c-2.189-0.496-4.384,0.524-5.73,2.263c-4.724-0.045-9.449,0.083-14.171,0.219c-2.841,0.081-5.682,0.177-8.521,0.285c-1.442,0.055-2.884,0.112-4.326,0.173c-0.948,0.04-1.878,0.233-2.822,0.254c-1.294,0.029-2.4,0.881-2.786,2.074c-0.753,1.713-0.732,3.907-0.655,5.739c0.09,2.131,0.447,4.247,0.943,6.319c1.036,4.328,2.689,8.51,4.608,12.517c-1.483-1.3-3.387-2.114-5.213-2.799c-2.357-0.884-5.025-1.781-7.58-1.662c-2.337,0.109-4.519,2.114-3.657,4.56c0.404,1.146,1.407,1.992,2.389,2.641c2.108,1.394,4.606,2.288,7.024,2.964c1.997,0.559,4.566,1.249,6.564,0.345c1.254-0.567,2.046-1.834,2.021-3.208c4.746,7.571,13.049,12.387,21.771,13.784c4.365,0.699,8.864,0.558,13.17-0.442C117.553,132.637,121.123,130.645,124.313,128.166 M168.364,143.874c1.024-1.66,2.08-4.021,1.861-6.02c-0.213-1.937-1.887-3.498-3.875-3.338c-2.339,0.188-2.845,2.26-3.948,3.911c-1.122,1.678-2.86,2.889-4.937,2.889c-0.757,0.001-1.436-0.187-2.15-0.391c-0.442-0.442-0.637-1.282-0.808-1.86c-0.292-0.987-0.499-1.998-0.683-3.01c-0.411-2.277-0.709-4.579-0.983-6.876c-0.522-4.369-0.975-8.804-0.955-13.209c1.567-2.386,3.301-5.33,4.598-8.357c2.602,11.114,10.555,21.45,21.584,25.164c11.031,3.715,24.304,0.471,32.62-7.578c4.394-4.253,6.918-9.874,9.208-15.45c1.11-2.702,2.106-5.463,2.81-8.301c0.622-2.515,1.669-6.331,0.088-8.683c-0.601-1.799-2.679-2.33-4.36-2.481c-2.654-0.236-5.313-0.432-7.972-0.592c-5.683-0.342-11.384-0.572-17.076-0.593c-0.395-0.671-0.866-1.299-1.313-1.937c-0.613-0.876-1.675-1.368-2.74-1.268c-0.555,0.052-1.069,0.483-1.558,0.273c-0.67-0.289-1.388-0.421-2.115-0.421c-2.382,0.023-4.281,1.703-5.266,3.767c-7.511,0.504-15.123,1.335-22.404,3.312c-0.633,0.172-1.175,0.54-1.565,1.03c-2.272-2.381-5.312-1.881-7.16,0.693c-1.663-1.803-4.435-2.062-6.482-0.739c-1.853,1.196-2.584,3.366-2.749,5.466c-0.355,4.532,1.135,9.311,2.929,13.418c0.189,0.433,0.387,0.862,0.595,1.286c0.294,0.602,0.14,1.244,0.109,1.907c-0.074,1.618-0.095,3.238-0.12,4.857c-0.046,2.993-0.147,5.986-0.496,8.96c-0.317,2.717-0.831,5.438-1.794,8.006c-0.37,0.984-0.819,1.927-1.335,2.841c-0.589,1.045-1.918,1.205-3.018,1.157c-2.066-0.09-4.483-1.089-5.605-2.909c-0.583-0.935-0.279-2.061-0.859-3.021c-0.555-0.919-1.512-1.517-2.578-1.621c-2.137-0.209-3.441,1.521-3.767,3.437c-0.383,2.249,0.301,4.553,1.558,6.421c2.497,3.711,7.114,5.757,11.516,5.717c2.211-0.02,4.443-0.576,6.309-1.787c1.814-1.178,2.948-2.868,3.904-4.76c0.708,1.865,1.807,3.598,3.474,4.741c1.833,1.258,4.229,1.787,6.424,1.85C161.737,149.901,166.013,147.685,168.364,143.874 M221.13,157.943c0.165-2.854-2.8-3.944-5.101-3.052c0.314-2.164-0.125-4.359-1.208-6.255c-0.408-0.714-0.938-1.386-1.403-2.064c-0.561-0.815-1.282-1.513-2.07-2.106c-3.392-2.557-7.923-3.498-12.083-3.711c-0.436-0.892-1.299-1.536-2.331-1.663c-1.337-0.165-2.638-0.338-3.978-0.042c-1.975,0.436-3.667,1.626-4.984,3.13c-1.49,0.493-2.811,1.087-4.017,1.806c-1.419-0.659-3.106-0.141-3.98,1.135c-0.62,0.904-0.844,2.083-1.176,3.113c-0.418,1.302-0.827,2.607-1.171,3.932c-1.067,4.105-2.107,10.165,2.336,12.725c1.877,1.103,4.156,1.086,6.138,0.282c1.523,1.406,3.648,2.027,5.691,1.633c0.825,0.146,1.656,0.258,2.491,0.331c1.612,1.103,3.627,1.321,5.499,0.871c0.85-0.204,1.66-0.539,2.432-0.946c0.849-0.449,1.688-0.693,2.598-1.009c3.127,1.975,6.695,0.514,9.505-1.289c1.535-0.984,3.078-2.048,4.499-3.191C219.938,160.67,221.052,159.457,221.13,157.943 M227.266,131.28c-2.846-0.804-9.891-3.004-10.917,1.48c-0.819,3.636,4.109,5.238,6.695,6.086c2.635,0.863,5.411,1.631,8.19,1.809c1.748,0.112,3.741-0.246,4.554-1.995c1-2.152-0.425-3.896-2.246-4.96C231.607,132.57,229.409,131.884,227.266,131.28 M237.452,124.283c-1.49-1.857-4.612-2.19-6.771-2.495c-2.475-0.35-5.01-0.559-7.511-0.432c-1.6,0.081-3.586,0.375-4.552,1.82c-1.878,2.808,0.899,4.85,3.219,5.548c2.391,0.72,4.941,0.992,7.424,1.152c1.957,0.126,4.118,0.271,6.041-0.233C237.664,129.022,239.197,126.456,237.452,124.283 M238.688,111.56c-0.286-2.115-2.238-2.921-4.151-3.073c-2.853-0.228-5.838,0.345-8.607,0.973c-2.612,0.592-7.589,1.702-7.197,5.324c0.222,2.046,1.972,2.956,3.849,3.163c2.832,0.313,5.842-0.277,8.598-0.879c2.589-0.566,7.769-1.607,7.54-5.208C238.711,111.758,238.701,111.659,238.688,111.56"/><path id="patch-shape-03-meat" fill="#F6B030" d="M111.468,34.922c1.02-0.863,1.96-1.615,2.865-2.292c-0.099,5.461-2.051,10.465-3.653,15.626c-3.727-0.098-7.456-0.106-11.185-0.13C102.353,43.011,107.049,38.674,111.468,34.922 M198.393,40.626c-2.4,2.46-4.829,5.096-6.513,8.115c3.729,0.024,7.458,0.032,11.186,0.13c1.6-5.16,3.56-10.166,3.653-15.627C203.749,35.463,200.983,37.978,198.393,40.626 M114.671,184.766c-4.516-9.887-13.721-16.822-24.592-17.965c-11.783-1.239-24.128,4.27-31.293,13.673c-1.66,2.179-3.07,4.602-3.909,7.218c-0.91,2.841-1.041,5.956-1.03,8.92c0.022,6.088,1.455,12.231,5.294,17.079c0.838,1.06,1.77,2.046,2.779,2.944c1.09,0.969,2.504,1.712,3.446,2.805c1.843,2.14,4.004,4.017,6.46,5.422c4.569,2.612,10.129,3.374,15.309,2.807C106.814,225.527,123.01,203.942,114.671,184.766 M47.055,168.837c7.732,9.343,22.591,1.522,24.26-8.962c0.821-5.156-1.746-10.355-6.023-13.245c-5.091-3.438-11.779-2.964-16.866,0.213c-3.719,2.322-6.36,5.868-6.589,10.313C41.597,161.799,43.067,166.179,47.055,168.837 M96.636,141.281c3.667,3.974,4.131,9.672,1.205,14.234c-2.887,4.502-8.488,7.373-13.827,6.094c-2.526-0.604-4.214-2.444-6.095-4.078c-2.277-1.972-3.258-4.834-3.324-7.785c-0.069-3.077,0.778-5.645,2.938-7.879c1.91-1.977,4.396-3.396,7.07-4.036C88.917,136.8,93.593,137.983,96.636,141.281 M79.908,146.749c0.002,0,0.004,0.001,0.006,0.001c0,0.006-0.002,0.009-0.003,0.012l0.001,0.001c0-0.004,0.002-0.007,0.003-0.013C79.913,146.75,79.91,146.749,79.908,146.749 M79.868,146.742l0.021,0.008C79.882,146.746,79.875,146.744,79.868,146.742 M105.245,158.517c-0.337,3.063,0.369,6.124,3.066,7.906c5.848,6.628,17.231-1.392,14.188-9.302c-1.257-3.309-4.518-5.508-8.045-5.502C110.669,151.622,105.691,154.366,105.245,158.517 M51.455,183.581c0.167-3.266-1.478-6.454-4.026-8.451c-3.18-2.492-7.517-2.837-11.208-1.341c-3.128,1.268-6.531,4.127-6.923,7.699c-0.41,3.822,0.449,7.644,3.83,9.872c2.567,3.422,7.382,3.787,11.065,2.177C48.119,191.82,51.23,187.938,51.455,183.581"/><path id="patch-shape-03-outline" fill="#231916" d="M254.522,107.087C252,98.89,247.775,91.06,243.451,83.693c-2.035-3.466-4.177-6.9-6.635-10.085c-0.845-1.094-1.925-2.056-2.716-3.174c-1.452-2.054-3.118-3.943-4.882-5.733c-3.921-3.98-8.291-7.538-12.819-10.805c0.795-4.196,1.253-8.465,1.523-12.725c0.291-4.575,0.385-9.217-0.154-13.778c-0.408-3.457-1.195-8.307-4.85-9.811c-3.48-1.433-7.913,1.242-10.825,2.933c-5.271,3.061-9.868,6.947-14.028,11.386c-4.177,4.457-8.086,8.975-11.411,14.123c-6.78-0.385-13.612-0.241-20.399-0.232c-10.021,0.014-20.047,0.057-30.067,0.222c0.282-3.961-0.004-7.98-0.388-11.925c-0.262-2.684-0.604-5.359-1.003-8.025c-0.221-1.472-0.455-2.942-0.724-4.406c-0.157-0.856-0.257-1.804-0.584-2.622c-0.955-2.524-3.713-3.418-6.167-2.731c-2.644,0.741-4.998,2.542-7.159,4.173c-4.171,3.149-8.076,6.657-11.904,10.209c-4.706,4.366-9.282,8.873-13.743,13.488c-3.849,3.981-7.948,7.997-11.193,12.499C67.191,65.18,61.406,73.986,56.56,83.298c-2.603,5.001-5.204,10.006-7.705,15.059c-2.072,4.188-4.302,8.348-5.804,12.786c-0.744,2.199-1.316,4.49-1.408,6.818c-0.086,2.166,0.021,4.922,2.101,6.186c-0.903,4.494-1.871,8.978-2.611,13.502c-0.42,2.565-0.907,5.266-0.683,7.875c-2.637,2.875-4.38,6.295-4.724,10.207c-0.337,3.832,0.054,7.774,1.733,11.276c-4.64,0.855-8.993,3.55-11.745,7.396c-2.942,4.112-3.459,9.626-1.922,14.398c0.734,2.28,2.024,4.354,3.756,6.009c1.842,1.761,3.777,3.56,6.13,4.613c4.462,1.996,9.758,1.487,14.039-0.719c0.283,5.89,1.784,11.723,5.029,16.696c1.549,2.375,3.452,4.505,5.608,6.343c1.071,0.912,2.22,1.668,3.176,2.698c1.037,1.116,2.148,2.164,3.332,3.125c8.806,7.146,21.081,8.018,31.528,4.263c10.74-3.86,19.771-12.398,24.118-22.962c24.774,4.008,51.003,1.258,74.412-7.8c13.923-5.388,27.688-13.21,37.416-24.751c2.257,1.064,4.748-0.023,6.185-1.864c2.249-2.884,3.036-6.922,3.635-10.428c3.002,0.482,4.498-2.391,5.292-4.785c1.079-3.26,1.45-6.76,1.688-10.169c2.292,0.117,3.869-1.467,4.482-3.505c1.069-3.551,0.773-7.615,0.584-11.257c3.609-1.482,3.765-6.853,3.663-10.089C257.682,118.405,256.226,112.622,254.522,107.087 M250.037,123.525c-1.333,0.233-2.371,1.372-2.476,2.722c-0.137,1.775,0.325,3.738,0.458,5.519c0.191,2.571,0.327,5.152,0.286,7.731c-1.222-0.718-2.822-0.46-3.761,0.596c-1.058,1.19-1.173,3.1-1.216,4.603c-0.093,3.242-0.364,6.494-0.912,9.693c-1.736-0.851-3.407,0.134-4.184,1.722c-0.415,0.85-0.925,1.68-1.284,2.554c-0.379,0.917-0.354,2.042-0.499,3.016c-0.405,2.715-0.894,5.604-2.071,8.111c-0.812-0.919-2.14-1.247-3.287-0.822c-1.346,0.498-2.143,2.038-3.016,3.091c-1.89,2.277-3.933,4.443-6.152,6.402c-3.969,3.502-8.366,6.536-12.925,9.216c-10.205,6.002-21.433,10.21-32.924,12.976c-17.511,4.216-35.924,5.18-53.738,2.427c2.232-9.933-0.281-20.088-6.349-28.16c9.296-1.508,15.922-11.692,12.042-20.634c-3.79-8.524-14.293-11.201-22.065-6.398c-0.137-1.944-0.598-3.857-1.381-5.643l-0.916,0.398c0,0,0,0,0-0.001l0.861-0.522c-2.309-4.8-6.279-8.563-11.45-10.082c-6.039-1.775-12.718-0.341-17.686,3.464c-2.374-0.123-4.835,0.478-7.113,1.077c-1.954,0.514-3.962,1.117-5.712,2.152c-5.354-1.398-10.96-0.597-15.835,1.964c0.945-6.628,2.75-13.111,3.642-19.741c0.224-1.667-1.021-3.23-2.695-3.387c0.516-5.478,3.64-10.615,6.016-15.456c1.675-3.412,3.411-6.793,5.15-10.173c4.002-7.776,8.227-15.415,13.05-22.72c1.865-2.824,3.812-5.593,5.788-8.339c2.201-3.059,4.82-5.832,7.389-8.583c6.157-6.596,12.578-12.966,19.253-19.037c-4.093,3.841-8.602,8.287-10.857,13.526c-0.895,2.077-1.606,5.073,0.542,6.64c1.523,1.112,3.792,0.691,5.58,0.702c3.842,0.023,7.685,0.029,11.526,0.143c1.16,0.034,2.307,0.191,3.337-0.465c1.172-0.747,1.41-1.979,1.787-3.222c0.893-2.945,1.934-5.843,2.753-8.81c0.425-1.538,0.786-3.095,1.042-4.671c0.169,2.207,0.283,4.424,0.244,6.638c-0.024,1.362-0.042,2.817-0.389,4.146c-0.92,2.079,0.81,4.427,3.063,4.199c7.362-0.351,14.778-0.207,22.146-0.251c9.563-0.058,19.139-0.158,28.701,0.083c1.191,0.03,2.41,0.017,3.596,0.168c2.272,0.63,3.333-1.318,4.372-2.923c1.168-1.804,2.396-3.57,3.708-5.271c2.002-2.596,4.23-4.982,6.476-7.366c3.251-3.452,6.611-6.586,10.575-9.223c2.391-1.59,5.207-3.481,8.086-4.052c0.574,0.973,0.8,2.185,0.986,3.283c-2.398-2.247-5.208-0.422-7.383,1.113c-2.402,1.696-4.657,3.602-6.82,5.591c-4.222,3.883-8.722,8.313-11.257,13.54c-0.984,2.029-1.998,5.097-0.135,6.935c1.467,1.448,3.844,1.018,5.723,1.029c3.684,0.022,7.367,0.029,11.05,0.124c1.354,0.035,2.861,0.324,4.07-0.449c1.349-0.862,1.545-2.482,1.985-3.896c1.082-3.479,2.335-6.912,3.134-10.472c-0.172,3.111-0.46,6.218-0.896,9.304c-0.181,1.274-0.387,2.545-0.639,3.807c-0.24,1.203-0.639,2.359,0.006,3.514c0.451,0.808,1.318,1.28,2.051,1.805c1.241,0.89,2.464,1.806,3.67,2.743c3.57,2.777,7.045,5.738,10.108,9.074c0.732,0.798,1.438,1.62,2.103,2.475c0.518,0.667,0.961,1.506,1.587,2.081c0.883,0.814,1.632,1.78,2.353,2.736c4.929,6.553,8.917,13.986,12.436,21.371c3.684,7.73,6.622,16.196,7.094,24.812C251.296,123.512,250.672,123.415,250.037,123.525 M116.948,196.962c-0.551,11.222-7.961,21.354-17.598,26.733c-9.503,5.304-22.23,6.094-30.926-1.219c-1.019-0.856-1.967-1.795-2.847-2.793c-0.978-1.109-2.286-1.853-3.406-2.828c-2.147-1.855-3.947-4.101-5.276-6.607c-2.934-5.534-3.4-11.991-2.844-18.13c1.046-11.535,11.659-20.353,22.069-23.766c9.942-3.26,21.173-1.851,29.48,4.702C112.787,178.723,117.42,187.73,116.948,196.962 M50.643,187.068c-1.397,3.281-4.313,5.903-7.727,6.941c-3.433,1.043-7.531,0.358-9.788-2.649c-3.412-2.249-4.594-6.618-3.724-10.507c0.865-3.866,4.877-6.717,8.523-7.62c4.09-1.014,8.506,0.249,11.188,3.559C51.481,179.71,52.12,183.571,50.643,187.068 M43.414,165.033c-1.492-2.601-1.77-5.682-1.528-8.619c0.234-2.842,1.602-5.243,3.606-7.236c4.227-4.203,10.735-6.136,16.471-4.195c4.823,1.632,8.673,6.043,9.391,11.122c0.777,5.493-2.25,10.869-6.66,13.986c-3.43,2.424-7.805,3.539-11.93,2.499c-1.922-0.484-3.62-1.538-4.998-2.955C46.269,168.096,44.509,166.96,43.414,165.033 M98.078,143.172c2.829,4.545,1.939,10.15-1.554,14.078c-3.339,3.755-9.089,5.991-13.929,3.893c-1.257-0.545-2.359-1.408-3.269-2.427c-0.953-1.069-2.176-1.754-3.011-2.98c-1.695-2.493-1.917-5.613-1.6-8.528c0.6-5.613,7.182-9.454,12.318-9.731C91.488,137.234,95.708,139.39,98.078,143.172 M108.084,153.953c2.866-2.355,7.042-3.12,10.399-1.361c2.647,1.387,4.529,4.245,4.515,7.264c-0.034,7.058-9.619,12.312-14.687,6.567c-2.102-1.389-3.102-3.635-3.152-6.113C105.097,157.688,106.071,155.631,108.084,153.953 M118.463,24.406c0.059,0.354,0.115,0.707,0.17,1.059c-1.968-1.257-3.916-0.331-5.667,0.798c-1.813,1.169-3.515,2.515-5.164,3.902c3.173-2.758,6.515-5.864,10.311-7.747C118.239,23.097,118.354,23.76,118.463,24.406 M114.333,32.63c-0.099,5.461-2.051,10.465-3.653,15.626c-3.727-0.098-7.456-0.106-11.185-0.13c1.687-3.019,4.11-5.654,6.511-8.115C108.598,37.363,111.363,34.85,114.333,32.63 M206.719,33.244c-0.094,5.461-2.054,10.467-3.653,15.627c-3.728-0.098-7.457-0.106-11.186-0.13c1.62-2.906,3.937-5.453,6.237-7.832C200.783,38.153,203.645,35.542,206.719,33.244 M77.187,127c1.55,1.57,1.218,4.04-0.524,5.269c-2.148,1.516-5.241,1.616-7.762,1.661c-2.997,0.021-9.985-0.043-9.313-4.79c0.54-3.811,6.428-3.977,9.257-4.026C71.429,125.091,75.2,124.987,77.187,127 M130.923,121.671c3.174-3.856,5.862-8.24,7.49-12.978c1.529-4.451,2.267-9.835-0.416-14.012l-0.14-0.219c-0.404-0.628-1.028-1.083-1.749-1.276c-6.462-1.749-13.285-2.45-19.945-2.93c-0.393-0.696-0.868-1.345-1.318-2.004c-0.898-1.313-2.669-1.696-4.032-0.871l-0.246,0.149c-2.189-0.496-4.384,0.524-5.73,2.263c-4.724-0.045-9.449,0.083-14.171,0.219c-2.841,0.081-5.682,0.177-8.521,0.285c-1.442,0.055-2.884,0.112-4.326,0.173c-0.948,0.04-1.878,0.233-2.822,0.254c-1.294,0.029-2.4,0.881-2.786,2.074c-0.753,1.713-0.732,3.907-0.655,5.739c0.09,2.131,0.447,4.247,0.943,6.319c1.036,4.328,2.689,8.51,4.608,12.517c-1.483-1.3-3.387-2.114-5.213-2.799c-2.357-0.884-5.025-1.781-7.58-1.662c-2.337,0.109-4.519,2.114-3.657,4.56c0.404,1.146,1.407,1.992,2.389,2.641c2.108,1.394,4.606,2.288,7.024,2.964c1.997,0.559,4.566,1.249,6.564,0.345c1.254-0.567,2.046-1.834,2.021-3.208c5.619,8.963,16.129,14.001,26.54,14.211c4.563,0.093,9.249-0.632,13.382-2.633C123.399,129.458,127.527,125.773,130.923,121.671 M86.359,118.307c-2.382-2.91-3.882-6.536-5.278-9.995c-1.428-3.536-2.705-7.271-3.049-11.091c4.452,0.154,9.343,0.226,15.258,0.227c-0.583,5.515,0.755,11.324,2.12,16.638c1.217,4.738,3.079,9.472,6.815,12.81C96.149,126.01,90.282,123.104,86.359,118.307 M110.126,93.985l0.153,0.238c-0.375,0.214-0.805,0.238-1.222,0.163c0.153-0.249,0.296-0.526,0.427-0.788C109.706,93.709,109.914,93.856,110.126,93.985 M123.253,116.625c0.706-2.719,1.847-10.184,1.499-17.882c2.446,0.314,4.887,0.695,7.301,1.199c0.746,3.482-0.985,7.483-2.543,10.506c-1.927,3.738-4.49,7.146-7.517,10.061C122.498,119.302,122.926,118.008,123.253,116.625 M111.365,94.145c0.173,0.482,0.466,0.895,0.834,1.222c0.433,2.251,0.232,4.594,0.046,6.861c-0.174,2.114-0.181,4.197-0.226,6.315c-0.093,4.409-0.448,9.197-2.273,13.273c-1.001-1.767-1.222-3.503-1.563-5.467c0-0.908-0.294-1.899-0.4-2.806c-0.153-1.306-0.263-2.616-0.341-3.928c-0.278-4.661-0.412-9.714,0.822-14.25c1.19,0.039,2.342-0.085,2.996-1.25l0.057-0.096C111.333,94.061,111.35,94.102,111.365,94.145 M237.452,124.283c1.423,1.772,0.638,4.249-1.365,5.097c-1.649,0.697-3.602,0.619-5.356,0.567c-2.7-0.081-5.461-0.348-8.088-1.003c-1.119-0.278-2.33-0.632-3.254-1.356c-1.087-0.854-1.554-2.329-1.131-3.655c0.558-1.754,2.465-2.335,4.112-2.514c2.289-0.249,4.657-0.056,6.935,0.196c2.052,0.228,4.184,0.521,6.113,1.293C236.193,123.218,236.924,123.625,237.452,124.283 M170.186,139.026c0.571-3.232-3.138-5.978-5.834-3.674c-1.213,1.037-1.581,2.789-2.649,3.983c-1.082,1.211-2.595,1.98-4.236,1.98c-0.757,0.001-1.436-0.187-2.15-0.391c-0.442-0.442-0.637-1.282-0.808-1.86c-0.292-0.987-0.499-1.998-0.683-3.01c-0.411-2.277-0.709-4.579-0.983-6.876c-0.522-4.369-0.975-8.804-0.955-13.209c1.567-2.386,3.301-5.33,4.598-8.357c2.602,11.114,10.555,21.45,21.584,25.164c11.031,3.715,24.304,0.471,32.62-7.578c4.394-4.253,6.918-9.874,9.208-15.45c1.11-2.702,2.106-5.463,2.81-8.301c0.622-2.515,1.669-6.331,0.088-8.683c-0.601-1.799-2.679-2.33-4.36-2.481c-2.654-0.236-5.313-0.432-7.972-0.592c-5.683-0.342-11.384-0.572-17.076-0.593c-0.395-0.671-0.866-1.299-1.313-1.937c-0.613-0.876-1.675-1.368-2.74-1.268c-0.555,0.052-1.069,0.483-1.558,0.273c-0.67-0.289-1.388-0.421-2.115-0.421c-2.382,0.023-4.281,1.703-5.266,3.767c-7.511,0.504-15.123,1.335-22.404,3.312c-0.633,0.172-1.175,0.54-1.565,1.03c-2.272-2.381-5.312-1.881-7.16,0.693c-1.663-1.803-4.435-2.062-6.482-0.739c-1.853,1.196-2.584,3.366-2.749,5.466c-0.355,4.532,1.135,9.311,2.929,13.418c0.189,0.433,0.387,0.862,0.595,1.286c0.294,0.602,0.14,1.244,0.109,1.907c-0.074,1.618-0.095,3.238-0.12,4.857c-0.046,2.993-0.147,5.986-0.496,8.96c-0.317,2.717-0.831,5.438-1.794,8.006c-0.37,0.984-0.819,1.927-1.335,2.841c-0.589,1.045-1.918,1.205-3.018,1.157c-2.066-0.09-4.483-1.089-5.605-2.909c-0.583-0.935-0.279-2.061-0.859-3.021c-0.555-0.919-1.512-1.517-2.578-1.621c-2.137-0.209-3.441,1.521-3.767,3.437c-0.383,2.249,0.301,4.553,1.558,6.421c2.497,3.711,7.114,5.757,11.516,5.717c2.211-0.02,4.443-0.576,6.309-1.787c1.814-1.178,2.948-2.868,3.904-4.76c0.835,2.198,2.218,4.158,4.343,5.263c2.438,1.267,5.499,1.611,8.184,1.14C165.27,148.662,169.259,144.318,170.186,139.026 M173.584,116.891c0.645,2.809,1.68,5.27,3,7.307c-8.474-4.943-13.64-15.202-13.439-24.896c3.022-0.62,6.082-1.06,9.146-1.415C171.721,105.9,172.88,114.1,173.584,116.891 M200.606,117.614c0.058-0.166,4.307-13.439,2.869-20.806L217,96.928c-1.357,5.956-4.317,11.589-7.084,16.99c-2.826,5.518-7.711,9.512-13.531,11.562C198.092,123.415,199.535,120.767,200.606,117.614 M189.555,94.368c0.76,3.7-0.126,7.405,0.084,11.126c0.163,4.089,0.021,8.263-0.802,12.282c-0.697-0.696-1.757-0.917-2.673-0.557c-0.954-3.871-1.457-7.858-1.73-11.831c-0.248-3.603-0.355-7.309,0.216-10.881c0.659-0.655,0.749-1.479,1.103-2.29c0.749,0.741,1.861,1.033,2.879,0.765C188.853,93.517,189.107,93.984,189.555,94.368 M217.555,93.223v1.204l0,0l-0.033-1.097c0.009-0.036,0.018-0.072,0.027-0.107C217.551,93.223,217.553,93.223,217.555,93.223 M150.174,106.931c-0.504,1.034-1.093,2.132-1.768,3.28c-0.583-1.323-1.07-2.719-1.451-4.068c0.551,0.596,1.338,0.965,2.205,0.965C149.505,107.107,149.85,107.048,150.174,106.931 M238.688,111.56c0.492,3.588-4.266,4.749-6.87,5.361c-2.789,0.656-5.767,1.22-8.644,1.072c-1.884-0.097-3.968-0.764-4.386-2.844c-0.729-3.63,3.865-4.896,6.515-5.543c2.786-0.68,5.732-1.223,8.61-1.152c1.892,0.047,4.163,0.584,4.692,2.679C238.641,111.274,238.668,111.416,238.688,111.56 M236.007,138.03c-1.051,4.458-8.073,2.237-10.907,1.439c-2.284-0.645-4.695-1.359-6.699-2.675c-1.103-0.724-2.117-1.757-2.146-3.154c-0.096-4.614,6.032-3.553,8.862-2.909c2.604,0.592,5.265,1.354,7.66,2.556c1.151,0.577,2.436,1.338,3.04,2.532C236.169,136.515,236.182,137.283,236.007,138.03 M220.263,155.55c-0.987-1.047-2.485-1.336-4.233-0.658c0.314-2.164-0.125-4.359-1.208-6.255c-0.408-0.714-0.938-1.386-1.403-2.064c-0.561-0.815-1.282-1.513-2.07-2.106c-3.392-2.557-7.923-3.498-12.083-3.711c-0.436-0.892-1.299-1.536-2.331-1.663c-1.337-0.165-2.638-0.338-3.978-0.042c-1.975,0.436-3.667,1.626-4.984,3.13c-1.49,0.493-2.811,1.087-4.017,1.806c-1.419-0.659-3.106-0.141-3.98,1.135c-0.62,0.904-0.844,2.083-1.176,3.113c-0.418,1.302-0.827,2.607-1.171,3.932c-1.067,4.105-2.107,10.165,2.336,12.725c1.877,1.103,4.156,1.086,6.138,0.282c1.523,1.406,3.648,2.027,5.691,1.633c0.825,0.146,1.656,0.258,2.491,0.331c1.612,1.103,3.627,1.321,5.499,0.871c0.85-0.204,1.66-0.539,2.432-0.946c0.849-0.449,1.688-0.693,2.598-1.009c3.705,2.34,7.84-0.079,10.947-2.263C218.033,162.193,223.4,158.878,220.263,155.55 M203.85,160.006c-0.95,0.391-1.929,0.608-2.9,0.915c-1.063,0.336-1.842,1.234-3.012,1.315c-0.106,0-0.185-0.018-0.256-0.048c-0.527-0.246-0.848-0.702-1.455-0.868c-0.711-0.195-1.501-0.157-2.232-0.247c-0.654-0.084-1.303-0.251-1.957-0.315c-0.468-0.047-1.387,0.346-1.768,0.089c-0.487-0.358-0.771-0.815-1.361-1.061c-0.642-0.269-1.245-0.686-1.911-0.885c-0.616-0.184-1.287-0.163-1.891,0.06c-0.646,0.238-1.167,0.762-1.884,0.8c-0.083,0-0.186-0.027-0.235-0.054l-0.04-0.023c-0.595-0.68-0.215-2.452-0.098-3.235c0.244-1.633,0.684-3.232,1.166-4.809c0.865-0.433,1.382-1.326,2.14-1.91c0.845-0.65,1.812-1.138,2.8-1.527c0.944-0.372,2.05-0.516,2.818-1.226c0.745-0.69,1.19-1.613,2.208-1.987c0.46,0.987,1.438,1.648,2.521,1.727c1.459,0.105,2.908,0.014,4.369,0.201c2.426,0.312,5.819,0.943,7.502,2.923c0.208,0.69,0.723,1.43,1.293,1.873c0.855,1.581,0.392,3.326-0.654,4.689c-0.469,0.609-1.029,1.145-1.635,1.616c-0.711,0.554-1.633,0.925-2.223,1.613C204.693,159.666,204.268,159.819,203.85,160.006"/></svg>