<svg id="patch-shape-04" xmlns="http://www.w3.org/2000/svg" viewBox="0 0 200 430"><path id="patch-shape-04-body-4" fill="#63C5EA" d="M133.891,303.972c0.049,0.837,0.094,1.693,0.136,2.577c-1.104,1.454-3.477,0.804-3.702-1c-0.244-1.946,2.193-3.099,3.559-1.698c-0.225-3.796-0.465-7.641-1.181-11.382c0.062,0.328,0.12,0.656,0.169,0.986c-0.297,0.063-0.584,0.082-0.883,0.023c-2.006,5.789-4.328,11.62-6.729,16.68c1.508-0.155,2.691,1.384,2.138,2.806c-0.609,1.569-2.808,1.769-3.697,0.342c-1.044,2.021-2.092,3.857-3.126,5.46c0.246,1.386-0.943,2.618-2.334,2.422c-2.744,1.511-5.442-0.123-7.328-2.146c-1.515-1.624-2.741-3.514-3.869-5.419c-0.816-1.379-1.577-2.79-2.305-4.218c-0.388-0.759-0.733-1.982-1.379-2.52c-0.544-0.453-0.807-1.135-0.729-1.833c-0.887-1.917-1.826-4.053-2.82-6.419c-0.179,1.363-1.671,2.209-2.923,1.608c-0.239-1.045-0.478-2.111-0.717-3.203c0.705-0.85,1.966-0.99,2.841-0.324c-2.166-5.269-4.184-10.598-6.125-15.952c3.096,16.389,6.614,32.532,9.734,38.219c0.147-1.906,2.677-2.594,3.771-1.028c1.155,1.652-0.638,3.917-2.51,3.1c0.357,3.942,0.856,7.875,1.423,11.793c-0.092-0.634-0.181-1.268-0.267-1.901c1.935,0.339,2.333,3.024,0.564,3.899c0.95,6.23,2.265,13.261,3.944,19.066c-0.178-2.315,3.161-3.061,4-0.899c0.91,2.343-2.55,3.958-3.754,1.737c1.327,4.398,2.871,8.002,4.636,9.854c0.134,3.761,1.112,13.427,2.604,22.354c1.108-1.159,3.122-0.643,3.516,0.916c0.423,1.674-1.374,3.175-2.935,2.361c-0.201-1.061-0.387-2.123-0.566-3.188c0.85,5.071,1.659,10.484,3.731,15.23c0.382,0.874,1.066,2.571,2.213,2.668c1.268,0.106,1.993-1.949,2.335-2.833c0.942,1.382,2.187,3.198,3.863,3.748c1.664,0.547,2.567-1.183,2.992-2.503c-0.095,0.298-0.2,0.593-0.33,0.878c-2.54-0.681-1.579-4.592,0.979-4.027c-0.085,0.673-0.195,1.343-0.341,2.006c0.864-3.857,0.76-7.971,0.64-11.894c-1.242,0.469-2.639-0.346-2.805-1.675c-0.184-1.461,1.22-2.654,2.631-2.25c0.03,0.519,0.056,1.038,0.08,1.557c-0.192-4.024-0.529-8.042-0.937-12.05c0.021,0.229,0.042,0.459,0.065,0.688c-2.643-0.278-2.242-4.291,0.396-4.115c-0.129,0.984-0.279,1.968-0.482,2.939c0.739-3.489,0.975-7.108,1.238-10.658c0.416-5.605,0.659-11.225,0.836-16.843c-1.07,1.748-3.845,0.976-3.845-1.076c0-2.108,2.913-2.839,3.905-0.969c-0.001,0.048-0.003,0.097-0.004,0.145c0.121-4.276,0.198-8.554,0.234-12.832c-0.241,2.55-4.136,2.364-4.136-0.192c0-2.57,3.92-2.741,4.139-0.174C134.529,322.41,134.363,312.04,133.891,303.972 M118.534,358.61c2.679,0,2.68,4.152,0,4.152C115.855,362.763,115.857,358.61,118.534,358.61 M118.534,330.911c2.679,0,2.68,4.153,0,4.153C115.855,335.064,115.857,330.911,118.534,330.911 M118.534,344.762c2.679,0,2.679,4.152,0,4.152C115.856,348.914,115.856,344.762,118.534,344.762 M111.61,323.987c2.679,0,2.679,4.151,0,4.151S108.932,323.987,111.61,323.987 M111.61,341.986c-2.68,0-2.679-4.151,0-4.151C114.288,337.835,114.289,341.986,111.61,341.986 M118.534,376.612c-2.678,0-2.678-4.152,0-4.152C121.214,372.46,121.213,376.612,118.534,376.612 M125.459,397.39c-2.678,0-2.678-4.159,0-4.159C128.14,393.23,128.14,397.39,125.459,397.39 M125.459,383.539c-2.678,0-2.677-4.157,0-4.157C128.14,379.382,128.14,383.539,125.459,383.539 M125.459,369.685c-2.678,0-2.677-4.152,0-4.152C128.139,365.532,128.141,369.685,125.459,369.685 M125.459,355.836c-2.679,0-2.677-4.152,0-4.152C128.139,351.684,128.141,355.836,125.459,355.836 M125.459,341.986c-2.678,0-2.677-4.151,0-4.151C128.14,337.835,128.141,341.986,125.459,341.986 M125.459,328.139c-2.678,0-2.678-4.151,0-4.151C128.14,323.987,128.141,328.139,125.459,328.139 M132.387,358.61c0.488,0,0.936,0.177,1.292,0.466c-0.066,1.161-0.132,2.283-0.203,3.37c-1.171,0.735-2.767,0.089-3.104-1.247C130.043,359.904,131.052,358.61,132.387,358.61 M132.387,321.217c-1.644,0-2.65-1.912-1.707-3.264c0.999-1.431,3.296-1.016,3.715,0.688c0.009,0.316,0.012,0.633,0.016,0.949C134.204,320.521,133.377,321.217,132.387,321.217 M82.283,102.076c1.019,0.342,1.828,1.106,2.709,1.695c0.971,0.649,1.978,1.242,3.003,1.799c2.104,1.143,4.283,2.137,6.436,3.182c2.263,1.098,4.483,2.267,6.631,3.578c1.835,1.121,3.625,2.341,5.581,3.248c4,1.854,8.774,2.329,13.11,2.871c4.89,0.611,9.815,0.884,14.741,0.955c-0.645-1.875-1.167-4.004-0.748-5.987c0.46-2.173,1.679-4.353,2.58-6.373c-1.443,0.298-2.917,0.445-4.39,0.319c-1.308-0.111-2.964-0.303-3.817-1.427c-0.485-0.638-0.552-1.381-0.626-2.141c-0.193-1.985-0.249-3.986-0.186-5.979c0.184-5.818,1.348-12.441,5.655-16.707c1.839-1.82,4.185-3.003,6.716-3.509c1.89-0.378,3.71,1.159,5.035,2.344c1.584,1.416,2.879,3.147,3.828,5.047c0.583-2.7,1.138-6.365-0.724-8.717c-1.806-2.28-4.533-4.042-6.986-5.526h0.003c-2.867-2.895-5.45-6.112-7.841-9.405c-4.673-6.436-8.787-13.648-10.531-21.475c-0.884-3.968-1.095-8.123-0.185-12.106c0.216-0.943,0.706-1.994-0.109-2.799c-0.856-0.846-1.628-0.012-2.22,0.65c-1.16,1.296-2.18,2.719-3.062,4.217c-2.115,3.591-3.455,7.677-3.612,11.856c-0.195,5.166,1.525,10.149,4.497,14.342c0.578,0.816,1.199,1.603,1.854,2.359c-7.733-6.431-15.533-14.965-16.927-25.336c-0.141-1.045,0.09-2.519-0.354-3.471c-0.358-0.77-1.494-1.321-2.116-0.51c-0.68,0.886-1.073,2.194-1.447,3.234c-0.929,2.588-1.478,5.321-1.598,8.068c-0.205,4.65,0.899,9.307,3.394,13.257c3.398,5.378,8.933,8.965,14.743,11.291c-0.219,0.033-0.438,0.07-0.655,0.112c-8.783-2.866-18.036-7.284-23.548-15.006c-0.655-0.917-1.248-1.878-1.767-2.879c-0.453-0.872-0.726-2.265-1.713-2.686c-1.916-0.817-1.816,1.761-1.83,2.915c-0.039,3.189,0.494,6.402,1.557,9.408c2.545,7.193,8.26,12.431,15.557,14.595C94.21,79.08,87.027,91.983,82.283,102.076 M119.285,85.215c-3.885,0-7.138-3.252-7.138-7.137s3.254-7.134,7.138-7.134c3.883,0,7.136,3.25,7.136,7.134S123.17,85.215,119.285,85.215"/><path id="patch-shape-04-pattern-2" fill="#FFFFFF" d="M103.446,320.245c0.032,0.04,0.065,0.084,0.097,0.122C103.512,320.33,103.479,320.285,103.446,320.245z M132.479,402.258c-0.087,0.379-0.181,0.728-0.28,1.046C132.299,402.986,132.393,402.639,132.479,402.258z M105.584,334.729c-0.091-0.602-0.18-1.195-0.265-1.781C105.404,333.532,105.493,334.127,105.584,334.729z M109.777,354.696c-0.05-0.165-0.099-0.331-0.148-0.497C109.678,354.366,109.728,354.531,109.777,354.696z M103.053,319.701c0.067,0.104,0.135,0.204,0.202,0.297C103.188,319.906,103.12,319.804,103.053,319.701z M133.128,390.3c-0.016-0.553-0.037-1.125-0.063-1.711C133.091,389.179,133.111,389.745,133.128,390.3z M102.692,319.106c0.092,0.163,0.188,0.324,0.287,0.482C102.88,319.43,102.789,319.268,102.692,319.106 M120.611,319.137c0-0.127-0.016-0.25-0.037-0.371c-0.629,0.97-1.302,1.854-2.334,2.422C119.477,321.362,120.611,320.396,120.611,319.137 M130.308,305.288c0,1.939,2.538,2.815,3.719,1.261c-0.043-0.899-0.098-1.798-0.143-2.697C132.606,302.54,130.308,303.449,130.308,305.288 M125.459,314.291c2.806,0,2.595-4.421-0.199-4.133c-0.518,1.089-1.038,2.139-1.56,3.147C124.067,313.895,124.715,314.291,125.459,314.291 M132.387,344.762c-1.538,0-2.563,1.691-1.836,3.052c0.747,1.399,2.775,1.445,3.603,0.1c0.019-0.682,0.046-1.362,0.06-2.044C133.864,345.212,133.183,344.762,132.387,344.762 M118.534,348.914c2.679,0,2.679-4.152,0-4.152C115.856,344.762,115.856,348.914,118.534,348.914 M132.387,330.911c-2.681,0-2.682,4.153,0,4.153C135.061,335.064,135.063,330.911,132.387,330.911 M118.534,335.064c2.68,0,2.679-4.153,0-4.153C115.857,330.911,115.855,335.064,118.534,335.064 M134.404,319.137c-0.003-0.165-0.005-0.329-0.01-0.496c-0.569-2.319-4.087-1.877-4.087,0.496c0,2.409,3.581,2.812,4.103,0.453C134.408,319.443,134.406,319.287,134.404,319.137 M125.459,337.835c-2.677,0-2.678,4.151,0,4.151C128.141,341.986,128.14,337.835,125.459,337.835 M125.459,323.987c-2.678,0-2.678,4.151,0,4.151C128.141,328.139,128.14,323.987,125.459,323.987 M132.561,372.476c-2.639-0.176-3.039,3.837-0.396,4.115c-0.037-0.361-0.065-0.725-0.104-1.086C132.274,374.505,132.428,373.489,132.561,372.476 M118.534,372.46c-2.678,0-2.678,4.152,0,4.152C121.213,376.612,121.214,372.46,118.534,372.46 M132.387,362.763c0.4,0,0.773-0.118,1.089-0.316c0.071-1.087,0.137-2.209,0.203-3.37c-1.076-0.873-2.731-0.43-3.231,0.86C129.928,361.279,130.951,362.763,132.387,362.763 M118.534,362.763c2.68,0,2.679-4.152,0-4.152C115.857,358.61,115.855,362.763,118.534,362.763 M125.459,365.532c-2.677,0-2.678,4.152,0,4.152C128.141,369.685,128.139,365.532,125.459,365.532 M125.459,351.684c-2.677,0-2.679,4.152,0,4.152C128.141,355.836,128.139,351.684,125.459,351.684 M132.387,400.157c-2.359,0-2.824,3.465-0.535,4.078c0.569-1.252,0.807-2.674,0.979-4.027C132.688,400.177,132.541,400.157,132.387,400.157 M132.387,386.309c-3.18,0-2.26,5.144,0.742,4.012c0-1.306-0.098-2.621-0.174-3.925C132.774,386.344,132.585,386.309,132.387,386.309 M118.534,390.465c1.437,0,2.456-1.492,1.938-2.832c-0.542-1.399-2.406-1.758-3.44-0.675c0.177,1.095,0.375,2.188,0.582,3.276C117.889,390.378,118.201,390.465,118.534,390.465 M125.459,393.23c-2.678,0-2.678,4.159,0,4.159C128.14,397.39,128.14,393.23,125.459,393.23 M125.459,379.382c-2.677,0-2.678,4.157,0,4.157C128.14,383.539,128.14,379.382,125.459,379.382 M106.765,319.137c0-2.577-3.944-2.73-4.144-0.155c0,0.001,0,0.001,0,0.002c0.334,0.603,0.708,1.235,1.227,1.698c0.008,0.115,0.021,0.251,0.033,0.371C105.228,321.634,106.765,320.589,106.765,319.137 M103.565,307.037c-0.305-0.633-0.617-1.298-0.935-1.984C102.542,305.84,102.896,306.604,103.565,307.037 M96.171,297.039c0.239,1.092,0.478,2.158,0.717,3.203c1.251,0.601,2.744-0.245,2.923-1.608c-0.263-0.625-0.528-1.26-0.798-1.919C98.137,296.049,96.875,296.189,96.171,297.039 M106.765,332.989c0-1.026-0.75-1.874-1.727-2.045c0.176,1.302,0.368,2.601,0.563,3.899c0,0,0,0,0.001,0C106.285,334.506,106.765,333.803,106.765,332.989 M111.61,337.835c-2.679,0-2.68,4.151,0,4.151C114.289,341.986,114.288,337.835,111.61,337.835 M111.61,328.139c2.679,0,2.679-4.151,0-4.151S108.932,328.139,111.61,328.139 M111.61,355.836c2.112,0,2.836-2.915,0.976-3.909c-0.837-0.446-1.899-0.253-2.528,0.455c-0.672,0.756-0.521,1.496-0.266,2.365C109.792,355.412,111.128,355.836,111.61,355.836"/><path id="patch-shape-04-body-3" fill="#E75092" d="M117.953,317.797c-3.041,4.562-8.043-4.633-9.244-6.784c-2.814-5.038-5.118-10.362-7.31-15.694c-4.531-10.824-8.353-21.969-12.046-33.101c-0.917-2.762-1.817-5.528-2.704-8.3c1.302,0.642,2.727,1.331,4.255,2.061c2.794,5.589,5.098,11.262,7.081,17.188c1.929,5.768,3.686,11.597,5.87,17.275c1.123,2.917,2.357,5.791,3.752,8.589c1.411,2.83,2.504,5.804,3.909,8.635c1.001,2.011,3.366,3.227,5.576,2.678c2.369-0.564,3.603-3.128,4.632-5.104c2.339-4.495,3.674-9.437,5.02-14.296c1.561-5.64,3.319-11.226,5.023-16.823c0.911,0.375,1.801,0.738,2.677,1.094c-1.658,7.591-4.093,15.039-6.836,22.302C124.982,304.469,122.088,311.582,117.953,317.797 M113.708,223.381c-0.588-2.738-1.967-5.232-2.442-8.007c-0.304-1.775-0.232-3.626,0.031-5.406c0.538-3.632,2.723-7.088,6.916-5.877c2.916,0.842,5.155,3.126,7.994,4.153c1.375,0.497,2.813,0.829,3.604-0.656c0.972-1.824,1.146-4.162,1.443-6.167c0.378-2.551,0.998-5.032,1.584-7.54c0.517-2.215,0.938-4.488,0.687-6.77c-0.252-2.272-1.061-4.496-1.658-6.694c-1.159-4.264-1.677-8.507-0.417-12.821c-2.756,1.133-5.117,3.044-7.839,4.256c-2.755,1.226-5.868,1.692-8.864,1.765c-5.979,0.145-11.614-1.711-17.461-2.602c-5.919-0.903-11.943-1.355-17.733-2.962c-2.717-0.754-5.406-1.769-7.773-3.323c-2.41-1.583-4.443-3.633-6.58-5.549c-1.114-0.999-2.251-1.958-3.562-2.69c-0.679,11.508,4.281,22.348,6.186,33.511c0.856,5.015,1.4,10.094,2.662,15.031c0.667,2.611,1.54,5.169,2.667,7.619c1.097,2.386,2.418,4.421,4.022,6.481c2.573,0.269,5.17,0.43,7.758,0.403c1.371,0,2.777,0.512,3.994,1.095c1.37,0.655,2.632,1.525,3.783,2.513c0.753,0.646,1.459,1.346,2.125,2.081c0.644,0.712,1.184,1.567,1.945,2.161c2.686,2.093,6.996,1.707,10.127,1.247c2.423-0.355,4.749-1.215,7.201-1.344C114.08,225.955,113.977,224.654,113.708,223.381"/><path id="patch-shape-04-body-1" fill="#48B035" d="M94.917,257.875c10.076,4.718,23.13,10.526,34.317,15.194c-1.849,6.079-3.732,12.148-5.433,18.271c-1.444,5.199-2.925,10.669-6.006,15.177c-0.597,0.872-1.329,1.473-2.433,1.132c-1.333-0.411-1.768-1.922-2.275-3.069c-1.263-2.851-2.548-5.673-3.875-8.494c-2.631-5.591-4.611-11.446-6.521-17.313C100.391,271.705,98.167,264.577,94.917,257.875 M73.327,218.616c-2.999-4.085-4.707-9.416-5.828-14.304c-1.223-5.33-1.757-10.787-2.788-16.153c-2.114-11.01-6.739-21.583-5.7-33.015c-0.989-0.496-1.98-1.028-2.914-1.657c-1.9,13.188,0.413,26.616,6.073,38.643c0.251,3.938,0.303,7.875,0.811,11.793c0.575,4.439,1.64,8.814,3.358,12.953C68.56,217.666,70.981,218.226,73.327,218.616 M140.457,246.848c1.64-1.919,2.635-4.387,3.445-6.746c0.855-2.487,1.489-5.05,2.02-7.623c1.197-5.809,1.834-11.729,2.268-17.638c0.93-12.667,1.201-25.399,1.191-38.098c-0.002-2.44-0.021-4.88-0.056-7.32c-2.536,0.815-5.074,1.021-7.655,0.265c-2.412-0.707-4.637-2.356-7.159-2.628c-0.98,2.624-1.319,5.404-0.964,8.186c0.364,2.845,1.304,5.578,2.026,8.343c0.755,2.889,0.931,5.634,0.41,8.583c-0.523,2.966-1.453,5.844-1.905,8.825c-0.561,3.703-0.912,10.729-6.179,10.408c-2.02-0.123-3.914-1.058-5.626-2.072c-1.559-0.924-3.152-2.188-4.935-2.647c-3.379-0.876-3.601,4.485-3.542,6.626c0.063,2.352,0.983,4.536,1.758,6.72c0.851,2.396,1.242,4.816,1.286,7.357c4.894,0.834,5.217,6.339,7.987,9.46C128.901,241.437,134.978,244.349,140.457,246.848"/><path id="patch-shape-04-body-2" fill="#EEE93C" d="M78.303,108.441c0,2.536-2.364,4.575-4.876,4.11c-0.175,0.7,0.443,1.22,0.253,1.921c-0.108,0.399-0.429,0.687-0.691,0.991c-0.583,0.677-1.147,1.371-1.699,2.074c-1.753,2.236-3.372,4.578-4.869,6.992c-4.464,7.202-7.855,15.105-9.771,23.368c0.634,0.909,0.866,2.034,0.667,3.122c0.637,0.458,1.343,0.865,2.078,1.252l0,0c1.366,0.72,2.783,1.349,4.109,2.142c1.332,0.797,2.511,1.827,3.66,2.863c2.264,2.043,4.43,4.263,7.105,5.779c5.753,3.259,12.844,3.835,19.27,4.683c-0.24-0.032-0.48-0.065-0.721-0.097c1.354-0.839,3.091-0.854,4.438,0.007c0.32,0.205,0.613,0.454,0.868,0.737c0.516,0.081,1.031,0.165,1.546,0.255c0.993,0.173,1.982,0.366,2.965,0.593c3.031,0.7,6.057,1.358,9.167,1.58c0.402-4.578,7.097-5.095,8.192-0.633c5.559-1.37,10.208-7.261,16.328-5.533c2.661,0.752,4.996,2.456,7.793,2.758c1.282,0.145,2.548-0.034,3.778-0.402c1.542-0.46,1.873-1.326,1.83-2.867c-2.625,1.858-6.373,0.062-6.58-3.137c-0.215-3.308,3.481-5.576,6.327-3.84c-0.255-5.466-0.565-10.983-1.492-16.383c-0.318-1.854-0.644-3.981-1.622-5.619c-0.511-0.854-1.509-1.309-2.245-1.951c-1.144-0.996-2.169-2.127-3.123-3.303c-0.486,3.654-5.323,4.902-7.505,1.922c-2.254-3.08,0.6-7.296,4.269-6.555c-0.763-1.268-1.355-3.115-3.129-3.133c-1.804-0.024-3.606-0.079-5.408-0.163c-0.744,0.679-1.726,1.105-2.813,1.105v0c-1.288,0-2.427-0.599-3.196-1.517c-4.485-0.413-9.549-1.133-13.592-2.088c-0.367,2.649-3.207,4.306-5.691,3.301c-2.576-1.042-3.41-4.341-1.667-6.499c-2.105-1.285-4.181-2.599-6.37-3.742c-1.854,0.397-3.768-0.572-4.599-2.264c0.721,0.343,1.44,0.688,2.158,1.037c-3.093-1.504-6.247-2.908-9.163-4.745c-0.713-0.45-1.412-0.924-2.089-1.426c-0.391-0.29-0.786-0.566-1.297-0.556c-1.19,0.063-2.106,1.78-2.811,2.583C78.216,107.568,78.303,107.993,78.303,108.441 M69.939,129.353c0-2.28,1.902-4.18,4.182-4.18s4.183,1.9,4.183,4.18c0,2.281-1.902,4.183-4.183,4.183C71.84,133.536,69.939,131.634,69.939,129.353 M88.675,140.65c-0.453,2.222-2.684,3.7-4.907,3.264c-2.238-0.439-3.73-2.679-3.293-4.914c0.421-2.146,2.506-3.627,4.67-3.333C87.491,135.984,89.176,138.319,88.675,140.65 M63.666,135.628c2.28,0,4.183,1.903,4.183,4.183c0,2.278-1.905,4.181-4.183,4.181c-2.279,0-4.185-1.9-4.185-4.181C59.481,137.529,61.384,135.628,63.666,135.628 M74.121,154.45c-2.278,0-4.182-1.903-4.182-4.181c0-2.28,1.9-4.184,4.182-4.184c2.281,0,4.183,1.904,4.183,4.184C78.304,152.547,76.398,154.45,74.121,154.45 M88.675,161.565c-0.454,2.22-2.686,3.699-4.907,3.263c-2.237-0.439-3.731-2.68-3.293-4.914c0.421-2.146,2.506-3.627,4.67-3.333C87.492,156.898,89.176,159.233,88.675,161.565 M90.853,150.269c0-2.281,1.901-4.184,4.183-4.184c2.28,0,4.182,1.905,4.182,4.184c0,2.277-1.905,4.181-4.182,4.181C92.757,154.45,90.853,152.548,90.853,150.269 M105.489,164.906c-2.278,0-4.182-1.904-4.182-4.182c0-2.279,1.902-4.182,4.182-4.182s4.185,1.902,4.185,4.182C109.674,163.003,107.768,164.906,105.489,164.906 M111.764,150.269c0-2.28,1.901-4.184,4.182-4.184s4.183,1.904,4.183,4.184c0,2.278-1.905,4.181-4.183,4.181S111.764,152.546,111.764,150.269 M126.402,164.906L126.402,164.906c-2.277-0.001-4.182-1.904-4.182-4.182c0-2.279,1.902-4.182,4.182-4.182l0,0h0.001c2.279,0,4.182,1.902,4.182,4.182C130.585,163.003,128.682,164.906,126.402,164.906 M136.86,146.085c2.28,0,4.182,1.904,4.182,4.184c0,2.277-1.904,4.181-4.182,4.181c-2.278,0-4.182-1.902-4.182-4.181C132.679,147.988,134.578,146.085,136.86,146.085 M148.426,143.827c-2.215,0.611-4.564-0.714-5.153-2.948c-0.619-2.352,0.966-4.787,3.362-5.183C147.367,137.288,147.957,140.113,148.426,143.827 M122.307,138.968c0.391-1.909,2.073-3.339,4.096-3.34l0,0h0.001c2.281,0,4.182,1.902,4.182,4.183c0,2.279-1.903,4.181-4.183,4.181v0C123.809,143.991,121.764,141.521,122.307,138.968 M115.945,125.173c2.279,0,4.183,1.9,4.183,4.18c0,2.281-1.901,4.183-4.183,4.183c-2.28,0-4.182-1.903-4.182-4.183C111.764,127.074,113.666,125.173,115.945,125.173 M105.489,135.628c2.28,0,4.185,1.902,4.185,4.183c0,2.279-1.906,4.181-4.185,4.181s-4.182-1.903-4.182-4.181C101.308,137.531,103.209,135.628,105.489,135.628 M95.035,125.173c2.278,0,4.182,1.902,4.182,4.18c0,2.279-1.902,4.183-4.182,4.183c-2.282,0-4.183-1.901-4.183-4.183C90.853,127.072,92.755,125.173,95.035,125.173 M88.675,118.054c0.471,2.229-1.03,4.486-3.255,4.94c-2.242,0.458-4.504-1.037-4.945-3.285c-0.419-2.137,0.926-4.301,3.034-4.856C85.795,114.25,88.201,115.734,88.675,118.054"/><path id="patch-shape-04-pattern-1" fill="#9E4B97" d="M130.585,160.724c0,2.308-1.872,4.182-4.183,4.182v0c-2.277,0-4.182-1.904-4.182-4.182c0-2.279,1.902-4.182,4.182-4.182l0,0h0.001C128.714,156.542,130.585,158.414,130.585,160.724 M143.135,139.81c0,2.734,2.668,4.741,5.291,4.017c-0.469-3.714-1.059-6.539-1.791-8.131C144.648,136.024,143.135,137.734,143.135,139.81 M136.86,154.45c2.277,0,4.182-1.904,4.182-4.181c0-2.28-1.901-4.184-4.182-4.184c-2.282,0-4.182,1.903-4.182,4.184C132.679,152.548,134.582,154.45,136.86,154.45 M136.86,125.173c-3.471,0-5.439,4.181-3.218,6.854c2.285,2.75,6.876,1.412,7.347-2.125c-0.877-1.081-1.692-2.213-2.451-3.379v0c-0.013-0.02-0.025-0.04-0.038-0.06c-0.001,0-0.001,0-0.001,0c-0.255-0.393-0.504-0.791-0.746-1.193C137.46,125.209,137.16,125.173,136.86,125.173 M147.316,156.542c-2.702,0-4.731,2.638-4.043,5.251c0.333,1.262,1.266,2.32,2.476,2.811c1.446,0.585,2.663,0.188,3.977-0.468c-0.178-2.311-0.154-4.659-0.253-6.976C148.772,156.809,148.117,156.542,147.316,156.542 M80.396,118.899c0,2.173,1.737,4.03,3.907,4.171c2.379,0.154,4.457-1.785,4.457-4.171c0-2.279-1.901-4.184-4.182-4.184C82.297,114.715,80.396,116.619,80.396,118.899 M95.035,112.625c0.291,0,0.573-0.031,0.851-0.09c-1.521-0.781-3.056-1.528-4.599-2.264C91.97,111.66,93.383,112.625,95.035,112.625 M105.489,156.542c-2.279,0-4.182,1.903-4.182,4.182c0,2.278,1.903,4.182,4.182,4.182s4.185-1.903,4.185-4.182C109.674,158.444,107.769,156.542,105.489,156.542 M84.578,156.542c-2.174,0-4.032,1.736-4.173,3.907c-0.147,2.272,1.622,4.3,3.898,4.448c2.262,0.147,4.299-1.618,4.447-3.887C88.906,158.627,86.973,156.542,84.578,156.542 M126.402,143.992L126.402,143.992c2.279,0,4.183-1.901,4.183-4.181c0-2.281-1.9-4.183-4.182-4.183h-0.001l0,0c-2.279,0-4.182,1.903-4.182,4.183C122.221,142.089,124.125,143.991,126.402,143.992 M105.489,143.992c2.278,0,4.185-1.902,4.185-4.181c0-2.281-1.904-4.183-4.185-4.183s-4.182,1.903-4.182,4.183C101.308,142.089,103.211,143.992,105.489,143.992 M84.578,135.628c-2.175,0-4.032,1.736-4.173,3.908c-0.147,2.273,1.622,4.3,3.898,4.448c2.262,0.146,4.299-1.616,4.447-3.886C88.907,137.714,86.973,135.628,84.578,135.628 M126.402,123.079L126.402,123.079c1.088,0,2.069-0.426,2.813-1.105c-2.006-0.093-4.01-0.228-6.01-0.413c0,0,0,0,0,0C123.976,122.48,125.114,123.079,126.402,123.079 M105.489,123.079c2.114,0,3.844-1.574,4.125-3.605c-2.638-0.623-5.053-1.791-7.358-3.198C100.083,118.966,102.029,123.079,105.489,123.079 M99.217,150.269c0-2.279-1.902-4.184-4.182-4.184c-2.282,0-4.183,1.903-4.183,4.184c0,2.279,1.904,4.181,4.183,4.181C97.312,154.45,99.217,152.546,99.217,150.269 M120.128,150.269c0-2.28-1.902-4.184-4.183-4.184s-4.182,1.904-4.182,4.184c0,2.277,1.904,4.181,4.182,4.181S120.128,152.547,120.128,150.269 M95.035,133.536c2.28,0,4.182-1.904,4.182-4.183c0-2.278-1.903-4.18-4.182-4.18c-2.28,0-4.183,1.899-4.183,4.18C90.853,131.635,92.753,133.536,95.035,133.536 M115.945,133.536c2.281,0,4.183-1.902,4.183-4.183c0-2.28-1.903-4.18-4.183-4.18s-4.182,1.901-4.182,4.18C111.764,131.633,113.665,133.536,115.945,133.536 M92.819,167.641c1.77,0.235,3.541,0.468,5.306,0.744C96.775,166.887,94.532,166.58,92.819,167.641 M115.945,166.998c-2.184,0-3.955,1.68-4.143,3.814c2.761,0.184,5.498,0.016,8.192-0.633C119.547,168.354,117.91,166.998,115.945,166.998 M74.321,111.349c-0.335,0.359-0.77,0.704-0.895,1.203c0,0.262,1.833-0.079,2.017-0.14c0.655-0.219,1.251-0.603,1.725-1.106c1.043-1.111,1.383-2.695,0.918-4.142C76.849,108.575,75.598,109.974,74.321,111.349 M63.666,143.992c2.278,0,4.183-1.903,4.183-4.181c0-2.28-1.902-4.183-4.183-4.183c-2.282,0-4.185,1.901-4.185,4.183C59.481,142.092,61.387,143.992,63.666,143.992 M57.393,150.269c0-0.884-0.273-1.699-0.742-2.371v0c-0.251,1.081-0.452,2.299,0.586,3.067l0,0c0.026,0.02,0.055,0.036,0.081,0.055l0,0C57.363,150.773,57.393,150.524,57.393,150.269 M74.121,146.085c-2.281,0-4.182,1.904-4.182,4.184c0,2.278,1.904,4.181,4.182,4.181c2.277,0,4.183-1.903,4.183-4.181C78.304,147.989,76.402,146.085,74.121,146.085 M74.121,133.536c2.281,0,4.183-1.902,4.183-4.183c0-2.28-1.903-4.18-4.183-4.18s-4.182,1.9-4.182,4.18C69.939,131.634,71.84,133.536,74.121,133.536"/><path id="patch-shape-04-wood" fill="#9E4B97" d="M165.137,258.581c-8.575-2.478-17.088-5.336-25.237-8.995c-4.116-1.848-8.183-3.906-11.898-6.479c-1.563-1.081-3.066-2.261-4.409-3.608c-0.824-0.826-1.59-1.72-2.227-2.7c-0.718-1.104-1.11-2.324-1.668-3.504c-0.8-1.691-1.951-3.188-3.951-3.283c-1.225-0.06-2.554-0.031-3.739,0.319c-3.271,0.996-6.873,1.489-10.285,1.304c-2.114-0.12-4.289-0.558-6.088-1.725c-1.102-0.718-1.831-1.743-2.691-2.712c-0.772-0.868-1.607-1.684-2.517-2.408c-1.507-1.2-3.492-2.452-5.491-2.527c-5.677,0.107-11.573-0.547-17.05-2.041c0,0,0,0,0,0c-2.866-0.791-5.482-2.097-8.229-3.2c-2.718-1.091-5.462-1.542-8.334-2c-2.848-0.455-5.692-0.935-8.535-1.426c-1.334-0.23-2.668-0.463-4.001-0.699c-1.339-0.236-2.707-0.595-4.074-0.447c-3.848,0.418-6.009,3.739-5.871,7.382c0.104,2.754,0.208,5.508,0.313,8.262c0.005,0.141,0.011,0.281,0.016,0.422c0.176,4.666,3.794,8.609,8.389,9.311c4.123,0.625,8.236,1.312,12.335,2.07c9.391,1.738,18.877,3.706,27.876,6.963c3.158,1.143,6.104,2.634,9.104,4.126c3.016,1.5,6.058,2.947,9.108,4.375c7.751,3.63,15.564,7.133,23.415,10.544c7.393,3.213,14.817,6.37,22.342,9.263c2.919,1.121,5.881,2.335,8.926,3.072c1.439,0.348,2.9,0.597,4.35,0.897c1.354,0.281,2.652,0.73,3.991,1.053c2.536,0.608,5.251,0.031,7.244-1.677c2.5-2.143,3.129-6.105,4.084-9.104c0.602-1.89,0.894-3.753,0.234-5.688C169.72,261.242,167.646,259.309,165.137,258.581"/><path id="patch-shape-04-mouth" fill="#9E4B97" d="M137.135,104.174c-1.106-0.022-2.231,0.414-3.349,0.48c-1.17,0.073-2.369-0.02-3.492-0.369c0,0-2.885-21.64,10.1-24.04c4.3,2.224,6.957,6.918,7.232,11.674c0.374,6.449-3.318,12.299-7.714,16.696C139.701,106.895,139.327,104.233,137.135,104.174 M119.286,74.511c-1.945,0-3.571,1.621-3.571,3.567s1.626,3.567,3.571,3.567c1.944,0,3.565-1.623,3.565-3.567S121.23,74.511,119.286,74.511z M117.619,78.078c0-2.145,3.329-2.146,3.329,0C120.948,80.225,117.619,80.224,117.619,78.078z"/><path id="patch-shape-04-outline" fill="#010000" d="M176.48,259.131c-1.082-2.029-2.632-3.799-4.486-5.157c-1.921-1.407-4.038-2.145-6.297-2.811c-5.377-1.588-10.708-3.346-15.94-5.361c3.389-8.077,4.371-17.21,5.21-25.846c1.17-12.04,1.568-24.154,1.674-36.246c0.034-3.947,0.032-7.895-0.009-11.842c-0.014-1.338-0.325-3.066,0.046-4.352c0.731-2.535,0.276-5.456,0.177-8.058c-0.173-4.531-0.42-9.063-0.872-13.576c-0.357-3.57-0.784-7.202-1.8-10.653h0.005c-0.445-1.523-1.033-3.018-1.929-4.336c-0.976-1.438-2.331-2.211-3.573-3.346c-1.225-1.118-2.274-2.443-3.234-3.79c-1.311-1.84-2.183-4.064-3.701-5.736c-0.386-0.934-0.607-1.672-0.731-2.212c3.229-0.501,5.382-3.275,7.296-5.686c1.872-2.357,3.475-4.942,4.631-7.726c1.622-3.905,2.322-8.19,1.802-12.398c1.439-4.632,2.401-9.926,0.756-14.638c-1.619-4.638-6.106-7.817-10.089-10.336c-5.608-5.82-10.527-12.765-13.719-20.204c-1.702-3.966-2.956-8.308-2.708-12.663c0.13-2.271,1.088-4.436,0.909-6.719c-0.205-2.623-1.581-5.084-3.744-6.591c-2.854-1.989-6.712-2.033-9.569-0.023c-1.539,1.083-2.785,2.687-3.912,4.174c-1.202,1.588-2.266,3.281-3.172,5.055c-1.313-5.136-7.15-8.194-12.033-5.854c-2.506,1.202-3.811,3.445-4.853,5.911c-1.277,3.023-2.109,6.241-2.488,9.5c-3.853-1.43-8.304,0.046-10.37,3.636c-1.853,3.22-1.397,7.82-0.887,11.354c1.187,8.204,5.409,15.912,12.109,20.884c-3.29,4.085-6.175,8.487-8.802,13.023c-1.5,2.591-2.915,5.23-4.261,7.904c-0.687,1.364-1.356,2.737-2.009,4.119c-0.579,1.224-1.844,2.196-2.747,3.229c-1.465,1.675-2.971,3.307-4.48,4.94c-0.617,0.667-1.17,1.395-1.598,2.198c-0.263,0.495-0.478,1.016-0.637,1.554c-0.178,0.604-0.106,1.616-0.485,2.08c-3.07,3.762-5.668,7.939-8,12.189c-2.341,4.267-4.428,8.695-6.076,13.277c-1.32,3.671-2.54,7.628-2.523,11.569c-1.781,9.961-1.628,20.196,0.709,30.053c0.588,2.479,1.305,4.926,2.138,7.333c0.405,1.169,0.837,2.33,1.296,3.48c0.232,0.582,0.47,1.162,0.715,1.738c0.272,0.641,0.744,1.361,0.774,2.057c0.208,4.764,0.468,9.519,1.337,14.217c-3.625-0.664-7.287-1.16-10.92-1.782c-1.833-0.314-3.665-0.633-5.496-0.957c-1.71-0.302-3.394-0.643-5.141-0.554c-7.498,0.385-13.507,6.806-13.23,14.336l0.351,9.299c0.171,4.541,2.216,8.888,5.573,11.945c1.668,1.519,3.633,2.703,5.756,3.467c2.221,0.799,4.592,1.021,6.91,1.391c10.605,1.687,21.253,3.67,31.489,6.971c2.678,0.863,5.327,1.827,7.904,2.96c1.197,3.748,2.783,7.508,3.429,11.397c0.693,4.17,1.499,8.317,2.271,12.473c1.853,9.967,3.771,19.955,6.362,29.761c1.269,4.802,2.553,10.025,5.218,14.284c0.705,6.77,1.646,13.524,2.903,20.214c0.785,4.179,1.742,8.309,2.879,12.406c1.075,3.873,2.486,7.787,4.701,11.166c0.706,10.09,2.046,20.343,4.352,30.195c1.493,6.384,4.719,16.58,13.332,14.595c4.017,2.383,8.782,1.54,11.834-1.936c0.654-0.745,1.195-1.567,1.609-2.47c2.035-4.432,2.014-9.875,2.002-14.637c-0.014-5.202-0.378-10.401-0.862-15.579c-0.253-2.703,0.43-5.515,0.687-8.225c0.687-7.27,0.997-14.577,1.22-21.873c0.49-16.07,0.699-32.312-0.639-48.35c-0.15-1.801-0.329-3.602-0.576-5.393c-0.189-1.369,0.395-2.844,0.657-4.197c0.406-2.099,0.757-4.208,1.083-6.32c2.89,1.062,5.82,2.097,8.843,2.715c1.009,0.206,2.033,0.324,3.039,0.537c1.934,0.409,3.729,1.163,5.718,1.348c6.995,0.65,13.724-3.634,15.876-10.361l2.081-6.54C178.78,266.857,178.402,262.736,176.48,259.131 M170.611,268.525c-0.691,2.17-1.383,4.34-2.074,6.51c-0.669,2.102-2.27,3.885-4.308,4.741c-1.16,0.487-2.419,0.721-3.677,0.648c-1.305-0.075-2.488-0.552-3.739-0.875c-2.764-0.713-5.606-1.04-8.324-1.936c-1.259-0.415-2.509-0.86-3.753-1.317c-3.246-1.193-6.461-2.471-9.664-3.773c-15.333-6.238-30.523-12.947-45.418-20.173c-2.688-1.304-5.317-2.766-8.052-3.968c-4.017-1.767-8.242-3.061-12.471-4.21c-9.132-2.483-18.462-4.249-27.8-5.756c-2.699-0.436-5.5-0.601-7.834-2.173c-2.568-1.729-4.214-4.629-4.331-7.729c-0.094-2.485-0.188-4.972-0.282-7.457c-0.042-1.093-0.16-2.228,0.042-3.31c0.384-2.042,1.785-3.825,3.663-4.707c2.329-1.093,4.765-0.396,7.169,0.026c2.846,0.5,5.693,0.99,8.544,1.462c2.74,0.454,5.593,0.698,8.273,1.433c2.92,0.801,5.571,2.257,8.389,3.322c0.957,0.357,1.934,0.665,2.919,0.937c0-0.001,0-0.001,0-0.001c0,0,0,0,0,0c1.25,0.326,2.502,0.628,3.772,0.867c1.301,0.244,2.751,0.625,4.078,0.625c0,0.001,0.001,0.001,0.001,0.002c1.22,0.141,2.443,0.273,3.669,0.352h0c1.838,0.126,3.687,0.231,5.53,0.196c1.355,0.051,2.717,0.7,3.854,1.384c1.466,0.882,2.763,2.029,3.916,3.287c1.385,1.513,2.463,2.963,4.427,3.759c3.277,1.328,7.061,1.113,10.486,0.591c2.172-0.332,4.274-1.123,6.47-1.262c0,0.001,0,0.002,0,0.003c0.962-0.061,2.053-0.137,2.96,0.239c1.03,0.426,1.747,1.356,2.276,2.303c0.556,0.993,0.881,2.081,1.388,3.096c0.626,1.252,1.492,2.373,2.448,3.391c2.738,2.913,6.216,5.113,9.69,7.038c8.199,4.54,17.136,7.771,26.047,10.6c1.381,0.438,2.765,0.863,4.152,1.277c1.424,0.425,2.9,0.747,4.173,1.547C170.216,261.396,171.695,265.128,170.611,268.525 M127.474,297.873c-2.156,5.686-4.542,11.338-7.528,16.644c-0.815,1.447-2.071,4.683-4.119,4.518c-2.129-0.193-3.774-2.755-4.864-4.343c-3.129-4.591-5.444-9.76-7.65-14.841c-2.206-5.079-4.229-10.236-6.167-15.423c-3.776-10.07-7.218-20.268-10.495-30.51c1.302,0.642,2.727,1.331,4.255,2.061l0,0c2.794,5.589,5.099,11.261,7.081,17.188c1.929,5.768,3.686,11.597,5.87,17.276c1.123,2.917,2.357,5.791,3.752,8.589c1.411,2.83,2.504,5.803,3.909,8.634c1.001,2.012,3.365,3.228,5.576,2.679c2.369-0.564,3.603-3.128,4.632-5.104c2.339-4.495,3.674-9.437,5.02-14.296c1.561-5.64,3.319-11.226,5.023-16.823l0,0c0.911,0.375,1.801,0.738,2.677,1.094c0,0,0,0,0.001,0C132.743,282.928,130.278,290.494,127.474,297.873 M129.234,273.069c-1.849,6.079-3.732,12.148-5.433,18.271c-1.444,5.199-2.925,10.669-6.006,15.177c-0.597,0.872-1.329,1.473-2.433,1.132c-1.333-0.411-1.768-1.922-2.275-3.069c-1.263-2.851-2.548-5.673-3.875-8.494c-2.631-5.591-4.611-11.446-6.521-17.313c-2.301-7.067-4.524-14.195-7.774-20.897C104.993,262.593,118.047,268.401,129.234,273.069 M74.748,110.887c1.697-1.82,3.333-3.7,4.957-5.585c0.53-0.616,1.167-0.949,1.962-0.534c1.229,0.643,2.326,1.64,3.529,2.352c5.01,2.968,10.46,5.057,15.417,8.138c2.24,1.392,4.475,2.783,6.987,3.637c2.626,0.835,5.363,1.295,8.08,1.728c6.265,0.996,12.605,1.429,18.945,1.514c1.772,0.018,2.365,1.866,3.128,3.133l0,0c0.242,0.403,0.491,0.8,0.746,1.193c0,0,0,0,0.001,0c0.013,0.02,0.025,0.04,0.038,0.06v0c1.677,2.578,3.629,5.128,6.034,7.069c1.05,0.848,1.777,1.3,2.281,2.621c0.364,0.953,0.608,1.952,0.819,2.948c1.242,5.883,1.52,12.008,1.799,17.997c0,0,0,0,0.001,0c0.099,2.317,0.075,4.665,0.253,6.976c-0.001,0-0.001,0-0.001,0c0.03,1.105-0.041,2.298-1.282,2.708c-1.119,0.362-2.265,0.617-3.444,0.617c-2.679-0.024-4.959-1.424-7.38-2.373c-2.43-0.953-4.8-1.015-7.229-0.011c-2.793,1.155-5.18,3.09-7.943,4.307c-4.283,1.886-9.389,1.765-13.924,1.061c-2.603-0.398-5.136-1.1-7.718-1.596c-3.146-0.604-6.332-0.981-9.506-1.406c-5.55-0.744-11.402-1.484-16.449-4.073c-4.88-2.504-8.022-7.318-12.919-9.815l0,0c-0.842-0.43-1.705-0.845-2.535-1.282v0v0c-0.828-0.437-1.788-0.88-2.43-1.58c-0.738-0.861-0.55-1.782-0.315-2.794v0c1.897-8.183,5.241-16.012,9.642-23.158c1.478-2.399,3.076-4.727,4.804-6.953c0.55-0.708,1.112-1.405,1.692-2.088c0.2-0.236,0.402-0.47,0.607-0.701c0.671-0.759,0.005-1.277-0.003-2.055l0,0c-0.009-0.132,0.002-0.262,0.034-0.391c0,0,0,0,0,0C73.594,111.882,74.302,111.375,74.748,110.887 M137.063,104.165c-1.086,0-2.182,0.424-3.277,0.49c-1.17,0.073-2.369-0.02-3.492-0.369c0,0-2.886-21.64,10.1-24.041c4.3,2.224,6.957,6.918,7.232,11.674c0.374,6.449-3.318,12.299-7.714,16.696c-0.187-1.519-0.484-4.005-2.299-4.387c-0.001,0.003-0.002,0.006-0.004,0.009C137.436,104.199,137.242,104.165,137.063,104.165 M122.879,233.822c-0.681-1.769-2.232-5.785-6.038-6.434c-0.046-2.674-0.499-5.182-1.406-7.695c-0.826-2.286-1.743-4.604-1.632-7.08l0,0c0-1.651,0.166-4.155,1.368-5.434c1.155-1.24,3.014-0.283,4.196,0.397c2.977,1.677,7.396,5.336,11.003,3.335c1.87-1.042,2.528-3.402,2.95-5.347c0.604-2.843,0.895-5.73,1.573-8.563c0.673-2.808,1.452-5.633,1.438-8.543c-0.014-2.967-1.025-5.812-1.8-8.644c-1.174-4.296-1.613-8.499-0.021-12.758c2.418,0.26,4.56,1.81,6.852,2.535c2.677,0.847,5.313,0.68,7.963-0.172c0.123,8.639,0.044,17.282-0.203,25.919c-0.243,8.458-0.569,16.941-1.448,25.36l0,0c-0.463,4.491-1.103,8.978-2.1,13.384l0,0c-0.272,1.128-0.557,2.25-0.852,3.372l0,0c-0.913,3.24-2.041,6.786-4.266,9.391C130.643,242.372,124.425,237.848,122.879,233.822 M111.519,227.633c-2.462,0.604-4.89,1.158-7.438,1.281c-1.541,0.074-3.114,0.021-4.621-0.337c-1.694-0.403-2.801-1.197-3.897-2.514c-2.487-2.986-6.431-6.528-10.629-6.528c-2.588,0.026-5.186-0.135-7.758-0.403c-1.527-1.962-2.802-3.884-3.866-6.145c-1.153-2.449-2.051-5.009-2.738-7.626c-1.292-4.925-1.845-10-2.688-15.011c-1.896-11.277-6.93-22.243-6.245-33.859c2.519,1.407,4.51,3.612,6.652,5.51c2.149,1.904,4.45,3.512,7.105,4.629c5.395,2.27,11.327,2.963,17.081,3.72c2.98,0.393,5.972,0.767,8.913,1.402c2.818,0.609,5.602,1.298,8.474,1.627c3.084,0.354,6.217,0.356,9.275-0.208c3.027-0.558,5.62-1.79,8.241-3.363c1.321-0.792,2.642-1.625,4.07-2.212c-1.654,5.662-0.065,10.862,1.395,16.347c0.806,3.028,0.889,5.768,0.239,8.839c-0.575,2.723-1.349,5.394-1.757,8.151c-0.304,2.052-0.507,4.256-1.301,6.192c-0.576,1.404-1.476,1.761-2.921,1.396c-4.021-1.014-9.625-7.472-13.745-3.437c-1.871,1.833-2.165,4.819-2.276,7.296c-0.11,2.457,0.514,4.775,1.347,7.064c0.949,2.607,1.618,5.048,1.678,7.843C112.644,227.365,111.646,227.603,111.519,227.633 M66.34,216.876c-1.668-4.039-2.73-8.292-3.314-12.619c-0.543-4.028-0.597-8.078-0.855-12.127c-0.558-1.186-1.083-2.39-1.58-3.603v0c-4.533-11.073-6.202-23.183-4.493-35.041c0.934,0.629,1.925,1.161,2.914,1.657l0,0c-1.039,11.432,3.585,22.005,5.7,33.015c1.01,5.259,1.544,10.604,2.715,15.833c1.119,4.997,2.838,10.451,5.901,14.625C70.959,218.223,68.604,217.682,66.34,216.876L66.34,216.876 M85.922,45.322c0.143-1.39,1.937-1.127,2.491-0.18c0.801,1.369,1.339,2.852,2.227,4.19c1.78,2.681,4.074,4.99,6.608,6.962c5.151,4.009,11.245,6.725,17.418,8.739c0.218-0.042,0.437-0.079,0.655-0.112c-7.604-3.044-14.607-8.362-17.128-16.452c-1.72-5.521-1.223-11.645,0.9-16.986c0.3-0.755,0.635-1.497,1.012-2.216c0.304-0.583,0.954-0.742,1.523-0.444c0.688,0.361,0.857,1.028,0.874,1.746c0.09,3.741,1.146,7.393,2.776,10.743c3.277,6.733,8.642,12.331,14.348,17.076c-3.529-4.078-5.987-9.074-6.325-14.509c-0.266-4.295,0.772-8.592,2.699-12.421c0.825-1.641,1.812-3.205,2.947-4.649c0.473-0.601,0.972-1.181,1.499-1.733c0.799-0.836,1.942-0.391,2.17,0.722c0.181,0.884-0.373,2.043-0.535,2.922c-0.19,1.036-0.309,2.084-0.362,3.136c-0.103,2.031,0.041,4.07,0.369,6.076c1.31,7.998,5.318,15.426,9.904,22.004c2.636,3.782,5.538,7.451,8.773,10.742c0.023,0.023,0.046,0.047,0.069,0.07h-0.003c2.453,1.485,5.181,3.246,6.986,5.526c1.861,2.352,1.307,6.017,0.724,8.717c-1.181-2.364-2.901-4.474-5.045-6.029c-0.953-0.691-2.114-1.553-3.353-1.437c-0.913,0.085-1.852,0.39-2.706,0.712c-2.98,1.125-5.337,3.334-6.909,6.078c-2.838,4.955-3.409,11.064-3.217,16.672c0.039,1.139,0.112,2.28,0.245,3.412c0.448,3.789,6.113,3.192,8.769,2.643c-0.876,1.965-1.961,4.016-2.515,6.1c-0.544,2.049,0.013,4.312,0.683,6.261c-4.813-0.07-9.626-0.331-14.406-0.914c-4.348-0.53-9.146-0.995-13.181-2.792c-1.854-0.826-3.553-1.951-5.273-3.016c-2.225-1.377-4.517-2.62-6.869-3.767c-2.157-1.053-4.344-2.047-6.461-3.179c-1.029-0.55-2.042-1.134-3.019-1.772c-0.978-0.637-1.882-1.512-3.002-1.889C87.027,91.983,94.21,79.08,102.922,71.38C87.982,66.949,85.148,52.937,85.922,45.322 M134.448,332.825c0,5.029-0.155,10.061-0.295,15.088c0,0,0,0-0.001,0.001c-0.177,5.618-0.42,11.237-0.836,16.843c-0.266,3.579-0.502,7.23-1.256,10.748c0.521,4.891,1.068,9.891,1.068,14.815l0,0c0.123,4.015,0.017,7.953-0.644,11.913c-0.299,1.346-0.96,3.844-2.764,3.733c-1.904-0.117-3.444-2.46-4.396-3.854c-0.342,0.884-1.067,2.939-2.335,2.833c-1.146-0.097-1.831-1.794-2.213-2.668c-2.079-4.762-2.926-10.226-3.747-15.319l0.001-0.001c-1.491-8.928-2.47-18.594-2.604-22.354c-1.765-1.853-3.309-5.456-4.636-9.854c0,0-0.001,0-0.001-0.001c-1.915-6.51-3.167-13.2-4.189-19.903c-0.001,0-0.001,0-0.001,0c-0.688-4.581-1.302-9.177-1.72-13.791c-0.001,0-0.001,0-0.001,0c-0.012-0.12-0.025-0.256-0.033-0.371c-0.518-0.463-0.894-1.097-1.227-1.698c0-0.226-0.348-0.673-0.448-0.885c-0.216-0.455-0.416-0.919-0.605-1.386c-0.457-1.127-0.857-2.277-1.231-3.434c-0.966-2.985-1.765-6.024-2.512-9.071c-1.903-7.757-3.455-15.6-4.937-23.445c3.942,10.87,7.954,22.043,13.717,32.105c1.6,2.793,3.442,5.92,6.141,7.803c2.162,1.51,4.933,1.517,6.837-0.54c1.817-1.963,3.066-4.77,4.275-7.129c1.307-2.549,2.501-5.154,3.623-7.788c2.35-5.511,4.404-11.149,6.205-16.862c-0.271,1.379-0.54,2.78-0.982,4.117c0.51,2.666,0.899,6.62,1.181,11.382c0,0.001,0.001,0.001,0.001,0.001C134.367,313.511,134.448,323.156,134.448,332.825 M119.285,70.944c-3.884,0-7.138,3.249-7.138,7.134s3.253,7.137,7.138,7.137s7.136-3.253,7.136-7.137S123.168,70.944,119.285,70.944 M119.286,81.645c-1.945,0-3.571-1.621-3.571-3.567s1.626-3.567,3.571-3.567c1.944,0,3.565,1.623,3.565,3.567S121.23,81.645,119.286,81.645 M120.948,78.078c0,2.147-3.329,2.146-3.329,0C117.619,75.934,120.948,75.932,120.948,78.078 M120.948,78.078c0,2.147-3.329,2.146-3.329,0C117.619,75.934,120.948,75.932,120.948,78.078"/></svg>